<svg width="35" height="34" viewBox="0 0 35 34" fill="none" xmlns="http://www.w3.org/2000/svg">
<path fill-rule="evenodd" clip-rule="evenodd" d="M17.5003 25.2175C17.5003 25.3826 17.8072 25.5194 18.1897 25.5194C18.5722 25.5194 18.8791 25.3826 18.8791 25.2175C18.8791 25.0524 18.5722 24.9157 18.1897 24.9157C17.8072 24.9157 17.5003 25.0477 17.5003 25.2175ZM20.8625 23.6281C20.8625 23.6281 23.8989 24.0762 25.528 23.1706C26.9022 22.4066 27.0155 20.1475 27.0155 20.1475C27.0155 20.1475 24.6166 19.9918 23.2141 20.6097C21.1175 21.5246 20.8578 23.6187 20.8578 23.6187L20.8625 23.6281ZM13.0755 20.6049C11.673 19.9871 9.27414 20.1427 9.27414 20.1427C9.27414 20.1427 9.38747 22.4019 10.7616 23.1659C12.3955 24.0714 15.4272 23.6234 15.4272 23.6234C15.4272 23.6234 15.1722 21.5246 13.0755 20.6049ZM6.10553 12.6909C5.89775 14.0304 6.14331 15.4028 6.39831 16.7281C6.49747 16.9404 6.70997 17.0818 6.97442 17.1715C6.4172 18.3411 6.13386 19.5768 6.13386 20.8691C6.13386 26.4013 11.4889 30.8912 18.0953 30.8912C24.7016 30.8912 30.0614 26.4107 30.0614 20.8691C30.0614 19.5579 29.7733 18.3128 29.2066 17.1337C29.4286 17.0441 29.6033 16.9121 29.6883 16.7234C29.9433 15.4028 30.1841 14.0257 29.9764 12.6862C29.7828 10.8893 29.1641 10.3422 27.3178 10.8044C26.378 11.0214 25.1361 11.5779 24.1822 12.2335C22.3972 11.3468 20.3147 10.8421 18.0905 10.8421C15.8428 10.8421 13.7366 11.3609 11.9375 12.2665C10.9789 11.6015 9.71331 11.0308 8.75942 10.8091C6.91775 10.3516 6.30386 10.8987 6.10553 12.6909Z" fill="#FFF2D1"/>
<path fill-rule="evenodd" clip-rule="evenodd" d="M28.177 26.7C27.7661 26.4453 27.3411 26.2283 26.8973 26.0397V26.035C26.8406 26.0019 26.8075 25.9548 26.7886 25.8888C26.7745 25.8274 26.7792 25.7661 26.8123 25.7095C26.8453 25.6529 26.8973 25.6199 26.9586 25.6011C27.02 25.5822 27.0814 25.5916 27.1381 25.6246C28.0589 26.0255 29.027 26.5396 29.6267 27.3744C29.6598 27.431 29.6692 27.4923 29.6503 27.5536C29.6361 27.6149 29.5984 27.6668 29.5417 27.6998C29.485 27.7328 29.4236 27.7376 29.3623 27.7234C29.3009 27.7093 29.2536 27.6715 29.2159 27.6149C28.9514 27.2376 28.5642 26.9452 28.177 26.7ZM27.6575 24.903C28.2148 24.9172 28.7625 25.0115 29.2961 25.1766C29.57 25.252 29.8392 25.3511 30.0942 25.4737C30.3161 25.5728 30.5239 25.7001 30.7081 25.8605C30.93 26.068 31.2653 25.7331 31.0434 25.5256C30.6089 25.1247 30.0092 24.8983 29.452 24.7333C28.8664 24.5493 28.2714 24.4456 27.6575 24.4314C27.3506 24.4314 27.3506 24.903 27.6575 24.903ZM9.15586 25.6199C8.68364 25.8227 8.22558 26.068 7.79586 26.3462C7.3567 26.6198 6.97892 26.9594 6.66253 27.3697C6.62947 27.4263 6.62003 27.4876 6.63892 27.5489C6.65309 27.6102 6.69086 27.6621 6.74753 27.6951C6.8042 27.7281 6.86558 27.7328 6.92697 27.7187C6.98836 27.7045 7.04031 27.6668 7.07336 27.6102C7.33781 27.2423 7.72031 26.9594 8.09809 26.7188C8.51364 26.4547 8.94336 26.2283 9.3967 26.035C9.45336 26.0019 9.49114 25.9548 9.50531 25.8888C9.5242 25.8274 9.51475 25.7661 9.4817 25.7095C9.44864 25.6529 9.40142 25.6199 9.33531 25.6011C9.2692 25.5822 9.20781 25.5869 9.15586 25.6199ZM6.82309 24.7427C7.40864 24.5587 8.00364 24.455 8.61753 24.4408C8.91975 24.4408 8.91975 24.9125 8.61753 24.9125C8.06031 24.9266 7.51253 25.0209 6.98364 25.186C6.48781 25.3322 5.92586 25.535 5.56697 25.8699C5.34503 26.0774 5.00975 25.7425 5.23169 25.535C5.66614 25.1294 6.26586 24.9078 6.82309 24.7427ZM4.41475 23.3891C5.58586 22.9411 6.79475 22.71 8.05086 22.71V22.7147C8.35308 22.7147 8.35308 23.1863 8.05086 23.1863C6.85142 23.191 5.66142 23.4127 4.54225 23.8466C4.48086 23.8655 4.41947 23.856 4.36281 23.823C4.30614 23.79 4.26836 23.7428 4.24947 23.6815C4.23531 23.6202 4.24003 23.5589 4.27308 23.5023C4.30614 23.4457 4.35336 23.408 4.41475 23.3891ZM31.7328 23.8277C30.6042 23.3938 29.4331 23.1721 28.2242 23.1674C27.922 23.1674 27.922 22.6958 28.2242 22.6958C29.4756 22.7005 30.6892 22.9269 31.8603 23.375C31.9217 23.3938 31.9689 23.4315 31.9973 23.4881C32.0303 23.5447 32.035 23.6013 32.0209 23.6626C32.002 23.724 31.9642 23.7711 31.9075 23.8041C31.8556 23.8372 31.7942 23.8466 31.7328 23.8277Z" fill="#FFF2D1"/>
<path d="M2.19933 17.6616L2.19827 17.6633C2.08692 17.8388 2.05507 18.0532 2.13096 18.2603C2.19567 18.437 2.32057 18.5582 2.41829 18.6347C2.61478 18.7884 2.89054 18.9054 3.16056 18.9978C3.71983 19.1891 4.47301 19.3453 5.15376 19.453L5.15429 19.4531C5.86826 19.5653 7.79013 19.6633 10.158 19.7296C12.5428 19.7964 15.4222 19.8318 18.0799 19.8129C20.7364 19.794 23.4469 19.7492 25.6989 19.6735C27.9354 19.5983 29.7589 19.4919 30.6144 19.3433L30.6147 19.3433C30.8209 19.3074 31.0317 19.2722 31.2411 19.2373C31.832 19.1387 32.4122 19.042 32.8486 18.9348C33.1318 18.8653 33.4323 18.7745 33.6401 18.6362C33.7421 18.5683 33.9057 18.4346 33.9633 18.2083C34.0294 17.9489 33.919 17.7352 33.8083 17.6061C33.649 17.4189 33.4047 17.244 33.1449 17.0869C32.8737 16.923 32.5436 16.7538 32.1785 16.5871C31.4496 16.2544 30.5548 15.9198 29.6551 15.648C29.5952 15.6282 29.5334 15.6099 29.4709 15.5928C28.8296 14.3189 27.3575 11.4605 26.2329 9.82352C25.2534 8.39541 23.6776 6.2983 22.1237 4.55315C21.3476 3.68167 20.5661 2.88554 19.8594 2.30316C19.5063 2.01218 19.1606 1.7652 18.8346 1.58874C18.5212 1.41907 18.1827 1.29065 17.8496 1.28711C17.103 1.25007 16.5456 1.34577 16.0104 1.55473C15.588 1.7196 15.1804 1.95692 14.7298 2.21925C14.6357 2.27402 14.5397 2.32988 14.4414 2.3864L14.4413 2.38647C13.7977 2.75655 13.2846 3.10905 12.7688 3.47228C12.6959 3.52355 12.6232 3.57498 12.55 3.62669C12.104 3.9418 11.6431 4.26746 11.0696 4.63343C11.0086 4.67207 10.9455 4.71173 10.8815 4.75195C10.7504 4.8343 10.6156 4.91901 10.4875 5.00212C10.0753 5.262 9.67707 5.54683 9.29776 5.85679L9.29772 5.85675L9.29194 5.86162C9.12382 6.00329 8.96109 6.15975 8.81191 6.33633L8.80462 6.34496L8.79773 6.35391C8.79579 6.35643 8.79341 6.3595 8.79064 6.36306C8.76782 6.39246 8.7188 6.45559 8.67574 6.52233C8.65121 6.56035 8.6208 6.61126 8.59505 6.66904C8.57324 6.71798 8.53331 6.81794 8.53331 6.94198C8.53331 7.12287 8.57727 7.30945 8.68236 7.48121L8.69706 7.50523L8.71437 7.52745C8.81213 7.65298 8.91999 7.75225 9.0288 7.83677L9.04063 7.84597L9.053 7.85444C9.42584 8.10978 9.81323 8.33926 10.2131 8.54482C10.2002 8.56821 10.1869 8.59231 10.1732 8.61705C9.99608 8.93757 9.75909 9.36503 9.52182 9.79301L9.52157 9.79345C9.28434 10.2213 9.04685 10.6497 8.86927 10.9711C8.78052 11.1317 8.70641 11.2662 8.65465 11.3607C8.62889 11.4078 8.60805 11.4461 8.59356 11.4731C8.58655 11.4862 8.57979 11.4989 8.5744 11.5094C8.57309 11.5119 8.57093 11.5161 8.56841 11.5212C7.85496 12.813 7.24802 14.1552 6.7435 15.5435C5.62884 15.8471 4.62405 16.234 3.85421 16.593C3.44021 16.786 3.0878 16.974 2.81941 17.1402C2.68563 17.2231 2.56649 17.3044 2.46874 17.3819C2.38158 17.4509 2.27315 17.5462 2.19933 17.6616Z" fill="#261340" stroke="#FFF2D1"/>
<path d="M27.6532 13.1878C27.6532 13.1878 24.1588 12.3105 18.001 12.3105C11.3899 12.3105 8.20712 13.3293 8.20712 13.3293C8.20712 13.3293 7.82934 14.0462 7.66407 14.4612C7.49879 14.8762 7.12573 15.9563 7.12573 15.9563C7.12573 15.9563 11.933 15.0979 18.0907 15.0979C21.7977 15.112 25.4952 15.428 29.1549 16.0317C29.1549 16.0317 28.5977 14.7253 28.2624 14.1688C28.0641 13.8434 27.861 13.5132 27.6532 13.1878Z" fill="#FFF2D1"/>
<path d="M6.85624 5.80171C7.25763 5.74511 7.80068 6.97135 7.80068 6.97135C7.80068 6.97135 9.06152 6.63178 9.25513 6.97135C9.45346 7.31093 8.36735 8.12214 8.36735 8.12214C8.36735 8.12214 9.01902 9.27292 8.81124 9.50874C8.60346 9.74927 7.43707 9.02296 7.43707 9.02296C7.43707 9.02296 6.54929 10.0228 6.26124 9.87189C5.97318 9.72097 6.29902 8.41455 6.29902 8.41455C6.29902 8.41455 5.04291 7.88161 5.12791 7.56089C5.21291 7.2449 6.52568 7.14586 6.52568 7.14586C6.52568 7.14586 6.45485 5.86302 6.85624 5.80171Z" fill="#FFF2D1"/>
</svg>
