<svg width="68" height="76" viewBox="0 0 68 76" fill="none" xmlns="http://www.w3.org/2000/svg">
<path d="M51.9807 45.0358C52.0174 44.5372 52.0173 44.5372 52.0171 44.5372L52.0168 44.5371L52.0159 44.5371L52.0126 44.5368L52.0011 44.536L51.9582 44.5332C51.921 44.5309 51.8668 44.5277 51.7974 44.5242C51.6586 44.5172 51.4585 44.5088 51.2102 44.5032C50.7141 44.4919 50.0233 44.4916 49.2436 44.5353C47.7023 44.6217 45.7444 44.8834 44.2672 45.6212C42.0665 46.7109 40.8379 48.4996 40.163 49.993C39.8251 50.7407 39.6227 51.4208 39.5044 51.9154C39.4452 52.1631 39.4069 52.3653 39.3831 52.5075C39.3712 52.5786 39.363 52.6348 39.3576 52.6742C39.3561 52.6848 39.3549 52.6943 39.3538 52.7024C39.3529 52.7094 39.3522 52.7155 39.3515 52.7206L39.3499 52.734L39.3495 52.7382L39.3493 52.7397L39.3492 52.7402C39.3492 52.7405 39.3492 52.7407 39.8462 52.795L39.3492 52.7407L39.3346 52.8741L39.3888 52.997L39.3981 53.0181L39.507 53.2647L39.773 53.3092L39.8555 52.8161C39.773 53.3092 39.7731 53.3093 39.7733 53.3093L39.7737 53.3094L39.7749 53.3096L39.779 53.3102L39.7935 53.3126L39.8477 53.3211C39.8947 53.3283 39.963 53.3384 40.0506 53.3505C40.2257 53.3746 40.4778 53.4066 40.7899 53.4384C41.4134 53.5019 42.2794 53.5652 43.2493 53.5639C45.1632 53.5612 47.5845 53.3082 49.3161 52.2165L49.3161 52.2164C50.8388 51.2561 51.6127 49.4038 52.0136 47.9033C52.218 47.1379 52.3343 46.4301 52.3995 45.9143C52.4322 45.6559 52.4522 45.4444 52.4642 45.2963C52.4701 45.2223 52.4741 45.164 52.4766 45.1236L52.4793 45.0766L52.4799 45.0636L52.4801 45.0599L52.4801 45.0587L52.4802 45.0582C52.4802 45.0581 52.4802 45.0579 51.9807 45.0358ZM51.9807 45.0358L52.0174 44.5372L52.5016 44.5728L52.4802 45.0579L51.9807 45.0358ZM17.0197 45.0253C16.5202 45.0474 16.5202 45.0475 16.5202 45.0477L16.5202 45.0481L16.5203 45.0493L16.5204 45.0531L16.5211 45.0661L16.5238 45.1131C16.5263 45.1535 16.5302 45.2117 16.5362 45.2858C16.5481 45.4338 16.5682 45.6453 16.6008 45.9037C16.6661 46.4196 16.7823 47.1274 16.9868 47.8927C17.3877 49.3932 18.1615 51.2455 19.6842 52.2059L19.6848 52.2063C21.4208 53.2976 23.8415 53.5507 25.7546 53.5533C26.7239 53.5547 27.589 53.4914 28.2118 53.4278C28.5235 53.396 28.7754 53.3641 28.9503 53.3399C29.0377 53.3279 29.1059 53.3177 29.1529 53.3105L29.207 53.302L29.2215 53.2997L29.2256 53.299L29.2268 53.2988L29.2272 53.2987C29.2274 53.2987 29.2275 53.2987 29.1448 52.8056M17.0197 45.0253C16.983 44.5266 16.9831 44.5266 16.9832 44.5266L16.9835 44.5266L16.9845 44.5265L16.9877 44.5263L16.9993 44.5255L17.0422 44.5227C17.0794 44.5204 17.1335 44.5172 17.2029 44.5137C17.3417 44.5066 17.5419 44.4983 17.7902 44.4926C18.2863 44.4814 18.9771 44.481 19.7568 44.5248C21.2984 44.6112 23.2568 44.873 24.7342 45.6112C26.9349 46.7064 28.1608 48.5007 28.8332 49.9981C29.1699 50.7477 29.371 51.4295 29.4883 51.9253C29.5471 52.1735 29.585 52.3762 29.6085 52.5186C29.6203 52.5899 29.6284 52.6462 29.6337 52.6857C29.6364 52.7055 29.6383 52.7211 29.6397 52.7322L29.6412 52.7457L29.6417 52.7499L29.6419 52.7513L29.6419 52.7519C29.642 52.7521 29.642 52.7523 29.1448 52.8056M17.0197 45.0253L16.5202 45.0474L16.4987 44.5623L16.983 44.5266L17.0197 45.0253ZM29.1448 52.8056L29.2275 53.2987L29.6922 53.2208L29.642 52.7523L29.1448 52.8056ZM11.2711 28.4361L11.2724 28.4265L11.2733 28.4169C11.469 26.411 11.8624 25.2979 12.4984 24.7616C13.0986 24.2556 14.0817 24.1393 15.8698 24.6432L15.8698 24.6432L15.8779 24.6454C17.6817 25.1209 20.115 26.3615 21.9588 27.8124L22.2235 28.0207L22.5159 27.8537C25.9867 25.8722 30.0516 24.7357 34.3932 24.7357C38.6896 24.7357 42.7089 25.8413 46.1519 27.7813L46.4421 27.9448L46.7047 27.74C48.5399 26.3094 50.9269 25.1002 52.7029 24.6351L52.7029 24.6352L52.7128 24.6324C54.5059 24.1232 55.4934 24.2376 56.0953 24.7436C56.7327 25.2795 57.1265 26.3941 57.3175 28.4051L57.3185 28.4153L57.3199 28.4255C57.7149 31.3145 57.2642 34.3009 56.7645 37.2408C56.652 37.4871 56.4314 37.6884 56.0902 37.8447L55.6485 38.047L55.8381 38.4943C56.9284 41.0677 57.4827 43.7845 57.4827 46.6488C57.4827 58.7359 47.1695 68.5514 34.4025 68.5514C21.636 68.5514 11.3315 58.7153 11.3315 46.6488C11.3315 43.8263 11.8767 41.13 12.9489 38.5772L13.1485 38.1019L12.6673 37.9169C12.2428 37.7537 11.9684 37.5285 11.8352 37.248C11.3353 34.2971 10.8762 31.3234 11.2711 28.4361ZM32.73 56.3689C32.73 56.8462 33.1065 57.1438 33.4032 57.292C33.7315 57.4558 34.1507 57.5436 34.5886 57.5436C35.0264 57.5436 35.4457 57.4558 35.7739 57.292C36.0707 57.1438 36.4472 56.8462 36.4472 56.3689C36.4472 55.8916 36.0707 55.594 35.7739 55.4458C35.4457 55.2819 35.0264 55.1942 34.5886 55.1942C34.1535 55.1942 33.7344 55.2783 33.4052 55.4409C33.1032 55.5901 32.73 55.8884 32.73 56.3689Z" fill="#FFF2D1" stroke="#FFF2D1"/>
<path d="M54.5614 59.2753L54.5572 59.2724C53.7521 58.7063 52.9208 58.2217 52.0559 57.7992L52.0302 57.7823C52.0282 57.7775 52.0252 57.7695 52.0217 57.7575C52.0203 57.7489 52.0195 57.7414 52.0192 57.7351C53.3248 58.3808 54.6288 59.1378 55.6661 60.1717C55.3088 59.836 54.9302 59.5404 54.5614 59.2753ZM56.6324 55.8016C55.5492 55.4223 54.4331 55.2025 53.2945 55.166C53.2932 55.1575 53.2924 55.148 53.2924 55.1377C53.2924 55.1285 53.293 55.1199 53.2941 55.1122C54.4256 55.1484 55.5259 55.3684 56.6143 55.7563L56.6143 55.7563L56.6229 55.7592C57.6859 56.1164 58.7497 56.5809 59.515 57.3589C59.138 57.0052 58.7205 56.7214 58.2804 56.4978C57.7522 56.2103 57.1965 55.9785 56.6324 55.8016ZM16.994 57.7225C16.9941 57.7231 16.9941 57.7236 16.9942 57.724C16.9946 57.7272 16.9946 57.7308 16.9929 57.7371L16.9878 57.756L16.9844 57.7737C16.0862 58.2124 15.2339 58.7241 14.41 59.318L14.4096 59.3183C14.0827 59.5544 13.7452 59.8144 13.4212 60.1061C13.7258 59.8114 14.0505 59.5428 14.3953 59.2991L14.3954 59.2992L14.4028 59.2937C15.2226 58.6916 16.0955 58.1611 16.994 57.7225ZM12.3491 55.7803L12.3492 55.7804L12.3577 55.7773C13.4439 55.3903 14.542 55.1704 15.671 55.1335C15.672 55.1412 15.6727 55.1497 15.6727 55.1588C15.6727 55.1691 15.6719 55.1787 15.6706 55.1873C14.5332 55.2245 13.4177 55.4447 12.3435 55.8245C11.4416 56.1264 10.3387 56.5617 9.54538 57.2912C10.3014 56.5589 11.3227 56.1252 12.3491 55.7803ZM7.61666 52.75L7.62611 52.7467L7.6431 52.7394C9.73506 51.8315 11.8845 51.3346 14.1093 51.2698V51.2731H14.5541C14.5553 51.2814 14.556 51.2905 14.556 51.3002C14.556 51.3101 14.5553 51.3193 14.5541 51.3277C12.1787 51.3454 9.82307 51.8391 7.60361 52.7978C7.60337 52.7911 7.60363 52.7857 7.60405 52.7817C7.60494 52.7731 7.60675 52.7678 7.60941 52.7626C7.61234 52.7569 7.61481 52.7528 7.61666 52.75ZM61.3592 52.7521C59.1271 51.7962 56.8093 51.3031 54.4179 51.2855C54.4167 51.2772 54.416 51.2679 54.416 51.2581C54.416 51.2485 54.4167 51.2395 54.4178 51.2313C56.7945 51.2491 59.1 51.7405 61.3289 52.7077L61.3452 52.7148L61.3464 52.7177L61.3533 52.731C61.3582 52.7405 61.3586 52.7445 61.3589 52.7469C61.359 52.7479 61.3591 52.7496 61.3592 52.7521ZM54.3627 51.7852C53.7671 51.7852 53.7671 50.731 54.3627 50.731V51.7852Z" fill="#FFF2D1" stroke="#362745"/>
<path d="M3.9086 40.0819C4.33666 39.3228 8.11471 37.0351 12.7861 35.6752C13.8004 32.4176 15.038 29.276 16.5083 26.2608C16.4897 26.2608 20.2492 18.6071 20.2305 18.6071C19.1511 18.0483 18.1182 17.3947 17.1411 16.6356C16.9736 16.488 16.8247 16.3299 16.6944 16.1402C16.5921 15.9504 16.5455 15.7395 16.5455 15.5181C16.5455 15.3389 16.7689 15.0227 16.8619 14.8856C17.1132 14.5483 17.3924 14.2425 17.6901 13.9579C18.4067 13.2937 19.1604 12.6822 19.9421 12.1235C20.3143 11.8494 20.7051 11.5753 21.0867 11.3012C23.7667 9.3614 25.2369 7.90655 27.6936 6.30411C30.0386 4.77546 31.1739 3.83719 33.8911 3.99533C37.3062 3.99533 45.8022 16.2667 49.6268 22.5921C51.9253 26.3873 55.0054 33.2399 56.1407 35.8122C56.4105 35.886 56.6618 35.9598 56.8851 36.0442C60.3654 37.2354 63.7899 38.9749 64.618 40.0819C65.3625 41.0623 62.1055 41.5051 58.9044 42.1377C55.694 42.7702 44.8251 43.0865 34.3657 43.1708C23.9155 43.2551 11.716 42.8545 9.05457 42.3801C6.41179 41.9057 3.37818 41.0307 3.9086 40.0819Z" fill="#6665DD"/>
<path d="M53.2371 29.478C53.2371 29.478 46.351 27.5171 34.2166 27.5171C21.1888 27.5171 14.9169 29.7942 14.9169 29.7942C14.9169 29.7942 14.1724 31.3967 13.8467 32.3244C13.521 33.2521 12.7859 35.6663 12.7859 35.6663C12.7859 35.6663 22.2589 33.7476 34.3934 33.7476C41.6982 33.7793 48.9845 34.4856 56.1963 35.835C56.1963 35.835 55.0982 32.9148 54.4375 31.6708C54.0467 30.9434 53.6466 30.2054 53.2371 29.478Z" fill="#FF99A5"/>
<path d="M12.255 12.9681C13.046 12.8416 14.1161 15.5826 14.1161 15.5826C14.1161 15.5826 16.6007 14.8236 16.9823 15.5826C17.3731 16.3417 15.2328 18.155 15.2328 18.155C15.2328 18.155 16.517 20.7273 16.1075 21.2544C15.6981 21.7921 13.3996 20.1686 13.3996 20.1686C13.3996 20.1686 11.6502 22.4035 11.0825 22.0662C10.5149 21.7288 11.157 18.8086 11.157 18.8086C11.157 18.8086 8.6817 17.6173 8.8492 16.9004C9.0167 16.1941 11.6036 15.9727 11.6036 15.9727C11.6036 15.9727 11.4641 13.1052 12.255 12.9681Z" fill="#FFF2D1"/>
</svg>
