<svg width="27" height="28" viewBox="0 0 27 28" fill="none" xmlns="http://www.w3.org/2000/svg">
<path d="M13.5001 6.00033C14.2365 6.00033 14.8334 6.59728 14.8334 7.33366V15.3337C14.8334 16.07 14.2365 16.667 13.5001 16.667C12.7637 16.667 12.1667 16.07 12.1667 15.3337V7.33366C12.1667 6.59728 12.7637 6.00033 13.5001 6.00033Z" fill="#FFF2D1"/>
<path d="M13.5001 19.3337C12.7637 19.3337 12.1667 19.9306 12.1667 20.667C12.1667 21.4034 12.7637 22.0003 13.5001 22.0003C14.2365 22.0003 14.8334 21.4034 14.8334 20.667C14.8334 19.9306 14.2365 19.3337 13.5001 19.3337Z" fill="#FFF2D1"/>
<path fill-rule="evenodd" clip-rule="evenodd" d="M13.5001 0.666992C6.13629 0.666992 0.166748 6.63653 0.166748 14.0003C0.166748 21.3641 6.13629 27.3337 13.5001 27.3337C20.8639 27.3337 26.8334 21.3641 26.8334 14.0003C26.8334 6.63653 20.8639 0.666992 13.5001 0.666992ZM2.83341 14.0003C2.83341 19.8914 7.60904 24.667 13.5001 24.667C19.3911 24.667 24.1667 19.8914 24.1667 14.0003C24.1667 8.10929 19.3911 3.33366 13.5001 3.33366C7.60904 3.33366 2.83341 8.10929 2.83341 14.0003Z" fill="#FFF2D1"/>
</svg>
