<svg width="28" height="30" viewBox="0 0 28 30" fill="none" xmlns="http://www.w3.org/2000/svg">
<path d="M3.4573 26.495H21.281L20.4298 23.7387L22.4661 25.4862L24.3323 27.1587L27.7323 30V3.09375C27.6473 1.42125 26.2073 0 24.4223 0L3.46355 0.00375C1.6798 0.00375 0.2323 1.4275 0.2323 3.1V23.4C0.2323 25.1637 1.6773 26.495 3.4573 26.495ZM16.6423 7.10375L16.601 7.11875L16.6161 7.10375H16.6423ZM7.10355 8.69C9.3948 7.0225 11.5186 7.1025 11.5186 7.1025L11.6898 7.27125C8.88605 7.94 7.6148 9.1925 7.6148 9.1925C7.6148 9.1925 7.9548 9.02625 8.54855 8.7725C12.3248 7.2875 16.4486 7.395 20.2661 9.275C20.2661 9.275 18.9923 8.10375 16.361 7.35375L16.5935 7.125C16.9573 7.12625 18.8823 7.19375 20.9423 8.7C20.9423 8.7 23.2473 12.6375 23.2473 17.475C23.1711 17.3825 21.8173 19.5575 18.3335 19.6325C18.3335 19.6325 17.7436 18.965 17.3236 18.3825C19.3611 17.7975 20.1235 16.6275 20.1235 16.6275C19.4548 17.0487 18.8448 17.2987 18.3498 17.5487C17.5886 17.8837 16.826 18.0487 16.0648 18.2175C12.4598 18.8025 10.436 17.8237 8.52355 17.0475L7.8698 16.715C7.8698 16.715 8.63105 17.885 10.5873 18.47C10.0736 19.0562 9.5648 19.7225 9.5648 19.7225C6.0823 19.64 4.8123 17.465 4.8123 17.465C4.8123 12.62 7.10355 8.69 7.10355 8.69Z" fill="#FFF2D1"/>
</svg>
