<svg width="38" height="48" viewBox="0 0 38 48" fill="none" xmlns="http://www.w3.org/2000/svg">
<path d="M34.8551 4.82247L34.8561 4.82317C35.5136 5.27624 35.9282 5.6864 36.2064 6.25154L34.8551 4.82247ZM34.8551 4.82247L34.8197 4.79821L34.8189 4.79761M34.8551 4.82247L34.8189 4.79761M34.8189 4.79761C34.6759 4.7001 34.5204 4.59919 34.3342 4.48259L34.3322 4.48136M34.8189 4.79761L34.3322 4.48136M34.3322 4.48136L34.1171 4.34805L34.1143 4.34636M34.3322 4.48136L34.1143 4.34636M34.1143 4.34636L33.8766 4.20117L34.3107 3.47494M34.1143 4.34636L34.3107 3.47494M34.3107 3.47494L34.616 3.66152M33.6485 8.24328L33.6544 8.29987V39.596L33.6532 39.6214C33.634 40.0262 33.3811 40.4849 32.7767 40.8121L32.7766 40.8122L21.1715 47.0984C20.6905 47.3588 20.0591 47.5 19.4069 47.5C18.7548 47.5 18.1234 47.3588 17.6426 47.0984L6.03732 40.8122L5.80129 41.2479L6.0373 40.8122C5.45358 40.496 5.21028 40.0443 5.18541 39.6308L5.1851 39.6236L5.18374 39.5932L5.18348 39.5859L5.18252 39.586V8.27164L5.18575 8.22926C5.21445 7.8528 5.44522 7.44547 6.03556 7.12856L5.81842 6.72407L6.03556 7.12855L17.6408 0.898453C17.6408 0.89845 17.6408 0.898448 17.6408 0.898445C18.1221 0.640074 18.7541 0.5 19.4069 0.5C20.0598 0.5 20.6917 0.640074 21.1731 0.898445C21.1731 0.898448 21.1731 0.89845 21.1731 0.898453L32.7783 7.12855L32.7783 7.12857C33.3542 7.43771 33.6087 7.86382 33.6485 8.24328ZM6.68049 25.2761L5.94442 24.8819V25.7169V39.5096V39.8081L6.20726 39.9497L17.1641 45.8532C17.1647 45.8535 17.1652 45.8538 17.1658 45.8541C17.7811 46.1913 18.5392 46.5935 19.3158 46.6246L19.3158 46.6247L19.3243 46.6249L19.3954 46.6266L19.3954 46.6267L19.4052 46.6267C20.1245 46.6291 20.7954 46.2969 21.3482 46.0195L21.124 45.5726L21.3482 46.0195L21.5539 45.9163L21.5612 45.9127L21.5683 45.9088L32.6312 39.8988L32.8925 39.7568V39.4594V25.8387V25.0038L32.1564 25.398L21.3036 31.2106C20.8299 31.4642 20.2106 31.604 19.5683 31.6091C18.9272 31.6141 18.302 31.4845 17.8169 31.2395C17.8162 31.2392 17.8154 31.2388 17.8147 31.2385L17.7582 31.2091L6.68049 25.2761ZM2.01251 42.0588C1.70684 41.4107 1.54283 40.6021 1.50638 39.4898H2.33725C2.37169 40.4571 2.51277 41.1843 2.79061 41.7484C3.06893 42.3136 3.48346 42.7237 4.14088 43.1768L4.14198 43.1775L4.17737 43.2018L4.17798 43.2022C4.32112 43.3 4.47682 43.4008 4.66258 43.5173L4.66495 43.5188L4.88003 43.652L4.88268 43.6536L5.12045 43.7988L4.68636 44.5251L4.38102 44.3384L4.37799 44.3366L4.25789 44.262C4.25763 44.2618 4.25738 44.2617 4.25712 44.2615C4.04752 44.1306 3.87652 44.0198 3.71859 43.9121C2.88432 43.3429 2.35061 42.7757 2.01251 42.0588ZM20.5278 16.8966L19.8798 16.6959V17.3742V30.1343V30.8127L20.5278 30.6119C20.6626 30.5702 20.7958 30.5172 20.9205 30.4503C20.9207 30.4502 20.9209 30.4501 20.9211 30.4499L32.5533 24.2203L32.5542 24.2198C32.5712 24.2106 32.5873 24.2016 32.6024 24.1929L32.6052 24.1912L32.615 24.1855L33.352 23.7529L32.6138 23.3224L32.5955 23.3117L32.5956 23.3116L32.5851 23.3058L32.5587 23.2912L32.5587 23.2912L32.5533 23.2883L20.9211 17.0586C20.7962 16.9915 20.6628 16.9384 20.5278 16.8966ZM19.1176 17.3963V16.6942L18.4541 16.9238C18.3471 16.9608 18.2429 17.0053 18.144 17.0583C18.1439 17.0583 18.1438 17.0583 18.1438 17.0584L6.51287 23.2875C6.51255 23.2877 6.51222 23.2878 6.5119 23.288C6.49298 23.2981 6.4762 23.3076 6.46541 23.3138L6.46484 23.3141L6.46482 23.3141L6.4593 23.3173L6.44953 23.3231L5.71249 23.7556L6.45073 24.1862L6.46899 24.1968L6.4689 24.197L6.48046 24.2033L6.50705 24.2179L6.50704 24.2179L6.51141 24.2203L18.1438 30.4502C18.2427 30.5032 18.3471 30.5477 18.4541 30.5847L19.1176 30.8143V30.1122V17.3963ZM6.68091 9.92779L5.94442 9.53243V10.3683V21.7913V22.6263L6.68048 22.2321L17.3325 16.5273L18.1545 16.0871L17.3329 15.646L6.68091 9.92779ZM32.8925 10.3559V9.51998L32.156 9.91534L21.6059 15.5788L20.7843 16.0199L21.6063 16.4602L32.1564 22.1104L32.8925 22.5046V21.6696V10.3559ZM18.021 1.65911L18.1906 1.97509L18.021 1.65911L6.41567 7.88922L6.41563 7.88924C6.39821 7.8986 6.38207 7.90766 6.36717 7.91628L6.36717 7.91627L6.36528 7.91737L6.35535 7.92317L5.61372 8.35624L6.35647 8.78738L6.37473 8.79798L6.37468 8.79808L6.384 8.80323L6.41043 8.81782L6.41041 8.81785L6.41567 8.82068L18.021 15.0508C18.4194 15.2647 18.9329 15.3532 19.407 15.3532C19.881 15.3532 20.3945 15.2647 20.7928 15.0508C20.7928 15.0508 20.7928 15.0508 20.7929 15.0508L32.3982 8.82068L32.3982 8.82066C32.4138 8.81227 32.4302 8.80321 32.4468 8.79362L32.4468 8.79365L32.4518 8.79072L32.4615 8.78492L33.1941 8.35014L32.4573 7.92251L32.4391 7.91191L32.4391 7.91181L32.4298 7.90666L32.4034 7.89207L32.4034 7.89203L32.3982 7.88922L20.7929 1.65914C20.3945 1.44523 19.8811 1.35665 19.407 1.35665C18.9329 1.35665 18.4194 1.44523 18.021 1.65911Z" fill="#FFF2D1" stroke="#FFF2D1"/>
</svg>
