<svg width="31" height="30" viewBox="0 0 31 30" fill="none" xmlns="http://www.w3.org/2000/svg">
<path d="M15.9823 0.625C7.6948 0.625 0.9823 7.225 0.9823 15.365C0.9823 21.8788 5.2798 27.4025 11.2386 29.35C11.9886 29.4888 12.2635 29.0325 12.2635 28.6413C12.2635 28.2913 12.251 27.3638 12.2448 26.135C8.0723 27.0238 7.1923 24.1575 7.1923 24.1575C6.5098 22.4563 5.52355 22.0013 5.52355 22.0013C4.1648 21.0875 5.62855 21.1063 5.62855 21.1063C7.1348 21.2088 7.92605 22.625 7.92605 22.625C9.26355 24.8788 11.4373 24.2275 12.2948 23.8513C12.4298 22.8975 12.8161 22.2488 13.2448 21.88C9.91355 21.5113 6.4123 20.2438 6.4123 14.5963C6.4123 12.9875 6.99355 11.6725 7.95605 10.6413C7.7873 10.2688 7.28105 8.77 8.0873 6.74C8.0873 6.74 9.34355 6.345 12.2123 8.25125C13.4123 7.92375 14.6873 7.76125 15.9623 7.75375C17.2373 7.76125 18.5123 7.92375 19.7123 8.25125C22.5623 6.345 23.8185 6.74 23.8185 6.74C24.6248 8.77 24.1185 10.2688 23.9685 10.6413C24.9248 11.6725 25.5061 12.9875 25.5061 14.5963C25.5061 20.2588 21.9998 21.505 18.6623 21.8675C19.1873 22.31 19.6748 23.2138 19.6748 24.595C19.6748 26.5675 19.656 28.1525 19.656 28.6313C19.656 29.0175 19.9186 29.4788 20.6873 29.3313C26.6885 27.3963 30.9823 21.8688 30.9823 15.365C30.9823 7.225 24.2661 0.625 15.9823 0.625Z" fill="#FFF2D1"/>
</svg>
