<svg width="35" height="50" viewBox="0 0 35 50" fill="none" xmlns="http://www.w3.org/2000/svg">
<path d="M4.92732 17.5846C4.865 15.7641 4.71544 13.9187 4.88993 12.1107C5.06442 10.2902 5.60034 8.45721 6.75944 7.03573C7.39507 6.25018 8.20519 5.62672 9.00285 5.00327C10.2492 4.04314 11.5204 3.08302 13.0036 2.50944C16.7675 1.06303 21.2045 2.6092 24.0212 5.48956C24.6195 6.10055 25.1554 6.77388 25.5916 7.50956C27.2742 10.3525 27.2243 13.8563 27.1246 17.1607C26.9127 24.5923 26.7382 32.0238 26.5887 39.4554C21.217 39.7298 15.8328 39.6924 10.4735 39.3307C8.7785 39.2185 7.07102 39.0814 5.42586 38.62C5.07688 38.5203 4.88993 38.5078 4.85254 38.1337C4.81515 37.6973 4.77776 37.2609 4.74037 36.8245C4.67805 35.9516 4.64066 35.0663 4.6282 34.1935C4.59081 32.4229 4.6282 30.6522 4.69052 28.8816C4.75283 27.111 4.84008 25.3404 4.90239 23.5573C4.96471 21.7742 5.0021 20.0036 4.95225 18.2205C4.93978 18.021 4.92732 17.8091 4.92732 17.5846Z" fill="white" stroke="#362745" stroke-width="0.5" stroke-miterlimit="10"/>
<path d="M1.78683 46.6885C10.2993 47.6362 18.8617 47.9479 27.4115 48.2596C27.424 46.3144 27.2869 44.3568 26.9878 42.4241C24.7568 42.7358 22.501 42.6111 20.2576 42.4864C18.4005 42.3742 16.5435 42.2744 14.6864 42.1747C13.4899 42.1123 12.281 42.0375 11.0845 41.9752C9.87557 41.9128 8.66662 41.8505 7.45767 41.7882C6.24872 41.7258 5.02731 41.6759 3.81836 41.6385C3.20766 41.6136 2.60942 41.6011 1.99871 41.5886C1.78683 41.5886 1.59988 41.5637 1.56249 41.8006C1.5251 42.0625 1.57496 42.3617 1.58742 42.6236C1.64974 43.8331 1.69959 45.0301 1.76191 46.2396C1.76191 46.3893 1.77437 46.5389 1.78683 46.6885Z" fill="#E0E3BD" stroke="#362745" stroke-width="0.5" stroke-miterlimit="10.0004"/>
<path d="M3.58242 39.5066C3.83168 39.2697 4.09341 39.0203 4.42992 38.9081C4.71658 38.8083 5.02817 38.8208 5.33975 38.8208C11.2349 39.0078 17.1301 39.2074 23.0128 39.4193C23.8479 39.4443 24.6829 39.4817 25.5055 39.5814C25.7298 39.6064 25.9542 39.6438 26.1287 39.7934C26.2658 39.9181 26.353 40.0927 26.4153 40.2797C26.7643 41.1775 26.9762 42.1127 27.0634 43.0728C25.1939 42.2872 23.0502 42.7985 21.0311 42.6488C20.1338 42.5865 19.2613 42.387 18.364 42.2748C16.32 42.0129 14.2511 42.2124 12.1821 42.2249C9.97612 42.2374 7.77011 42.0254 5.56409 41.8259C4.65426 41.7386 3.74444 41.6513 2.84708 41.5765C2.6352 41.5516 1.86247 41.6014 1.82508 41.3022C1.80015 41.0279 2.32361 40.6787 2.48564 40.5291C2.85954 40.1799 3.22098 39.8433 3.58242 39.5066Z" fill="#E0E3BD" stroke="black" stroke-width="0.5" stroke-miterlimit="10.0004"/>
<path d="M27.0383 15.3909C27.1255 14.1065 27.2253 12.8222 27.0258 11.5504C26.6893 9.45556 25.5552 7.56025 24.1468 5.98914C22.7384 4.41803 21.0185 3.13372 19.3359 1.87433C23.237 1.48779 27.5368 2.64742 29.8426 5.81458C32.0237 8.79469 31.9863 12.7973 31.8741 16.4881C31.6498 23.5581 31.4254 30.6157 31.2011 37.6856C30.0046 38.359 28.7209 38.8702 27.3873 39.2069C27.0882 39.2817 26.6644 39.3565 26.4525 39.0822C26.278 38.8577 26.3279 38.6084 26.3528 38.3465C26.4276 37.561 26.3528 36.7255 26.3528 35.9275C26.3528 34.2566 26.3653 32.5982 26.3902 30.9399C26.4151 29.2815 26.4525 27.6231 26.5148 25.9647C26.5647 24.3063 26.6395 22.6354 26.7267 20.977C26.814 19.3186 26.9012 17.6602 27.0134 16.0143C27.0134 15.7899 27.0258 15.5904 27.0383 15.3909Z" fill="#847F88" stroke="black" stroke-width="0.5" stroke-miterlimit="10.0004"/>
<path d="M27.7477 47.6481C29.5549 46.9997 31.2998 46.2141 32.9823 45.2914C33.082 45.2416 33.1817 45.1792 33.2441 45.0795C33.2939 44.9922 33.3064 44.8924 33.3188 44.7927C33.4933 43.3213 33.6678 41.825 33.5307 40.3537C33.5183 40.1916 33.4809 40.0045 33.3313 39.9546C33.2316 39.9172 33.107 39.9546 33.0073 40.0045C31.387 40.6779 29.7668 41.3512 28.1465 42.037C27.8225 42.1742 27.461 42.3363 27.2242 42.6106C27.0248 42.8475 27.1245 43.2465 27.1245 43.5458C27.1245 44.4311 27.2118 45.3288 27.3863 46.2017C27.486 46.6755 27.6106 47.1618 27.7477 47.6481Z" fill="#847F88" stroke="black" stroke-width="0.5" stroke-miterlimit="10.0004"/>
<path d="M27.0997 42.3359C27.162 42.4357 27.2368 42.5229 27.349 42.5479C27.4487 42.5728 27.5608 42.5105 27.6481 42.4606C29.5425 41.4007 31.4369 40.3533 33.3314 39.2934C32.621 38.8071 31.923 38.3084 31.2126 37.8221C31.1378 37.7722 31.0506 37.7099 30.9633 37.6974C30.8387 37.6725 30.7265 37.7099 30.6019 37.7597C29.3805 38.1837 28.1715 38.6076 26.9501 39.0316C26.6261 39.1438 26.2646 39.281 26.1026 39.5927C26.0777 39.6426 26.2896 39.7548 26.3145 39.7922C26.3519 39.867 26.3394 39.9917 26.3394 40.079C26.3519 40.3408 26.4017 40.6152 26.4641 40.8645C26.5887 41.4007 26.8006 41.8995 27.0997 42.3359Z" fill="#847F88" stroke="black" stroke-width="0.5" stroke-miterlimit="10.0004"/>
<path d="M11.5837 27.5363C11.7956 26.7881 11.3968 26.1148 10.8235 25.4414C9.93857 24.4065 9.12846 23.3217 8.94151 21.8753C8.53021 18.6084 10.3499 15.4163 13.3535 14.2566C16.5068 13.0347 19.9965 14.132 21.8785 16.925C22.7135 18.1595 23.1373 19.5186 23.1373 21.0149C23.1373 22.3865 22.7011 23.5711 21.7414 24.5561C21.2802 25.0175 20.8939 25.5537 20.4078 25.9901C19.8968 26.439 19.7099 26.9502 19.7473 27.5986C19.7722 28.1098 19.7099 28.6211 19.7223 29.1323C19.7223 29.1697 19.7223 29.2071 19.7223 29.232C19.7223 29.2819 19.7099 29.3193 19.7099 29.3567C19.7099 29.3817 19.7099 29.6186 19.7223 29.6186C19.6351 29.6186 19.5478 29.6186 19.4731 29.6311C19.3734 29.6311 19.2736 29.6435 19.1739 29.6311C18.987 29.6061 18.8125 29.6061 18.6256 29.5937C18.5882 29.5937 18.5508 29.5937 18.5009 29.5812C18.4261 29.5812 18.3638 29.5687 18.289 29.5687C18.2641 29.5687 18.2392 29.5562 18.2018 29.5562C18.1644 29.5562 18.127 29.5562 18.0896 29.5562C17.9525 29.5562 17.803 29.5562 17.6534 29.5562C17.6534 29.4814 17.6409 29.4066 17.6409 29.3318C17.6285 29.1822 17.6285 29.0325 17.6285 28.8829C17.6285 28.5961 17.616 28.3093 17.616 28.0225C17.616 28.0101 17.616 27.9976 17.6036 27.9851C17.5911 27.9727 17.5786 27.9727 17.5662 27.9727C17.267 27.9477 16.9679 27.9727 16.6688 28.0101C16.6688 28.1846 16.6688 28.3592 16.6563 28.5462C16.6563 28.5961 16.6563 28.646 16.6563 28.6959C16.6563 28.7707 16.6563 28.833 16.6439 28.9079C16.6439 28.9328 16.6314 28.9453 16.6314 28.9577C16.6189 28.9827 16.6189 29.0201 16.6189 29.045C16.6065 29.1822 16.6065 29.3318 16.6314 29.469C16.5442 29.469 16.4569 29.469 16.3572 29.469C16.245 29.469 16.1204 29.469 16.0082 29.444C15.8711 29.4191 15.7216 29.4316 15.5845 29.4191C15.5346 29.4191 15.4723 29.4191 15.4225 29.4066C15.2854 29.4066 15.1483 29.3817 15.0112 29.3817C14.9364 29.3817 14.8741 29.3817 14.7993 29.3817C14.7868 29.3817 14.5999 29.3941 14.5874 29.4066C14.5874 29.2819 14.5999 29.1448 14.5999 29.0201C14.5999 28.9577 14.5999 28.8954 14.6123 28.8206C14.6123 28.7582 14.6248 28.6959 14.6248 28.6335C14.6248 28.3842 14.6248 28.1348 14.6123 27.8729C14.2883 27.8106 13.9518 27.7856 13.6153 27.7856C13.6028 28.0724 13.5903 28.3592 13.5654 28.646C13.553 28.7832 13.553 28.9328 13.5405 29.0824C13.5405 29.1198 13.5405 29.1572 13.5405 29.1946C13.5405 29.2196 13.5405 29.2445 13.528 29.257C13.5156 29.2819 13.4532 29.2819 13.4283 29.2819C13.2538 29.2944 13.0669 29.2819 12.8924 29.2695C12.8176 29.2695 12.7304 29.257 12.6556 29.257C12.4562 29.2445 12.2568 29.2445 12.0573 29.232C11.995 29.232 11.9203 29.2196 11.8579 29.2196C11.8205 29.2071 11.7832 29.1946 11.7333 29.1946C11.7208 29.1946 11.5214 29.1822 11.5214 29.1822C11.5214 29.1697 11.5214 29.1572 11.5214 29.1448C11.5214 29.0076 11.5214 28.858 11.5214 28.7083C11.5214 28.646 11.509 28.5837 11.5339 28.5213C11.5464 28.4964 11.5339 28.4714 11.5339 28.4465C11.5339 28.3842 11.5339 28.3218 11.5339 28.2595C11.5339 28.0974 11.5464 27.9477 11.5464 27.7856C11.5713 27.7856 11.5713 27.7358 11.5837 27.5363ZM15.6219 25.2419C15.734 25.2544 15.8462 25.2544 15.9584 25.2669C16.1329 25.2793 16.3198 25.2918 16.4943 25.3167C16.432 25.1297 16.3697 24.9427 16.2949 24.7681C16.27 24.6933 16.2326 24.6309 16.2077 24.5686C16.1827 24.5063 16.1453 24.4564 16.1204 24.394C16.1079 24.3816 16.1079 24.3566 16.1079 24.3442C16.0955 24.2818 16.0706 24.2319 16.0581 24.1696C15.9958 24.02 15.9459 23.8579 15.8836 23.6958C15.8587 23.6209 15.8338 23.5586 15.7964 23.4838C15.7964 23.4963 15.7714 23.5337 15.7714 23.5337C15.759 23.5586 15.734 23.5835 15.7216 23.6085C15.5596 23.8329 15.41 24.0574 15.2729 24.2943C15.1981 24.4065 15.1358 24.5312 15.061 24.6559C15.0236 24.7182 14.9987 24.7806 14.9613 24.8305C14.9489 24.8554 14.9364 24.8803 14.9239 24.9053C14.9115 24.9551 14.8616 25.005 14.8242 25.0549C14.7744 25.1172 14.7245 25.1796 14.6871 25.2544C14.6871 25.2544 14.7245 25.2544 14.737 25.2544C14.7494 25.2544 14.7744 25.2544 14.7868 25.2544C14.8242 25.2544 14.8616 25.2544 14.899 25.2544C14.9738 25.2544 15.0361 25.2544 15.1109 25.2419C15.1358 25.2419 15.1732 25.2295 15.1981 25.2295C15.2355 25.2295 15.2729 25.2295 15.3103 25.2419C15.3851 25.2419 15.4474 25.2544 15.5222 25.2544C15.5596 25.2295 15.5969 25.2295 15.6219 25.2419Z" fill="#272F49"/>
<path d="M11.2973 27.1877C11.4967 26.452 11.1104 25.7912 10.5495 25.1303C9.67706 24.1078 8.87941 23.048 8.70492 21.6389C8.30609 18.4344 10.0884 15.3171 13.0297 14.1824C16.1206 12.9854 19.5356 14.0577 21.3926 16.8009C22.2028 18.0104 22.6265 19.3446 22.639 20.8035C22.639 22.1502 22.2152 23.3098 21.268 24.2699C20.8193 24.7313 20.4454 25.255 19.9594 25.6665C19.4608 26.1029 19.2739 26.6017 19.3113 27.2501C19.3362 27.7488 19.2739 28.2476 19.2863 28.7463C19.2863 28.7838 19.2863 28.8087 19.2863 28.8461C19.2863 28.8835 19.2739 28.9334 19.2739 28.9708C19.2739 28.9957 19.2739 29.2202 19.2863 29.2202C19.1991 29.2202 19.1243 29.2202 19.0371 29.2202C18.9374 29.2202 18.8376 29.2326 18.7379 29.2202C18.5634 29.1952 18.3765 29.1952 18.202 29.1828C18.1646 29.1828 18.1272 29.1828 18.0898 29.1703C18.0151 29.1703 17.9527 29.1578 17.878 29.1578C17.853 29.1578 17.8281 29.1454 17.8032 29.1454C17.7658 29.1454 17.7284 29.1454 17.691 29.1454C17.5539 29.1454 17.4044 29.1454 17.2673 29.1454C17.2673 29.0705 17.2548 29.0082 17.2548 28.9334C17.2423 28.7838 17.2423 28.6466 17.2423 28.497C17.2423 28.2102 17.2299 27.9359 17.2299 27.6491C17.2299 27.6366 17.2299 27.6241 17.2174 27.6117C17.2049 27.5992 17.1925 27.5992 17.18 27.5992C16.8934 27.5742 16.5942 27.5992 16.3076 27.6366C16.3076 27.8112 16.3076 27.9857 16.2951 28.1603C16.2951 28.2102 16.2951 28.26 16.2951 28.3099C16.2951 28.3723 16.2951 28.4471 16.2827 28.5219C16.2827 28.5468 16.2702 28.5593 16.2702 28.5718C16.2577 28.5967 16.2577 28.6341 16.2577 28.6591C16.2453 28.7962 16.2453 28.9334 16.2702 29.0705C16.1829 29.0705 16.0957 29.0705 16.0085 29.0705C15.8963 29.0705 15.7841 29.0705 15.6719 29.0456C15.5349 29.0207 15.3978 29.0331 15.2482 29.0207C15.1983 29.0207 15.136 29.0207 15.0862 29.0082C14.9491 29.0082 14.8244 28.9833 14.6873 28.9833C14.6126 28.9833 14.5502 28.9833 14.4755 28.9833C14.463 28.9833 14.276 28.9957 14.276 29.0082C14.276 28.8835 14.2885 28.7588 14.2885 28.6217C14.2885 28.5593 14.2885 28.497 14.301 28.4346C14.301 28.3723 14.3134 28.3099 14.3134 28.2476C14.3134 27.9982 14.3134 27.7488 14.301 27.4994C13.9769 27.4496 13.6529 27.4121 13.3288 27.4121C13.3164 27.6989 13.3039 27.9733 13.2914 28.2601C13.279 28.3972 13.279 28.5468 13.2665 28.684C13.2665 28.7214 13.2665 28.7588 13.2665 28.7962C13.2665 28.8212 13.2665 28.8461 13.2541 28.8586C13.2416 28.8835 13.1793 28.8835 13.1543 28.8835C12.9799 28.896 12.8054 28.8835 12.6309 28.871C12.5561 28.871 12.4689 28.8586 12.3941 28.8586C12.1947 28.8461 11.9953 28.8461 11.8083 28.8336C11.746 28.8336 11.6837 28.8212 11.6089 28.8212C11.5715 28.8212 11.5341 28.7962 11.4843 28.7962C11.4718 28.7962 11.2848 28.7838 11.2848 28.7838C11.2848 28.7713 11.2848 28.7588 11.2848 28.7463C11.2848 28.6092 11.2848 28.4596 11.2848 28.3224C11.2848 28.2601 11.2724 28.1977 11.2973 28.1478C11.3098 28.1229 11.2973 28.098 11.2973 28.073C11.2973 28.0107 11.2973 27.9483 11.2973 27.886C11.2973 27.7363 11.3098 27.5742 11.3098 27.4246C11.2848 27.4246 11.2848 27.3872 11.2973 27.1877ZM15.2607 24.9308C15.3728 24.9433 15.485 24.9433 15.5847 24.9557C15.7592 24.9682 15.9337 24.9807 16.1082 25.0056C16.0458 24.831 15.996 24.644 15.9212 24.457C15.8963 24.3822 15.8589 24.3198 15.834 24.2575C15.809 24.1951 15.7717 24.1452 15.7467 24.0829C15.7343 24.0704 15.7343 24.0455 15.7343 24.033C15.7218 23.9707 15.6969 23.9208 15.6844 23.8585C15.6221 23.7088 15.5722 23.5467 15.5099 23.3971C15.485 23.3223 15.4601 23.2599 15.4227 23.1851C15.4227 23.1976 15.3978 23.2225 15.3978 23.235C15.3853 23.2599 15.3604 23.2849 15.3479 23.3098C15.1983 23.5343 15.0488 23.7587 14.9117 23.9831C14.8369 24.0954 14.7746 24.2201 14.7123 24.3323C14.6749 24.3946 14.65 24.4445 14.6126 24.5068C14.6001 24.5318 14.5876 24.5567 14.5752 24.5817C14.5627 24.6315 14.5129 24.6814 14.4755 24.7188C14.4256 24.7812 14.3882 24.8435 14.3384 24.9059C14.3384 24.9059 14.3758 24.9059 14.3882 24.9059C14.4007 24.9059 14.4256 24.9059 14.4381 24.9059C14.4755 24.9059 14.5129 24.9059 14.5502 24.9059C14.625 24.9059 14.6873 24.9059 14.7621 24.8934C14.787 24.8934 14.8244 24.8809 14.8494 24.8809C14.8868 24.8809 14.9241 24.8809 14.9615 24.8934C15.0363 24.8934 15.0986 24.9059 15.1734 24.9059C15.1983 24.9308 15.2357 24.9308 15.2607 24.9308Z" fill="#4300BF" stroke="black" stroke-width="0.5" stroke-miterlimit="10.0004"/>
<path d="M20.0831 14.905C17.8023 13.0845 15.2224 12.7852 12.5552 13.9823C8.28025 15.9025 7.13362 21.5884 9.70107 24.4189C10.0625 24.8179 10.3367 25.2793 10.7106 25.6783C11.0471 26.0399 11.1593 26.4264 11.1344 26.9127C11.097 27.5861 11.0347 28.2719 11.1344 29.0075L13.3279 29.1073L13.3653 27.5487L14.2128 27.5736V27.5861C14.2128 27.5985 14.2128 27.611 14.2128 27.6235C14.2128 27.6359 14.2128 27.6609 14.2128 27.6733C14.2128 27.6983 14.2128 27.7232 14.2128 27.7357C14.2128 27.7606 14.2128 27.7856 14.2128 27.8105C14.2128 27.8354 14.2128 27.8729 14.2128 27.8978C14.2128 27.9352 14.2128 27.9601 14.2128 27.9975C14.2128 28.035 14.2128 28.0724 14.2128 28.1098C14.2128 28.1472 14.2128 28.1846 14.2128 28.222C14.2128 28.2594 14.2128 28.2968 14.2128 28.3342C14.2128 28.3716 14.2128 28.409 14.2128 28.4464C14.2128 28.4838 14.2128 28.5213 14.2128 28.5587C14.2128 28.5961 14.2128 28.621 14.2128 28.6584C14.2128 28.6833 14.2128 28.7208 14.2128 28.7582C14.2128 28.7831 14.2128 28.8205 14.2128 28.8454C14.2128 28.8704 14.2128 28.8953 14.2128 28.9203C14.2128 28.9327 14.2128 28.9577 14.2128 28.9826C14.2128 28.9951 14.2128 29.0075 14.2128 29.02C14.2128 29.0574 14.2004 29.0948 14.2004 29.1447C14.2128 29.1447 14.2128 29.1447 14.2253 29.1447H14.2377H14.2502C14.2627 29.1447 14.2876 29.1447 14.3001 29.1447C14.3375 29.1447 14.3748 29.1447 14.4122 29.1447C14.5618 29.1447 14.6989 29.1572 14.8484 29.1572C15.0229 29.1696 15.2099 29.1696 15.3968 29.1821C15.5589 29.1946 15.7334 29.1946 15.8954 29.2071C15.9951 29.2071 16.0948 29.2195 16.207 29.2195C16.2194 29.2195 16.2319 29.2195 16.2443 29.2195C16.2693 29.2195 16.2817 29.2195 16.3067 29.2071C16.3067 29.1696 16.3191 29.1198 16.3191 29.0824V29.0699C16.3191 29.0574 16.3191 29.0325 16.3316 29.02C16.3316 28.9826 16.3441 28.9452 16.3441 28.9203C16.3441 28.8953 16.3441 28.8704 16.3441 28.8454C16.3441 28.8205 16.3441 28.7956 16.3441 28.7831C16.3441 28.7582 16.3441 28.7457 16.3441 28.7208C16.3441 28.6958 16.3441 28.6709 16.3441 28.6459C16.3441 28.621 16.3441 28.5836 16.3441 28.5462C16.3441 28.5088 16.3441 28.4714 16.3441 28.4464C16.3441 28.409 16.3441 28.3716 16.3441 28.3342C16.3441 28.2968 16.3441 28.2594 16.3441 28.222C16.3441 28.1846 16.3441 28.1472 16.3441 28.1098C16.3441 28.0724 16.3441 28.035 16.3441 27.9975C16.3441 27.9726 16.3441 27.9352 16.3441 27.8978C16.3441 27.8729 16.3441 27.8479 16.3441 27.823C16.3441 27.798 16.3441 27.7856 16.3441 27.7606C16.3441 27.7482 16.3441 27.7357 16.3441 27.7232V27.7108L17.1916 27.7357L17.1542 29.2819C17.2913 29.2819 19.4599 29.3816 19.4599 29.3816C19.4599 28.9327 19.4599 28.4838 19.4599 28.0225C19.4599 27.8105 19.4599 27.5985 19.4599 27.3866C19.4599 27.3242 19.4599 27.2619 19.4474 27.212C19.4474 27.0624 19.4474 26.9127 19.4724 26.7756C19.4973 26.6259 19.5471 26.4638 19.6469 26.3392C19.6718 26.3142 19.6967 26.2768 19.7216 26.2519C19.759 26.2145 19.7839 26.1895 19.8213 26.1521C19.8837 26.0898 19.946 26.015 20.0083 25.9526C20.1329 25.8155 20.2576 25.6908 20.3822 25.5536C20.5068 25.4164 20.619 25.2917 20.7436 25.1546C20.8683 25.0174 20.9804 24.8927 21.0926 24.7556C21.2048 24.6184 21.3294 24.4937 21.4416 24.3566C21.5537 24.2194 21.6659 24.0947 21.7781 23.9576C21.8404 23.8952 21.8903 23.8204 21.9526 23.758C22.3763 23.2343 22.6754 22.6483 22.7752 21.975C23.2238 19.0946 22.3389 16.7005 20.0831 14.905ZM13.0163 27.1372C12.9914 27.1372 12.9665 27.1372 12.9291 27.1372C12.9166 27.1372 12.9042 27.1372 12.8917 27.1372C12.8917 27.1995 12.8917 27.2619 12.8917 27.3242C12.8917 27.4489 12.8792 27.5861 12.8792 27.7108C12.8668 27.9726 12.8543 28.2469 12.8543 28.5088L11.7451 28.4589C11.7451 28.3467 11.7575 28.2345 11.7575 28.1222C11.77 27.8729 11.7825 27.6235 11.7825 27.3616C11.7949 27.0998 11.8074 26.8254 11.8074 26.5636C11.8074 26.4638 11.8198 26.3641 11.8198 26.2643C11.8198 26.2145 11.8074 26.1646 11.8074 26.1272C11.8074 26.0773 11.7949 26.0274 11.7949 25.9775C11.7949 25.9526 11.7825 25.9401 11.7825 25.9152C11.77 25.9027 11.77 25.8778 11.7575 25.8653C11.7451 25.8279 11.7326 25.7905 11.7077 25.7531C11.6703 25.6783 11.6329 25.6035 11.5955 25.5287C11.5581 25.4538 11.5083 25.3915 11.4584 25.3167C11.4335 25.2793 11.3961 25.2294 11.3587 25.192C10.8352 24.5561 10.3367 23.8952 9.83817 23.2343C9.12776 22.2618 9.00313 21.1271 9.14022 19.9799C9.45181 17.3988 10.7979 15.5284 13.2033 14.5683C15.5838 13.6207 17.8397 14.0197 19.7341 15.7279C21.6659 17.4611 22.3763 19.6682 21.7532 22.2493C21.6036 22.9101 21.1798 23.384 20.7561 23.8578C20.2326 24.4438 19.6967 25.0174 19.1608 25.591C19.1359 25.6159 19.1109 25.6284 19.0985 25.6534C19.0985 25.6658 19.0985 25.6658 19.086 25.6783C19.0735 25.6908 19.0735 25.7032 19.0611 25.7157C19.0486 25.7406 19.0237 25.7656 19.0112 25.7905C18.9988 25.803 18.9988 25.8155 18.9863 25.8279C18.9738 25.8404 18.9738 25.8404 18.9738 25.8529C18.9489 25.9027 18.924 25.9526 18.899 26.0025C18.8492 26.1147 18.8243 26.2394 18.7993 26.3641C18.7869 26.4264 18.7869 26.4888 18.7869 26.5511C18.7869 26.5761 18.7869 26.6135 18.7869 26.6384C18.7869 26.6509 18.7869 26.6634 18.7869 26.6883C18.7869 26.7132 18.7869 26.7382 18.7869 26.7631C18.7869 26.8005 18.7869 26.8504 18.7869 26.8878C18.7869 26.9626 18.7869 27.025 18.7869 27.0998C18.7869 27.2369 18.7869 27.3866 18.7869 27.5237C18.7869 27.6609 18.7869 27.8105 18.7869 27.9477C18.7869 28.0848 18.7869 28.2345 18.7869 28.3716C18.7869 28.4464 18.7869 28.5088 18.7869 28.5836C18.7869 28.621 18.7869 28.6584 18.7869 28.6958C18.7869 28.7083 18.7869 28.7208 18.7869 28.7332V28.7457C18.7744 28.7582 18.762 28.7457 18.762 28.7457C18.7495 28.7457 18.7246 28.7457 18.7121 28.7457C18.6498 28.7457 18.575 28.7457 18.5127 28.7332C18.2385 28.7208 17.9643 28.7083 17.6901 28.6958C17.7026 28.4589 17.7026 28.222 17.715 27.9975C17.715 27.9227 17.7275 27.8355 17.7275 27.7606C17.7275 27.6609 17.7275 27.5736 17.7275 27.4738C17.7275 27.4364 17.7275 27.4115 17.7275 27.3741L17.5655 27.3492C17.5031 27.3367 17.4408 27.3242 17.3785 27.3242C17.2414 27.3117 17.1168 27.2993 16.9797 27.2868C16.8426 27.2743 16.7055 27.2743 16.5684 27.2743C16.4313 27.2743 16.2942 27.2743 16.1571 27.2743C16.0449 27.2743 15.9203 27.2743 15.8081 27.2743L15.7583 28.7083L14.649 28.6584L14.6989 27.2494C14.6366 27.2369 14.5618 27.2245 14.4995 27.212C14.3624 27.1871 14.2377 27.1746 14.1006 27.1621C13.9636 27.1496 13.8265 27.1496 13.6894 27.1372C13.5523 27.1372 13.4152 27.1372 13.2781 27.1247C13.2157 27.1247 13.141 27.1247 13.0787 27.1247" fill="#E0E3BD"/>
<path d="M15.7831 22.9732C15.7706 22.9607 15.7706 22.9358 15.7581 22.9233C15.7332 22.8859 15.7208 22.8361 15.6958 22.7986C15.6834 22.7737 15.6709 22.7488 15.6584 22.7238C15.646 22.6989 15.6335 22.6864 15.621 22.6615C15.5712 22.5867 15.5338 22.4994 15.484 22.4246C15.459 22.3872 15.4466 22.3498 15.4216 22.2999C15.4216 22.2874 15.4092 22.2749 15.4092 22.2749C15.4092 22.2625 15.3967 22.25 15.3967 22.25C15.3842 22.25 15.3842 22.25 15.3842 22.2625C15.3842 22.2749 15.3718 22.2749 15.3718 22.2874C15.3718 22.2999 15.3593 22.3123 15.3593 22.3248C15.3469 22.3498 15.3344 22.3747 15.3219 22.3872C15.2721 22.462 15.2222 22.5493 15.1848 22.6241C15.135 22.6989 15.0851 22.7862 15.0477 22.861C14.9854 22.9607 14.9356 23.0605 14.8732 23.1727C14.8483 23.2101 14.8359 23.2475 14.8109 23.2725C14.786 23.3099 14.7611 23.3473 14.7486 23.3847C14.7237 23.4221 14.6988 23.4595 14.6738 23.5094C14.6489 23.5468 14.624 23.5967 14.599 23.6341C14.5741 23.684 14.5492 23.7214 14.5243 23.7712C14.4993 23.8211 14.4744 23.8585 14.4495 23.9084C14.4246 23.9583 14.3996 24.0081 14.3747 24.0456C14.3498 24.0954 14.3249 24.1453 14.2999 24.1827C14.275 24.2326 14.2501 24.27 14.2251 24.3199C14.2002 24.3698 14.1753 24.4072 14.1504 24.457C14.1254 24.5069 14.1005 24.5443 14.0756 24.5942C14.0507 24.6316 14.0257 24.6815 14.0008 24.7189C13.9759 24.7563 13.951 24.7937 13.9385 24.8311C13.9136 24.8685 13.9011 24.9059 13.8762 24.9433C13.8637 24.9807 13.8388 25.0057 13.8263 25.0431C13.8139 25.068 13.7889 25.093 13.7765 25.1304C13.764 25.1553 13.7515 25.1802 13.7391 25.2052C13.7266 25.2177 13.7141 25.2426 13.7141 25.2551C13.7017 25.2675 13.7017 25.28 13.6892 25.2925L13.6768 25.3049H13.6892C13.764 25.3049 13.8263 25.3049 13.9011 25.3174C13.9136 25.3174 13.926 25.3174 13.951 25.3174C13.9634 25.3174 13.9883 25.3174 14.0008 25.3174C14.0133 25.3174 14.0133 25.3174 14.0257 25.3174C14.0382 25.3174 14.0507 25.3174 14.0631 25.3174C14.0756 25.3174 14.0881 25.3174 14.113 25.3174C14.1254 25.3174 14.1504 25.3174 14.1628 25.3174C14.1878 25.3174 14.2127 25.3174 14.2251 25.3174C14.2501 25.3174 14.275 25.3174 14.2999 25.3174C14.3249 25.3174 14.3498 25.3174 14.3747 25.3174C14.3996 25.3174 14.437 25.3174 14.462 25.3174C14.4869 25.3174 14.5243 25.3174 14.5492 25.3174C14.5866 25.3174 14.6115 25.3174 14.6489 25.3174C14.6863 25.3174 14.7112 25.3174 14.7486 25.3174C14.786 25.3174 14.8234 25.3174 14.8483 25.3174C14.8857 25.3174 14.9231 25.3174 14.9605 25.3174C14.9979 25.3174 15.0353 25.3174 15.0727 25.3174C15.11 25.3174 15.1474 25.3174 15.1848 25.3174C15.2222 25.3174 15.2596 25.3174 15.297 25.3174C15.3344 25.3174 15.3718 25.3174 15.4092 25.3174C15.4466 25.3174 15.484 25.3174 15.5213 25.3174C15.5587 25.3174 15.5961 25.3174 15.6335 25.3174C15.6709 25.3174 15.7083 25.3174 15.7457 25.3174C15.7831 25.3174 15.8205 25.3174 15.8454 25.3174C15.8828 25.3174 15.9077 25.3174 15.9451 25.3174C15.9825 25.3174 16.0074 25.3174 16.0448 25.3174C16.0697 25.3174 16.1071 25.3174 16.132 25.3174C16.157 25.3174 16.1944 25.3174 16.2193 25.3174C16.2442 25.3174 16.2691 25.3174 16.2941 25.3174C16.319 25.3174 16.3439 25.3174 16.3689 25.3174C16.3938 25.3174 16.4062 25.3174 16.4312 25.3174L16.8799 25.3299C16.8923 25.3299 16.8923 25.3299 16.8923 25.3299C16.8674 25.2551 16.83 25.1927 16.8051 25.1179C16.7303 24.9433 16.6555 24.7812 16.5807 24.6067C16.481 24.3947 16.3938 24.1702 16.2941 23.9583C16.2068 23.7588 16.1196 23.5468 16.0323 23.3473C15.97 23.2101 15.9202 23.073 15.8579 22.9483C15.808 23.0231 15.7955 22.9981 15.7831 22.9732C15.7831 22.9857 15.7831 22.9857 15.7831 22.9732ZM14.4993 24.856C14.7985 24.3448 15.0727 23.8835 15.3842 23.3473C15.5961 23.9209 15.7706 24.3698 15.9825 24.9184C15.4715 24.8935 15.0477 24.8685 14.4993 24.856Z" fill="#E0E3BD"/>
<path d="M31.8488 37.3497C32.5592 38.023 33.2821 38.7088 33.9925 39.3696C34.0424 41.3896 33.8803 43.3224 33.843 45.2426C33.7183 45.4795 33.5189 45.5793 33.3195 45.6915C31.4998 46.714 29.6926 47.7364 27.873 48.7589C27.5739 48.9335 27.2872 49.0207 26.9507 48.9958C24.6699 48.8462 22.3766 48.7215 20.0958 48.5719C17.9521 48.4347 15.8084 48.2726 13.6772 48.1354C10.175 47.8985 6.66033 47.6616 3.15812 47.4247C2.68451 47.3998 2.22336 47.3873 1.74976 47.3748C1.27615 47.3624 1.01442 47.113 1.01442 46.6516C1.00195 44.7937 1.00195 42.9233 1.00195 41.0654C1.00195 40.7288 1.21383 40.5168 1.47556 40.3173C2.37293 39.6315 3.24536 38.9332 4.25489 38.1477C4.25489 35.8783 4.22997 33.5466 4.25489 31.2148C4.32967 24.9928 4.42938 18.7707 4.54155 12.5486C4.6288 7.94747 7.73218 3.74538 12.1317 2.33636C15.0233 1.41365 17.9895 0.840071 21.0555 1.03958C24.969 1.3139 28.3466 2.66056 30.6648 6.01475C31.9111 7.82278 32.5842 9.84278 32.5966 12.0498C32.6091 16.0649 32.4097 20.0675 32.285 24.0825C32.1479 28.2971 32.0108 32.5116 31.8737 36.7262C31.8488 36.9008 31.8488 37.0629 31.8488 37.3497ZM5.3766 38.0978C12.1318 38.422 18.8495 38.7462 25.5299 39.0579C25.667 38.8335 25.6296 38.6464 25.6296 38.4719C25.7168 35.7162 25.8041 32.9481 25.8913 30.1799C26.0409 24.9803 26.2029 19.7807 26.34 14.5935C26.3649 13.571 26.4272 12.5361 26.3026 11.5261C25.9412 8.59586 24.3334 6.37636 22.0277 4.65562C19.0365 2.43612 15.7337 2.44859 12.3935 3.59575C8.36781 4.96735 5.83774 8.55846 5.76296 12.8354C5.62587 20.5912 5.50123 28.3469 5.3766 36.1027C5.3766 36.7511 5.3766 37.3871 5.3766 38.0978ZM30.5775 37.1127C30.59 36.9008 30.6149 36.7636 30.6149 36.6264C30.7022 33.8583 30.7894 31.1026 30.8891 28.3345C31.0387 23.7957 31.2007 19.2445 31.3503 14.7057C31.4001 13.1471 31.4624 11.5885 31.0761 10.0672C29.9918 5.80278 27.1127 3.44612 22.925 2.53587C22.6259 2.47353 22.3143 2.43612 22.0152 2.39871C21.7286 2.3613 21.4544 2.31143 21.1677 2.29896C20.8935 2.28649 20.6068 2.29896 20.3202 2.29896C21.6912 2.87254 22.8876 3.62068 23.9346 4.61821C26.3649 6.94994 27.7858 9.69315 27.6487 13.1596C27.4991 16.9003 27.4492 20.6535 27.3495 24.3942C27.2498 27.6487 27.1127 30.9031 27.0379 34.1576C27.0006 35.6788 27.0255 37.2125 27.0255 38.7711C28.1472 38.235 29.3437 37.6863 30.5775 37.1127ZM26.5519 47.7489C26.5519 46.2526 26.5519 44.8311 26.5519 43.3722C18.4382 42.9608 10.362 42.5493 2.27322 42.1378C2.27322 43.4845 2.27322 44.7812 2.27322 46.1279C10.3744 46.6641 18.4382 47.2127 26.5519 47.7489ZM25.7791 40.3422C25.0563 40.2051 24.3209 40.2674 23.5981 40.23C17.4536 39.9308 11.2967 39.6315 5.15226 39.3322C5.01516 39.3322 4.84067 39.3073 4.74097 39.3821C4.1178 39.831 3.4697 40.2425 2.89639 40.9158C10.7359 41.3148 18.4881 41.7138 26.3026 42.1004C26.1281 41.5019 25.9661 40.9657 25.7791 40.3422ZM27.8605 43.2475C27.8605 44.5942 27.8605 45.9159 27.8605 47.3374C29.4932 46.4147 31.0512 45.5419 32.5966 44.669C32.6465 43.3224 32.7711 42.0131 32.7088 40.629C31.0512 41.5268 29.4558 42.3872 27.8605 43.2475ZM32.1978 39.4819C31.8488 39.0205 31.4625 38.6589 31.0512 38.2724C29.7425 38.8834 28.4338 39.4819 27.1127 40.1053C27.2748 40.7413 27.4119 41.3273 27.6736 41.9258C29.2066 41.0904 30.6897 40.2924 32.1978 39.4819Z" fill="#4300BF" stroke="white" stroke-width="0.5" stroke-miterlimit="10.0004"/>
<path d="M17.5539 20.579C17.2548 21.0279 17.2299 21.6388 17.4417 22.1376C17.5041 22.2872 17.5913 22.4244 17.7284 22.5117C18.0026 22.6738 18.3516 22.5242 18.6382 22.3745C19.0121 22.175 19.3985 21.9381 19.548 21.5391C19.6602 21.2523 19.6104 20.9156 19.4733 20.6413C19.3985 20.4667 19.2863 20.3171 19.1617 20.18C19.0744 20.0927 18.9997 19.9805 18.8626 19.968C18.551 19.9181 18.2145 20.0179 17.9527 20.18C17.7907 20.2922 17.6536 20.4293 17.5539 20.579Z" fill="white" stroke="black" stroke-width="0.5" stroke-miterlimit="10"/>
<path d="M11.8829 20.6661C11.7832 20.8406 11.7084 21.0277 11.6959 21.2272C11.671 21.5638 11.833 21.8756 11.9826 22.1748C12.0075 22.2372 12.0449 22.2995 12.0947 22.3369C12.1446 22.3743 12.2069 22.3868 12.2692 22.3993C12.8924 22.4866 13.5405 22.2372 13.9393 21.7509C14.0141 21.6511 14.0764 21.5514 14.1138 21.4392C14.1637 21.2646 14.1637 21.09 14.1512 20.9155C14.1387 20.6661 14.1138 20.3793 13.9269 20.2047C13.8396 20.1174 13.7274 20.0551 13.6153 20.0052C13.4782 19.9304 13.3162 19.8431 13.1666 19.7932C13.0544 19.7683 12.9173 19.8057 12.8176 19.8431C12.5559 19.9304 12.3315 20.105 12.1446 20.3045C12.0947 20.3668 12.0449 20.4167 11.995 20.479C11.9701 20.5164 11.9452 20.5414 11.9327 20.5788C11.9203 20.5913 11.9078 20.6411 11.8829 20.6661Z" fill="white" stroke="black" stroke-width="0.5" stroke-miterlimit="10"/>
<path d="M18.0655 22.6233C17.9409 22.6108 17.8163 22.5859 17.6916 22.561C17.6418 22.4862 17.6044 22.4238 17.567 22.349C17.5296 22.2742 17.5171 22.2118 17.4798 22.137C17.405 21.9874 17.3676 21.8378 17.3427 21.6757C17.2928 21.3141 17.3551 20.94 17.5421 20.6407C17.729 20.3415 18.0281 20.0921 18.3647 19.9799C18.5018 19.93 18.6638 19.905 18.8133 19.9549C18.913 19.9799 18.9878 20.0422 19.0626 20.117C19.1 20.1544 19.1374 20.1918 19.1623 20.2292C19.1872 20.2666 19.2246 20.3041 19.2496 20.3415C19.2122 20.3415 19.1748 20.329 19.1374 20.329C19.1 20.329 19.0501 20.3165 19.0128 20.3165C18.2774 20.3165 17.6667 20.915 17.6667 21.6632C17.6667 22.0248 17.8163 22.3739 18.0655 22.6233Z" fill="#272F49"/>
<path d="M12.1322 22.3997C12.1197 22.3997 12.0823 22.3249 12.0823 22.3124C12.0699 22.2875 12.0449 22.2501 12.0325 22.2127C12.0076 22.1503 11.9702 22.0755 11.9577 22.0131C11.9328 21.9383 11.9328 21.876 11.9079 21.8012C11.8829 21.7139 11.858 21.6266 11.8331 21.5393C11.7832 21.3647 11.7583 21.1902 11.7832 21.0031C11.8081 20.7039 11.9702 20.4171 12.1945 20.2051C12.4188 19.9931 12.7055 19.856 13.0046 19.7936C13.1043 19.7687 13.204 19.7562 13.3162 19.7812C13.4408 19.8061 13.553 19.8809 13.6403 19.9807C13.6901 20.0306 13.7275 20.0804 13.7649 20.1303C13.7774 20.1552 13.8023 20.1802 13.7774 20.2051C13.7649 20.2176 13.7524 20.2176 13.74 20.2176C13.7026 20.2176 13.6527 20.2051 13.6153 20.2051C13.5779 20.2051 13.5281 20.1927 13.4907 20.1927C12.7554 20.1927 12.1447 20.7912 12.1447 21.5393C12.1447 21.9009 12.2818 22.2251 12.5186 22.4745C12.5061 22.4745 12.1322 22.3997 12.1322 22.3997Z" fill="#272F49"/>
<path d="M12.6809 22.7481C11.7337 22.7481 10.9609 21.975 10.9609 21.0274C10.9609 20.0797 11.7337 19.3066 12.6809 19.3066C13.6281 19.3066 14.4008 20.0797 14.4008 21.0274C14.4008 21.975 13.6281 22.7481 12.6809 22.7481ZM12.6809 19.8054C12.0079 19.8054 11.4595 20.354 11.4595 21.0274C11.4595 21.7007 12.0079 22.2494 12.6809 22.2494C13.3539 22.2494 13.9023 21.7007 13.9023 21.0274C13.9023 20.354 13.3539 19.8054 12.6809 19.8054Z" fill="#E0E3BD"/>
<path d="M18.2141 22.8731C17.2669 22.8731 16.4941 22.1 16.4941 21.1524C16.4941 20.2047 17.2669 19.4316 18.2141 19.4316C19.1613 19.4316 19.934 20.2047 19.934 21.1524C19.934 22.1 19.1613 22.8731 18.2141 22.8731ZM18.2141 19.9304C17.5411 19.9304 16.9927 20.479 16.9927 21.1524C16.9927 21.8257 17.5411 22.3744 18.2141 22.3744C18.8871 22.3744 19.4355 21.8257 19.4355 21.1524C19.4355 20.479 18.8871 19.9304 18.2141 19.9304Z" fill="#E0E3BD"/>
<path d="M11.8838 22.1361C11.7093 21.8743 11.6221 21.575 11.6221 21.2757C11.6221 20.3904 12.3325 19.6797 13.2174 19.6797C13.2298 19.6797 13.2548 19.6797 13.2672 19.6797C13.3669 19.7794 13.4666 19.8667 13.5414 19.9665C13.4293 19.9415 13.3296 19.9291 13.2174 19.9291C12.482 19.9291 11.8713 20.5276 11.8713 21.2757C11.8713 21.6373 12.0084 21.9615 12.2452 22.2109L11.8838 22.1361Z" fill="#E0E3BD"/>
<path d="M17.8151 22.3628C17.6905 22.3503 17.5658 22.3254 17.4412 22.3005C17.2667 22.0386 17.167 21.7269 17.167 21.4027C17.167 20.5548 17.84 19.8565 18.6751 19.8066L18.9991 20.0685C18.9243 20.056 18.8371 20.0436 18.7498 20.0436C18.0145 20.0436 17.4038 20.6421 17.4038 21.3902C17.4163 21.7768 17.5658 22.1134 17.8151 22.3628Z" fill="#E0E3BD"/>
</svg>
