<svg width="35" height="50" viewBox="0 0 35 50" fill="none" xmlns="http://www.w3.org/2000/svg">
<path d="M4.7961 35.3309C4.96913 32.7102 4.91969 30.0146 5.22868 27.3314C5.40172 25.8713 5.7107 24.4237 5.8343 22.9636C5.99497 20.9668 5.79722 18.9701 5.74778 16.9608C5.73542 16.3743 5.67363 15.7877 5.82194 15.2012C5.8961 14.9017 6.00733 14.5897 6.31632 14.5273C6.84778 14.4025 6.69947 14.103 6.58823 13.7785C6.46464 13.4166 6.3534 13.0547 6.21745 12.7053C5.47587 10.8708 6.10621 9.22344 7.00846 7.67596C7.77475 6.35312 8.77587 5.16755 9.82643 4.05686C11.0006 2.8089 12.459 2.18491 14.177 2.15995C14.4983 2.15995 14.8197 2.14747 15.1534 2.12251C15.3141 2.11003 15.4747 2.11003 15.6478 2.09755C15.7961 2.08507 15.9568 2.09755 16.1051 2.0726C16.1545 2.06012 16.204 2.04764 16.2534 2.03516C16.3399 2.03516 16.4264 2.06012 16.5006 2.06012C16.686 2.08507 16.859 2.11003 17.0444 2.14747C17.4028 2.20987 17.7613 2.27227 18.1197 2.34715C18.8365 2.48442 19.541 2.65914 20.2455 2.84633C20.6287 2.94617 21.0118 3.05849 21.3703 3.24568C22.0253 3.60759 22.495 4.2191 23.1253 4.61845C23.5579 4.893 24.0399 5.05523 24.4354 5.37971C24.8804 5.74162 25.1646 6.25328 25.4365 6.76495C25.7332 7.31405 26.0298 7.86316 26.2276 8.46218C26.277 8.61194 26.3264 8.77417 26.3635 8.92393C26.5118 9.56039 26.586 10.2093 26.6601 10.8583C26.7343 11.4947 26.8208 12.1437 27.0309 12.7552C27.0804 12.9049 27.1422 13.0547 27.204 13.2045C27.2287 13.2669 27.2658 13.3293 27.2781 13.3917C27.2781 13.479 27.2658 13.5664 27.2658 13.6537C27.2534 15.5382 27.0927 17.4101 27.0556 19.2945C26.9938 22.3396 26.7837 25.3846 26.45 28.4172C26.3882 28.9538 26.4624 29.4779 26.586 29.9896C26.9444 31.5121 27.0556 33.0346 26.8332 34.6071C26.6478 35.9299 26.6478 37.2902 26.5613 38.638C26.5242 39.237 26.2028 39.4866 25.6219 39.4991C24.9422 39.5116 24.3242 39.2246 23.6444 39.2121C22.6927 39.1871 21.7781 39.4118 20.8512 39.5116C19.2938 39.6613 17.786 39.3743 16.2534 39.1871C15.9815 39.1622 15.7219 39.0374 15.45 39.0498C15.1658 39.0498 14.8939 39.0623 14.6096 39.0498C14.4736 39.0374 14.3377 39.0374 14.2017 38.9999C14.1152 38.975 14.0534 38.9375 13.9669 38.925C13.5961 38.8876 13.2253 38.8876 12.8545 38.8626C12.4837 38.8502 12.113 38.8252 11.7422 38.8127C11.0006 38.7753 10.2467 38.7503 9.50509 38.7254C8.76351 38.7004 8.00958 38.6755 7.26801 38.6505C7.08261 38.6505 6.89722 38.638 6.71183 38.638C6.53879 38.638 6.34104 38.6006 6.16801 38.6255C6.11857 38.638 6.06913 38.663 6.03205 38.6754C5.85902 38.7254 5.64891 38.7004 5.47587 38.663C4.93205 38.5132 4.7961 37.9267 4.78374 37.4275C4.77138 37.0905 4.80846 36.7536 4.82082 36.4166C4.7961 36.0797 4.7961 35.7427 4.7961 35.3309Z" fill="#6B00FA" stroke="#362745" stroke-width="0.5" stroke-miterlimit="10"/>
<path d="M27.5995 45.8004C27.5006 46.4494 27.5872 47.1857 27.4018 47.8845C27.3276 48.1591 27.2658 48.4211 26.9692 48.5335C26.6849 48.6333 26.4872 48.5085 26.3512 48.2589C26.2523 48.0842 26.0793 48.0967 25.9062 48.0842C24.5096 47.9968 23.113 47.9095 21.7287 47.8346C16.9579 47.585 12.1995 47.3354 7.42872 47.0858C6.09389 47.0234 4.75906 46.986 3.42423 46.9111C3.0658 46.8861 2.34895 46.9111 2.26243 46.4244C2.23771 46.2746 2.15119 46.1498 2.11411 46.0001C2.0276 45.6881 2.01524 45.3511 2.01524 45.0267C1.99052 44.2779 1.97816 43.5166 1.95344 42.7679C1.95344 42.6431 1.95344 42.5183 1.94108 42.3935C1.94108 42.3061 1.91636 42.2562 1.87928 42.1938C1.79277 42.0066 1.86692 41.7944 1.99052 41.6447C2.15119 41.445 2.37367 41.3577 2.6085 41.4575C3.37479 41.7445 4.17816 41.6821 4.95681 41.732C8.61524 41.9442 12.286 42.1064 15.9568 42.2812C19.2939 42.4434 22.6186 42.6181 25.9557 42.7928C27.1051 42.8552 27.5501 43.3294 27.5501 44.5025C27.5501 44.9144 27.5748 45.3262 27.5995 45.8004Z" fill="#4300BF" stroke="#362745" stroke-width="0.5" stroke-miterlimit="10"/>
<path d="M16.9573 39.124C15.8326 39.0865 14.6955 39.0366 13.5832 38.8744C12.8663 38.762 12.1742 38.5998 11.4573 38.5C10.691 38.4001 9.90002 38.3877 9.13372 38.3752C7.95957 38.3502 6.76069 38.3377 5.62361 38.6248C4.48653 38.9118 3.37417 39.5483 2.76855 40.5716C3.84384 41.3703 5.25282 41.4701 6.58766 41.545C7.40339 41.5949 8.21912 41.6324 9.03485 41.6823C15.0539 42.0192 21.0731 42.3562 27.0922 42.3687C26.9068 41.7946 26.7214 41.2081 26.5236 40.634C26.3506 40.1223 26.1034 39.5233 25.5101 39.3985C25.3124 39.3611 25.1146 39.3985 24.9169 39.411C24.5708 39.411 24.2124 39.386 23.8663 39.3736C22.3955 39.3236 20.9124 39.2612 19.4416 39.2113C18.6135 39.1864 17.7854 39.1489 16.9573 39.124Z" fill="#6B00FA" stroke="#362745" stroke-width="0.5" stroke-miterlimit="10"/>
<path d="M30.6399 38.0753C30.8252 37.9755 31.0354 37.8756 31.1466 37.7009C31.2578 37.5262 31.2702 37.314 31.2825 37.1144C31.332 36.2907 31.3814 35.4795 31.4309 34.6559C31.4927 33.7324 31.5421 32.8089 31.5297 31.8854C31.5174 31.0118 31.4309 30.1382 31.4803 29.2771C31.5297 28.4784 31.6904 27.6922 31.7769 26.8935C32.0859 24.0731 31.4309 21.2278 31.5545 18.3949C31.6039 17.3466 31.7646 16.2983 31.8264 15.2375C32.0118 12.3797 31.5174 9.47191 30.405 6.8387C30.3061 6.61407 30.2073 6.38943 30.0219 6.23968C29.7747 6.04 29.441 6.01504 29.1691 5.85281C28.7859 5.6157 28.6376 5.14147 28.4275 4.72964C27.9084 3.70631 26.9196 3.00745 25.8443 2.62058C24.7691 2.23371 23.632 2.12139 22.5073 2.00907C21.7162 1.93419 20.9252 1.85932 20.1342 1.77196C19.7511 1.73452 19.1949 1.85932 19.2567 2.24619C20.3938 3.10728 21.7039 3.73127 22.9028 4.50501C24.1016 5.27874 25.2387 6.26464 25.8073 7.58748C26.0545 8.14907 26.178 8.76057 26.3016 9.37207C26.6724 11.1192 27.0309 12.8664 27.1174 14.651C27.1792 15.9489 27.0927 17.2592 27.0061 18.5696C26.8949 20.2793 26.8207 22.0015 26.7466 23.7112C26.6724 25.4209 26.623 27.1431 26.5983 28.8528C26.5612 30.575 26.5488 32.2847 26.5612 33.9945C26.5612 34.8555 26.5736 35.7166 26.5859 36.5653C26.5859 36.9896 26.5983 37.4264 26.6106 37.8507C26.623 38.25 26.5859 38.6868 26.6354 39.0986C26.7219 39.7101 27.4016 39.6228 27.8219 39.4356C28.5882 39.0986 29.3297 38.6993 30.096 38.3249C30.232 38.275 30.5039 38.0753 30.6399 38.0753Z" fill="#4300BF" stroke="#362745" stroke-width="0.5" stroke-miterlimit="10"/>
<path d="M27.414 42.2194C27.4634 42.3068 27.5252 42.4066 27.6241 42.4066C27.6859 42.4066 27.7477 42.3692 27.7971 42.3442C28.3657 41.9574 28.8353 41.4332 29.4533 41.1462C29.8735 40.9465 30.3308 40.8716 30.7634 40.7219C31.3814 40.5097 31.9376 40.1478 32.4938 39.7984C32.6915 39.6736 32.914 39.4864 32.8769 39.2493C32.8645 39.1619 32.8151 39.087 32.7657 39.0246C32.4567 38.6003 32.0859 38.2384 31.6657 37.9389C31.5792 37.8765 31.4926 37.8266 31.3938 37.8141C31.2702 37.8016 31.1466 37.864 31.0353 37.914C30.1331 38.3632 29.2432 38.8125 28.3533 39.2742C27.9084 39.4989 27.4634 39.736 27.0185 39.9606C26.6477 40.1478 26.3387 40.2851 26.5859 40.7344C26.8702 41.2335 27.1668 41.7202 27.414 42.2194Z" fill="#100342" stroke="#362745" stroke-width="0.5" stroke-miterlimit="10"/>
<path d="M27.8102 47.585C27.8226 47.6723 27.835 47.7722 27.8844 47.8346C28.0204 47.9843 28.2552 47.897 28.4282 47.7971C29.9237 46.9485 31.4192 46.0999 32.9147 45.2513C33.0631 45.1639 33.2237 45.0766 33.3226 44.9268C33.4215 44.7646 33.4338 44.5649 33.4462 44.3777C33.4956 43.3669 33.5327 42.356 33.5822 41.3327C33.5945 41.0456 33.5945 40.7336 33.4338 40.509C33.2608 40.2594 32.9271 40.1845 32.6305 40.222C32.3338 40.2594 32.0619 40.4092 31.8024 40.5589C30.6035 41.2328 29.4046 41.8943 28.2057 42.5557C27.8102 42.7803 27.3282 42.9301 27.3653 43.4542C27.4024 44.0657 27.5013 44.6772 27.563 45.2763C27.6001 45.6631 27.6496 46.0375 27.6866 46.4244C27.7237 46.8113 27.8102 47.2106 27.8102 47.585Z" fill="#100342" stroke="#362745" stroke-width="0.5" stroke-miterlimit="10"/>
<path d="M21.0371 8.42399C21.2719 8.62366 21.2472 9.03549 21 9.22269C20.7528 9.40989 20.3573 9.28509 20.246 8.99806C20.1348 8.71102 20.3449 8.34911 20.6416 8.29919C20.7775 8.28671 20.9258 8.32415 21.0371 8.42399Z" fill="#4300BF"/>
<path d="M23.0394 10.182C23.027 10.2444 23.0146 10.2943 23.0146 10.3567C23.027 10.469 23.1012 10.5564 23.2 10.5938C23.4596 10.7311 23.8427 10.5314 23.8798 10.2319C23.9045 9.93239 23.5832 9.64536 23.2989 9.73271C23.2742 9.72023 23.2371 9.74519 23.2248 9.77015C23.1135 9.90743 23.0888 10.0322 23.0394 10.182Z" fill="#4300BF"/>
<path d="M21.8152 11.9426C21.6298 11.9426 21.4444 11.9426 21.2713 11.9426C21.2219 11.9426 21.1725 11.9426 21.1354 11.9801C21.1107 12.005 21.1107 12.0425 21.0983 12.0799C21.0736 12.2297 21.0612 12.3669 21.0489 12.5167C21.0365 12.6914 21.0365 12.916 21.1848 13.0034C21.2837 13.0533 21.3949 13.0408 21.4938 13.0658C21.5803 13.0908 21.6545 13.1407 21.741 13.1282C21.914 13.1282 22.0253 12.941 22.0623 12.7663C22.0994 12.5791 22.1118 12.3919 22.0253 12.2172C21.9388 12.0425 21.7657 11.9177 21.5803 11.9426" fill="#4300BF"/>
<path d="M30.1591 17.3715C30.0355 17.2467 29.8872 17.2592 29.7266 17.3091C29.5783 17.3591 29.4917 17.5088 29.5041 17.6586C29.5041 17.7834 29.5906 17.9082 29.6771 17.9955C29.8131 18.1328 30.0603 18.008 30.1591 17.8832C30.2827 17.7584 30.2827 17.5213 30.1591 17.3715Z" fill="#6B00FA"/>
<path d="M29.2935 19.4674C29.2811 19.3925 29.2317 19.2677 29.1699 19.2053C29.0958 19.1305 28.9474 19.1679 28.8609 19.2053C28.7868 19.2428 28.7126 19.2927 28.6508 19.3551C28.6261 19.3801 28.6014 19.3925 28.589 19.43C28.5519 19.4924 28.5396 19.5548 28.5272 19.6296C28.5272 19.6671 28.4901 19.8418 28.5272 19.8668C28.6755 19.9666 28.8733 19.9916 29.0463 19.9167C29.1946 19.8293 29.3182 19.6421 29.2935 19.4674Z" fill="#6B00FA"/>
<path d="M7.99701 35.2422C7.76218 35.2422 7.53971 35.3545 7.42847 35.5542C7.31724 35.7538 7.35431 36.0409 7.52735 36.1906C7.71274 36.3529 8.31836 36.3404 8.49139 36.1782C8.66442 36.0159 8.42959 35.7289 8.33072 35.4918C8.1824 35.4044 8.02173 35.3171 7.86106 35.2422" fill="#4300BF"/>
<path d="M6.92236 31.1121C6.84821 31.3118 6.78641 31.5115 6.74933 31.7236C6.73697 31.761 6.73697 31.811 6.76169 31.8484C6.79877 31.9108 6.87292 31.9233 6.94708 31.9358C7.13248 31.9482 7.34259 31.9482 7.45382 31.811C7.4909 31.7735 7.51562 31.7111 7.52798 31.6612C7.58978 31.4615 7.5527 31.2244 7.37967 31.1121C7.20663 30.9998 6.93472 31.0622 6.89764 31.2619" fill="#4300BF"/>
<path d="M9.67873 33.1595C9.65401 33.0971 9.60458 32.9973 9.54278 32.9723C9.5057 32.9599 9.4439 32.9723 9.39447 32.9723C9.34503 32.9723 9.30795 32.9723 9.25851 32.9723C9.22143 32.9723 9.18435 32.9723 9.15964 32.9848C9.1102 33.0098 9.06076 33.0847 9.02368 33.1221C8.99896 33.1346 8.9866 33.1471 8.97424 33.172C8.93716 33.2344 8.9248 33.3218 8.9248 33.3966C8.9248 33.4216 8.92481 33.6213 8.94952 33.6213C9.07312 33.6462 9.5057 33.6837 9.6293 33.7086C9.70345 33.7211 9.49334 33.7461 9.55514 33.6962C9.57986 33.6712 9.60458 33.6462 9.6293 33.6088C9.69109 33.459 9.72817 33.2968 9.67873 33.1595Z" fill="#4300BF"/>
<path d="M21.7911 46.562C22.026 46.7368 22.4091 46.6868 22.5698 46.4372C22.6934 46.2501 22.6686 46.0129 22.6316 45.7883C22.6192 45.7259 22.6069 45.6635 22.5698 45.6261C22.5327 45.5886 22.4709 45.5761 22.4091 45.5761C22.2361 45.5512 22.0878 45.5637 21.9147 45.5637C21.89 45.5637 21.8653 45.5637 21.8406 45.5637C21.7788 45.5886 21.717 45.6385 21.6675 45.6885C21.5439 45.8133 21.4945 45.963 21.5316 46.1377C21.5687 46.3 21.6552 46.4622 21.7911 46.562Z" fill="#6B00FA"/>
<path d="M20.2216 44.1287C20.0485 44.2035 19.962 44.4157 20.0238 44.5904C20.1227 44.6778 20.2463 44.7526 20.3822 44.7651C20.5182 44.7776 20.6665 44.6902 20.6912 44.553C20.7159 44.4407 20.6542 44.3408 20.5924 44.241C20.5306 44.1411 20.4564 44.0413 20.3452 44.0039C20.2339 43.9789 20.0856 44.0787 20.1351 44.1911" fill="#6B00FA"/>
<path d="M28.8849 35.4673C28.6871 35.4049 28.4646 35.4923 28.3287 35.6421C28.1927 35.8043 28.1309 36.0164 28.1186 36.2161C28.1062 36.3284 28.1186 36.4408 28.1804 36.5281C28.2669 36.6404 28.4276 36.6529 28.5635 36.6155C28.8354 36.5655 29.0826 36.3659 29.1568 36.1038C29.2309 35.8417 29.0579 35.5048 28.786 35.4673C28.9837 35.4424 28.7489 35.3301 28.8849 35.4673Z" fill="#6B00FA"/>
<path d="M29.7624 32.3086C29.5028 32.3585 29.2557 32.5457 29.2309 32.8078C29.2062 33.0698 29.5028 33.3194 29.7377 33.1946C29.9725 32.97 29.9478 32.5332 29.7006 32.3211" fill="#6B00FA"/>
<path d="M21.6428 6.9011C21.4945 6.93854 21.4327 7.13822 21.4945 7.27549C21.5563 7.41277 21.717 7.48765 21.8776 7.48765C21.9518 7.48765 22.0383 7.46269 22.0754 7.40029C22.0878 7.36285 22.1001 7.32541 22.1001 7.28797C22.1001 7.1507 22.1001 7.00094 22.063 6.86367C21.9271 6.85119 21.7911 6.85119 21.6552 6.87615" fill="#100342"/>
<path d="M20.2823 9.10927C20.1711 9.12175 20.0475 9.13423 19.9486 9.18415C19.8498 9.23407 19.7632 9.34639 19.7756 9.45871C19.788 9.60846 19.9486 9.7083 20.0846 9.7707C20.1958 9.82062 20.3441 9.87054 20.443 9.78318C20.5419 9.69582 20.5048 9.54606 20.579 9.43375C20.6037 9.39631 20.6408 9.35887 20.6531 9.30895C20.6655 9.22159 20.5666 9.15919 20.4801 9.14671C20.3936 9.13423 20.2947 9.12175 20.2576 9.04688" fill="#100342"/>
<path d="M18.441 6.41406C18.3297 6.47646 18.2061 6.56382 18.1443 6.67614C18.0207 6.88829 18.1196 7.22524 18.3545 7.27516C18.5893 7.32508 18.7994 7.11292 18.923 6.90077C18.9354 6.87581 18.9477 6.85085 18.9477 6.82589C18.9477 6.80093 18.923 6.77597 18.8983 6.76349C18.7623 6.66366 18.6264 6.56382 18.4904 6.47646C18.4533 6.4515 18.3915 6.42654 18.3668 6.47646" fill="#100342"/>
<path d="M8.91221 8.60993C8.85041 8.75969 8.82569 8.93441 8.83805 9.10912C8.94929 9.17152 9.08524 9.15904 9.19648 9.10912C9.30771 9.04672 9.39423 8.95936 9.46839 8.84705C9.48075 8.82209 9.50547 8.79713 9.50547 8.75969C9.50547 8.70977 9.48075 8.65985 9.44367 8.62241C9.36951 8.53505 9.27063 8.47266 9.1594 8.46018C9.04816 8.4477 8.92457 8.53505 8.91221 8.63489" fill="#100342"/>
<path d="M8.35577 10.6446C8.25689 10.6945 8.24453 10.8568 8.30633 10.9441C8.38048 11.0315 8.50408 11.0689 8.61532 11.0564C8.68947 11.044 8.77599 11.019 8.80071 10.9566C8.85015 10.8568 8.77599 10.7444 8.70183 10.6696C8.62768 10.5822 8.51644 10.4824 8.39284 10.5198" fill="#100342"/>
<path d="M13.362 4.23143C13.3126 4.35622 13.3126 4.50598 13.3497 4.64325C13.4115 4.74309 13.5598 4.76805 13.6587 4.70565C13.7575 4.64325 13.807 4.51846 13.7946 4.39366C13.7699 4.25639 13.6216 4.11911 13.498 4.18151" fill="#100342"/>
<path d="M24.2128 16.4362C24.1263 16.5859 24.1634 16.8106 24.3117 16.9104C24.46 17.0102 24.6825 16.9603 24.769 16.8106C24.8184 16.7357 24.8184 16.6234 24.7937 16.536C24.7443 16.4112 24.6083 16.3239 24.4723 16.3239C24.3364 16.3114 24.2004 16.3738 24.1016 16.4611C24.151 16.4736 24.1881 16.4986 24.2375 16.5111" fill="#100342"/>
<path d="M23.4094 34.7675C23.3971 34.9547 23.3105 35.1294 23.3105 35.3166C23.3105 35.5038 23.4341 35.716 23.6195 35.716C23.7802 35.716 23.8914 35.5662 23.9656 35.4289C24.0274 35.3416 24.0768 35.2417 24.1263 35.1544C24.1633 35.1045 24.1881 35.0421 24.1633 34.9797C24.151 34.9547 24.1263 34.9297 24.1015 34.9173C23.8914 34.78 23.6319 34.7176 23.3723 34.7301" fill="#100342"/>
<path d="M23.4094 34.7675C23.3971 34.9547 23.3105 35.1294 23.3105 35.3166C23.3105 35.5038 23.4341 35.716 23.6195 35.716C23.7802 35.716 23.8914 35.5662 23.9656 35.4289C24.0274 35.3416 24.0768 35.2417 24.1263 35.1544C24.1633 35.1045 24.1881 35.0421 24.1633 34.9797C24.151 34.9547 24.1263 34.9297 24.1015 34.9173C23.8914 34.78 23.6319 34.7176 23.3723 34.7301" stroke="#362745" stroke-width="0.5" stroke-miterlimit="10"/>
<path d="M22.3223 32.6085C22.3841 32.7458 22.4829 32.8831 22.6189 32.9205C22.8537 32.9954 23.1256 32.7084 23.0268 32.4837C22.9279 32.2591 22.5324 32.2466 22.4335 32.4837" fill="#100641"/>
<path d="M17.2795 35.9543C17.1929 36.179 17.3783 36.4535 17.6132 36.491C17.848 36.5284 18.0828 36.3287 18.1446 36.0916C18.157 36.0542 18.157 36.0043 18.1323 35.9668C18.1075 35.9294 18.0705 35.9169 18.021 35.9044C17.8233 35.8545 17.6132 35.8046 17.4154 35.7422C17.3907 35.8046 17.366 35.8795 17.3536 35.9419" fill="#100641"/>
<path d="M8.04621 26.9433C8.02149 27.0556 7.98441 27.1679 8.00913 27.2802C8.02149 27.3925 8.09565 27.5048 8.20688 27.5298C8.33048 27.5672 8.46643 27.4674 8.51587 27.3426C8.56531 27.2178 8.56531 27.0805 8.55295 26.9557C8.40463 26.9308 8.25632 26.9058 8.12036 26.8809" fill="#100342"/>
<path d="M6.87301 43.7524C6.82357 43.9146 6.78649 44.1268 6.92244 44.2391C7.07076 44.3639 7.28087 44.2516 7.46626 44.289C7.50334 44.1393 7.5157 43.977 7.47862 43.8273C7.44154 43.6775 7.33031 43.5277 7.18199 43.5028C7.03368 43.4653 6.86065 43.5901 6.87301 43.7524C6.89773 43.7524 6.94716 43.7524 6.98424 43.7524H6.87301Z" fill="#100641"/>
<path d="M9.69043 44.8389C9.69043 45.0386 9.69043 45.2258 9.70279 45.4255C9.83874 45.4505 9.98706 45.4629 10.1354 45.4879C10.1724 45.4879 10.2219 45.5004 10.259 45.4754C10.296 45.4505 10.3084 45.4005 10.3208 45.3506C10.3702 45.1385 10.3702 44.9013 10.2219 44.7391C10.0736 44.5894 9.75223 44.6268 9.72751 44.8389" fill="#100641"/>
<path d="M22.4573 45.1876C22.3213 45.2999 22.2472 45.4995 22.3213 45.6618C22.3955 45.824 22.618 45.9114 22.7663 45.7991C22.8281 45.6618 22.8899 45.512 22.8651 45.3623C22.8404 45.2125 22.6427 45.1002 22.5191 45.2" fill="#100641"/>
<path d="M29.2307 45.2142C29.2059 45.314 29.1936 45.4264 29.2307 45.5262C29.2677 45.626 29.4037 45.6884 29.4902 45.626C29.5273 45.6011 29.5396 45.5636 29.552 45.5262C29.6014 45.4139 29.6262 45.3016 29.6138 45.1892C29.6014 45.0769 29.5149 44.9646 29.4037 44.9521C29.2925 44.9396 29.1689 45.052 29.2059 45.1518" fill="#100641"/>
<path d="M28.5628 30.2009C28.5381 30.3132 28.501 30.4255 28.5257 30.5379C28.5504 30.6502 28.637 30.7625 28.7482 30.75C28.9212 30.75 28.9954 30.5379 29.0201 30.3631C29.0448 30.2134 29.0448 30.0137 28.9089 29.9513C28.7606 29.8889 28.6246 30.0511 28.5381 30.1759" fill="#100641"/>
<path d="M29.8117 11.3804C29.7869 11.4927 29.7746 11.6175 29.824 11.7174C29.8735 11.8172 30.0094 11.8796 30.1083 11.8172C30.1577 11.7922 30.1825 11.7423 30.2072 11.6924C30.2443 11.5926 30.2813 11.4927 30.2566 11.3929C30.2319 11.2931 30.1577 11.1932 30.0589 11.1807C29.96 11.1683 29.8487 11.2681 29.8735 11.3679" fill="#100342"/>
<path d="M29.1328 13.0546C29.1328 13.1919 29.1328 13.3167 29.1452 13.454C29.3306 13.4789 29.516 13.3416 29.5407 13.1545C29.5654 12.9673 29.4171 12.7801 29.2317 12.7676C29.2441 12.8549 29.2193 12.9423 29.1823 13.0172" fill="#100342"/>
<path d="M30.764 13.3653C30.7146 13.5026 30.6775 13.6523 30.7022 13.8021C30.7269 13.9518 30.8752 14.0766 31.0112 14.0517C31.1966 14.0142 31.2337 13.7522 31.2213 13.5525C31.209 13.4152 31.1966 13.253 31.0854 13.1781C30.9741 13.1032 30.764 13.1906 30.8134 13.3154" fill="#100342"/>
<path d="M11.6179 27.5674C11.828 26.8187 11.4325 26.1448 10.864 25.4708C9.98643 24.435 9.18306 23.3493 8.99767 21.9017C8.5898 18.632 10.3943 15.4372 13.3729 14.2766C16.4999 13.0536 19.9606 14.1518 21.8269 16.9472C22.655 18.1827 23.0752 19.543 23.0752 21.0406C23.0752 22.4133 22.6426 23.5989 21.6909 24.5848C21.2336 25.0465 20.8505 25.5832 20.3685 26.02C19.8617 26.4692 19.6763 26.9809 19.7134 27.6298C19.7381 28.1415 19.6763 28.6532 19.6887 29.1648C19.6887 29.2023 19.6887 29.2397 19.6887 29.2647C19.6887 29.3146 19.6763 29.352 19.6763 29.3895C19.6763 29.4144 19.6763 29.6515 19.6887 29.6515C19.6022 29.6515 19.5156 29.6515 19.4415 29.664C19.3426 29.664 19.2437 29.6765 19.1449 29.664C18.9595 29.6391 18.7864 29.6391 18.601 29.6266C18.564 29.6266 18.5269 29.6266 18.4774 29.6141C18.4033 29.6141 18.3415 29.6016 18.2673 29.6016C18.2426 29.6016 18.2179 29.5891 18.1808 29.5891C18.1437 29.5891 18.1067 29.5891 18.0696 29.5891C17.9336 29.5891 17.7853 29.5891 17.637 29.5891C17.637 29.5143 17.6246 29.4394 17.6246 29.3645C17.6123 29.2147 17.6123 29.065 17.6123 28.9152C17.6123 28.6282 17.5999 28.3412 17.5999 28.0541C17.5999 28.0417 17.5999 28.0292 17.5876 28.0167C17.5752 28.0042 17.5628 28.0042 17.5505 28.0042C17.2538 27.9793 16.9572 28.0042 16.6606 28.0417C16.6606 28.2164 16.6606 28.3911 16.6482 28.5783C16.6482 28.6282 16.6482 28.6781 16.6482 28.728C16.6482 28.8029 16.6482 28.8653 16.6359 28.9402C16.6359 28.9652 16.6235 28.9776 16.6235 28.9901C16.6111 29.0151 16.6111 29.0525 16.6111 29.0775C16.5988 29.2147 16.5988 29.3645 16.6235 29.5018C16.537 29.5018 16.4505 29.5018 16.3516 29.5018C16.2404 29.5018 16.1168 29.5018 16.0055 29.4768C15.8696 29.4519 15.7213 29.4643 15.5853 29.4519C15.5359 29.4519 15.4741 29.4519 15.4246 29.4394C15.2887 29.4394 15.1527 29.4144 15.0168 29.4144C14.9426 29.4144 14.8808 29.4144 14.8067 29.4144C14.7943 29.4144 14.6089 29.4269 14.5965 29.4394C14.5965 29.3146 14.6089 29.1773 14.6089 29.0525C14.6089 28.9901 14.6089 28.9277 14.6213 28.8528C14.6213 28.7904 14.6336 28.728 14.6336 28.6656C14.6336 28.416 14.6336 28.1665 14.6213 27.9044C14.2999 27.842 13.9662 27.817 13.6325 27.817C13.6201 28.1041 13.6078 28.3911 13.5831 28.6781C13.5707 28.8154 13.5707 28.9652 13.5583 29.1149C13.5583 29.1523 13.5583 29.1898 13.5583 29.2272C13.5583 29.2522 13.5583 29.2771 13.546 29.2896C13.5336 29.3146 13.4718 29.3146 13.4471 29.3146C13.2741 29.3271 13.0887 29.3146 12.9156 29.3021C12.8415 29.3021 12.755 29.2896 12.6808 29.2896C12.4831 29.2771 12.2853 29.2771 12.0876 29.2647C12.0258 29.2647 11.9516 29.2522 11.8898 29.2522C11.8527 29.2397 11.8156 29.2272 11.7662 29.2272C11.7538 29.2272 11.5561 29.2147 11.5561 29.2147C11.5561 29.2023 11.5561 29.1898 11.5561 29.1773C11.5561 29.04 11.5561 28.8903 11.5561 28.7405C11.5561 28.6781 11.5437 28.6157 11.5685 28.5533C11.5808 28.5284 11.5685 28.5034 11.5685 28.4784C11.5685 28.416 11.5685 28.3536 11.5685 28.2913C11.5685 28.129 11.5808 27.9793 11.5808 27.817C11.6055 27.817 11.6055 27.7671 11.6179 27.5674ZM15.6224 25.2712C15.7336 25.2837 15.8449 25.2837 15.9561 25.2961C16.1291 25.3086 16.3145 25.3211 16.4876 25.3461C16.4258 25.1589 16.364 24.9717 16.2898 24.7969C16.2651 24.7221 16.228 24.6597 16.2033 24.5973C16.1786 24.5349 16.1415 24.485 16.1168 24.4226C16.1044 24.4101 16.1044 24.3851 16.1044 24.3726C16.092 24.3102 16.0673 24.2603 16.055 24.1979C15.9932 24.0482 15.9437 23.8859 15.8819 23.7237C15.8572 23.6488 15.8325 23.5864 15.7954 23.5115C15.7954 23.524 15.7707 23.5615 15.7707 23.5615C15.7583 23.5864 15.7336 23.6114 15.7213 23.6363C15.5606 23.861 15.4123 24.0856 15.2763 24.3227C15.2022 24.435 15.1404 24.5598 15.0662 24.6846C15.0291 24.747 15.0044 24.8094 14.9673 24.8593C14.955 24.8843 14.9426 24.9093 14.9302 24.9342C14.9179 24.9841 14.8685 25.0341 14.8314 25.084C14.7819 25.1464 14.7325 25.2088 14.6954 25.2837C14.6954 25.2837 14.7325 25.2837 14.7449 25.2837C14.7572 25.2837 14.7819 25.2837 14.7943 25.2837C14.8314 25.2837 14.8685 25.2837 14.9055 25.2837C14.9797 25.2837 15.0415 25.2837 15.1156 25.2712C15.1404 25.2712 15.1774 25.2587 15.2022 25.2587C15.2392 25.2587 15.2763 25.2587 15.3134 25.2712C15.3876 25.2712 15.4494 25.2837 15.5235 25.2837C15.5606 25.2587 15.5977 25.2587 15.6224 25.2712Z" fill="#362745" stroke="#362745" stroke-width="0.5" stroke-miterlimit="10"/>
<path d="M11.3338 27.2186C11.5316 26.4823 11.1484 25.8209 10.5923 25.1595C9.72709 24.1362 8.93608 23.0754 8.76305 21.6652C8.36754 18.4579 10.135 15.338 13.0518 14.2024C16.117 13.0043 19.5035 14.0776 21.3451 16.8231C22.1484 18.0336 22.5687 19.3689 22.581 20.829C22.581 22.1769 22.1608 23.3375 21.2215 24.2984C20.7765 24.7601 20.4057 25.2843 19.9237 25.6961C19.4293 26.1329 19.2439 26.6321 19.281 27.281C19.3057 27.7802 19.2439 28.2794 19.2563 28.7786C19.2563 28.816 19.2563 28.841 19.2563 28.8784C19.2563 28.9159 19.2439 28.9658 19.2439 29.0032C19.2439 29.0282 19.2439 29.2528 19.2563 29.2528C19.1698 29.2528 19.0956 29.2528 19.0091 29.2528C18.9102 29.2528 18.8114 29.2653 18.7125 29.2528C18.5394 29.2279 18.3541 29.2279 18.181 29.2154C18.1439 29.2154 18.1069 29.2154 18.0698 29.2029C17.9956 29.2029 17.9338 29.1904 17.8597 29.1904C17.835 29.1904 17.8102 29.1779 17.7855 29.1779C17.7484 29.1779 17.7114 29.1779 17.6743 29.1779C17.5383 29.1779 17.39 29.1779 17.2541 29.1779C17.2541 29.1031 17.2417 29.0407 17.2417 28.9658C17.2293 28.816 17.2293 28.6788 17.2293 28.529C17.2293 28.242 17.217 27.9674 17.217 27.6804C17.217 27.6679 17.217 27.6554 17.2046 27.6429C17.1923 27.6305 17.1799 27.6305 17.1675 27.6305C16.8833 27.6055 16.5866 27.6305 16.3024 27.6679C16.3024 27.8426 16.3024 28.0173 16.29 28.192C16.29 28.242 16.29 28.2919 16.29 28.3418C16.29 28.4042 16.29 28.4791 16.2777 28.554C16.2777 28.5789 16.2653 28.5914 16.2653 28.6039C16.2529 28.6288 16.2529 28.6663 16.2529 28.6912C16.2406 28.8285 16.2406 28.9658 16.2653 29.1031C16.1788 29.1031 16.0923 29.1031 16.0057 29.1031C15.8945 29.1031 15.7833 29.1031 15.672 29.0781C15.5361 29.0531 15.4001 29.0656 15.2518 29.0531C15.2024 29.0531 15.1406 29.0531 15.0911 29.0407C14.9552 29.0407 14.8316 29.0157 14.6956 29.0157C14.6215 29.0157 14.5597 29.0157 14.4855 29.0157C14.4732 29.0157 14.2878 29.0282 14.2878 29.0407C14.2878 28.9159 14.3001 28.7911 14.3001 28.6538C14.3001 28.5914 14.3001 28.529 14.3125 28.4666C14.3125 28.4042 14.3248 28.3418 14.3248 28.2794C14.3248 28.0298 14.3248 27.7802 14.3125 27.5306C13.9911 27.4807 13.6698 27.4433 13.3484 27.4433C13.3361 27.7303 13.3237 28.0049 13.3114 28.2919C13.299 28.4292 13.299 28.5789 13.2866 28.7162C13.2866 28.7536 13.2866 28.7911 13.2866 28.8285C13.2866 28.8535 13.2866 28.8784 13.2743 28.8909C13.2619 28.9159 13.2001 28.9159 13.1754 28.9159C13.0024 28.9283 12.8293 28.9159 12.6563 28.9034C12.5821 28.9034 12.4956 28.8909 12.4215 28.8909C12.2237 28.8784 12.026 28.8784 11.8406 28.8659C11.7788 28.8659 11.717 28.8535 11.6428 28.8535C11.6057 28.8535 11.5687 28.8285 11.5192 28.8285C11.5069 28.8285 11.3215 28.816 11.3215 28.816C11.3215 28.8035 11.3215 28.7911 11.3215 28.7786C11.3215 28.6413 11.3215 28.4916 11.3215 28.3543C11.3215 28.2919 11.3091 28.2295 11.3338 28.1796C11.3462 28.1546 11.3338 28.1296 11.3338 28.1047C11.3338 28.0423 11.3338 27.9799 11.3338 27.9175C11.3338 27.7677 11.3462 27.6055 11.3462 27.4557C11.3215 27.4557 11.3215 27.4183 11.3338 27.2186ZM15.2642 24.9598C15.3754 24.9723 15.4866 24.9723 15.5855 24.9848C15.7586 24.9973 15.9316 25.0097 16.1046 25.0347C16.0428 24.86 15.9934 24.6728 15.9192 24.4856C15.8945 24.4107 15.8574 24.3483 15.8327 24.2859C15.808 24.2235 15.7709 24.1736 15.7462 24.1112C15.7338 24.0987 15.7338 24.0738 15.7338 24.0613C15.7215 23.9989 15.6968 23.949 15.6844 23.8866C15.6226 23.7368 15.5732 23.5746 15.5114 23.4248C15.4866 23.3499 15.4619 23.2875 15.4248 23.2127C15.4248 23.2251 15.4001 23.2501 15.4001 23.2626C15.3878 23.2875 15.363 23.3125 15.3507 23.3375C15.2024 23.5621 15.0541 23.7867 14.9181 24.0114C14.8439 24.1237 14.7821 24.2485 14.7203 24.3608C14.6833 24.4232 14.6586 24.4731 14.6215 24.5355C14.6091 24.5605 14.5968 24.5854 14.5844 24.6104C14.572 24.6603 14.5226 24.7102 14.4855 24.7477C14.4361 24.8101 14.399 24.8725 14.3496 24.9349C14.3496 24.9349 14.3866 24.9349 14.399 24.9349C14.4114 24.9349 14.4361 24.9349 14.4484 24.9349C14.4855 24.9349 14.5226 24.9349 14.5597 24.9349C14.6338 24.9349 14.6956 24.9349 14.7698 24.9224C14.7945 24.9224 14.8316 24.9099 14.8563 24.9099C14.8934 24.9099 14.9305 24.9099 14.9675 24.9224C15.0417 24.9224 15.1035 24.9349 15.1777 24.9349C15.2024 24.9598 15.2395 24.9598 15.2642 24.9598Z" fill="#FFF2D1" stroke="#362745" stroke-width="0.5" stroke-miterlimit="10"/>
<path d="M20.0478 14.9278C17.786 13.1058 15.2276 12.8063 12.5826 14.0043C8.34329 15.9262 7.20621 21.617 9.75228 24.4498C10.1107 24.8492 10.3826 25.3109 10.7534 25.7103C11.0871 26.0722 11.1983 26.4591 11.1736 26.9458C11.1365 27.6197 11.0747 28.3061 11.1736 29.0424L13.3489 29.1422L13.386 27.5822L14.2264 27.6072V27.6197C14.2264 27.6322 14.2264 27.6446 14.2264 27.6571C14.2264 27.6696 14.2264 27.6946 14.2264 27.707C14.2264 27.732 14.2264 27.757 14.2264 27.7694C14.2264 27.7944 14.2264 27.8194 14.2264 27.8443C14.2264 27.8693 14.2264 27.9067 14.2264 27.9317C14.2264 27.9691 14.2264 27.9941 14.2264 28.0315C14.2264 28.069 14.2264 28.1064 14.2264 28.1438C14.2264 28.1813 14.2264 28.2187 14.2264 28.2561C14.2264 28.2936 14.2264 28.331 14.2264 28.3685C14.2264 28.4059 14.2264 28.4433 14.2264 28.4808C14.2264 28.5182 14.2264 28.5557 14.2264 28.5931C14.2264 28.6305 14.2264 28.6555 14.2264 28.6929C14.2264 28.7179 14.2264 28.7553 14.2264 28.7928C14.2264 28.8177 14.2264 28.8552 14.2264 28.8801C14.2264 28.9051 14.2264 28.93 14.2264 28.955C14.2264 28.9675 14.2264 28.9924 14.2264 29.0174C14.2264 29.0299 14.2264 29.0424 14.2264 29.0548C14.2264 29.0923 14.2141 29.1297 14.2141 29.1796C14.2264 29.1796 14.2264 29.1796 14.2388 29.1796H14.2512H14.2635C14.2759 29.1796 14.3006 29.1796 14.3129 29.1796C14.35 29.1796 14.3871 29.1796 14.4242 29.1796C14.5725 29.1796 14.7085 29.1921 14.8568 29.1921C15.0298 29.2046 15.2152 29.2046 15.4006 29.2171C15.5613 29.2296 15.7343 29.2296 15.895 29.242C15.9938 29.242 16.0927 29.2545 16.204 29.2545C16.2163 29.2545 16.2287 29.2545 16.241 29.2545C16.2658 29.2545 16.2781 29.2545 16.3028 29.242C16.3028 29.2046 16.3152 29.1547 16.3152 29.1172V29.1048C16.3152 29.0923 16.3152 29.0673 16.3276 29.0548C16.3276 29.0174 16.3399 28.98 16.3399 28.955C16.3399 28.93 16.3399 28.9051 16.3399 28.8801C16.3399 28.8552 16.3399 28.8302 16.3399 28.8177C16.3399 28.7928 16.3399 28.7803 16.3399 28.7553C16.3399 28.7304 16.3399 28.7054 16.3399 28.6805C16.3399 28.6555 16.3399 28.6181 16.3399 28.5806C16.3399 28.5432 16.3399 28.5057 16.3399 28.4808C16.3399 28.4433 16.3399 28.4059 16.3399 28.3685C16.3399 28.331 16.3399 28.2936 16.3399 28.2561C16.3399 28.2187 16.3399 28.1813 16.3399 28.1438C16.3399 28.1064 16.3399 28.069 16.3399 28.0315C16.3399 28.0066 16.3399 27.9691 16.3399 27.9317C16.3399 27.9067 16.3399 27.8818 16.3399 27.8568C16.3399 27.8318 16.3399 27.8194 16.3399 27.7944C16.3399 27.7819 16.3399 27.7694 16.3399 27.757V27.7445L17.1804 27.7694L17.1433 29.3169C17.2792 29.3169 19.4298 29.4168 19.4298 29.4168C19.4298 28.9675 19.4298 28.5182 19.4298 28.0565C19.4298 27.8443 19.4298 27.6322 19.4298 27.42C19.4298 27.3576 19.4298 27.2952 19.4174 27.2453C19.4174 27.0955 19.4174 26.9458 19.4422 26.8085C19.4669 26.6587 19.5163 26.4965 19.6152 26.3717C19.6399 26.3468 19.6646 26.3093 19.6894 26.2844C19.7264 26.2469 19.7512 26.222 19.7882 26.1845C19.85 26.1221 19.9118 26.0472 19.9736 25.9848C20.0972 25.8476 20.2208 25.7228 20.3444 25.5855C20.468 25.4482 20.5792 25.3234 20.7028 25.1861C20.8264 25.0489 20.9377 24.9241 21.0489 24.7868C21.1601 24.6495 21.2837 24.5247 21.395 24.3874C21.5062 24.2502 21.6174 24.1254 21.7287 23.9881C21.7905 23.9257 21.8399 23.8508 21.9017 23.7884C22.3219 23.2643 22.6186 22.6777 22.7174 22.0038C23.1624 19.121 22.2849 16.7249 20.0478 14.9278ZM13.0399 27.1704C13.0152 27.1704 12.9905 27.1704 12.9534 27.1704C12.941 27.1704 12.9287 27.1704 12.9163 27.1704C12.9163 27.2328 12.9163 27.2952 12.9163 27.3576C12.9163 27.4824 12.904 27.6197 12.904 27.7445C12.8916 28.0066 12.8792 28.2811 12.8792 28.5432L11.7792 28.4933C11.7792 28.3809 11.7916 28.2686 11.7916 28.1563C11.804 27.9067 11.8163 27.6571 11.8163 27.395C11.8287 27.133 11.841 26.8584 11.841 26.5963C11.841 26.4965 11.8534 26.3967 11.8534 26.2968C11.8534 26.2469 11.841 26.197 11.841 26.1596C11.841 26.1096 11.8287 26.0597 11.8287 26.0098C11.8287 25.9848 11.8163 25.9724 11.8163 25.9474C11.804 25.9349 11.804 25.91 11.7916 25.8975C11.7792 25.86 11.7669 25.8226 11.7422 25.7852C11.7051 25.7103 11.668 25.6354 11.6309 25.5605C11.5938 25.4857 11.5444 25.4233 11.495 25.3484C11.4703 25.3109 11.4332 25.261 11.3961 25.2236C10.877 24.5871 10.3826 23.9257 9.88823 23.2643C9.18374 22.2909 9.06014 21.1552 9.1961 20.0071C9.50508 17.4238 10.8399 15.5518 13.2253 14.5909C15.586 13.6424 17.8231 14.0418 19.7017 15.7515C21.6174 17.4862 22.3219 19.6951 21.704 22.2784C21.5556 22.9398 21.1354 23.414 20.7152 23.8883C20.1961 24.4748 19.6646 25.0489 19.1332 25.6229C19.1085 25.6479 19.0837 25.6604 19.0714 25.6853C19.0714 25.6978 19.0714 25.6978 19.059 25.7103C19.0467 25.7228 19.0467 25.7352 19.0343 25.7477C19.0219 25.7727 18.9972 25.7976 18.9849 25.8226C18.9725 25.8351 18.9725 25.8476 18.9601 25.86C18.9478 25.8725 18.9478 25.8725 18.9478 25.885C18.9231 25.9349 18.8983 25.9848 18.8736 26.0348C18.8242 26.1471 18.7995 26.2719 18.7747 26.3967C18.7624 26.4591 18.7624 26.5215 18.7624 26.5839C18.7624 26.6088 18.7624 26.6463 18.7624 26.6712C18.7624 26.6837 18.7624 26.6962 18.7624 26.7211C18.7624 26.7461 18.7624 26.7711 18.7624 26.796C18.7624 26.8335 18.7624 26.8834 18.7624 26.9208C18.7624 26.9957 18.7624 27.0581 18.7624 27.133C18.7624 27.2702 18.7624 27.42 18.7624 27.5573C18.7624 27.6946 18.7624 27.8443 18.7624 27.9816C18.7624 28.1189 18.7624 28.2686 18.7624 28.4059C18.7624 28.4808 18.7624 28.5432 18.7624 28.6181C18.7624 28.6555 18.7624 28.6929 18.7624 28.7304C18.7624 28.7429 18.7624 28.7553 18.7624 28.7678V28.7803C18.75 28.7928 18.7377 28.7803 18.7377 28.7803C18.7253 28.7803 18.7006 28.7803 18.6882 28.7803C18.6264 28.7803 18.5523 28.7803 18.4905 28.7678C18.2186 28.7553 17.9467 28.7429 17.6747 28.7304C17.6871 28.4933 17.6871 28.2561 17.6995 28.0315C17.6995 27.9566 17.7118 27.8693 17.7118 27.7944C17.7118 27.6946 17.7118 27.6072 17.7118 27.5074C17.7118 27.4699 17.7118 27.445 17.7118 27.4075L17.5512 27.3826C17.4894 27.3701 17.4276 27.3576 17.3658 27.3576C17.2298 27.3451 17.1062 27.3326 16.9703 27.3202C16.8343 27.3077 16.6983 27.3077 16.5624 27.3077C16.4264 27.3077 16.2905 27.3077 16.1545 27.3077C16.0433 27.3077 15.9197 27.3077 15.8085 27.3077L15.759 28.7429L14.659 28.6929L14.7085 27.2827C14.6467 27.2703 14.5725 27.2578 14.5107 27.2453C14.3747 27.2203 14.2512 27.2079 14.1152 27.1954C13.9792 27.1829 13.8433 27.1829 13.7073 27.1704C13.5714 27.1704 13.4354 27.1704 13.2995 27.1579C13.2377 27.1579 13.1635 27.1579 13.1017 27.1579" fill="#362745"/>
<path d="M15.7831 23.0031C15.7707 22.9906 15.7707 22.9657 15.7584 22.9532C15.7337 22.9158 15.7213 22.8658 15.6966 22.8284C15.6842 22.8034 15.6719 22.7785 15.6595 22.7535C15.6471 22.7286 15.6348 22.7161 15.6224 22.6911C15.573 22.6162 15.5359 22.5289 15.4865 22.454C15.4618 22.4166 15.4494 22.3791 15.4247 22.3292C15.4247 22.3167 15.4123 22.3043 15.4123 22.3043C15.4123 22.2918 15.4 22.2793 15.4 22.2793C15.3876 22.2793 15.3876 22.2793 15.3876 22.2918C15.3876 22.3043 15.3752 22.3043 15.3752 22.3167C15.3752 22.3292 15.3629 22.3417 15.3629 22.3542C15.3505 22.3791 15.3382 22.4041 15.3258 22.4166C15.2764 22.4915 15.2269 22.5788 15.1898 22.6537C15.1404 22.7286 15.091 22.8159 15.0539 22.8908C14.9921 22.9906 14.9427 23.0905 14.8809 23.2028C14.8561 23.2402 14.8438 23.2777 14.8191 23.3026C14.7943 23.3401 14.7696 23.3775 14.7573 23.415C14.7325 23.4524 14.7078 23.4898 14.6831 23.5397C14.6584 23.5772 14.6337 23.6271 14.6089 23.6645C14.5842 23.7145 14.5595 23.7519 14.5348 23.8018C14.5101 23.8517 14.4853 23.8892 14.4606 23.9391C14.4359 23.989 14.4112 24.0389 14.3865 24.0764C14.3618 24.1263 14.337 24.1762 14.3123 24.2137C14.2876 24.2636 14.2629 24.301 14.2382 24.3509C14.2134 24.4009 14.1887 24.4383 14.164 24.4882C14.1393 24.5381 14.1146 24.5756 14.0898 24.6255C14.0651 24.6629 14.0404 24.7128 14.0157 24.7503C13.991 24.7877 13.9662 24.8252 13.9539 24.8626C13.9292 24.9 13.9168 24.9375 13.8921 24.9749C13.8797 25.0124 13.855 25.0373 13.8427 25.0748C13.8303 25.0997 13.8056 25.1247 13.7932 25.1621C13.7809 25.1871 13.7685 25.212 13.7561 25.237C13.7438 25.2495 13.7314 25.2744 13.7314 25.2869C13.7191 25.2994 13.7191 25.3119 13.7067 25.3243L13.6943 25.3368H13.7067C13.7809 25.3368 13.8427 25.3368 13.9168 25.3493C13.9292 25.3493 13.9415 25.3493 13.9662 25.3493C13.9786 25.3493 14.0033 25.3493 14.0157 25.3493C14.028 25.3493 14.028 25.3493 14.0404 25.3493C14.0528 25.3493 14.0651 25.3493 14.0775 25.3493C14.0898 25.3493 14.1022 25.3493 14.1269 25.3493C14.1393 25.3493 14.164 25.3493 14.1764 25.3493C14.2011 25.3493 14.2258 25.3493 14.2382 25.3493C14.2629 25.3493 14.2876 25.3493 14.3123 25.3493C14.337 25.3493 14.3618 25.3493 14.3865 25.3493C14.4112 25.3493 14.4483 25.3493 14.473 25.3493C14.4977 25.3493 14.5348 25.3493 14.5595 25.3493C14.5966 25.3493 14.6213 25.3493 14.6584 25.3493C14.6955 25.3493 14.7202 25.3493 14.7573 25.3493C14.7943 25.3493 14.8314 25.3493 14.8561 25.3493C14.8932 25.3493 14.9303 25.3493 14.9674 25.3493C15.0044 25.3493 15.0415 25.3493 15.0786 25.3493C15.1157 25.3493 15.1528 25.3493 15.1898 25.3493C15.2269 25.3493 15.264 25.3493 15.3011 25.3493C15.3382 25.3493 15.3752 25.3493 15.4123 25.3493C15.4494 25.3493 15.4865 25.3493 15.5235 25.3493C15.5606 25.3493 15.5977 25.3493 15.6348 25.3493C15.6719 25.3493 15.7089 25.3493 15.746 25.3493C15.7831 25.3493 15.8202 25.3493 15.8449 25.3493C15.882 25.3493 15.9067 25.3493 15.9438 25.3493C15.9809 25.3493 16.0056 25.3493 16.0427 25.3493C16.0674 25.3493 16.1044 25.3493 16.1292 25.3493C16.1539 25.3493 16.191 25.3493 16.2157 25.3493C16.2404 25.3493 16.2651 25.3493 16.2898 25.3493C16.3146 25.3493 16.3393 25.3493 16.364 25.3493C16.3887 25.3493 16.4011 25.3493 16.4258 25.3493L16.8707 25.3618C16.8831 25.3618 16.8831 25.3618 16.8831 25.3618C16.8584 25.2869 16.8213 25.2245 16.7966 25.1496C16.7224 24.9749 15.7955 23.0281 15.7831 23.0031C15.7831 23.0156 15.7831 23.0156 15.7831 23.0031ZM14.5101 24.8876C14.8067 24.3759 15.0786 23.9141 15.3876 23.3775C15.5977 23.9516 15.7707 24.4008 15.9809 24.95C15.4741 24.925 15.0539 24.9 14.5101 24.8876Z" fill="#362745"/>
<path d="M7.50293 15.2637C7.50293 15.3261 7.51529 15.376 7.51529 15.4259L7.50293 15.2637ZM7.50293 15.2637C7.50293 15.3261 7.51529 15.376 7.51529 15.4259L7.50293 15.2637Z" fill="#FFF2D1"/>
<path d="M7.50293 15.2637C7.50293 15.3261 7.51529 15.376 7.51529 15.4259M7.50293 15.2637C7.50293 15.3261 7.51529 15.376 7.51529 15.4259L7.50293 15.2637Z" stroke="#362745" stroke-width="2" stroke-miterlimit="10"/>
<path d="M33.6682 39.0999C33.0379 38.5882 32.5682 37.9268 31.975 37.3527C32.0121 36.7163 32.0862 36.1422 32.0862 35.5681C32.0739 33.9957 32.1727 32.4233 32.0491 30.8508C31.975 29.8899 32.2345 28.9664 32.4941 28.0429C33.0008 26.2833 32.7166 24.4737 32.457 22.7391C32.2716 21.5036 32.2469 20.3055 32.3334 19.0825C32.4199 18.0093 32.4323 16.936 32.5188 15.8628C32.63 14.3402 32.766 12.8427 32.3829 11.3077C32.0491 10.0098 31.975 8.64951 31.4559 7.40155C31.048 6.42813 31.048 6.42813 29.7873 4.74338C28.6626 3.54533 28.4896 3.53285 27.5255 2.94631C26.784 2.49704 26.0548 2.07273 25.1525 1.98537C24.0031 1.87306 22.9402 1.36139 21.8031 1.17419C19.8255 0.849723 17.8727 1.02444 15.9199 1.32395C13.2997 1.73578 10.7166 2.24745 8.70195 4.26915C7.75027 5.23009 6.77386 6.1411 6.366 7.47643C6.25476 7.85082 6.00757 8.17529 5.82218 8.51224C4.96937 9.97236 5.16712 10.6338 5.04353 12.5307C5.11768 12.668 4.87049 13.4916 4.78398 13.7163C4.67274 14.9892 4.66038 14.178 4.67274 14.7271C4.70982 16.3869 4.72218 18.0467 4.73454 19.694C4.7469 21.1916 4.80869 22.6891 4.53678 24.1617C4.24016 25.7217 4.26487 27.2941 4.25251 28.8666C4.25251 29.216 4.26487 29.5779 4.17836 29.9149C3.91881 31.0879 3.9806 32.261 4.0424 33.4341C4.12892 35.0315 4.05476 36.6164 4.24016 38.2513C3.32555 38.9751 2.4233 39.6989 1.50869 40.3978C1.18735 40.6349 1.00195 40.897 1.00195 41.3213C1.02667 43.0809 1.02667 44.8405 1.03903 46.6002C1.03903 47.0744 1.2615 47.3365 1.74353 47.3739C3.9806 47.5112 6.20532 47.6485 8.43004 47.7982C11.3222 47.9854 14.202 48.1601 17.0941 48.3473C20.3694 48.5595 23.6446 48.7841 26.9199 48.9963C27.3649 49.0212 27.7727 48.9214 28.1559 48.6843C29.8739 47.636 31.6042 46.5877 33.3345 45.5644C33.7548 45.3148 33.9154 44.9903 33.9154 44.5036C33.9278 42.9686 33.9649 41.4336 34.002 39.9111C34.002 39.5991 33.9402 39.312 33.6682 39.0999ZM5.22892 31.2127C5.37723 30.1645 5.51319 29.1286 5.48847 28.0679C5.45139 26.6951 5.61207 25.3473 5.80982 23.9995C6.08173 22.1276 5.98285 20.2431 5.94577 18.3587C5.93341 17.6723 5.92105 16.9859 5.93341 16.312C5.93341 16.1373 5.94577 15.9626 5.95813 15.7879C5.97049 15.688 5.98285 15.5882 5.98285 15.4759C5.98285 15.426 6.01993 15.3885 6.05701 15.3511C6.10645 15.2887 6.16825 15.2263 6.21768 15.1639C6.23004 15.1514 6.2424 15.1389 6.26712 15.1265C6.27948 15.1265 6.3042 15.1265 6.31656 15.1389C6.53903 15.2388 6.92218 15.6007 6.93454 15.6256C6.93454 15.6381 7.37948 15.9751 7.37948 15.9876C7.39184 16 7.10757 16.624 7.10757 16.649C7.63903 16.649 7.50308 16.4743 7.93566 15.688C7.96038 15.6381 7.50308 15.3261 7.50308 15.2637C7.42892 15.1889 7.4042 15.089 7.36712 15.0017C7.33004 14.8893 7.26825 14.7895 7.20645 14.7022C7.16937 14.6522 7.13229 14.6148 7.09521 14.5649C7.05813 14.5274 7.02105 14.49 6.98398 14.4526C6.95926 14.4276 6.9469 14.4026 6.9469 14.3652C6.93454 14.3153 6.90982 14.2778 6.89746 14.2279C6.84802 14.1156 6.79858 13.9908 6.7615 13.866C6.67499 13.6289 6.60083 13.3793 6.52667 13.1297C6.45252 12.8801 6.37836 12.6305 6.29184 12.3809C6.2424 12.2437 6.19296 12.1189 6.14353 11.9816C6.23004 10.8085 6.45251 9.68533 7.21881 8.73687C7.39184 8.51224 7.50308 8.2252 7.58959 7.96313C7.93566 6.815 8.70195 5.99134 9.57948 5.25504C10.1233 4.7933 10.6177 4.24419 11.248 3.9322C11.2604 3.91972 11.3098 3.95716 11.3222 3.95716C11.3469 3.96964 11.3716 3.98212 11.3963 3.9946C11.4458 4.03204 11.4829 4.06948 11.5076 4.1194C11.557 4.18179 11.5694 4.26915 11.6064 4.33155C11.6312 4.39395 11.6559 4.46883 11.6806 4.53122C11.73 4.6685 11.7795 4.7933 11.8166 4.93057C11.8289 4.95553 11.8289 4.96801 11.8413 4.98049C11.8413 4.99297 11.8536 5.00545 11.8536 5.00545C11.8536 5.00545 11.8784 5.01793 11.8907 5.01793C11.9402 5.03041 11.9896 5.05537 12.039 5.06785C12.0514 5.06785 11.9896 5.4048 11.9896 5.42976V5.49216C11.9896 5.54208 11.9772 5.60448 11.9772 5.65439C11.9649 5.76671 11.9649 5.87903 11.9525 5.99134C11.9525 6.02878 11.9402 6.0787 11.9525 6.11614C11.9649 6.15358 11.9772 6.17854 11.9896 6.21598C12.0885 6.41565 12.1379 7.16443 12.1379 7.16443C12.1379 7.16443 12.2986 6.74012 12.2862 6.71517C12.2739 6.67773 12.2739 6.65277 12.2615 6.61533C12.2491 6.55293 12.2368 6.47805 12.2244 6.41565C12.2121 6.3283 12.1997 6.24094 12.1873 6.1411C12.1873 6.10366 12.175 6.0787 12.175 6.04126C12.175 6.0163 12.1626 6.00382 12.175 5.97887C12.1873 5.94143 12.1997 5.90399 12.2244 5.87903C12.2368 5.84159 12.2615 5.80415 12.2739 5.76671C12.2739 5.76671 12.348 5.77919 12.3604 5.79167C12.3851 5.80415 12.4098 5.81663 12.4345 5.81663C12.5087 5.82911 12.5705 5.85407 12.6323 5.89151C12.657 5.90399 12.6817 5.91647 12.7064 5.94143C12.7188 5.96639 12.7312 5.99134 12.7435 6.0163C12.8053 6.17854 12.8671 6.35326 12.9413 6.51549C12.9536 6.54045 12.966 6.57789 12.9907 6.60285C13.0154 6.62781 13.0402 6.64029 13.0649 6.65277C13.2255 6.7526 13.3986 6.85244 13.5593 6.95228C13.4851 6.82748 13.3739 6.72765 13.275 6.60285C13.1267 6.41565 13.0278 6.19102 12.9907 5.95391C12.9784 5.90399 12.9784 5.85407 12.9784 5.80415C12.8548 5.71679 12.7312 5.64191 12.6076 5.55456C12.5581 5.51712 12.4963 5.49216 12.4593 5.45472C12.4469 5.44224 12.4345 5.41728 12.4345 5.39232C12.4222 5.35488 12.4098 5.32992 12.3975 5.29248C12.348 5.15521 12.3109 5.01793 12.2615 4.89313C12.2491 4.8557 12.2368 4.80578 12.1997 4.7933C12.1873 4.78082 12.1626 4.78082 12.1379 4.76834C12.1008 4.74338 12.0885 4.69346 12.0761 4.65602C12.0638 4.6061 12.0514 4.5437 12.039 4.49379C12.0267 4.45635 12.0143 4.40643 12.0143 4.35651V4.30659C12.002 4.21923 11.9772 4.13188 11.9772 4.04452C11.9649 3.81988 12.0143 3.59525 12.1379 3.39558C15.9076 2.83399 19.7143 2.37224 23.0267 5.30496V7.05212C23.0267 7.10204 23.0267 7.16443 23.002 7.21435C22.9896 7.22683 22.9896 7.23931 22.9772 7.26427C22.9649 7.30171 22.9525 7.33915 22.9278 7.36411C22.8907 7.42651 22.8536 7.4889 22.8042 7.56378C22.7548 7.63866 22.7053 7.71354 22.6806 7.8009C22.693 7.78842 22.7053 7.78842 22.7177 7.77594L22.7548 7.7385C22.7795 7.71354 22.8166 7.68858 22.8413 7.6761C22.9031 7.63866 22.9525 7.58874 23.002 7.53882C23.0267 7.51386 23.039 7.4889 23.0638 7.45147C23.0885 7.41403 23.1132 7.35163 23.1379 7.31419C23.175 7.27675 23.1997 7.21435 23.2121 7.15195C23.2244 7.12699 23.2368 7.11451 23.2368 7.08956C23.2491 7.0646 23.2491 7.03964 23.2615 7.0022C23.2739 6.9398 23.2862 6.88988 23.2986 6.82748C23.348 6.57789 23.3604 6.3283 23.3975 6.0787C23.4098 5.97887 23.4345 5.89151 23.4593 5.79167C24.4851 6.60285 25.548 7.31419 25.6963 8.73687C25.8199 9.93492 26.03 11.108 26.3638 12.2686C26.4626 12.6056 26.5491 12.955 26.5491 13.3044C26.5491 15.6381 26.6604 17.9593 26.2896 20.2806C26.0918 21.516 26.1042 22.8015 26.0918 24.0619C26.0918 25.4097 26.0177 26.7575 25.8941 28.0928C25.7705 29.4032 25.7705 30.7011 26.0918 31.974C26.2649 32.6479 26.1536 33.3218 26.0795 34.0082C25.9312 35.3435 25.8694 36.6913 25.7829 38.0391C25.7581 38.3636 25.7705 38.7005 25.6345 39.05C18.9109 38.6756 12.1997 38.3012 5.45139 37.9143C5.45139 37.9143 5.42667 37.7022 5.42667 37.6897C5.41431 37.6023 5.40195 37.515 5.38959 37.4276C5.36487 37.2529 5.35251 37.0907 5.34016 36.916C5.3278 36.7412 5.34016 36.579 5.35252 36.4168V36.3544C5.35252 36.292 5.36487 36.2171 5.37723 36.1672C5.38959 36.1048 5.40195 36.0299 5.41431 35.9675C5.45139 35.8177 5.48847 35.668 5.55027 35.5182C5.56263 35.4933 5.56263 35.4808 5.57499 35.4558C5.58735 35.4434 5.61207 35.4309 5.63678 35.4184C5.95813 35.2936 6.26712 35.1688 6.58847 35.044C6.62555 35.0315 6.63791 34.9816 6.66263 34.9442C6.68735 34.9067 6.71207 34.8693 6.74914 34.8318C6.77386 34.8069 6.81094 34.7819 6.83566 34.757C6.8851 34.7071 6.90982 34.6447 6.93454 34.5823C6.98398 34.4824 7.03341 34.3701 7.07049 34.2703C7.09521 34.2203 7.11993 34.1704 7.13229 34.133C7.13229 34.1205 7.13229 34.108 7.14465 34.0956C7.18173 34.0331 7.26825 33.9832 7.31768 33.9458C7.42892 33.8584 7.5278 33.7586 7.60195 33.6463C7.50308 33.6962 7.42892 33.7586 7.33004 33.821C7.29296 33.846 7.24353 33.8709 7.19409 33.8834C7.18173 33.8834 7.16937 33.8834 7.14465 33.8959C7.13229 33.8959 7.13229 33.9084 7.13229 33.9084C7.10757 33.9333 7.08285 33.9708 7.05813 34.0082C7.00869 34.0831 6.95926 34.1579 6.90982 34.2328C6.84802 34.3202 6.78622 34.4075 6.72442 34.5074C6.66263 34.6072 6.62555 34.7071 6.52667 34.757C6.50195 34.7695 6.46487 34.7819 6.4278 34.7944C6.11881 34.8942 5.79746 35.0066 5.48847 35.1064C5.42667 35.1314 5.36487 35.1438 5.30308 35.1938V35.069C5.31544 35.0066 5.30308 34.9442 5.31544 34.8942V34.6447C5.31544 34.4699 5.30308 34.3077 5.30308 34.133C5.29072 33.796 5.266 33.4591 5.25364 33.1346C5.15476 32.5106 5.1424 31.8617 5.22892 31.2127ZM4.95701 39.312C5.13004 39.1748 5.35251 39.2122 5.55027 39.2247C9.51768 39.4493 13.4851 39.6615 17.4525 39.8861C20.048 40.0359 22.6435 40.1856 25.2514 40.3229C25.375 40.3354 25.4986 40.3603 25.6345 40.3728C25.8817 40.872 26.0795 41.3837 26.2278 42.0077C18.6514 41.5085 11.1368 41.0218 3.48622 40.5226C4.00532 39.9984 4.49971 39.674 4.95701 39.312ZM26.6233 47.6609C26.0671 47.7483 25.5233 47.6734 25.0166 47.611C24.9918 47.611 24.9671 47.5861 24.9548 47.5736C24.93 47.5611 24.9177 47.5486 24.893 47.5237C24.8559 47.4987 24.8188 47.4613 24.7817 47.4238C24.7076 47.349 24.6581 47.2491 24.584 47.1742C24.5593 47.1493 24.5222 47.1243 24.5098 47.0994C24.4851 47.0494 24.4727 46.9995 24.4604 46.9496C24.4604 46.9371 24.4604 46.9246 24.448 46.8997C24.4357 46.8872 24.4233 46.8747 24.4233 46.8498C24.3615 46.7749 24.3121 46.7 24.275 46.6127C24.2626 46.5877 24.2626 46.5503 24.2626 46.5253C24.275 46.4504 24.2379 46.3755 24.2132 46.3131C24.2008 46.2507 24.1885 46.2008 24.1761 46.1384C24.1761 46.1259 24.1638 46.101 24.1514 46.0885C24.1267 46.0511 24.0896 46.0261 24.0525 46.0011C23.966 45.9013 23.8795 45.814 23.793 45.7266C23.7559 45.6892 23.7188 45.6642 23.6817 45.6392C23.7064 45.6517 23.7188 45.6892 23.7435 45.7141C23.7559 45.7391 23.7806 45.764 23.8053 45.789C23.8424 45.8389 23.8795 45.8888 23.9042 45.9637C23.9042 45.9887 23.9289 46.0261 23.9413 46.0511C23.9784 46.1259 24.0031 46.1883 24.0154 46.2632C24.0402 46.3631 24.0525 46.4629 24.0525 46.5627C24.0649 46.6501 24.0649 46.7499 24.0772 46.8373C24.0772 46.8373 24.139 46.8622 24.1514 46.8622C24.1638 46.8747 24.1637 46.8997 24.1637 46.9246C24.1885 46.987 24.2255 47.0494 24.2626 47.1118C24.275 47.1368 24.2873 47.1618 24.2997 47.1867V47.3989C24.2997 47.4238 24.2997 47.4613 24.2873 47.4862C24.2626 47.5237 24.2132 47.5486 24.2255 47.5985C24.1761 47.5985 24.102 47.611 24.0525 47.5985C24.0402 47.5985 24.0278 47.5985 24.0154 47.5861C23.9289 47.5736 23.8548 47.5736 23.7682 47.5736C23.6076 47.5611 23.4469 47.5486 23.2862 47.5486C21.8896 47.4613 20.493 47.3614 19.0963 47.2741C17.6997 47.1867 16.3031 47.0869 14.9064 46.9995C13.5098 46.9122 12.1132 46.8123 10.7166 46.725C9.31993 46.6376 7.9233 46.5378 6.52667 46.4504C5.82218 46.4005 5.13004 46.3631 4.42555 46.3131C4.07948 46.2882 3.72105 46.2632 3.37499 46.2507C3.20195 46.2383 3.02892 46.2258 2.85589 46.2133C2.81881 46.2133 2.34914 46.1883 2.34914 46.1759V44.9778L2.3615 44.9653C2.37386 44.9529 2.37386 44.9529 2.38622 44.9404C2.39858 44.9154 2.41094 44.9029 2.4233 44.878C2.46038 44.8281 2.4851 44.7906 2.52218 44.7407C2.55926 44.6908 2.60869 44.6409 2.64577 44.5909C2.65813 44.566 2.67049 44.5535 2.68285 44.5285C2.70757 44.5036 2.74465 44.4786 2.76937 44.4661C2.80645 44.4412 2.84353 44.4287 2.8806 44.4037C2.95476 44.3663 3.02892 44.3289 3.11544 44.3039C3.17723 44.279 3.23903 44.2665 3.30083 44.279C3.35027 44.2914 3.39971 44.3164 3.43678 44.3538C3.57274 44.4537 3.72105 44.5535 3.88173 44.5909C3.91881 44.6034 3.93117 44.566 3.95589 44.5535C4.01768 44.4911 4.09184 44.4412 4.15364 44.4037C4.166 44.3913 4.19072 44.3788 4.20308 44.3788C4.24016 44.3538 4.27723 44.3414 4.31431 44.3164C4.46263 44.254 4.6233 44.2415 4.78398 44.229C4.67274 44.1916 4.54914 44.1666 4.41319 44.1542C4.33903 44.1542 4.26487 44.1542 4.20308 44.1916C4.19072 44.2041 4.17836 44.2166 4.17836 44.2166C4.166 44.229 4.14128 44.2415 4.12892 44.254L4.01768 44.3289C4.00532 44.3289 4.00532 44.3414 3.99296 44.3414C3.96825 44.3538 3.94353 44.3663 3.93117 44.3913C3.91881 44.4038 3.88173 44.4287 3.85701 44.4287C3.84465 44.4287 3.81993 44.4162 3.79521 44.4037C3.78285 44.3913 3.75813 44.3913 3.74577 44.3788C3.70869 44.3538 3.67162 44.3289 3.6469 44.3164C3.54802 44.2415 3.44914 44.1417 3.35027 44.0543C3.33791 44.0418 3.32555 44.0418 3.31319 44.0294H3.26375C3.22667 44.0418 3.18959 44.0418 3.15251 44.0543C3.1278 44.0543 3.11544 44.0668 3.09072 44.0668H3.05364C3.01656 44.0668 2.97948 44.0793 2.9424 44.0793C2.89296 44.0918 2.83117 44.1042 2.78173 44.1167C2.62105 44.1542 2.47274 44.1916 2.31207 44.2415V41.7331C10.4199 42.2572 18.5031 42.7939 26.6233 43.318V47.6609ZM24.3121 4.91809L23.9536 4.40643H23.793C23.7682 4.40643 23.7559 4.38147 23.7312 4.38147L23.3604 4.08196C23.1132 3.88228 22.8536 3.69509 22.5941 3.52037C22.075 3.15846 21.5312 2.82151 20.9503 2.54696C20.6907 2.522 20.4806 2.3972 20.184 2.21001C20.5053 2.25993 20.7278 2.29736 20.9503 2.3348C21.7166 2.32232 22.4334 2.57192 23.1626 2.79655C23.7312 2.97127 24.2997 3.15846 24.893 3.20838C25.7952 3.27078 26.4997 3.75749 27.2042 4.24419C27.7604 4.63106 27.9458 5.26752 28.1188 5.86655C28.2424 6.3283 27.8098 6.52797 27.5379 6.79004V6.83996C27.5379 6.86492 27.5503 6.88988 27.5503 6.91484C27.5626 6.96476 27.5873 7.0022 27.5997 7.05212C27.6491 7.15195 27.6986 7.23931 27.7357 7.33915C27.7604 7.38907 27.7727 7.43899 27.7851 7.4889C27.7975 7.53882 27.8098 7.60122 27.7975 7.65114C27.7975 7.6761 27.7604 7.70106 27.748 7.71354C27.6739 7.81338 27.5873 7.91321 27.5132 8.00057L28.0323 7.82586C28.0694 7.78842 28.0941 7.75098 28.1312 7.72602C28.1682 7.70106 28.2053 7.66362 28.2424 7.63866C28.2053 7.6137 28.2053 7.60122 28.2053 7.56378C28.193 7.51386 28.1806 7.45147 28.1682 7.40155C28.1559 7.35163 28.1435 7.30171 28.1312 7.25179C28.1312 7.22683 28.1188 7.20187 28.1188 7.17691C28.1188 7.16443 28.0941 7.11451 28.1064 7.10204C28.2424 6.82748 28.539 6.77756 28.6873 6.60285C29.602 6.66525 30.1087 7.15195 30.3682 7.98809C30.702 9.04886 30.7885 10.172 31.0975 11.2328C31.6289 13.1297 31.2952 15.0017 31.1593 16.8861C31.0851 17.9718 31.1963 19.0825 30.9862 20.1558C30.8997 20.5676 30.8008 20.9545 30.4795 21.1916C30.3682 21.6533 30.4671 22.0776 30.4424 22.5019C30.393 22.6267 30.2817 22.7266 30.1829 22.8139C30.0963 22.9013 29.9975 22.9762 29.8986 23.051C29.8986 23.051 29.8986 23.051 29.8862 23.0635C29.7997 23.1259 29.7008 23.1883 29.6267 23.2632C29.5896 23.3006 29.5525 23.3381 29.5154 23.3755C29.4784 23.413 29.4289 23.4379 29.3795 23.4754C29.293 23.5253 29.2064 23.5877 29.1199 23.6501C29.0952 23.675 29.0581 23.6875 29.0458 23.7249L28.9963 23.7749C28.984 23.7873 28.9593 23.8123 28.9469 23.8248C28.9345 23.8373 28.9222 23.8497 28.9222 23.8622C28.9222 23.8747 28.9345 23.8747 28.9345 23.8872C28.9963 23.9621 29.0211 24.0744 29.0705 24.1617C29.0829 24.1867 29.1076 24.2117 29.1199 24.2491C29.1323 24.2616 29.1323 24.2741 29.1323 24.299C29.157 24.3489 29.1694 24.3988 29.1694 24.4488V24.5236C29.157 24.5736 29.1817 24.6235 29.1446 24.6609C29.0952 24.7108 29.0334 24.7608 28.984 24.8107C28.9593 24.8356 28.9345 24.8606 28.9098 24.8731C28.8604 24.923 28.7986 24.9604 28.7491 25.0104C28.7368 25.0228 28.7244 25.0228 28.7244 25.0353C28.7121 25.0478 28.7121 25.0728 28.7244 25.0977C28.7615 25.3723 28.7986 25.6593 28.8357 25.9338C28.8357 25.9713 28.848 26.0212 28.848 26.0711C28.8357 26.1086 28.8357 26.146 28.8357 26.1959C28.8357 26.3082 28.848 26.4206 28.8604 26.5204L29.0952 25.3598C29.2682 25.0353 29.7008 24.9729 29.8121 24.6484C29.8121 24.3614 29.5525 24.2865 29.466 24.0369C29.9233 23.7 30.393 23.3506 30.9121 22.9637C30.9244 22.7141 30.9491 22.4146 30.9615 22.1026C31.1345 22.14 31.1593 22.2773 31.1716 22.3896C31.2581 24.0744 31.666 25.7591 31.3076 27.4564C31.184 28.0679 30.9739 28.6544 30.8997 29.2659C30.702 30.9881 30.9615 32.6978 30.9244 34.4075C30.8997 35.2686 31.0109 36.1422 30.7267 37.0407C29.4907 37.6897 28.2424 38.2762 26.8952 38.9252C26.957 38.1639 26.9817 37.49 27.0559 36.8161C27.1671 35.7304 27.1177 34.6197 27.3525 33.5464C27.4514 33.0847 27.4143 32.5855 27.3031 32.1238C26.9199 30.6262 26.9323 29.1286 27.1177 27.6186C27.3154 25.9713 27.266 24.3115 27.2907 22.6517C27.3154 20.9919 27.5626 19.3571 27.6491 17.6973C27.7357 15.9626 27.884 14.2154 27.5873 12.5057C27.3525 11.1454 26.9694 9.81012 26.8087 8.42488C26.6851 7.40155 26.1784 6.55293 25.3873 5.89151C25.0907 5.64191 24.8188 5.37984 24.5222 5.11777C24.448 5.05537 24.3862 4.99297 24.3121 4.91809C24.2997 4.90561 24.2873 4.90561 24.2873 4.89313C24.2626 4.86818 24.2626 4.84322 24.2503 4.80578L24.3121 4.91809ZM30.8132 39.025C30.8132 39.025 30.8255 39.0375 30.8379 39.0375C30.8503 39.0375 30.8503 39.0375 30.8626 39.05C30.8873 39.05 30.8997 39.0625 30.9121 39.0749C30.9368 39.0999 30.9491 39.1249 30.9615 39.1498C30.9615 39.1873 30.9739 39.2247 30.9739 39.2746C30.9739 39.362 30.9862 39.4618 30.9739 39.5492C30.9739 39.5991 30.9739 39.6365 30.9615 39.6864V39.7364C30.9615 39.7613 30.9862 39.7613 31.0109 39.7738C31.048 39.7863 31.0727 39.8237 31.0851 39.8487C31.0975 39.8736 31.1098 39.8986 31.0975 39.9235C31.0975 39.9485 31.0851 39.9735 31.0727 39.986C31.048 40.0359 31.0109 40.0608 30.9615 40.0858C30.8503 40.1357 30.739 40.1981 30.6402 40.2605C29.6514 40.7846 28.6626 41.3213 27.6244 41.8704C27.3525 41.3587 27.1671 40.847 26.9817 40.2605C28.3536 39.6116 29.7132 38.9626 31.0851 38.3012C31.5424 38.5882 31.8267 39.025 32.1604 39.3994C31.975 39.6116 31.7402 39.674 31.5053 39.7863C31.4806 39.7738 31.4559 39.7613 31.4312 39.7488C31.4064 39.7364 31.3694 39.7114 31.3447 39.6989C31.3199 39.6864 31.2952 39.6615 31.2581 39.6615C31.2211 39.649 31.1716 39.624 31.1469 39.5991C31.1345 39.5866 31.1345 39.5741 31.1345 39.5492C31.1222 39.4992 31.1098 39.4618 31.1098 39.4119C31.0975 39.3495 31.0851 39.2996 31.0604 39.2372C31.048 39.1873 31.0233 39.1249 31.0109 39.0749L30.8132 39.025ZM31.6536 42.407V42.2198C31.6536 42.1824 31.6536 42.1325 31.6784 42.095C31.6907 42.0701 31.6907 42.0576 31.7031 42.0451C31.7031 42.0326 31.7154 42.0326 31.7154 42.0201C31.7525 41.9577 31.7896 41.8953 31.839 41.8329C32.0491 41.5833 32.1727 41.2963 32.148 40.9469C32.284 40.847 32.4199 40.7347 32.6548 40.7472C32.7413 41.9702 32.6795 43.2431 32.6424 44.541C31.0851 45.477 29.5278 46.413 27.9087 47.3739V43.1433C29.1694 42.4694 30.4177 41.808 31.6784 41.1466C31.7154 41.1965 31.7402 41.2589 31.7525 41.3213C31.7649 41.3587 31.7525 41.4086 31.7525 41.4461C31.7525 41.471 31.7402 41.4835 31.7278 41.5085C31.7278 41.521 31.7154 41.5334 31.7031 41.5584C31.6907 41.5709 31.666 41.5958 31.6536 41.6083C31.6289 41.6208 31.6166 41.6457 31.5918 41.6707C31.5671 41.6957 31.5424 41.7331 31.53 41.7581C31.5177 41.7705 31.5053 41.783 31.5053 41.808C31.493 41.8205 31.4806 41.8454 31.4806 41.8704C31.4435 41.9328 31.4064 42.0077 31.357 42.0701C31.3323 42.095 31.3076 42.1325 31.3076 42.1699C31.3076 42.1824 31.3076 42.1949 31.3199 42.2073V42.694C31.3199 42.7814 31.3323 42.8563 31.3323 42.9436C31.3323 43.006 31.3199 43.0934 31.2829 43.1433L31.2458 43.1807C31.2458 43.1807 31.2334 43.1932 31.2334 43.2057C31.2334 43.2182 31.2211 43.2182 31.2087 43.2307C31.1222 43.3305 31.0109 43.4054 30.8997 43.4803C30.9739 43.4678 31.048 43.4553 31.1098 43.4179C31.1593 43.3929 31.2087 43.3555 31.2705 43.3305C31.2829 43.3305 31.2952 43.3055 31.3199 43.3055C31.3199 43.3055 31.3199 43.3055 31.3323 43.3055C31.357 43.2681 31.3694 43.2307 31.3941 43.1807C31.4064 43.1683 31.4064 43.1433 31.4188 43.1183C31.4312 43.0934 31.4312 43.0809 31.4435 43.0559C31.4435 43.0435 31.4559 43.031 31.4559 43.0185C31.4682 42.9686 31.4806 42.9187 31.5053 42.8688C31.5177 42.8438 31.5177 42.8188 31.53 42.7939C31.53 42.7814 31.5424 42.7689 31.5424 42.744C31.5424 42.719 31.5424 42.694 31.5548 42.6816C31.5548 42.6566 31.5671 42.6316 31.5918 42.6192C31.6042 42.6192 31.6042 42.6192 31.6166 42.6192L31.6536 42.407Z" fill="#FFF2D1"/>
<path d="M24.3121 4.91809L23.9536 4.40643H23.793C23.7682 4.40643 23.7559 4.38147 23.7312 4.38147L23.3604 4.08196C23.1132 3.88228 22.8536 3.69509 22.5941 3.52037C22.075 3.15846 21.5312 2.82151 20.9503 2.54696C20.6907 2.522 20.4806 2.3972 20.184 2.21001C20.5053 2.25993 20.7278 2.29736 20.9503 2.3348C21.7166 2.32232 22.4334 2.57192 23.1626 2.79655C23.7312 2.97127 24.2997 3.15846 24.893 3.20838C25.7952 3.27078 26.4997 3.75749 27.2042 4.24419C27.7604 4.63106 27.9458 5.26752 28.1188 5.86655C28.2424 6.3283 27.8098 6.52797 27.5379 6.79004V6.83996C27.5379 6.86492 27.5503 6.88988 27.5503 6.91484C27.5626 6.96476 27.5873 7.0022 27.5997 7.05212C27.6491 7.15195 27.6986 7.23931 27.7357 7.33915C27.7604 7.38907 27.7727 7.43899 27.7851 7.4889C27.7975 7.53882 27.8098 7.60122 27.7975 7.65114C27.7975 7.6761 27.7604 7.70106 27.748 7.71354C27.6739 7.81338 27.5873 7.91321 27.5132 8.00057L28.0323 7.82586C28.0694 7.78842 28.0941 7.75098 28.1312 7.72602C28.1682 7.70106 28.2053 7.66362 28.2424 7.63866C28.2053 7.6137 28.2053 7.60122 28.2053 7.56378C28.193 7.51386 28.1806 7.45147 28.1682 7.40155C28.1559 7.35163 28.1435 7.30171 28.1312 7.25179C28.1312 7.22683 28.1188 7.20187 28.1188 7.17691C28.1188 7.16443 28.0941 7.11451 28.1064 7.10204C28.2424 6.82748 28.539 6.77756 28.6873 6.60285C29.602 6.66525 30.1087 7.15195 30.3682 7.98809C30.702 9.04886 30.7885 10.172 31.0975 11.2328C31.6289 13.1297 31.2952 15.0017 31.1593 16.8861C31.0851 17.9718 31.1963 19.0825 30.9862 20.1558C30.8997 20.5676 30.8008 20.9545 30.4795 21.1916C30.3682 21.6533 30.4671 22.0776 30.4424 22.5019C30.393 22.6267 30.2817 22.7266 30.1829 22.8139C30.0963 22.9013 29.9975 22.9762 29.8986 23.051C29.8986 23.051 29.8986 23.051 29.8862 23.0635C29.7997 23.1259 29.7008 23.1883 29.6267 23.2632C29.5896 23.3006 29.5525 23.3381 29.5154 23.3755C29.4784 23.413 29.4289 23.4379 29.3795 23.4754C29.293 23.5253 29.2064 23.5877 29.1199 23.6501C29.0952 23.675 29.0581 23.6875 29.0458 23.7249L28.9963 23.7749C28.984 23.7873 28.9593 23.8123 28.9469 23.8248C28.9345 23.8373 28.9222 23.8497 28.9222 23.8622C28.9222 23.8747 28.9345 23.8747 28.9345 23.8872C28.9963 23.9621 29.0211 24.0744 29.0705 24.1617C29.0829 24.1867 29.1076 24.2117 29.1199 24.2491C29.1323 24.2616 29.1323 24.2741 29.1323 24.299C29.157 24.3489 29.1694 24.3989 29.1694 24.4488V24.5236C29.157 24.5736 29.1817 24.6235 29.1446 24.6609C29.0952 24.7108 29.0334 24.7608 28.984 24.8107C28.9593 24.8356 28.9345 24.8606 28.9098 24.8731C28.8604 24.923 28.7986 24.9604 28.7491 25.0104C28.7368 25.0228 28.7244 25.0228 28.7244 25.0353C28.7121 25.0478 28.7121 25.0728 28.7244 25.0977C28.7615 25.3723 28.7986 25.6593 28.8357 25.9338C28.8357 25.9713 28.848 26.0212 28.848 26.0711C28.8357 26.1086 28.8357 26.146 28.8357 26.1959C28.8357 26.3082 28.848 26.4206 28.8604 26.5204L29.0952 25.3598C29.2682 25.0353 29.7008 24.9729 29.8121 24.6484C29.8121 24.3614 29.5525 24.2865 29.466 24.0369C29.9233 23.7 30.393 23.3506 30.9121 22.9637C30.9244 22.7141 30.9491 22.4146 30.9615 22.1026C31.1345 22.14 31.1593 22.2773 31.1716 22.3896C31.2581 24.0744 31.666 25.7591 31.3076 27.4564C31.184 28.0679 30.9739 28.6544 30.8997 29.2659C30.702 30.9881 30.9615 32.6978 30.9244 34.4075C30.8997 35.2686 31.0109 36.1422 30.7267 37.0407C29.4907 37.6897 28.2424 38.2762 26.8952 38.9252C26.957 38.1639 26.9817 37.49 27.0559 36.8161C27.1671 35.7304 27.1177 34.6197 27.3525 33.5464C27.4514 33.0847 27.4143 32.5855 27.3031 32.1238C26.9199 30.6262 26.9323 29.1286 27.1177 27.6186C27.3154 25.9713 27.266 24.3115 27.2907 22.6517C27.3154 20.9919 27.5626 19.3571 27.6491 17.6973C27.7357 15.9626 27.884 14.2154 27.5873 12.5057C27.3525 11.1454 26.9694 9.81012 26.8087 8.42488C26.6851 7.40155 26.1784 6.55293 25.3873 5.89151C25.0907 5.64191 24.8188 5.37984 24.5222 5.11777C24.448 5.05537 24.3862 4.99297 24.3121 4.91809ZM24.3121 4.91809C24.2997 4.90561 24.2873 4.90561 24.2873 4.89313C24.2626 4.86818 24.2626 4.84322 24.2503 4.80578L24.3121 4.91809ZM31.0109 39.0749C31.0233 39.1249 31.048 39.1873 31.0604 39.2372C31.0851 39.2996 31.0975 39.3495 31.1098 39.4119C31.1098 39.4618 31.1222 39.4992 31.1345 39.5492C31.1345 39.5741 31.1345 39.5866 31.1469 39.5991C31.1716 39.624 31.2211 39.649 31.2581 39.6615C31.2952 39.6615 31.3199 39.6864 31.3446 39.6989C31.3694 39.7114 31.4064 39.7364 31.4312 39.7488C31.4559 39.7613 31.4806 39.7738 31.5053 39.7863C31.7402 39.674 31.975 39.6116 32.1604 39.3994C31.8267 39.025 31.5424 38.5882 31.0851 38.3012C29.7132 38.9626 28.3536 39.6116 26.9817 40.2605C27.1671 40.847 27.3525 41.3587 27.6244 41.8704C28.6626 41.3213 29.6514 40.7846 30.6402 40.2605C30.739 40.1981 30.8503 40.1357 30.9615 40.0858C31.0109 40.0608 31.048 40.0359 31.0727 39.9859C31.0851 39.9735 31.0975 39.9485 31.0975 39.9236C31.1098 39.8986 31.0975 39.8736 31.0851 39.8487C31.0727 39.8237 31.048 39.7863 31.0109 39.7738C30.9862 39.7613 30.9615 39.7613 30.9615 39.7364V39.6864C30.9739 39.6365 30.9739 39.5991 30.9739 39.5492C30.9862 39.4618 30.9739 39.362 30.9739 39.2746C30.9739 39.2247 30.9615 39.1873 30.9615 39.1498C30.9491 39.1249 30.9368 39.0999 30.9121 39.0749C30.8997 39.0625 30.8873 39.05 30.8626 39.05C30.8503 39.0375 30.8503 39.0375 30.8379 39.0375C30.8255 39.0375 30.8132 39.025 30.8132 39.025L31.0109 39.0749ZM31.0109 39.0749L30.7514 38.9751M33.6682 39.0999C33.0379 38.5882 32.5682 37.9268 31.975 37.3527C32.0121 36.7163 32.0862 36.1422 32.0862 35.5681C32.0739 33.9957 32.1727 32.4233 32.0491 30.8508C31.975 29.8899 32.2345 28.9664 32.4941 28.0429C33.0008 26.2833 32.7166 24.4737 32.457 22.7391C32.2716 21.5036 32.2469 20.3055 32.3334 19.0825C32.4199 18.0093 32.4323 16.936 32.5188 15.8628C32.63 14.3402 32.766 12.8427 32.3829 11.3077C32.0491 10.0098 31.975 8.64951 31.4559 7.40155C31.048 6.42813 31.048 6.42813 29.7873 4.74338C28.6626 3.54533 28.4896 3.53285 27.5255 2.94631C26.784 2.49704 26.0548 2.07273 25.1525 1.98537C24.0031 1.87306 22.9402 1.36139 21.8031 1.17419C19.8255 0.849723 17.8727 1.02444 15.9199 1.32395C13.2997 1.73578 10.7166 2.24745 8.70195 4.26915C7.75027 5.23009 6.77386 6.1411 6.366 7.47643C6.25476 7.85082 6.00757 8.17529 5.82218 8.51224C4.96937 9.97236 5.16712 10.6338 5.04353 12.5307C5.11768 12.668 4.87049 13.4916 4.78398 13.7163C4.67274 14.9892 4.66038 14.178 4.67274 14.7271C4.70982 16.3869 4.72218 18.0467 4.73454 19.694C4.7469 21.1916 4.80869 22.6891 4.53678 24.1617C4.24016 25.7217 4.26487 27.2941 4.25251 28.8666C4.25251 29.216 4.26487 29.5779 4.17836 29.9149C3.91881 31.088 3.9806 32.261 4.0424 33.4341C4.12892 35.0315 4.05476 36.6164 4.24016 38.2513C3.32555 38.9751 2.4233 39.6989 1.50869 40.3978C1.18735 40.6349 1.00195 40.897 1.00195 41.3213C1.02667 43.0809 1.02667 44.8405 1.03903 46.6002C1.03903 47.0744 1.2615 47.3365 1.74353 47.3739C3.9806 47.5112 6.20532 47.6485 8.43004 47.7982C11.3222 47.9854 14.202 48.1601 17.0941 48.3473C20.3694 48.5595 23.6446 48.7841 26.9199 48.9963C27.3649 49.0212 27.7727 48.9214 28.1559 48.6843C29.8739 47.636 31.6042 46.5877 33.3345 45.5644C33.7548 45.3148 33.9154 44.9903 33.9154 44.5036C33.9278 42.9686 33.9649 41.4336 34.002 39.9111C34.002 39.5991 33.9402 39.312 33.6682 39.0999ZM5.22892 31.2127C5.37723 30.1645 5.51319 29.1286 5.48847 28.0679C5.45139 26.6951 5.61207 25.3473 5.80982 23.9995C6.08173 22.1276 5.98285 20.2431 5.94577 18.3587C5.93341 17.6723 5.92105 16.9859 5.93341 16.312C5.93341 16.1373 5.94577 15.9626 5.95813 15.7879C5.97049 15.688 5.98285 15.5882 5.98285 15.4759C5.98285 15.426 6.01993 15.3885 6.05701 15.3511C6.10645 15.2887 6.16825 15.2263 6.21768 15.1639C6.23004 15.1514 6.2424 15.1389 6.26712 15.1265C6.27948 15.1265 6.3042 15.1265 6.31656 15.1389C6.53903 15.2388 6.92218 15.6007 6.93454 15.6256C6.93454 15.6381 7.37948 15.9751 7.37948 15.9876C7.39184 16 7.10757 16.624 7.10757 16.649C7.63903 16.649 7.50308 16.4743 7.93566 15.688C7.96038 15.6381 7.50308 15.3261 7.50308 15.2637C7.42892 15.1889 7.4042 15.089 7.36712 15.0017C7.33004 14.8893 7.26825 14.7895 7.20645 14.7022C7.16937 14.6522 7.13229 14.6148 7.09521 14.5649C7.05813 14.5274 7.02105 14.49 6.98398 14.4526C6.95926 14.4276 6.9469 14.4026 6.9469 14.3652C6.93454 14.3153 6.90982 14.2778 6.89746 14.2279C6.84802 14.1156 6.79858 13.9908 6.7615 13.866C6.67499 13.6289 6.60083 13.3793 6.52667 13.1297C6.45252 12.8801 6.37836 12.6305 6.29184 12.3809C6.2424 12.2437 6.19296 12.1189 6.14353 11.9816C6.23004 10.8085 6.45251 9.68533 7.21881 8.73687C7.39184 8.51224 7.50308 8.2252 7.58959 7.96313C7.93566 6.815 8.70195 5.99134 9.57948 5.25504C10.1233 4.7933 10.6177 4.24419 11.248 3.9322C11.2604 3.91972 11.3098 3.95716 11.3222 3.95716C11.3469 3.96964 11.3716 3.98212 11.3963 3.9946C11.4458 4.03204 11.4829 4.06948 11.5076 4.1194C11.557 4.18179 11.5694 4.26915 11.6064 4.33155C11.6312 4.39395 11.6559 4.46883 11.6806 4.53122C11.73 4.6685 11.7795 4.7933 11.8166 4.93057C11.8289 4.95553 11.8289 4.96801 11.8413 4.98049C11.8413 4.99297 11.8536 5.00545 11.8536 5.00545C11.8536 5.00545 11.8784 5.01793 11.8907 5.01793C11.9402 5.03041 11.9896 5.05537 12.039 5.06785C12.0514 5.06785 11.9896 5.4048 11.9896 5.42976V5.49216C11.9896 5.54208 11.9772 5.60448 11.9772 5.65439C11.9649 5.76671 11.9649 5.87903 11.9525 5.99134C11.9525 6.02878 11.9402 6.0787 11.9525 6.11614C11.9649 6.15358 11.9772 6.17854 11.9896 6.21598C12.0885 6.41565 12.1379 7.16443 12.1379 7.16443C12.1379 7.16443 12.2986 6.74012 12.2862 6.71517C12.2739 6.67773 12.2739 6.65277 12.2615 6.61533C12.2491 6.55293 12.2368 6.47805 12.2244 6.41565C12.2121 6.3283 12.1997 6.24094 12.1873 6.1411C12.1873 6.10366 12.175 6.0787 12.175 6.04126C12.175 6.0163 12.1626 6.00382 12.175 5.97887C12.1873 5.94143 12.1997 5.90399 12.2244 5.87903C12.2368 5.84159 12.2615 5.80415 12.2739 5.76671C12.2739 5.76671 12.348 5.77919 12.3604 5.79167C12.3851 5.80415 12.4098 5.81663 12.4345 5.81663C12.5087 5.82911 12.5705 5.85407 12.6323 5.89151C12.657 5.90399 12.6817 5.91647 12.7064 5.94143C12.7188 5.96639 12.7312 5.99135 12.7435 6.0163C12.8053 6.17854 12.8671 6.35326 12.9413 6.51549C12.9536 6.54045 12.966 6.57789 12.9907 6.60285C13.0154 6.62781 13.0402 6.64029 13.0649 6.65277C13.2255 6.7526 13.3986 6.85244 13.5593 6.95228C13.4851 6.82748 13.3739 6.72765 13.275 6.60285C13.1267 6.41565 13.0278 6.19102 12.9907 5.95391C12.9784 5.90399 12.9784 5.85407 12.9784 5.80415C12.8548 5.71679 12.7312 5.64191 12.6076 5.55456C12.5581 5.51712 12.4963 5.49216 12.4593 5.45472C12.4469 5.44224 12.4345 5.41728 12.4345 5.39232C12.4222 5.35488 12.4098 5.32992 12.3975 5.29248C12.348 5.15521 12.3109 5.01793 12.2615 4.89313C12.2491 4.8557 12.2368 4.80578 12.1997 4.7933C12.1873 4.78082 12.1626 4.78082 12.1379 4.76834C12.1008 4.74338 12.0885 4.69346 12.0761 4.65602C12.0638 4.6061 12.0514 4.5437 12.039 4.49379C12.0267 4.45635 12.0143 4.40643 12.0143 4.35651V4.30659C12.002 4.21923 11.9772 4.13188 11.9772 4.04452C11.9649 3.81988 12.0143 3.59525 12.1379 3.39558C15.9076 2.83399 19.7143 2.37224 23.0267 5.30496V7.05212C23.0267 7.10204 23.0267 7.16443 23.002 7.21435C22.9896 7.22683 22.9896 7.23931 22.9772 7.26427C22.9649 7.30171 22.9525 7.33915 22.9278 7.36411C22.8907 7.42651 22.8536 7.4889 22.8042 7.56378C22.7548 7.63866 22.7053 7.71354 22.6806 7.8009C22.693 7.78842 22.7053 7.78842 22.7177 7.77594L22.7548 7.7385C22.7795 7.71354 22.8166 7.68858 22.8413 7.6761C22.9031 7.63866 22.9525 7.58874 23.002 7.53882C23.0267 7.51386 23.039 7.4889 23.0638 7.45147C23.0885 7.41403 23.1132 7.35163 23.1379 7.31419C23.175 7.27675 23.1997 7.21435 23.2121 7.15195C23.2244 7.12699 23.2368 7.11451 23.2368 7.08956C23.2491 7.0646 23.2491 7.03964 23.2615 7.0022C23.2739 6.9398 23.2862 6.88988 23.2986 6.82748C23.348 6.57789 23.3604 6.3283 23.3975 6.0787C23.4098 5.97887 23.4345 5.89151 23.4593 5.79167C24.4851 6.60285 25.548 7.31419 25.6963 8.73687C25.8199 9.93492 26.03 11.108 26.3638 12.2686C26.4626 12.6056 26.5491 12.955 26.5491 13.3044C26.5491 15.6381 26.6604 17.9593 26.2896 20.2806C26.0918 21.516 26.1042 22.8015 26.0918 24.0619C26.0918 25.4097 26.0177 26.7575 25.8941 28.0928C25.7705 29.4032 25.7705 30.7011 26.0918 31.974C26.2649 32.6479 26.1536 33.3218 26.0795 34.0082C25.9312 35.3435 25.8694 36.6913 25.7829 38.0391C25.7581 38.3636 25.7705 38.7005 25.6345 39.05C18.9109 38.6756 12.1997 38.3012 5.45139 37.9143C5.45139 37.9143 5.42667 37.7022 5.42667 37.6897C5.41431 37.6023 5.40195 37.515 5.38959 37.4276C5.36487 37.2529 5.35251 37.0907 5.34016 36.916C5.3278 36.7412 5.34016 36.579 5.35252 36.4168V36.3544C5.35252 36.292 5.36487 36.2171 5.37723 36.1672C5.38959 36.1048 5.40195 36.0299 5.41431 35.9675C5.45139 35.8177 5.48847 35.668 5.55027 35.5182C5.56263 35.4933 5.56263 35.4808 5.57499 35.4558C5.58735 35.4434 5.61207 35.4309 5.63678 35.4184C5.95813 35.2936 6.26712 35.1688 6.58847 35.044C6.62555 35.0315 6.63791 34.9816 6.66263 34.9442C6.68735 34.9067 6.71207 34.8693 6.74914 34.8318C6.77386 34.8069 6.81094 34.7819 6.83566 34.757C6.8851 34.7071 6.90982 34.6447 6.93454 34.5823C6.98398 34.4824 7.03341 34.3701 7.07049 34.2703C7.09521 34.2203 7.11993 34.1704 7.13229 34.133C7.13229 34.1205 7.13229 34.108 7.14465 34.0955C7.18173 34.0332 7.26825 33.9832 7.31768 33.9458C7.42892 33.8584 7.5278 33.7586 7.60195 33.6463C7.50308 33.6962 7.42892 33.7586 7.33004 33.821C7.29296 33.846 7.24353 33.8709 7.19409 33.8834C7.18173 33.8834 7.16937 33.8834 7.14465 33.8959C7.13229 33.8959 7.13229 33.9084 7.13229 33.9084C7.10757 33.9333 7.08285 33.9708 7.05813 34.0082C7.00869 34.0831 6.95926 34.1579 6.90982 34.2328C6.84802 34.3202 6.78622 34.4075 6.72442 34.5074C6.66263 34.6072 6.62555 34.7071 6.52667 34.757C6.50195 34.7695 6.46487 34.7819 6.4278 34.7944C6.11881 34.8942 5.79746 35.0066 5.48847 35.1064C5.42667 35.1314 5.36487 35.1438 5.30308 35.1938V35.069C5.31544 35.0066 5.30308 34.9442 5.31544 34.8942V34.6447C5.31544 34.4699 5.30308 34.3077 5.30308 34.133C5.29072 33.796 5.266 33.4591 5.25364 33.1346C5.15476 32.5106 5.1424 31.8617 5.22892 31.2127ZM4.95701 39.312C5.13004 39.1748 5.35251 39.2122 5.55027 39.2247C9.51768 39.4493 13.4851 39.6615 17.4525 39.8861C20.048 40.0359 22.6435 40.1856 25.2514 40.3229C25.375 40.3354 25.4986 40.3603 25.6345 40.3728C25.8817 40.872 26.0795 41.3837 26.2278 42.0077C18.6514 41.5085 11.1368 41.0218 3.48622 40.5226C4.00532 39.9984 4.49971 39.674 4.95701 39.312ZM26.6233 47.6609C26.0671 47.7483 25.5233 47.6734 25.0166 47.611C24.9918 47.611 24.9671 47.5861 24.9548 47.5736C24.93 47.5611 24.9177 47.5486 24.893 47.5237C24.8559 47.4987 24.8188 47.4613 24.7817 47.4238C24.7076 47.349 24.6581 47.2491 24.584 47.1742C24.5593 47.1493 24.5222 47.1243 24.5098 47.0994C24.4851 47.0494 24.4727 46.9995 24.4604 46.9496C24.4604 46.9371 24.4604 46.9246 24.448 46.8997C24.4357 46.8872 24.4233 46.8747 24.4233 46.8498C24.3615 46.7749 24.3121 46.7 24.275 46.6127C24.2626 46.5877 24.2626 46.5503 24.2626 46.5253C24.275 46.4504 24.2379 46.3755 24.2132 46.3131C24.2008 46.2507 24.1885 46.2008 24.1761 46.1384C24.1761 46.1259 24.1638 46.101 24.1514 46.0885C24.1267 46.0511 24.0896 46.0261 24.0525 46.0011C23.966 45.9013 23.8795 45.814 23.793 45.7266C23.7559 45.6892 23.7188 45.6642 23.6817 45.6392C23.7064 45.6517 23.7188 45.6892 23.7435 45.7141C23.7559 45.7391 23.7806 45.764 23.8053 45.789C23.8424 45.8389 23.8795 45.8888 23.9042 45.9637C23.9042 45.9887 23.9289 46.0261 23.9413 46.0511C23.9784 46.1259 24.0031 46.1883 24.0154 46.2632C24.0402 46.3631 24.0525 46.4629 24.0525 46.5627C24.0649 46.6501 24.0649 46.7499 24.0772 46.8373C24.0772 46.8373 24.139 46.8622 24.1514 46.8622C24.1638 46.8747 24.1638 46.8997 24.1638 46.9246C24.1885 46.987 24.2255 47.0494 24.2626 47.1118C24.275 47.1368 24.2873 47.1618 24.2997 47.1867V47.3989C24.2997 47.4238 24.2997 47.4613 24.2873 47.4862C24.2626 47.5237 24.2132 47.5486 24.2255 47.5985C24.1761 47.5985 24.102 47.611 24.0525 47.5985C24.0402 47.5985 24.0278 47.5985 24.0154 47.5861C23.9289 47.5736 23.8548 47.5736 23.7682 47.5736C23.6076 47.5611 23.4469 47.5486 23.2862 47.5486C21.8896 47.4613 20.493 47.3614 19.0963 47.2741C17.6997 47.1867 16.3031 47.0869 14.9064 46.9995C13.5098 46.9122 12.1132 46.8123 10.7166 46.725C9.31993 46.6376 7.9233 46.5378 6.52667 46.4504C5.82218 46.4005 5.13004 46.3631 4.42555 46.3131C4.07948 46.2882 3.72105 46.2632 3.37499 46.2507C3.20195 46.2383 3.02892 46.2258 2.85589 46.2133C2.81881 46.2133 2.34914 46.1883 2.34914 46.1759V44.9778L2.3615 44.9653C2.37386 44.9529 2.37386 44.9529 2.38622 44.9404C2.39858 44.9154 2.41094 44.9029 2.4233 44.878C2.46038 44.8281 2.4851 44.7906 2.52218 44.7407C2.55926 44.6908 2.60869 44.6409 2.64577 44.5909C2.65813 44.566 2.67049 44.5535 2.68285 44.5285C2.70757 44.5036 2.74465 44.4786 2.76937 44.4661C2.80645 44.4412 2.84353 44.4287 2.8806 44.4037C2.95476 44.3663 3.02892 44.3289 3.11544 44.3039C3.17723 44.279 3.23903 44.2665 3.30083 44.279C3.35027 44.2914 3.39971 44.3164 3.43678 44.3538C3.57274 44.4537 3.72105 44.5535 3.88173 44.5909C3.91881 44.6034 3.93117 44.566 3.95589 44.5535C4.01768 44.4911 4.09184 44.4412 4.15364 44.4037C4.166 44.3913 4.19072 44.3788 4.20308 44.3788C4.24016 44.3538 4.27723 44.3414 4.31431 44.3164C4.46263 44.254 4.6233 44.2415 4.78398 44.229C4.67274 44.1916 4.54914 44.1666 4.41319 44.1542C4.33903 44.1542 4.26487 44.1542 4.20308 44.1916C4.19072 44.2041 4.17836 44.2166 4.17836 44.2166C4.166 44.229 4.14128 44.2415 4.12892 44.254L4.01768 44.3289C4.00532 44.3289 4.00532 44.3414 3.99296 44.3414C3.96825 44.3538 3.94353 44.3663 3.93117 44.3913C3.91881 44.4038 3.88173 44.4287 3.85701 44.4287C3.84465 44.4287 3.81993 44.4162 3.79521 44.4037C3.78285 44.3913 3.75813 44.3913 3.74577 44.3788C3.70869 44.3538 3.67162 44.3289 3.6469 44.3164C3.54802 44.2415 3.44914 44.1417 3.35027 44.0543C3.33791 44.0418 3.32555 44.0418 3.31319 44.0294H3.26375C3.22667 44.0418 3.18959 44.0418 3.15251 44.0543C3.1278 44.0543 3.11544 44.0668 3.09072 44.0668H3.05364C3.01656 44.0668 2.97948 44.0793 2.9424 44.0793C2.89296 44.0918 2.83117 44.1042 2.78173 44.1167C2.62105 44.1542 2.47274 44.1916 2.31207 44.2415V41.7331C10.4199 42.2572 18.5031 42.7939 26.6233 43.318V47.6609ZM31.6536 42.407V42.2198C31.6536 42.1824 31.6536 42.1325 31.6784 42.095C31.6907 42.0701 31.6907 42.0576 31.7031 42.0451C31.7031 42.0326 31.7154 42.0326 31.7154 42.0201C31.7525 41.9577 31.7896 41.8953 31.839 41.8329C32.0491 41.5833 32.1727 41.2963 32.148 40.9469C32.284 40.847 32.4199 40.7347 32.6548 40.7472C32.7413 41.9702 32.6795 43.2431 32.6424 44.541C31.0851 45.477 29.5278 46.413 27.9087 47.3739V43.1433C29.1694 42.4694 30.4177 41.808 31.6784 41.1466C31.7154 41.1965 31.7402 41.2589 31.7525 41.3213C31.7649 41.3587 31.7525 41.4086 31.7525 41.4461C31.7525 41.471 31.7402 41.4835 31.7278 41.5085C31.7278 41.5209 31.7154 41.5334 31.7031 41.5584C31.6907 41.5709 31.666 41.5958 31.6536 41.6083C31.6289 41.6208 31.6166 41.6457 31.5918 41.6707C31.5671 41.6957 31.5424 41.7331 31.53 41.7581C31.5177 41.7705 31.5053 41.783 31.5053 41.808C31.493 41.8205 31.4806 41.8454 31.4806 41.8704C31.4435 41.9328 31.4064 42.0077 31.357 42.0701C31.3323 42.095 31.3076 42.1325 31.3076 42.1699C31.3076 42.1824 31.3076 42.1949 31.3199 42.2073V42.694C31.3199 42.7814 31.3323 42.8563 31.3323 42.9436C31.3323 43.006 31.3199 43.0934 31.2829 43.1433L31.2458 43.1807C31.2458 43.1807 31.2334 43.1932 31.2334 43.2057C31.2334 43.2182 31.2211 43.2182 31.2087 43.2307C31.1222 43.3305 31.0109 43.4054 30.8997 43.4803C30.9739 43.4678 31.048 43.4553 31.1098 43.4179C31.1593 43.3929 31.2087 43.3555 31.2705 43.3305C31.2829 43.3305 31.2952 43.3055 31.3199 43.3055C31.3199 43.3055 31.3199 43.3055 31.3323 43.3055C31.357 43.2681 31.3694 43.2307 31.3941 43.1807C31.4064 43.1683 31.4064 43.1433 31.4188 43.1183C31.4312 43.0934 31.4312 43.0809 31.4435 43.0559C31.4435 43.0435 31.4559 43.031 31.4559 43.0185C31.4682 42.9686 31.4806 42.9187 31.5053 42.8688C31.5177 42.8438 31.5177 42.8188 31.53 42.7939C31.53 42.7814 31.5424 42.7689 31.5424 42.744C31.5424 42.719 31.5424 42.694 31.5548 42.6816C31.5548 42.6566 31.5671 42.6316 31.5918 42.6192C31.6042 42.6192 31.6042 42.6192 31.6166 42.6192L31.6536 42.407Z" stroke="#362745" stroke-width="0.5" stroke-miterlimit="10"/>
<path d="M17.5381 20.6049C17.2415 21.0542 17.2168 21.6657 17.4269 22.1648C17.4887 22.3146 17.5752 22.4519 17.7112 22.5392C17.9831 22.7015 18.3292 22.5517 18.6134 22.402C18.9842 22.2023 19.3674 21.9652 19.5157 21.5658C19.6269 21.2788 19.5775 20.9418 19.4415 20.6673C19.3674 20.4926 19.2561 20.3428 19.1325 20.2055C19.046 20.1182 18.9719 20.0059 18.8359 19.9934C18.5269 19.9435 18.1932 20.0433 17.9336 20.2055C17.773 20.3179 17.637 20.4551 17.5381 20.6049Z" fill="#6B00FA" stroke="#362745" stroke-width="0.5" stroke-miterlimit="10"/>
<path d="M11.9155 20.6922C11.8166 20.8669 11.7424 21.0541 11.7301 21.2538C11.7054 21.5907 11.866 21.9027 12.0143 22.2022C12.0391 22.2646 12.0761 22.327 12.1256 22.3645C12.175 22.4019 12.2368 22.4144 12.2986 22.4269C12.9166 22.5142 13.5593 22.2646 13.9548 21.7779C14.0289 21.6781 14.0907 21.5783 14.1278 21.4659C14.1773 21.2912 14.1773 21.1165 14.1649 20.9418C14.1525 20.6922 14.1278 20.4052 13.9424 20.2305C13.8559 20.1431 13.7447 20.0807 13.6334 20.0308C13.4975 19.9559 13.3368 19.8685 13.1885 19.8186C13.0773 19.7937 12.9413 19.8311 12.8424 19.8685C12.5829 19.9559 12.3604 20.1306 12.175 20.3303C12.1256 20.3927 12.0761 20.4426 12.0267 20.505C12.002 20.5424 11.9773 20.5674 11.9649 20.6048C11.9525 20.6173 11.9402 20.6672 11.9155 20.6922Z" fill="#6B00FA" stroke="#362745" stroke-width="0.5" stroke-miterlimit="10"/>
<path d="M12.7056 22.7764C11.7663 22.7764 11 22.0027 11 21.0542C11 20.1058 11.7663 19.332 12.7056 19.332C13.6449 19.332 14.4112 20.1058 14.4112 21.0542C14.4112 22.0027 13.6449 22.7764 12.7056 22.7764ZM12.7056 19.8312C12.0382 19.8312 11.4944 20.3803 11.4944 21.0542C11.4944 21.7281 12.0382 22.2772 12.7056 22.2772C13.373 22.2772 13.9169 21.7281 13.9169 21.0542C13.9169 20.3803 13.373 19.8312 12.7056 19.8312Z" fill="#362745"/>
<path d="M18.1929 22.9014C17.2536 22.9014 16.4873 22.1277 16.4873 21.1792C16.4873 20.2308 17.2536 19.457 18.1929 19.457C19.1322 19.457 19.8985 20.2308 19.8985 21.1792C19.8985 22.1277 19.1322 22.9014 18.1929 22.9014ZM18.1929 19.9562C17.5255 19.9562 16.9817 20.5053 16.9817 21.1792C16.9817 21.8531 17.5255 22.4022 18.1929 22.4022C18.8603 22.4022 19.4042 21.8531 19.4042 21.1792C19.4042 20.5053 18.8603 19.9562 18.1929 19.9562Z" fill="#362745"/>
<path d="M11.9137 22.1655C11.7407 21.9035 11.3203 21.6039 11.3203 21.3044C11.3203 20.4184 11.7405 19.707 12.6181 19.707C12.6304 19.707 13.2733 19.707 13.2856 19.707C13.3845 19.8069 13.4834 19.8942 13.5575 19.9941C13.4463 19.9691 13.3474 19.9566 13.2362 19.9566C12.507 19.9566 11.9014 20.5556 11.9014 21.3044C11.9014 21.6663 12.0373 21.9908 12.2721 22.2404L11.9137 22.1655Z" fill="#362745"/>
<path d="M17.7982 22.3888C17.6746 22.3764 17.0071 22.1148 16.8835 22.0899C16.7105 21.8278 16.8835 20.8544 16.8835 20.5299C16.8835 19.6813 17.8971 19.7687 18.7252 19.7188L18.9724 20.0926C18.8982 20.0801 18.8117 20.0676 18.7252 20.0676C17.996 20.0676 17.3904 20.6666 17.3904 21.4154C17.4027 21.8023 17.551 22.1392 17.7982 22.3888Z" fill="#362745"/>
</svg>
