<?xml version="1.0" encoding="utf-8"?>
<!-- Generator: Adobe Illustrator 26.0.1, SVG Export Plug-In . SVG Version: 6.00 Build 0)  -->
<svg version="1.1" id="Layer_1" xmlns="http://www.w3.org/2000/svg" xmlns:xlink="http://www.w3.org/1999/xlink" x="0px" y="0px"
	 viewBox="0 0 1912 1951" style="enable-background:new 0 0 1912 1951;" xml:space="preserve">
<style type="text/css">
	.st0{clip-path:url(#SVGID_00000142860442968141741590000005810427126083300761_);}
	.st1{clip-path:url(#SVGID_00000176024202466644092400000002992062338948251311_);}
	.st2{fill:#FFF2D1;}
	.st3{fill-rule:evenodd;clip-rule:evenodd;fill:#08B7E8;}
	.st4{fill:#08B7E8;}
	.st5{fill-rule:evenodd;clip-rule:evenodd;fill:#7C70D4;}
	.st6{fill:#7C70D4;}
	.st7{fill-rule:evenodd;clip-rule:evenodd;fill:#8C5CBE;}
	.st8{fill:#8C5CBE;}
	.st9{fill:#ADFFFF;}
	.st10{fill-rule:evenodd;clip-rule:evenodd;fill:#ADFFFF;}
	.st11{fill:#8EFFFF;}
	.st12{fill-rule:evenodd;clip-rule:evenodd;fill:#8EFFFF;}
	.st13{fill:url(#SVGID_00000168815894415911126770000015762973927122888359_);}
	.st14{fill:url(#SVGID_00000157305750226716083190000005851237886480419519_);}
	.st15{fill:url(#SVGID_00000036966241565255399640000002399512207572310437_);}
	.st16{opacity:0.1;}
	.st17{fill-rule:evenodd;clip-rule:evenodd;fill:#635EB0;}
	.st18{opacity:0.5;}
	.st19{opacity:0.5;clip-path:url(#SVGID_00000121278516097410254120000005904333632855319702_);}
	.st20{fill:url(#SVGID_00000089554972787682762910000006420530593188281987_);}
	.st21{fill:url(#SVGID_00000023990377527663192510000017229094213736319382_);}
	.st22{fill:#7900DA;}
	.st23{fill:url(#SVGID_00000025410762602739984910000011546128607497450119_);}
	.st24{fill:url(#SVGID_00000041297442702924679590000003324237365157271469_);}
	.st25{fill:url(#SVGID_00000125584466399880156270000010403690688209354174_);}
</style>
<g>
	<defs>
		<rect id="SVGID_1_" width="1912" height="2092"/>
	</defs>
	<clipPath id="SVGID_00000165224409196873472560000006888427184290957717_">
		<use xlink:href="#SVGID_1_"  style="overflow:visible;"/>
	</clipPath>
	<g style="clip-path:url(#SVGID_00000165224409196873472560000006888427184290957717_);">
		<g>
			<defs>
				<rect id="SVGID_00000131330518368427887800000002721831012891299742_" x="-16" y="-132" width="1943" height="3975"/>
			</defs>
			<clipPath id="SVGID_00000147921536780743438010000011685566174847052427_">
				<use xlink:href="#SVGID_00000131330518368427887800000002721831012891299742_"  style="overflow:visible;"/>
			</clipPath>
			<g style="clip-path:url(#SVGID_00000147921536780743438010000011685566174847052427_);">
				<g>
					<path class="st2" d="M753.9,930.1c-0.5,0.7-1.5,0.7-2.2,0.2c-0.7-0.5-0.7-1.5-0.2-2.2c0.5-0.7,1.5-0.7,2.2-0.2
						C754.3,928.5,754.4,929.4,753.9,930.1z"/>
				</g>
				<g>
					<path class="st2" d="M188.8,1048.3c-0.5,0.7-1.5,0.7-2.2,0.2c-0.6-0.5-0.7-1.5-0.2-2.2c0.5-0.7,1.5-0.7,2.2-0.2
						C189.3,1046.7,189.3,1047.7,188.8,1048.3z"/>
				</g>
				<g>
					<path class="st2" d="M159.4,834.1c-0.5,0.7-1.5,0.7-2.2,0.2c-0.7-0.5-0.7-1.5-0.2-2.2c0.5-0.7,1.5-0.7,2.2-0.2
						C159.9,832.5,160,833.4,159.4,834.1z"/>
				</g>
				<g>
					<path class="st2" d="M635.1,1025.5c-0.5,0.6-1.5,0.7-2.2,0.2c-0.7-0.6-0.7-1.5-0.2-2.2c0.5-0.7,1.5-0.7,2.2-0.2
						C635.6,1023.9,635.7,1024.9,635.1,1025.5z"/>
				</g>
				<g>
					<path class="st2" d="M868.6,810.2c-0.5,0.7-1.5,0.7-2.2,0.2c-0.6-0.5-0.7-1.5-0.2-2.2c0.5-0.7,1.5-0.7,2.2-0.2
						C869,808.6,869.1,809.6,868.6,810.2z"/>
				</g>
				<g>
					<path class="st2" d="M814.3,1033.1c-0.5,0.7-1.5,0.7-2.2,0.2c-0.6-0.5-0.7-1.5-0.2-2.2c0.5-0.7,1.5-0.7,2.2-0.2
						C814.8,1031.5,814.9,1032.5,814.3,1033.1z"/>
				</g>
				<g>
					<path class="st2" d="M106.3,943.7c-0.5,0.6-1.5,0.7-2.2,0.2c-0.7-0.5-0.7-1.5-0.2-2.2c0.5-0.6,1.5-0.7,2.2-0.2
						C106.7,942,106.8,943,106.3,943.7z"/>
				</g>
				<g>
					<path class="st2" d="M526.8,866.1c-0.5,0.7-1.5,0.7-2.2,0.2s-0.7-1.5-0.2-2.2c0.5-0.7,1.5-0.7,2.2-0.2
						C527.2,864.5,527.3,865.4,526.8,866.1z"/>
				</g>
				<g>
					<path class="st2" d="M388.9,740.8c-0.5,0.7-1.5,0.7-2.2,0.2c-0.6-0.5-0.7-1.5-0.2-2.2c0.5-0.7,1.5-0.7,2.2-0.2
						C389.4,739.2,389.5,740.2,388.9,740.8z"/>
				</g>
				<g>
					<path class="st2" d="M862,552.6c-0.5,0.7-1.5,0.7-2.2,0.2c-0.7-0.5-0.7-1.5-0.2-2.2c0.5-0.7,1.5-0.7,2.2-0.2
						C862.5,551,862.6,552,862,552.6z"/>
				</g>
				<g>
					<path class="st2" d="M490.4,445.2c-0.5,0.7-1.5,0.7-2.2,0.2c-0.6-0.5-0.7-1.5-0.2-2.2c0.5-0.7,1.5-0.7,2.2-0.2
						C490.9,443.6,490.9,444.6,490.4,445.2z"/>
				</g>
				<g>
					<path class="st2" d="M73.7,488.1c-0.5,0.7-1.5,0.7-2.2,0.2c-0.6-0.5-0.7-1.5-0.2-2.2c0.5-0.7,1.5-0.7,2.2-0.2
						C74.2,486.5,74.3,487.4,73.7,488.1z"/>
				</g>
				<g>
					<path class="st2" d="M155.6,238.1c-0.3,0.3-0.8,0.4-1.1,0.1c-0.3-0.3-0.4-0.8-0.1-1.1c0.3-0.3,0.8-0.4,1.1-0.1
						C155.8,237.3,155.9,237.8,155.6,238.1z"/>
				</g>
				<g>
					<path class="st2" d="M949.9,278.8c-0.3,0.3-0.8,0.4-1.1,0.1c-0.3-0.3-0.4-0.8-0.1-1.1c0.3-0.3,0.8-0.4,1.1-0.1
						C950.1,278,950.2,278.5,949.9,278.8z"/>
				</g>
				<g>
					<path class="st2" d="M783.9,490.2c-0.5,0.7-1.5,0.7-2.2,0.2c-0.7-0.5-0.7-1.5-0.2-2.2c0.5-0.7,1.5-0.7,2.2-0.2
						C784.4,488.6,784.5,489.6,783.9,490.2z"/>
				</g>
				<g>
					<path class="st2" d="M619.5,316.7c-0.3,0.3-0.8,0.4-1.1,0.1c-0.3-0.3-0.4-0.8-0.1-1.1c0.3-0.3,0.8-0.4,1.1-0.1
						C619.7,315.9,619.8,316.4,619.5,316.7z"/>
				</g>
				<g>
					<path class="st2" d="M345.5,367.7c-0.5,0.7-1.5,0.7-2.2,0.2c-0.6-0.5-0.7-1.5-0.2-2.2c0.5-0.7,1.5-0.7,2.2-0.2
						C346,366.1,346.1,367,345.5,367.7z"/>
				</g>
				<g>
					<path class="st2" d="M464.9,278.8c-0.3,0.3-0.8,0.4-1.1,0.1c-0.3-0.3-0.4-0.8-0.1-1.1c0.3-0.3,0.8-0.4,1.1-0.1
						C465.1,278,465.1,278.5,464.9,278.8z"/>
				</g>
				<g>
					<path class="st2" d="M756.2,188.8c-0.3,0.3-0.8,0.4-1.1,0.1c-0.3-0.3-0.4-0.8-0.1-1.1c0.3-0.3,0.8-0.4,1.1-0.1
						C756.4,187.9,756.5,188.4,756.2,188.8z"/>
				</g>
				<g>
					<path class="st2" d="M894.6,84.1c-0.3,0.3-0.8,0.4-1.1,0.1c-0.3-0.3-0.4-0.8-0.1-1.1c0.3-0.3,0.8-0.4,1.1-0.1
						C894.8,83.3,894.8,83.8,894.6,84.1z"/>
				</g>
				<g>
					<path class="st2" d="M318.4,205c-0.3,0.3-0.8,0.4-1.1,0.1c-0.3-0.3-0.4-0.8-0.1-1.1c0.3-0.3,0.8-0.4,1.1-0.1
						C318.6,204.2,318.6,204.7,318.4,205z"/>
				</g>
				<g>
					<path class="st2" d="M258.2,594.9c-0.5,0.7-1.5,0.7-2.2,0.2c-0.6-0.5-0.7-1.5-0.2-2.2c0.5-0.7,1.5-0.7,2.2-0.2
						C258.6,593.3,258.7,594.3,258.2,594.9z"/>
				</g>
				<g>
					<path class="st2" d="M1633.9,930.1c-0.6,0.7-1.5,0.7-2.2,0.2c-0.7-0.5-0.7-1.5-0.2-2.2c0.5-0.7,1.5-0.7,2.2-0.2
						C1634.3,928.5,1634.4,929.4,1633.9,930.1z"/>
				</g>
				<g>
					<path class="st2" d="M1068.8,1048.3c-0.6,0.7-1.5,0.7-2.2,0.2c-0.7-0.5-0.7-1.5-0.2-2.2c0.6-0.7,1.5-0.7,2.2-0.2
						C1069.2,1046.7,1069.3,1047.7,1068.8,1048.3z"/>
				</g>
				<g>
					<path class="st2" d="M1039.4,834.1c-0.5,0.7-1.5,0.7-2.2,0.2c-0.7-0.5-0.7-1.5-0.2-2.2c0.6-0.7,1.5-0.7,2.2-0.2
						S1040,833.4,1039.4,834.1z"/>
				</g>
				<g>
					<path class="st2" d="M1515.2,1025.5c-0.6,0.6-1.5,0.7-2.2,0.2c-0.7-0.6-0.7-1.5-0.2-2.2c0.5-0.7,1.5-0.7,2.2-0.2
						C1515.6,1023.9,1515.7,1024.9,1515.2,1025.5z"/>
				</g>
				<g>
					<path class="st2" d="M1748.6,810.2c-0.5,0.7-1.5,0.7-2.2,0.2c-0.7-0.5-0.7-1.5-0.2-2.2c0.5-0.7,1.5-0.7,2.2-0.2
						C1749,808.6,1749.1,809.6,1748.6,810.2z"/>
				</g>
				<g>
					<path class="st2" d="M1694.3,1033.1c-0.5,0.7-1.5,0.7-2.2,0.2c-0.6-0.5-0.7-1.5-0.2-2.2s1.5-0.7,2.2-0.2
						C1694.8,1031.5,1694.9,1032.5,1694.3,1033.1z"/>
				</g>
				<g>
					<path class="st2" d="M986.3,943.7c-0.6,0.6-1.5,0.7-2.2,0.2c-0.7-0.5-0.7-1.5-0.2-2.2c0.5-0.6,1.5-0.7,2.2-0.2
						C986.7,942,986.8,943,986.3,943.7z"/>
				</g>
				<g>
					<path class="st2" d="M1406.8,866.1c-0.5,0.7-1.5,0.7-2.2,0.2s-0.7-1.5-0.2-2.2c0.5-0.7,1.5-0.7,2.2-0.2
						C1407.2,864.5,1407.3,865.4,1406.8,866.1z"/>
				</g>
				<g>
					<path class="st2" d="M1268.9,740.8c-0.5,0.7-1.5,0.7-2.2,0.2s-0.7-1.5-0.2-2.2c0.5-0.7,1.5-0.7,2.2-0.2
						C1269.4,739.2,1269.5,740.2,1268.9,740.8z"/>
				</g>
				<g>
					<path class="st2" d="M1742,552.6c-0.5,0.7-1.5,0.7-2.2,0.2c-0.7-0.5-0.7-1.5-0.2-2.2c0.5-0.7,1.5-0.7,2.2-0.2
						C1742.5,551,1742.6,552,1742,552.6z"/>
				</g>
				<g>
					<path class="st2" d="M1370.4,445.2c-0.5,0.7-1.5,0.7-2.2,0.2c-0.7-0.5-0.7-1.5-0.2-2.2c0.5-0.7,1.5-0.7,2.2-0.2
						C1370.8,443.6,1370.9,444.6,1370.4,445.2z"/>
				</g>
				<g>
					<path class="st2" d="M953.7,488.1c-0.5,0.7-1.5,0.7-2.2,0.2c-0.7-0.5-0.7-1.5-0.2-2.2c0.5-0.7,1.5-0.7,2.2-0.2
						C954.2,486.5,954.3,487.4,953.7,488.1z"/>
				</g>
				<g>
					<path class="st2" d="M1035.6,238.1c-0.3,0.3-0.8,0.4-1.1,0.1c-0.3-0.3-0.4-0.8-0.1-1.1c0.3-0.3,0.8-0.4,1.1-0.1
						C1035.8,237.3,1035.9,237.8,1035.6,238.1z"/>
				</g>
				<g>
					<path class="st2" d="M1829.9,278.8c-0.3,0.3-0.8,0.4-1.1,0.1c-0.3-0.3-0.4-0.8-0.1-1.1c0.3-0.3,0.8-0.4,1.1-0.1
						C1830.1,278,1830.2,278.5,1829.9,278.8z"/>
				</g>
				<g>
					<path class="st2" d="M1663.9,490.2c-0.6,0.7-1.5,0.7-2.2,0.2c-0.7-0.5-0.7-1.5-0.2-2.2c0.5-0.7,1.5-0.7,2.2-0.2
						C1664.4,488.6,1664.5,489.6,1663.9,490.2z"/>
				</g>
				<g>
					<path class="st2" d="M1499.5,316.7c-0.3,0.3-0.8,0.4-1.1,0.1c-0.3-0.3-0.4-0.8-0.1-1.1c0.3-0.3,0.8-0.4,1.1-0.1
						C1499.7,315.9,1499.8,316.4,1499.5,316.7z"/>
				</g>
				<g>
					<path class="st2" d="M1225.5,367.7c-0.5,0.7-1.5,0.7-2.2,0.2c-0.7-0.5-0.7-1.5-0.2-2.2c0.5-0.7,1.5-0.7,2.2-0.2
						C1226,366.1,1226.1,367,1225.5,367.7z"/>
				</g>
				<g>
					<path class="st2" d="M1344.9,278.8c-0.3,0.3-0.8,0.4-1.1,0.1c-0.3-0.3-0.4-0.8-0.1-1.1c0.3-0.3,0.8-0.4,1.1-0.1
						C1345.1,278,1345.1,278.5,1344.9,278.8z"/>
				</g>
				<g>
					<path class="st2" d="M1636.2,188.8c-0.3,0.3-0.8,0.4-1.1,0.1c-0.3-0.3-0.4-0.8-0.1-1.1c0.3-0.3,0.8-0.4,1.1-0.1
						C1636.4,187.9,1636.5,188.4,1636.2,188.8z"/>
				</g>
				<g>
					<path class="st2" d="M1774.6,84.1c-0.3,0.3-0.8,0.4-1.1,0.1c-0.3-0.3-0.4-0.8-0.1-1.1c0.3-0.3,0.8-0.4,1.1-0.1
						C1774.8,83.3,1774.8,83.8,1774.6,84.1z"/>
				</g>
				<g>
					<path class="st2" d="M1198.4,205c-0.3,0.3-0.8,0.4-1.1,0.1c-0.3-0.3-0.4-0.8-0.1-1.1c0.3-0.3,0.8-0.4,1.1-0.1
						C1198.6,204.2,1198.6,204.7,1198.4,205z"/>
				</g>
				<g>
					<path class="st2" d="M1138.2,594.9c-0.5,0.7-1.5,0.7-2.2,0.2c-0.7-0.5-0.7-1.5-0.2-2.2c0.5-0.7,1.5-0.7,2.2-0.2
						C1138.6,593.3,1138.7,594.3,1138.2,594.9z"/>
				</g>
				<g>
					<path class="st2" d="M1146.9,201.9c0.5-0.7,1.5-0.7,2.2-0.2c0.6,0.5,0.7,1.5,0.2,2.2c-0.5,0.7-1.5,0.7-2.2,0.2
						C1146.4,203.5,1146.3,202.6,1146.9,201.9z"/>
				</g>
				<g>
					<path class="st2" d="M1712,83.7c0.5-0.7,1.5-0.7,2.2-0.2c0.7,0.5,0.7,1.5,0.2,2.2c-0.5,0.7-1.5,0.7-2.2,0.2
						C1711.5,85.3,1711.4,84.3,1712,83.7z"/>
				</g>
				<g>
					<path class="st2" d="M1741.3,297.9c0.5-0.7,1.5-0.7,2.2-0.2c0.7,0.5,0.7,1.5,0.2,2.2c-0.5,0.7-1.5,0.7-2.2,0.2
						C1740.9,299.5,1740.8,298.6,1741.3,297.9z"/>
				</g>
				<g>
					<path class="st2" d="M1265.6,106.5c0.5-0.7,1.5-0.7,2.2-0.2c0.6,0.5,0.7,1.5,0.2,2.2s-1.5,0.7-2.2,0.2
						C1265.2,108.1,1265.1,107.1,1265.6,106.5z"/>
				</g>
				<g>
					<path class="st2" d="M1032.2,321.8c0.5-0.7,1.5-0.7,2.2-0.2c0.7,0.5,0.7,1.5,0.2,2.2c-0.5,0.7-1.5,0.7-2.2,0.2
						C1031.8,323.4,1031.7,322.4,1032.2,321.8z"/>
				</g>
				<g>
					<path class="st2" d="M1086.4,98.9c0.5-0.7,1.5-0.7,2.2-0.2s0.7,1.5,0.2,2.2c-0.5,0.7-1.5,0.7-2.2,0.2S1085.9,99.5,1086.4,98.9z
						"/>
				</g>
				<g>
					<path class="st2" d="M1794.5,188.4c0.5-0.7,1.5-0.7,2.2-0.2s0.7,1.5,0.2,2.2c-0.5,0.7-1.5,0.7-2.2,0.2
						C1794,190,1794,189,1794.5,188.4z"/>
				</g>
				<g>
					<path class="st2" d="M1374,265.9c0.5-0.7,1.5-0.7,2.2-0.2c0.6,0.5,0.7,1.5,0.2,2.2c-0.6,0.7-1.5,0.7-2.2,0.2
						C1373.6,267.5,1373.5,266.6,1374,265.9z"/>
				</g>
				<g>
					<path class="st2" d="M1511.8,391.2c0.5-0.7,1.5-0.7,2.2-0.2c0.7,0.5,0.7,1.5,0.2,2.2c-0.5,0.7-1.5,0.7-2.2,0.2
						C1511.4,392.8,1511.3,391.8,1511.8,391.2z"/>
				</g>
				<g>
					<path class="st2" d="M1038.7,579.4c0.5-0.7,1.5-0.7,2.2-0.2c0.7,0.5,0.7,1.5,0.2,2.2c-0.5,0.7-1.5,0.7-2.2,0.2
						C1038.3,581,1038.2,580,1038.7,579.4z"/>
				</g>
				<g>
					<path class="st2" d="M1410.4,686.8c0.5-0.7,1.5-0.7,2.2-0.2s0.7,1.5,0.2,2.2s-1.5,0.7-2.2,0.2
						C1409.9,688.4,1409.8,687.4,1410.4,686.8z"/>
				</g>
				<g>
					<path class="st2" d="M1827.1,643.9c0.5-0.7,1.5-0.7,2.2-0.2c0.7,0.5,0.7,1.5,0.2,2.2c-0.5,0.7-1.5,0.7-2.2,0.2
						C1826.6,645.5,1826.5,644.6,1827.1,643.9z"/>
				</g>
				<g>
					<path class="st2" d="M1745.2,893.9c0.3-0.3,0.8-0.4,1.1-0.1c0.3,0.3,0.4,0.8,0.1,1.1c-0.3,0.3-0.8,0.4-1.1,0.1
						C1744.9,894.7,1744.9,894.2,1745.2,893.9z"/>
				</g>
				<g>
					<path class="st2" d="M950.9,853.2c0.3-0.3,0.8-0.4,1.1-0.1c0.3,0.3,0.4,0.8,0.1,1.1c-0.3,0.3-0.8,0.4-1.1,0.1
						C950.7,854,950.6,853.5,950.9,853.2z"/>
				</g>
				<g>
					<path class="st2" d="M1116.9,641.8c0.5-0.7,1.5-0.7,2.2-0.2c0.7,0.5,0.7,1.5,0.2,2.2c-0.5,0.7-1.5,0.7-2.2,0.2
						C1116.4,643.4,1116.3,642.4,1116.9,641.8z"/>
				</g>
				<g>
					<path class="st2" d="M1281.3,815.3c0.3-0.3,0.8-0.4,1.1-0.1c0.3,0.3,0.4,0.8,0.1,1.1c-0.3,0.3-0.8,0.4-1.1,0.1
						C1281.1,816.1,1281,815.6,1281.3,815.3z"/>
				</g>
				<g>
					<path class="st2" d="M1555.2,764.3c0.5-0.7,1.5-0.7,2.2-0.2s0.7,1.5,0.2,2.2c-0.5,0.7-1.5,0.7-2.2,0.2
						C1554.8,765.9,1554.7,765,1555.2,764.3z"/>
				</g>
				<g>
					<path class="st2" d="M1435.9,853.2c0.3-0.3,0.8-0.4,1.1-0.1c0.3,0.3,0.4,0.8,0.1,1.1c-0.3,0.3-0.8,0.4-1.1,0.1
						C1435.7,854,1435.6,853.5,1435.9,853.2z"/>
				</g>
				<g>
					<path class="st2" d="M1144.6,943.2c0.3-0.3,0.8-0.4,1.1-0.1c0.3,0.3,0.4,0.8,0.1,1.1c-0.3,0.3-0.8,0.4-1.1,0.1
						C1144.3,944.1,1144.3,943.6,1144.6,943.2z"/>
				</g>
				<g>
					<path class="st2" d="M1006.2,1047.9c0.3-0.3,0.8-0.4,1.1-0.1c0.3,0.3,0.4,0.8,0.1,1.1c-0.3,0.3-0.8,0.4-1.1,0.1
						C1006,1048.7,1005.9,1048.2,1006.2,1047.9z"/>
				</g>
				<g>
					<path class="st2" d="M1582.4,927c0.3-0.3,0.8-0.4,1.1-0.1c0.3,0.3,0.4,0.8,0.1,1.1c-0.3,0.3-0.8,0.4-1.1,0.1
						C1582.2,927.8,1582.1,927.3,1582.4,927z"/>
				</g>
				<g>
					<path class="st2" d="M1642.6,537.1c0.5-0.7,1.5-0.7,2.2-0.2s0.7,1.5,0.2,2.2c-0.5,0.7-1.5,0.7-2.2,0.2
						C1642.1,538.7,1642,537.7,1642.6,537.1z"/>
				</g>
				<g>
					<path class="st2" d="M266.9,201.9c0.5-0.7,1.5-0.7,2.2-0.2c0.6,0.5,0.7,1.5,0.2,2.2c-0.5,0.7-1.5,0.7-2.2,0.2
						C266.4,203.5,266.3,202.6,266.9,201.9z"/>
				</g>
				<g>
					<path class="st2" d="M832,83.7c0.5-0.7,1.5-0.7,2.2-0.2c0.6,0.5,0.7,1.5,0.2,2.2c-0.5,0.7-1.5,0.7-2.2,0.2
						C831.5,85.3,831.4,84.3,832,83.7z"/>
				</g>
				<g>
					<path class="st2" d="M861.3,297.9c0.5-0.7,1.5-0.7,2.2-0.2c0.7,0.5,0.7,1.5,0.2,2.2c-0.5,0.7-1.5,0.7-2.2,0.2
						C860.9,299.5,860.8,298.6,861.3,297.9z"/>
				</g>
				<g>
					<path class="st2" d="M385.6,106.5c0.5-0.7,1.5-0.7,2.2-0.2c0.6,0.5,0.7,1.5,0.2,2.2c-0.5,0.7-1.5,0.7-2.2,0.2
						C385.2,108.1,385.1,107.1,385.6,106.5z"/>
				</g>
				<g>
					<path class="st2" d="M152.2,321.8c0.5-0.7,1.5-0.7,2.2-0.2c0.7,0.5,0.7,1.5,0.2,2.2c-0.5,0.7-1.5,0.7-2.2,0.2
						C151.8,323.4,151.7,322.4,152.2,321.8z"/>
				</g>
				<g>
					<path class="st2" d="M206.4,98.9c0.5-0.7,1.5-0.7,2.2-0.2s0.7,1.5,0.2,2.2s-1.5,0.7-2.2,0.2C206,100.5,205.9,99.5,206.4,98.9z"
						/>
				</g>
				<g>
					<path class="st2" d="M914.5,188.4c0.5-0.7,1.5-0.7,2.2-0.2c0.7,0.5,0.7,1.5,0.2,2.2c-0.5,0.7-1.5,0.7-2.2,0.2
						C914,190,914,189,914.5,188.4z"/>
				</g>
				<g>
					<path class="st2" d="M494,265.9c0.5-0.7,1.5-0.7,2.2-0.2c0.6,0.5,0.7,1.5,0.2,2.2c-0.5,0.7-1.5,0.7-2.2,0.2
						C493.6,267.5,493.5,266.6,494,265.9z"/>
				</g>
				<g>
					<path class="st2" d="M631.8,391.2c0.5-0.7,1.5-0.7,2.2-0.2c0.6,0.5,0.7,1.5,0.2,2.2c-0.5,0.7-1.5,0.7-2.2,0.2
						C631.4,392.8,631.3,391.8,631.8,391.2z"/>
				</g>
				<g>
					<path class="st2" d="M158.7,579.4c0.5-0.7,1.5-0.7,2.2-0.2c0.6,0.5,0.7,1.5,0.2,2.2c-0.5,0.7-1.5,0.7-2.2,0.2
						C158.3,581,158.2,580,158.7,579.4z"/>
				</g>
				<g>
					<path class="st2" d="M530.4,686.8c0.5-0.7,1.5-0.7,2.2-0.2s0.7,1.5,0.2,2.2c-0.5,0.7-1.5,0.7-2.2,0.2
						C529.9,688.4,529.8,687.4,530.4,686.8z"/>
				</g>
				<g>
					<path class="st2" d="M947,643.9c0.5-0.7,1.5-0.7,2.2-0.2c0.6,0.5,0.7,1.5,0.2,2.2c-0.5,0.7-1.5,0.7-2.2,0.2
						C946.6,645.5,946.5,644.6,947,643.9z"/>
				</g>
				<g>
					<path class="st2" d="M865.2,893.9c0.3-0.3,0.8-0.4,1.1-0.1c0.3,0.3,0.4,0.8,0.1,1.1c-0.3,0.3-0.8,0.4-1.1,0.1
						C864.9,894.7,864.9,894.2,865.2,893.9z"/>
				</g>
				<g>
					<path class="st2" d="M70.9,853.2c0.3-0.3,0.8-0.4,1.1-0.1c0.3,0.3,0.4,0.8,0.1,1.1c-0.3,0.3-0.8,0.4-1.1,0.1
						C70.6,854,70.6,853.5,70.9,853.2z"/>
				</g>
				<g>
					<path class="st2" d="M236.9,641.8c0.5-0.7,1.5-0.7,2.2-0.2c0.6,0.5,0.7,1.5,0.2,2.2c-0.5,0.7-1.5,0.7-2.2,0.2
						C236.4,643.4,236.3,642.4,236.9,641.8z"/>
				</g>
				<g>
					<path class="st2" d="M401.3,815.3c0.3-0.3,0.8-0.4,1.1-0.1c0.3,0.3,0.4,0.8,0.1,1.1c-0.3,0.3-0.8,0.4-1.1,0.1
						C401.1,816.1,401,815.6,401.3,815.3z"/>
				</g>
				<g>
					<path class="st2" d="M675.2,764.3c0.5-0.7,1.5-0.7,2.2-0.2c0.6,0.5,0.7,1.5,0.2,2.2c-0.5,0.7-1.5,0.7-2.2,0.2
						C674.8,765.9,674.7,765,675.2,764.3z"/>
				</g>
				<g>
					<path class="st2" d="M555.9,853.2c0.3-0.3,0.8-0.4,1.1-0.1c0.3,0.3,0.4,0.8,0.1,1.1c-0.3,0.3-0.8,0.4-1.1,0.1
						C555.7,854,555.6,853.5,555.9,853.2z"/>
				</g>
				<g>
					<path class="st2" d="M264.6,943.2c0.3-0.3,0.8-0.4,1.1-0.1c0.3,0.3,0.4,0.8,0.1,1.1c-0.3,0.3-0.8,0.4-1.1,0.1
						C264.3,944.1,264.3,943.6,264.6,943.2z"/>
				</g>
				<g>
					<path class="st2" d="M126.2,1047.9c0.3-0.3,0.8-0.4,1.1-0.1c0.3,0.3,0.4,0.8,0.1,1.1c-0.3,0.3-0.8,0.4-1.1,0.1
						C126,1048.7,125.9,1048.2,126.2,1047.9z"/>
				</g>
				<g>
					<path class="st2" d="M702.4,927c0.3-0.3,0.8-0.4,1.1-0.1s0.4,0.8,0.1,1.1c-0.3,0.3-0.8,0.4-1.1,0.1S702.1,927.3,702.4,927z"/>
				</g>
				<g>
					<path class="st2" d="M762.6,537.1c0.5-0.7,1.5-0.7,2.2-0.2c0.6,0.5,0.7,1.5,0.2,2.2c-0.5,0.7-1.5,0.7-2.2,0.2
						C762.1,538.7,762,537.7,762.6,537.1z"/>
				</g>
				<path class="st3" d="M691.3,372c0,0.9-0.9,1.7-1.7,1.7s-1.7-0.9-1.7-1.7c0-0.9,0.9-1.7,1.7-1.7S691.3,371.2,691.3,372z"/>
				<path class="st4" d="M588.2,433.7c1,0,1.7-0.8,1.7-1.7c0-1-0.8-1.7-1.7-1.7c-1,0-1.7,0.8-1.7,1.7
					C586.5,432.9,587.3,433.7,588.2,433.7z"/>
				<path class="st3" d="M1290.8,475.6c0,0.9-0.9,1.7-1.7,1.7c-0.9,0-1.7-0.9-1.7-1.7c0-0.9,0.9-1.7,1.7-1.7
					C1289.9,473.9,1290.8,474.5,1290.8,475.6z"/>
				<path class="st4" d="M906.5,656c1,0,1.7-0.8,1.7-1.7c0-1-0.8-1.7-1.7-1.7c-1,0-1.7,0.8-1.7,1.7C904.8,655.2,905.6,656,906.5,656
					z"/>
				<path class="st3" d="M1805.7,530.1c0,0.9-0.9,1.7-1.7,1.7s-1.7-0.9-1.7-1.7c0-0.9,0.9-1.7,1.7-1.7S1805.7,529.2,1805.7,530.1z"
					/>
				<path class="st5" d="M798,582.6c0,0.9-0.9,1.7-1.7,1.7c-0.9,0-1.7-0.9-1.7-1.7c0-0.9,0.9-1.7,1.7-1.7
					C797.4,580.9,798,581.5,798,582.6z"/>
				<path class="st6" d="M713.4,544.4c1,0,1.7-0.8,1.7-1.7c0-1-0.8-1.7-1.7-1.7c-1,0-1.7,0.8-1.7,1.7
					C711.7,543.6,712.5,544.4,713.4,544.4z"/>
				<path class="st7" d="M1179.7,393.1c0,0.9-0.9,1.7-1.7,1.7s-1.7-0.9-1.7-1.7c0-0.9,0.9-1.7,1.7-1.7S1179.7,392.2,1179.7,393.1z"
					/>
				<path class="st8" d="M946,219.6c1,0,1.7-0.8,1.7-1.7c0-1-0.8-1.7-1.7-1.7c-1,0-1.7,0.8-1.7,1.7
					C944.3,218.9,945.1,219.6,946,219.6z"/>
				<path class="st8" d="M711.7,273.3c1,0,1.7-0.8,1.7-1.7c0-1-0.8-1.7-1.7-1.7c-1,0-1.7,0.8-1.7,1.7
					C709.9,272.5,710.7,273.3,711.7,273.3z"/>
				<path class="st7" d="M824.9,580.9c0,0.9-0.9,1.7-1.7,1.7c-0.9,0-1.7-0.9-1.7-1.7c0-0.9,0.9-1.7,1.7-1.7
					C824.1,579.1,824.9,579.8,824.9,580.9z"/>
				<path class="st7" d="M839.3,257c0,0.9-0.9,1.7-1.7,1.7c-0.9,0-1.7-0.9-1.7-1.7c0-0.9,0.9-1.7,1.7-1.7
					C838.6,255,839.3,255.9,839.3,257z"/>
				<path class="st9" d="M1200.3,553.5c1,0,1.7-0.8,1.7-1.7c0-1-0.8-1.7-1.7-1.7c-1,0-1.7,0.8-1.7,1.7
					C1198.6,552.8,1199.4,553.5,1200.3,553.5z"/>
				<path class="st6" d="M589.7,395.7c1,0,1.7-0.8,1.7-1.7c0-1-0.8-1.7-1.7-1.7c-1,0-1.7,0.8-1.7,1.7
					C588,394.9,588.8,395.7,589.7,395.7z"/>
				<path class="st6" d="M885.3,529.4c1,0,1.7-0.8,1.7-1.7s-0.8-1.7-1.7-1.7c-1,0-1.7,0.8-1.7,1.7S884.3,529.4,885.3,529.4z"/>
				<path class="st5" d="M629.7,410.5c0,0.9-0.9,1.7-1.7,1.7c-0.9,0-1.7-0.9-1.7-1.7c0-0.9,0.9-1.7,1.7-1.7
					C629,408.7,629.7,409.6,629.7,410.5z"/>
				<path class="st5" d="M1594.8,215.5c0,0.9-0.9,1.7-1.7,1.7c-0.9,0-1.7-0.9-1.7-1.7c0-0.9,0.9-1.7,1.7-1.7
					C1594.1,213.8,1594.8,214.6,1594.8,215.5z"/>
				<path class="st6" d="M1097.7,467.8c1,0,1.7-0.8,1.7-1.7c0-1-0.8-1.7-1.7-1.7c-1,0-1.7,0.8-1.7,1.7
					C1095.9,467,1096.7,467.8,1097.7,467.8z"/>
				<path class="st5" d="M1698.5,557.7c0,0.9-0.9,1.7-1.7,1.7s-1.7-0.9-1.7-1.7c0-0.9,0.9-1.7,1.7-1.7
					C1697.8,555.9,1698.5,556.8,1698.5,557.7z"/>
				<path class="st6" d="M1714.3,194.7c1,0,1.7-0.8,1.7-1.7c0-1-0.8-1.7-1.7-1.7c-1,0-1.7,0.8-1.7,1.7
					C1712.6,193.9,1713.4,194.7,1714.3,194.7z"/>
				<path class="st5" d="M555,319.1c0,0.9-0.9,1.7-1.7,1.7s-1.7-0.9-1.7-1.7c0-0.9,0.9-1.7,1.7-1.7C554.4,317.3,555,318.2,555,319.1
					z"/>
				<path class="st6" d="M1741.5,428.7c1,0,1.7-0.8,1.7-1.7c0-1-0.8-1.7-1.7-1.7c-1,0-1.7,0.8-1.7,1.7
					C1739.7,427.9,1740.5,428.7,1741.5,428.7z"/>
				<path class="st6" d="M336.3,526c1,0,1.7-0.8,1.7-1.7c0-1-0.8-1.7-1.7-1.7c-1,0-1.7,0.8-1.7,1.7C334.6,525.2,335.4,526,336.3,526
					z"/>
				<path class="st6" d="M376,276.7c1,0,1.7-0.8,1.7-1.7c0-1-0.8-1.7-1.7-1.7c-1,0-1.7,0.8-1.7,1.7C374.3,276,375.1,276.7,376,276.7
					z"/>
				<path class="st5" d="M1697.6,455c0,0.9-0.9,1.7-1.7,1.7s-1.7-0.9-1.7-1.7s0.9-1.7,1.7-1.7C1697,453.2,1697.6,454.1,1697.6,455z"
					/>
				<path class="st5" d="M1181.4,329.3c0,0.9-0.9,1.7-1.7,1.7s-1.7-0.9-1.7-1.7c0-0.9,0.9-1.7,1.7-1.7S1181.4,328.2,1181.4,329.3z"
					/>
				<path class="st6" d="M1683.5,535.3c0.9,0,1.7-0.8,1.7-1.7c0-1-0.8-1.7-1.7-1.7c-1,0-1.7,0.8-1.7,1.7
					C1681.8,534.5,1682.6,535.3,1683.5,535.3z"/>
				<path class="st4" d="M1363.5,343.4c1,0,1.7-0.8,1.7-1.7c0-1-0.8-1.7-1.7-1.7s-1.7,0.8-1.7,1.7
					C1361.8,342.6,1362.5,343.4,1363.5,343.4z"/>
				<path class="st5" d="M1451.1,356.2c0,0.9-0.9,1.7-1.7,1.7c-0.9,0-1.7-0.9-1.7-1.7c0-0.9,0.9-1.7,1.7-1.7
					C1450.3,354.5,1451.1,355.3,1451.1,356.2z"/>
				<path class="st5" d="M1753.4,641c0,0.9-0.9,1.7-1.7,1.7c-0.9,0-1.7-0.9-1.7-1.7c0-0.9,0.9-1.7,1.7-1.7
					C1752.5,639.3,1753.4,640.2,1753.4,641z"/>
				<path class="st10" d="M1101.2,265.7c0,0.9-0.9,1.7-1.7,1.7s-1.7-0.9-1.7-1.7c0-0.9,0.9-1.7,1.7-1.7
					C1100.5,263.9,1101.2,264.8,1101.2,265.7z"/>
				<path class="st9" d="M1273.9,410.5c1,0,1.7-0.8,1.7-1.7c0-1-0.8-1.7-1.7-1.7s-1.7,0.8-1.7,1.7
					C1272.1,409.7,1272.9,410.5,1273.9,410.5z"/>
				<path class="st9" d="M622.7,275c1,0,1.7-0.8,1.7-1.7c0-1-0.8-1.7-1.7-1.7c-1,0-1.7,0.8-1.7,1.7C621,274.2,621.8,275,622.7,275z"
					/>
				<path class="st9" d="M327.2,407.4c1,0,1.7-0.8,1.7-1.7c0-1-0.8-1.7-1.7-1.7c-1,0-1.7,0.8-1.7,1.7
					C325.5,406.6,326.2,407.4,327.2,407.4z"/>
				<path class="st11" d="M1782,217.3c1,0,1.7-0.8,1.7-1.7c0-1-0.8-1.7-1.7-1.7c-1,0-1.7,0.8-1.7,1.7
					C1780.3,216.5,1781.1,217.3,1782,217.3z"/>
				<path class="st9" d="M672.8,338.6c1,0,1.7-0.8,1.7-1.7c0-1-0.8-1.7-1.7-1.7c-1,0-1.7,0.8-1.7,1.7
					C671.1,337.8,671.9,338.6,672.8,338.6z"/>
				<path class="st10" d="M1427.3,471.7c0,0.9-0.9,1.7-1.7,1.7s-1.7-0.9-1.7-1.7c0-0.9,0.9-1.7,1.7-1.7S1427.3,470.8,1427.3,471.7z"
					/>
				<path class="st10" d="M1597.8,520.5c0,0.9-0.9,1.7-1.7,1.7c-0.9,0-1.7-0.9-1.7-1.7c0-0.9,0.9-1.7,1.7-1.7
					C1596.9,518.8,1597.8,519.7,1597.8,520.5z"/>
				<path class="st9" d="M1445.7,184.5c1,0,1.7-0.8,1.7-1.7s-0.8-1.7-1.7-1.7c-1,0-1.7,0.8-1.7,1.7S1444.8,184.5,1445.7,184.5z"/>
				<path class="st10" d="M484.5,394.8c0,0.9-0.9,1.7-1.7,1.7c-0.9,0-1.7-0.9-1.7-1.7c0-0.9,0.9-1.7,1.7-1.7
					C483.6,393.1,484.5,394,484.5,394.8z"/>
				<path class="st10" d="M826.7,472.6c0,0.9-0.9,1.7-1.7,1.7c-0.9,0-1.7-0.9-1.7-1.7c0-0.9,0.9-1.7,1.7-1.7
					C825.8,470.8,826.7,471.7,826.7,472.6z"/>
				<path class="st10" d="M1279.1,388.1c0,0.9-0.9,1.7-1.7,1.7s-1.7-0.9-1.7-1.7c0-0.9,0.9-1.7,1.7-1.7
					C1278.4,386.4,1279.1,387,1279.1,388.1z"/>
				<path class="st9" d="M1044.1,537c1,0,1.7-0.8,1.7-1.7c0-1-0.8-1.7-1.7-1.7c-1,0-1.7,0.8-1.7,1.7
					C1042.3,536.3,1043.1,537,1044.1,537z"/>
				<path class="st3" d="M1286.5,542.5c0,0.9-0.9,1.7-1.7,1.7s-1.7-0.9-1.7-1.7c0-0.9,0.9-1.7,1.7-1.7S1286.5,541.6,1286.5,542.5z"
					/>
				<path class="st6" d="M1108.1,488.2c1,0,1.7-0.8,1.7-1.7c0-1-0.8-1.7-1.7-1.7c-1,0-1.7,0.8-1.7,1.7
					C1106.4,487.4,1107.1,488.2,1108.1,488.2z"/>
				<path class="st6" d="M994.6,507.3c1,0,1.7-0.8,1.7-1.7c0-1-0.8-1.7-1.7-1.7s-1.7,0.8-1.7,1.7
					C992.9,506.5,993.7,507.3,994.6,507.3z"/>
				<path class="st8" d="M355.2,437.6c1,0,1.7-0.8,1.7-1.7c0-1-0.8-1.7-1.7-1.7c-1,0-1.7,0.8-1.7,1.7
					C353.5,436.8,354.2,437.6,355.2,437.6z"/>
				<path class="st8" d="M249.1,306.5c1,0,1.7-0.8,1.7-1.7c0-1-0.8-1.7-1.7-1.7c-1,0-1.7,0.8-1.7,1.7
					C247.4,305.7,248.1,306.5,249.1,306.5z"/>
				<path class="st7" d="M458,244.8c0,0.9-0.9,1.7-1.7,1.7c-0.9,0-1.7-0.9-1.7-1.7c0-0.9,0.9-1.7,1.7-1.7
					C457.2,243.1,458,243.7,458,244.8z"/>
				<path class="st8" d="M1569,298.7c1,0,1.7-0.8,1.7-1.7c0-1-0.8-1.7-1.7-1.7c-1,0-1.7,0.8-1.7,1.7
					C1567.2,297.9,1568,298.7,1569,298.7z"/>
				<path class="st8" d="M1134.8,486.5c1,0,1.7-0.8,1.7-1.7s-0.8-1.7-1.7-1.7c-1,0-1.7,0.8-1.7,1.7S1133.8,486.5,1134.8,486.5z"/>
				<path class="st7" d="M583.9,230.1c0,0.9-0.9,1.7-1.7,1.7s-1.7-0.9-1.7-1.7c0-0.9,0.9-1.7,1.7-1.7S583.9,229.2,583.9,230.1z"/>
				<path class="st6" d="M182.3,418.7c1,0,1.7-0.8,1.7-1.7c0-1-0.8-1.7-1.7-1.7c-1,0-1.7,0.8-1.7,1.7
					C180.5,417.9,181.3,418.7,182.3,418.7z"/>
				<path class="st6" d="M274.9,510.3c1,0,1.7-0.8,1.7-1.7c0-1-0.8-1.7-1.7-1.7c-1,0-1.7,0.8-1.7,1.7
					C273.2,509.6,273.9,510.3,274.9,510.3z"/>
				<path class="st6" d="M297.7,294.1c1,0,1.7-0.8,1.7-1.7c0-1-0.8-1.7-1.7-1.7c-1,0-1.7,0.8-1.7,1.7
					C296,293.3,296.7,294.1,297.7,294.1z"/>
				<path class="st6" d="M1578.5,352.7c1,0,1.7-0.8,1.7-1.7c0-1-0.8-1.7-1.7-1.7s-1.7,0.8-1.7,1.7
					C1576.8,351.9,1577.6,352.7,1578.5,352.7z"/>
				<path class="st6" d="M121.7,534c1,0,1.7-0.8,1.7-1.7c0-1-0.8-1.7-1.7-1.7c-1,0-1.7,0.8-1.7,1.7C120,533.2,120.8,534,121.7,534z"
					/>
				<path class="st5" d="M122.2,248.3c0,0.9-0.9,1.7-1.7,1.7c-0.9,0-1.7-0.9-1.7-1.7c0-0.9,0.9-1.7,1.7-1.7
					C121.3,246.6,122.2,247.2,122.2,248.3z"/>
				<path class="st6" d="M356.9,373.6c1,0,1.7-0.8,1.7-1.7c0-1-0.8-1.7-1.7-1.7c-1,0-1.7,0.8-1.7,1.7
					C355.2,372.8,356,373.6,356.9,373.6z"/>
				<path class="st9" d="M221.3,447.6c1,0,1.7-0.8,1.7-1.7c0-1-0.8-1.7-1.7-1.7c-1,0-1.7,0.8-1.7,1.7
					C219.6,446.8,220.4,447.6,221.3,447.6z"/>
				<path class="st9" d="M367.3,248.3c1,0,1.7-0.8,1.7-1.7c0-1-0.8-1.7-1.7-1.7c-1,0-1.7,0.8-1.7,1.7
					C365.6,247.5,366.4,248.3,367.3,248.3z"/>
				<path class="st12" d="M1782,318.6c0,0.9-0.9,1.7-1.7,1.7c-0.9,0-1.7-0.9-1.7-1.7c0-0.9,0.9-1.7,1.7-1.7
					C1781.2,316.9,1782,317.6,1782,318.6z"/>
				<path class="st9" d="M1684.2,326c1,0,1.7-0.8,1.7-1.7c0-1-0.8-1.7-1.7-1.7c-1,0-1.7,0.8-1.7,1.7
					C1682.4,325.2,1683.2,326,1684.2,326z"/>
				<path class="st9" d="M1442.2,341.4c0.9,0,1.7-0.8,1.7-1.7c0-1-0.8-1.7-1.7-1.7c-1,0-1.7,0.8-1.7,1.7
					C1440.5,340.7,1441.3,341.4,1442.2,341.4z"/>
				<path class="st9" d="M1196,277.6c1,0,1.7-0.8,1.7-1.7c0-1-0.8-1.7-1.7-1.7c-1,0-1.7,0.8-1.7,1.7
					C1194.2,276.8,1195,277.6,1196,277.6z"/>
				<path class="st9" d="M1136.5,378.3c1,0,1.7-0.8,1.7-1.7c0-1-0.8-1.7-1.7-1.7c-1,0-1.7,0.8-1.7,1.7
					C1134.8,377.6,1135.6,378.3,1136.5,378.3z"/>
				<path class="st10" d="M395.8,458.9c0,0.9-0.9,1.7-1.7,1.7s-1.7-0.9-1.7-1.7c0-0.9,0.9-1.7,1.7-1.7S395.8,457.8,395.8,458.9z"/>
				<path class="st9" d="M1734.9,351c1,0,1.7-0.8,1.7-1.7c0-1-0.8-1.7-1.7-1.7c-1,0-1.7,0.8-1.7,1.7
					C1733.2,350.2,1734,351,1734.9,351z"/>
				<path class="st9" d="M1731.5,406.6c1,0,1.7-0.8,1.7-1.7c0-1-0.8-1.7-1.7-1.7s-1.7,0.8-1.7,1.7
					C1729.7,405.8,1730.5,406.6,1731.5,406.6z"/>
				<path class="st6" d="M1571.3,460.4c1,0,1.7-0.8,1.7-1.7c0-1-0.8-1.7-1.7-1.7c-1,0-1.7,0.8-1.7,1.7
					C1569.6,459.6,1570.4,460.4,1571.3,460.4z"/>
				<path class="st5" d="M1428.6,381.2c0,0.9-0.9,1.7-1.7,1.7s-1.7-0.9-1.7-1.7c0-0.9,0.9-1.7,1.7-1.7
					C1427.9,379.4,1428.6,380.3,1428.6,381.2z"/>
				<path class="st6" d="M217.2,269.1c1,0,1.7-0.8,1.7-1.7c0-1-0.8-1.7-1.7-1.7c-1,0-1.7,0.8-1.7,1.7
					C215.5,268.4,216.2,269.1,217.2,269.1z"/>
				<path class="st7" d="M298.1,632.6c0,0.9-0.9,1.7-1.7,1.7c-0.9,0-1.7-0.9-1.7-1.7c0-0.9,0.9-1.7,1.7-1.7
					C297.3,630.8,298.1,631.7,298.1,632.6z"/>
				<path class="st6" d="M345,622.1c1,0,1.7-0.8,1.7-1.7c0-1-0.8-1.7-1.7-1.7c-1,0-1.7,0.8-1.7,1.7C343.3,621.4,344,622.1,345,622.1
					z"/>
				<path class="st5" d="M266.2,595.4c0,0.9-0.9,1.7-1.7,1.7c-0.9,0-1.7-0.9-1.7-1.7c0-0.9,0.9-1.7,1.7-1.7
					C265.4,593.7,266.2,594.3,266.2,595.4z"/>
				<path class="st6" d="M860.7,573.3c1,0,1.7-0.8,1.7-1.7s-0.8-1.7-1.7-1.7s-1.7,0.8-1.7,1.7S859.8,573.3,860.7,573.3z"/>
				<path class="st6" d="M1040,632.8c1,0,1.7-0.8,1.7-1.7c0-1-0.8-1.7-1.7-1.7c-1,0-1.7,0.8-1.7,1.7
					C1038.2,632,1039,632.8,1040,632.8z"/>
				<path class="st9" d="M1561.6,438.3c1,0,1.7-0.8,1.7-1.7c0-1-0.8-1.7-1.7-1.7c-1,0-1.7,0.8-1.7,1.7
					C1559.8,437.5,1560.6,438.3,1561.6,438.3z"/>
				<path class="st3" d="M691.3,847c0,0.9-0.9,1.7-1.7,1.7s-1.7-0.9-1.7-1.7c0-0.9,0.9-1.7,1.7-1.7S691.3,846.2,691.3,847z"/>
				<path class="st4" d="M588.2,908.7c1,0,1.7-0.8,1.7-1.7c0-1-0.8-1.7-1.7-1.7c-1,0-1.7,0.8-1.7,1.7
					C586.5,907.9,587.3,908.7,588.2,908.7z"/>
				<path class="st3" d="M1290.8,950.6c0,0.9-0.9,1.7-1.7,1.7c-0.9,0-1.7-0.9-1.7-1.7c0-0.9,0.9-1.7,1.7-1.7
					C1289.9,948.9,1290.8,949.5,1290.8,950.6z"/>
				<path class="st4" d="M906.5,1131c1,0,1.7-0.8,1.7-1.7c0-1-0.8-1.7-1.7-1.7c-1,0-1.7,0.8-1.7,1.7
					C904.8,1130.2,905.6,1131,906.5,1131z"/>
				<path class="st3" d="M1805.7,1005.1c0,0.9-0.9,1.7-1.7,1.7s-1.7-0.9-1.7-1.7c0-0.9,0.9-1.7,1.7-1.7S1805.7,1004.2,1805.7,1005.1
					z"/>
				<path class="st5" d="M798,1057.6c0,0.9-0.9,1.7-1.7,1.7c-0.9,0-1.7-0.9-1.7-1.7c0-0.9,0.9-1.7,1.7-1.7
					C797.4,1055.9,798,1056.5,798,1057.6z"/>
				<path class="st6" d="M713.4,1019.4c1,0,1.7-0.8,1.7-1.7c0-1-0.8-1.7-1.7-1.7c-1,0-1.7,0.8-1.7,1.7
					C711.7,1018.6,712.5,1019.4,713.4,1019.4z"/>
				<path class="st7" d="M1179.7,868.1c0,0.9-0.9,1.7-1.7,1.7s-1.7-0.9-1.7-1.7c0-0.9,0.9-1.7,1.7-1.7S1179.7,867.2,1179.7,868.1z"
					/>
				<path class="st8" d="M946,694.6c1,0,1.7-0.8,1.7-1.7s-0.8-1.7-1.7-1.7c-1,0-1.7,0.8-1.7,1.7S945.1,694.6,946,694.6z"/>
				<path class="st8" d="M711.7,748.3c1,0,1.7-0.8,1.7-1.7c0-1-0.8-1.7-1.7-1.7c-1,0-1.7,0.8-1.7,1.7
					C709.9,747.5,710.7,748.3,711.7,748.3z"/>
				<path class="st7" d="M824.9,1055.9c0,0.9-0.9,1.7-1.7,1.7c-0.9,0-1.7-0.9-1.7-1.7c0-0.9,0.9-1.7,1.7-1.7
					C824.1,1054.2,824.9,1054.8,824.9,1055.9z"/>
				<path class="st7" d="M839.3,732c0,0.9-0.9,1.7-1.7,1.7c-0.9,0-1.7-0.9-1.7-1.7c0-0.9,0.9-1.7,1.7-1.7
					C838.6,730,839.3,730.9,839.3,732z"/>
				<path class="st9" d="M1200.3,1028.5c1,0,1.7-0.8,1.7-1.7c0-1-0.8-1.7-1.7-1.7c-1,0-1.7,0.8-1.7,1.7
					C1198.6,1027.8,1199.4,1028.5,1200.3,1028.5z"/>
				<path class="st6" d="M589.7,870.7c1,0,1.7-0.8,1.7-1.7c0-1-0.8-1.7-1.7-1.7c-1,0-1.7,0.8-1.7,1.7
					C588,869.9,588.8,870.7,589.7,870.7z"/>
				<path class="st6" d="M885.3,1004.4c1,0,1.7-0.8,1.7-1.7c0-1-0.8-1.7-1.7-1.7c-1,0-1.7,0.8-1.7,1.7
					C883.5,1003.7,884.3,1004.4,885.3,1004.4z"/>
				<path class="st5" d="M629.7,885.5c0,0.9-0.9,1.7-1.7,1.7c-0.9,0-1.7-0.9-1.7-1.7c0-0.9,0.9-1.7,1.7-1.7
					C629,883.7,629.7,884.6,629.7,885.5z"/>
				<path class="st5" d="M1594.8,690.5c0,0.9-0.9,1.7-1.7,1.7c-0.9,0-1.7-0.9-1.7-1.7c0-0.9,0.9-1.7,1.7-1.7
					C1594.1,688.8,1594.8,689.7,1594.8,690.5z"/>
				<path class="st6" d="M1097.7,942.8c1,0,1.7-0.8,1.7-1.7c0-1-0.8-1.7-1.7-1.7c-1,0-1.7,0.8-1.7,1.7
					C1095.9,942,1096.7,942.8,1097.7,942.8z"/>
				<path class="st5" d="M1698.5,1032.7c0,0.9-0.9,1.7-1.7,1.7s-1.7-0.9-1.7-1.7c0-0.9,0.9-1.7,1.7-1.7
					C1697.8,1030.9,1698.5,1031.8,1698.5,1032.7z"/>
				<path class="st6" d="M1714.3,669.7c1,0,1.7-0.8,1.7-1.7s-0.8-1.7-1.7-1.7c-1,0-1.7,0.8-1.7,1.7S1713.4,669.7,1714.3,669.7z"/>
				<path class="st5" d="M555,794.1c0,0.9-0.9,1.7-1.7,1.7s-1.7-0.9-1.7-1.7c0-0.9,0.9-1.7,1.7-1.7C554.4,792.3,555,793.2,555,794.1
					z"/>
				<path class="st6" d="M1741.5,903.7c1,0,1.7-0.8,1.7-1.7c0-1-0.8-1.7-1.7-1.7c-1,0-1.7,0.8-1.7,1.7
					C1739.7,902.9,1740.5,903.7,1741.5,903.7z"/>
				<path class="st6" d="M336.3,1001c1,0,1.7-0.8,1.7-1.7s-0.8-1.7-1.7-1.7c-1,0-1.7,0.8-1.7,1.7S335.4,1001,336.3,1001z"/>
				<path class="st6" d="M376,751.7c1,0,1.7-0.8,1.7-1.7c0-1-0.8-1.7-1.7-1.7c-1,0-1.7,0.8-1.7,1.7C374.3,751,375.1,751.7,376,751.7
					z"/>
				<path class="st5" d="M1697.6,930c0,0.9-0.9,1.7-1.7,1.7s-1.7-0.9-1.7-1.7c0-0.9,0.9-1.7,1.7-1.7
					C1697,928.2,1697.6,929.1,1697.6,930z"/>
				<path class="st5" d="M1181.4,804.3c0,0.9-0.9,1.7-1.7,1.7s-1.7-0.9-1.7-1.7c0-0.9,0.9-1.7,1.7-1.7S1181.4,803.2,1181.4,804.3z"
					/>
				<path class="st6" d="M1683.5,1010.3c0.9,0,1.7-0.8,1.7-1.7c0-1-0.8-1.7-1.7-1.7c-1,0-1.7,0.8-1.7,1.7
					C1681.8,1009.5,1682.6,1010.3,1683.5,1010.3z"/>
				<path class="st4" d="M1363.5,818.4c1,0,1.7-0.8,1.7-1.7s-0.8-1.7-1.7-1.7s-1.7,0.8-1.7,1.7S1362.5,818.4,1363.5,818.4z"/>
				<path class="st5" d="M1451.1,831.2c0,0.9-0.9,1.7-1.7,1.7c-0.9,0-1.7-0.9-1.7-1.7c0-0.9,0.9-1.7,1.7-1.7
					C1450.3,829.5,1451.1,830.3,1451.1,831.2z"/>
				<path class="st5" d="M1753.4,1116c0,0.9-0.9,1.7-1.7,1.7c-0.9,0-1.7-0.9-1.7-1.7c0-0.9,0.9-1.7,1.7-1.7
					C1752.5,1114.3,1753.4,1115.2,1753.4,1116z"/>
				<path class="st10" d="M1101.2,740.7c0,0.9-0.9,1.7-1.7,1.7s-1.7-0.9-1.7-1.7c0-0.9,0.9-1.7,1.7-1.7
					C1100.5,738.9,1101.2,739.8,1101.2,740.7z"/>
				<path class="st9" d="M1273.9,885.5c1,0,1.7-0.8,1.7-1.7s-0.8-1.7-1.7-1.7s-1.7,0.8-1.7,1.7S1272.9,885.5,1273.9,885.5z"/>
				<path class="st9" d="M622.7,750c1,0,1.7-0.8,1.7-1.7s-0.8-1.7-1.7-1.7c-1,0-1.7,0.8-1.7,1.7S621.8,750,622.7,750z"/>
				<path class="st9" d="M327.2,882.4c1,0,1.7-0.8,1.7-1.7c0-1-0.8-1.7-1.7-1.7c-1,0-1.7,0.8-1.7,1.7
					C325.5,881.7,326.2,882.4,327.2,882.4z"/>
				<path class="st11" d="M1782,692.3c1,0,1.7-0.8,1.7-1.7c0-1-0.8-1.7-1.7-1.7c-1,0-1.7,0.8-1.7,1.7
					C1780.3,691.5,1781.1,692.3,1782,692.3z"/>
				<path class="st9" d="M672.8,813.6c1,0,1.7-0.8,1.7-1.7c0-1-0.8-1.7-1.7-1.7c-1,0-1.7,0.8-1.7,1.7
					C671.1,812.8,671.9,813.6,672.8,813.6z"/>
				<path class="st10" d="M1427.3,946.7c0,0.9-0.9,1.7-1.7,1.7s-1.7-0.9-1.7-1.7s0.9-1.7,1.7-1.7S1427.3,945.8,1427.3,946.7z"/>
				<path class="st10" d="M1597.8,995.5c0,0.9-0.9,1.7-1.7,1.7c-0.9,0-1.7-0.9-1.7-1.7s0.9-1.7,1.7-1.7
					C1596.9,993.8,1597.8,994.7,1597.8,995.5z"/>
				<path class="st9" d="M1445.7,659.5c1,0,1.7-0.8,1.7-1.7c0-1-0.8-1.7-1.7-1.7c-1,0-1.7,0.8-1.7,1.7
					C1444,658.7,1444.8,659.5,1445.7,659.5z"/>
				<path class="st10" d="M484.5,869.8c0,0.9-0.9,1.7-1.7,1.7c-0.9,0-1.7-0.9-1.7-1.7c0-0.9,0.9-1.7,1.7-1.7
					C483.6,868.1,484.5,869,484.5,869.8z"/>
				<path class="st10" d="M826.7,947.6c0,0.9-0.9,1.7-1.7,1.7c-0.9,0-1.7-0.9-1.7-1.7s0.9-1.7,1.7-1.7
					C825.8,945.8,826.7,946.7,826.7,947.6z"/>
				<path class="st10" d="M1279.1,863.1c0,0.9-0.9,1.7-1.7,1.7s-1.7-0.9-1.7-1.7c0-0.9,0.9-1.7,1.7-1.7
					C1278.4,861.4,1279.1,862,1279.1,863.1z"/>
				<path class="st9" d="M1044.1,1012c1,0,1.7-0.8,1.7-1.7c0-1-0.8-1.7-1.7-1.7c-1,0-1.7,0.8-1.7,1.7
					C1042.3,1011.3,1043.1,1012,1044.1,1012z"/>
				<path class="st3" d="M1286.5,1017.5c0,0.9-0.9,1.7-1.7,1.7s-1.7-0.9-1.7-1.7s0.9-1.7,1.7-1.7S1286.5,1016.6,1286.5,1017.5z"/>
				<path class="st6" d="M1108.1,963.2c1,0,1.7-0.8,1.7-1.7c0-1-0.8-1.7-1.7-1.7c-1,0-1.7,0.8-1.7,1.7
					C1106.4,962.4,1107.1,963.2,1108.1,963.2z"/>
				<path class="st6" d="M994.6,982.3c1,0,1.7-0.8,1.7-1.7c0-1-0.8-1.7-1.7-1.7s-1.7,0.8-1.7,1.7
					C992.9,981.5,993.7,982.3,994.6,982.3z"/>
				<path class="st8" d="M355.2,912.6c1,0,1.7-0.8,1.7-1.7c0-1-0.8-1.7-1.7-1.7c-1,0-1.7,0.8-1.7,1.7
					C353.5,911.8,354.2,912.6,355.2,912.6z"/>
				<path class="st8" d="M249.1,781.5c1,0,1.7-0.8,1.7-1.7c0-1-0.8-1.7-1.7-1.7c-1,0-1.7,0.8-1.7,1.7
					C247.4,780.7,248.1,781.5,249.1,781.5z"/>
				<path class="st7" d="M458,719.8c0,0.9-0.9,1.7-1.7,1.7c-0.9,0-1.7-0.9-1.7-1.7c0-0.9,0.9-1.7,1.7-1.7
					C457.2,718.1,458,718.7,458,719.8z"/>
				<path class="st8" d="M1569,773.7c1,0,1.7-0.8,1.7-1.7c0-1-0.8-1.7-1.7-1.7c-1,0-1.7,0.8-1.7,1.7
					C1567.2,772.9,1568,773.7,1569,773.7z"/>
				<path class="st8" d="M1134.8,961.4c1,0,1.7-0.8,1.7-1.7c0-0.9-0.8-1.7-1.7-1.7c-1,0-1.7,0.8-1.7,1.7
					C1133.1,960.7,1133.8,961.4,1134.8,961.4z"/>
				<path class="st7" d="M583.9,705.1c0,0.9-0.9,1.7-1.7,1.7s-1.7-0.9-1.7-1.7s0.9-1.7,1.7-1.7S583.9,704.2,583.9,705.1z"/>
				<path class="st6" d="M182.3,893.7c1,0,1.7-0.8,1.7-1.7c0-1-0.8-1.7-1.7-1.7c-1,0-1.7,0.8-1.7,1.7
					C180.5,892.9,181.3,893.7,182.3,893.7z"/>
				<path class="st6" d="M274.9,985.3c1,0,1.7-0.8,1.7-1.7c0-1-0.8-1.7-1.7-1.7c-1,0-1.7,0.8-1.7,1.7
					C273.2,984.6,273.9,985.3,274.9,985.3z"/>
				<path class="st6" d="M297.7,769.1c1,0,1.7-0.8,1.7-1.7c0-1-0.8-1.7-1.7-1.7c-1,0-1.7,0.8-1.7,1.7
					C296,768.3,296.7,769.1,297.7,769.1z"/>
				<path class="st6" d="M1578.5,827.7c1,0,1.7-0.8,1.7-1.7s-0.8-1.7-1.7-1.7s-1.7,0.8-1.7,1.7S1577.6,827.7,1578.5,827.7z"/>
				<path class="st6" d="M121.7,1009c1,0,1.7-0.8,1.7-1.7s-0.8-1.7-1.7-1.7c-1,0-1.7,0.8-1.7,1.7S120.8,1009,121.7,1009z"/>
				<path class="st5" d="M122.2,723.3c0,0.9-0.9,1.7-1.7,1.7c-0.9,0-1.7-0.9-1.7-1.7c0-0.9,0.9-1.7,1.7-1.7
					C121.3,721.6,122.2,722.2,122.2,723.3z"/>
				<path class="st6" d="M356.9,848.6c1,0,1.7-0.8,1.7-1.7c0-1-0.8-1.7-1.7-1.7c-1,0-1.7,0.8-1.7,1.7
					C355.2,847.8,356,848.6,356.9,848.6z"/>
				<path class="st9" d="M221.3,922.6c1,0,1.7-0.8,1.7-1.7c0-1-0.8-1.7-1.7-1.7c-1,0-1.7,0.8-1.7,1.7
					C219.6,921.8,220.4,922.6,221.3,922.6z"/>
				<path class="st9" d="M367.3,723.3c1,0,1.7-0.8,1.7-1.7c0-1-0.8-1.7-1.7-1.7c-1,0-1.7,0.8-1.7,1.7
					C365.6,722.5,366.4,723.3,367.3,723.3z"/>
				<path class="st12" d="M1782,793.6c0,0.9-0.9,1.7-1.7,1.7c-0.9,0-1.7-0.9-1.7-1.7c0-0.9,0.9-1.7,1.7-1.7
					C1781.2,791.9,1782,792.6,1782,793.6z"/>
				<path class="st9" d="M1684.2,801c1,0,1.7-0.8,1.7-1.7c0-1-0.8-1.7-1.7-1.7c-1,0-1.7,0.8-1.7,1.7
					C1682.4,800.2,1683.2,801,1684.2,801z"/>
				<path class="st9" d="M1442.2,816.4c0.9,0,1.7-0.8,1.7-1.7c0-1-0.8-1.7-1.7-1.7c-1,0-1.7,0.8-1.7,1.7
					C1440.5,815.7,1441.3,816.4,1442.2,816.4z"/>
				<path class="st9" d="M1196,752.6c1,0,1.7-0.8,1.7-1.7c0-1-0.8-1.7-1.7-1.7c-1,0-1.7,0.8-1.7,1.7
					C1194.2,751.8,1195,752.6,1196,752.6z"/>
				<path class="st9" d="M1136.5,853.3c1,0,1.7-0.8,1.7-1.7s-0.8-1.7-1.7-1.7c-1,0-1.7,0.8-1.7,1.7S1135.6,853.3,1136.5,853.3z"/>
				<path class="st10" d="M395.8,933.9c0,0.9-0.9,1.7-1.7,1.7s-1.7-0.9-1.7-1.7c0-0.9,0.9-1.7,1.7-1.7S395.8,932.8,395.8,933.9z"/>
				<path class="st9" d="M1734.9,826c1,0,1.7-0.8,1.7-1.7c0-1-0.8-1.7-1.7-1.7c-1,0-1.7,0.8-1.7,1.7
					C1733.2,825.2,1734,826,1734.9,826z"/>
				<path class="st9" d="M1731.5,881.6c1,0,1.7-0.8,1.7-1.7c0-1-0.8-1.7-1.7-1.7s-1.7,0.8-1.7,1.7
					C1729.7,880.8,1730.5,881.6,1731.5,881.6z"/>
				<path class="st6" d="M1571.3,935.4c1,0,1.7-0.8,1.7-1.7c0-1-0.8-1.7-1.7-1.7c-1,0-1.7,0.8-1.7,1.7
					C1569.6,934.6,1570.4,935.4,1571.3,935.4z"/>
				<path class="st5" d="M1428.6,856.2c0,0.9-0.9,1.7-1.7,1.7s-1.7-0.9-1.7-1.7c0-0.9,0.9-1.7,1.7-1.7
					C1427.9,854.4,1428.6,855.3,1428.6,856.2z"/>
				<path class="st6" d="M217.2,744.1c1,0,1.7-0.8,1.7-1.7s-0.8-1.7-1.7-1.7c-1,0-1.7,0.8-1.7,1.7S216.2,744.1,217.2,744.1z"/>
				<path class="st7" d="M298.1,1107.6c0,0.9-0.9,1.7-1.7,1.7c-0.9,0-1.7-0.9-1.7-1.7c0-0.9,0.9-1.7,1.7-1.7
					C297.3,1105.8,298.1,1106.7,298.1,1107.6z"/>
				<path class="st6" d="M345,1097.1c1,0,1.7-0.8,1.7-1.7c0-1-0.8-1.7-1.7-1.7c-1,0-1.7,0.8-1.7,1.7
					C343.3,1096.4,344,1097.1,345,1097.1z"/>
				<path class="st5" d="M266.2,1070.4c0,0.9-0.9,1.7-1.7,1.7c-0.9,0-1.7-0.9-1.7-1.7c0-0.9,0.9-1.7,1.7-1.7
					C265.4,1068.7,266.2,1069.3,266.2,1070.4z"/>
				<path class="st6" d="M860.7,1048.3c1,0,1.7-0.8,1.7-1.7c0-1-0.8-1.7-1.7-1.7s-1.7,0.8-1.7,1.7
					C859,1047.5,859.8,1048.3,860.7,1048.3z"/>
				<path class="st6" d="M1040,1107.8c1,0,1.7-0.8,1.7-1.7c0-1-0.8-1.7-1.7-1.7c-1,0-1.7,0.8-1.7,1.7
					C1038.2,1107,1039,1107.8,1040,1107.8z"/>
				<path class="st9" d="M1561.6,913.3c1,0,1.7-0.8,1.7-1.7c0-1-0.8-1.7-1.7-1.7c-1,0-1.7,0.8-1.7,1.7
					C1559.8,912.5,1560.6,913.3,1561.6,913.3z"/>
				
					<linearGradient id="SVGID_00000013187585328131150860000011169353599021028512_" gradientUnits="userSpaceOnUse" x1="3322.2583" y1="-3027.2847" x2="2789.1084" y2="-1221.7146" gradientTransform="matrix(-1 0 0 1 4026 2954)">
					<stop  offset="0.1678" style="stop-color:#2D0068"/>
					<stop  offset="1" style="stop-color:#170036;stop-opacity:1.000000e-02"/>
				</linearGradient>
				
					<rect x="-26.2" y="-427" style="fill:url(#SVGID_00000013187585328131150860000011169353599021028512_);" width="1953.2" height="2378"/>
				<g>
					
						<radialGradient id="SVGID_00000024703523176135236960000017113296294848034471_" cx="22.5868" cy="1605.8177" r="1" gradientTransform="matrix(-146.626 0 0 142.517 4783.332 -228809.5469)" gradientUnits="userSpaceOnUse">
						<stop  offset="0" style="stop-color:#FFE5AB"/>
						<stop  offset="0.4115" style="stop-color:#FFE5AB"/>
						<stop  offset="0.474" style="stop-color:#FBE3AD"/>
						<stop  offset="0.5312" style="stop-color:#F0DBB1"/>
						<stop  offset="0.6354" style="stop-color:#DDCEB9"/>
						<stop  offset="0.8073" style="stop-color:#AC9FD2"/>
						<stop  offset="0.9323" style="stop-color:#6B00FA"/>
						<stop  offset="1" style="stop-color:#6B00FA"/>
					</radialGradient>
					<path style="fill:url(#SVGID_00000024703523176135236960000017113296294848034471_);" d="M1471.5,165.1
						c67.3,0,121.8-53,121.8-118.4c0-65.4-54.5-118.4-121.8-118.4s-121.8,53-121.8,118.4C1349.7,112.2,1404.3,165.1,1471.5,165.1z"
						/>
				</g>
				<g>
					
						<radialGradient id="SVGID_00000070111951025723391470000017530338366531870904_" cx="22.5868" cy="1605.8177" r="1" gradientTransform="matrix(-146.626 0 0 142.517 4783.332 -228802.4531)" gradientUnits="userSpaceOnUse">
						<stop  offset="0" style="stop-color:#FFE5AB"/>
						<stop  offset="0.4115" style="stop-color:#FFE5AB"/>
						<stop  offset="0.474" style="stop-color:#FBE3AD"/>
						<stop  offset="0.5312" style="stop-color:#F0DBB1"/>
						<stop  offset="0.6354" style="stop-color:#DDCEB9"/>
						<stop  offset="0.8073" style="stop-color:#AC9FD2"/>
						<stop  offset="0.9323" style="stop-color:#6B00FA"/>
						<stop  offset="1" style="stop-color:#6B00FA"/>
					</radialGradient>
					<path style="fill:url(#SVGID_00000070111951025723391470000017530338366531870904_);" d="M1471.5,172.2
						c67.3,0,121.8-53,121.8-118.4s-54.5-118.4-121.8-118.4s-121.8,53-121.8,118.4S1404.3,172.2,1471.5,172.2z"/>
				</g>
				<g class="st16">
					<path class="st17" d="M1443.6,135.6c1.4,2.8,2.3,5.3,4.5,7.5c2.5,2.4,4.4,3,7.7,3.9c1.9,0.6,2.3,1.1,4.6,1.1
						c1.5,0,3.7-0.4,5.2,0c3.5,0.8,5.2,3.8,9.1,3.9c3.7,0.2,6-0.9,9.1-1.9c2.9-0.9,6.4-2.1,9.1-3.2c2.9-1.1,5.6-1.9,8.7-2.8
						c3.3-0.9,5-3.2,9.1-2.1c0.2,1.5-0.2,3.9,1.7,4.7c1.3,0.6,3.5-0.8,4.8-1.3c3.7-1.3,7-2.1,10.4-3.6c1.7-0.8,2.9-0.6,4.6-1.9
						c1.5-1.1,3.3-2.1,5-3.2c3.1-2.1,6.2-4.3,9.3-6.2c6-3.9,9.9-9.4,13.5-15c1.9-3,3.1-6.4,4.2-9.8c1.5-4.3,1-5.5-1.9-8.8
						c-5.2,2.1-7.3-0.9-5.8-6.4c1.4-4.7,1.7-11.1,0.8-16.2c-0.2-0.9-1-1.5-1-2.8c-0.2-1.3,0.2-2.4-0.2-3.8c-0.6-2.3-1-3.8-1-6.2
						s0.4-5.1-0.2-7.5c-0.4-1.5-1-2.1-1-3.8s0.2-3.2-0.2-4.7c-1.2-4.1-5.2-5.5-8.7-6.6c-2.5-0.8-3.7-1.7-5.2,0
						c-1.7,1.7-1.2,4.1-1.3,6.4c0,4.1,2.7,7.9,5.2,11.3c1.2,1.5,2.9,3,2.7,5.1c-0.2,1.1-1.5,1.3-1.5,2.4c0.2,1.3,1.7,1.9,2.5,2.8
						c6.2,7.9-5.4,14.7-11,19c-3.1,2.4-7.9,3.6-9.1,7.5c-1.4,4.1,1.7,7.7,3.3,11.3c1.7,3.8,3.1,10.3,0.6,13.9
						c-1,1.5-3.1,2.4-4.6,3.2c-2.3,1.1-3.1,2.4-5.2,3.8c-3.3,2.3-7.3,3-11.4,2.8c-2.5-0.2-4.4-1.1-6.4-2.6c-1.5-1.1-3.7-3-5.4-3.6
						c-1.4-0.4-2.3,0-3.7-0.2c-1.7-0.2-2.1-0.9-3.9-1.3c-2.7-0.8-4.6,1.1-7,2.3c-1.7,0.9-4.1,2.3-6.2,1.7s-4.6-1.9-6.8-2.3
						c-5-0.9-12.9-1.3-16.8,1.9c-1.9,1.7-2.7,3.9-4.4,5.6C1447.5,131.3,1444.2,131.8,1443.6,135.6z"/>
					<path class="st17" d="M1542,26c-4.8,0-9.1-3.4-12.9-6c-3.1-2.1-6.6-5.5-8.1-8.8c-0.4-0.9-0.6-1.9-1-2.8c0-0.2-1.2-3.2-1.2-3.4
						c0-1.7,1.5-3.8,2.9-5.3c3.9-3.9,9.7-1.1,13.5,1.3c3.7,2.3,7.2,4.7,10.2,7.5c1.6,1.3,3.5,2.6,4.6,4.3c1.4,2.3,1,5.1,1,7.9
						c0,4.3,5.6,9.2-1.3,10.2c-2.7,0.4-11-1.9-11.6-5.1h3.9V26z"/>
					<path class="st17" d="M1456.6,160.8c-1.2,1.3-2.5,0.4-3.9,0c-1.3-0.4-2.3-0.6-3.9-0.6c-2.9,0-5.4,0-8.1-0.6
						c-2.5-0.6-5-0.9-7.3-1.5c-1-0.2-1.9-0.8-2.9-0.9c-0.6-0.2-1.3,0-1.9,0c-0.4,0-0.4-0.4-0.6-0.4c-0.6-0.2-1,0-1.5-0.2
						c-2.5-0.4-4.8-1.1-7-1.7c-1-0.4-1.9-0.4-2.9-0.9c-1-0.6-2.3-1.3-3.3-1.9c-3.5-2.4-7.3-4.7-10.4-7.7c-3.1-3-6.2-5.6-9.3-8.3
						c-0.8-0.6-1.3-1.5-2.1-2.1c-0.8-0.6-1.6-0.9-2.5-1.7c-1.5-1.7-2.9-3.4-4.2-5.3c-2.5-3.6-5.8-6.6-7.9-10.5
						c-1-1.9-1.9-3.8-2.9-5.6c-0.8-1.1-1.4-2.6-1.9-3.8c-0.4-0.9-1.2-2.1-1.5-3c0-1.5,0-2.8-0.4-4.1c-0.2-0.6-0.6-0.9-0.8-1.5
						c-0.2-0.8,0.2-1.5,0-2.3c-0.2-0.6-0.6-0.9-0.8-1.5c-0.2-0.8,0.2-1.5,0-2.3c-0.2-0.6-0.6-0.9-0.8-1.5c-0.2-0.8,0.2-1.7,0-2.6
						c-0.2-0.6-0.6-0.9-0.8-1.5c-0.2-0.6,0-1.5,0-2.3c0-1.7-0.6-2.8-0.6-4.3c0-1.5-0.4-3.4,0-4.7c0.2-0.6,0.6-0.9,0.8-1.5
						c0.2-0.8-0.2-1.7,0-2.4c1.7-0.4,1.2,3.2,1.2,3.9c0,1.7,0.8,2.4,0.6,4.1c0,1.9,0.8,2.3,1.9,3.6c0.6,0.6,1.7,1.9,1.9,2.6
						c0.2,0.6,0.2,1.3,0.4,1.9c0.2,0.6,0.4,1.1,0.4,1.9c0,1.5-0.2,2.3,1.2,3.4c0.8,0.8,2.3,1.5,3.3,1.7c1.5,0.4,2.7,0.4,4.2,0.6
						c0.8,0.2,1,0.6,1.6,0.8c0.8,0.2,1.7-0.4,2.5,0c0.8,0.4,1.7,1.9,1.9,2.4c0.4,1.3,0.2,2.4-0.6,3.6c-0.2,0.4-0.4,0.9-0.6,1.3
						c-0.4,0.6-1,0.9-1.2,1.3c-1.2,2.3,0.6,5.6,1,7.5c0.2,0.8,1.3,2.8,0.8,3.6c-0.6,0.6-4.2,0-5-0.4c-0.4,0.8,0.4,2.3,0.6,3.2
						c0.2,0.9,0.8,2.4,1.3,3.4c1.2,1.9,3.3,3.6,5.2,4.7c1.3,0.8,2.1,0.9,2.3-0.8c0.2-0.8-0.2-1.1,0.2-1.9c0.2-0.6,0.8-0.6,1-1.1
						c0.2-0.8-0.2-1.5,0-2.3c0.2-0.6,0.6-0.8,0.6-1.3c0.4-1.5-0.2-3.2,0-4.7c0.6-3,2.9-4.3,5.6-5.1c2.7-0.8,5.4-1.3,8.1-2.4
						c2.9-1.3,6-1.7,9.1-0.8c2.5,0.8,4.4,2.3,6.8,3.4c1,0.6,1.9,0.8,3.1,1.1c1.2,0.4,2.3,0.9,3.7,1.1c2.1,0.6,4.6,0.9,6.6,2.1
						c1.9,1.1,4.4,2.4,5.6,4.3c1.2,1.7,2.5,5.1,1.6,7.1c-0.8,1.5-3.1,3-4.3,4.3c-1.9,2.3-1.5,3.8,0,6.2c0.6,0.9,1.5,2.1,1.7,2.8
						c0.4,1.3,0.2,3,0,4.3c0,1.1-0.4,2.1-1.2,3c-0.2,1.1-1.5,1.7-2.1,2.6c-0.4,0.9,0,1.3,0.4,1.9c0.2,0.2,0.4,0.2,0.6,0.4
						c0.2,0.4,0,0.9,0.2,1.3c0.6,1.5,1.9,1.1,3.3,1.5c1.4,0.4,2.5,0.2,3.9-0.4c0.8-0.4,1-0.6,1.9-0.8c1-0.2,1.4,0.4,2.1,0.6
						c1.6,0.4,2.5-0.8,4.1-0.8c1.3,0,2.1,0.6,3.1,1.5c0.8,0.8,1.9,2.1,1.7,3.4C1459.1,158.9,1457.5,159.6,1456.6,160.8z"/>
					<path class="st17" d="M1444.4,113.6c0.4-0.2,0.8-0.4,1.2-0.6c1,1.1,2.1,2.3,3.5,3c1.9,1.1,2.9,0.4,3.3-1.5
						c0.2-0.9-0.4-1.7-0.6-2.4c-0.2-0.8,0-1.7-1-2.3c-1.4-0.8-5-0.4-4.4,1.7L1444.4,113.6z"/>
					<path class="st17" d="M1382.1,32.4c-0.2,0.6-0.8,0.8-1.2,0.6c-0.2-1.1-0.2-2.8,0-3.9c0.2-0.6,0.6-0.9,0.6-1.7
						c0-0.6,0-1.1,0.2-1.7c0.2-0.8,0.8-2.1,1-2.8c0.2-1.3,0.4-1.9,0.8-3c0.4-0.9,0.8-2.3,1.2-3.6c0.4-1.1,1-1.9,1.5-2.8
						c1.2-1.9,2.1-3.8,3.5-5.6c2.1-3.4,4.6-6.8,7.7-9.4c1.2-0.9,2.3-1.5,3.5-2.4c0.4-0.2,0.8-0.8,1.2-0.9s1-0.2,1.3-0.6
						c1-0.8,3.9-3.6,5.2-2.8c-1,2.3-2.5,4.7-3.7,7c-1.3,2.6-3.9,2.4-5.8,4.3c-3.1,3,2.1,4.1,3.9,5.3s1.7,2.8,1.7,4.5
						c0,1.7,0.2,3.2,0.6,4.7c0.2,0.6,0.6,1.5,0.8,2.3c0,0.4,0,0.9,0,1.3c0,0.4,0.2,0.6,0.6,0.8c0.4,1.9-0.4,2.8-1,4.3
						c-0.6,1.5-1,3-2.3,4.1c-1.3,1.1-2.7,0.8-4.4,0.8c-1.2,0-1.5-0.2-2.5-0.6c-0.6-0.2-1.5-0.6-2.1-0.6c-0.8-0.2-1.6-0.2-2.3-0.2
						c-0.8-0.2-0.8-0.6-1.9-0.4c-1.2,0.4-2.1,1.5-3.3,1.7c-1.6,0.4-3.5-0.4-5,0C1381.6,31.4,1381.6,31.6,1382.1,32.4z"/>
					<path class="st17" d="M1503.3,112.8c-1.9,0-4.2,2.1-5.4,3.6c-1.6,2.1,1.3,4.3,2.9,5.5c0.6,0.4,1.2,0.8,1.7,1.1
						c0.4,0.2,1.4,0.8,1.7,0.8c1.2,0,1.5-2.6,1.9-3.6c1.3-2.8-0.8-4.7-2.9-6.4V112.8L1503.3,112.8z"/>
					<path class="st17" d="M1512.4,117c-0.2,0.2-0.2,0.2-0.4,0.4c-0.6-1.3,0.4-2.8,0.4-3.9c1,0,2.9,1.7,2.9,2.6
						c0,1.5-2.3,1.7-3.5,1.7L1512.4,117z"/>
					<path class="st17" d="M1529.4,55.9c-0.6-2.3-3.9,0.2-4.6,1.1c-0.6,0.6-1.2,1.1-1.6,1.7c-0.4,0.9-0.4,2.1-0.4,3
						c0,1.1-0.6,2.1-0.6,3.4s0.2,2.4,0.4,3.6c0.6,2.1,2.1,3.6,3.9,4.7c1,0.6,1.9,0.9,2.9,1.5c1.2,0.8,1.4,0.9,2.5,0.4
						c1.6-0.8,3.1-1.5,4.2-2.6c1.4-1.3,2.7-2.6,3.7-4.3c1.3-2.1,0-3.8-1.2-5.6c-1.4-2.3-3.3-4.1-5.2-6c-0.6-0.6-1.3-1.5-1.9-1.9
						C1530.4,54,1529.1,54.9,1529.4,55.9z"/>
					<path class="st17" d="M1528.9,47.4c-0.2,0-0.2,0-0.4,0c0-0.6-1.3-2.6-0.6-3.2c0.6-0.4,1.7,0.9,2.1,1.3c0.6,0.8,1.2,2.1,0.4,3
						c-0.8,0.8-2.3,0.2-2.1-1.1H1528.9z"/>
					<path class="st17" d="M1507.6,150.4c-0.6-0.8-2.7-1.1-3.7-0.9c-1.2,0.2-2.1,0.8-3.3,0.9c-2.3,0.4-5.4,1.5-7.5,2.8
						c-3.1,1.9-8.3,7-3.1,9.4c2.1,1.1,4.6,0.9,7.2,0.9c1.2,0,1.9-0.6,3.1-0.4c1.3,0,2.5-0.4,3.7-0.8c2.1-0.6,4.2-1.1,6.4-2.1
						c1.9-0.8,3.3-2.1,4.6-3.4c1.7-1.7,2.1-3.9,0.2-5.8c-1.2-1.1-1.9-0.8-3.5-0.8C1510.1,150.2,1508.6,150.4,1507.6,150.4z"/>
					<path class="st17" d="M1520.7,149.5c-0.2,0.4-0.6,0.6-1,0.4c-0.6-1.1,2.1-2.8,2.9-3.2c1.4-0.6,3.7-1.9,4.3,0.2
						c0.4,1.3-1.2,3.2-2.3,3.8c-1.4,0.8-4.1,0-4.4-1.7L1520.7,149.5z"/>
					<path class="st17" d="M1560.8,60.6c-0.2,0-0.2,0-0.4,0c-0.6,1.9,0.4,3.8,0.4,5.6c0.2,1.9,0,3.8,0,5.6s0,3.8,0,5.6
						c0,0.8,0,1.5,0.2,2.3c0,0.4,0.4,0.6,0.4,0.9c0,0.6,0,1.3,0,1.9c0,0.9,0,1.9,0.2,2.6c0,0,0.4,0.9,0.4,1.1c0.2,0.6,0,0.6,0.4,1.1
						c1,1.3,2.5,2.1,4.1,1.5c1.2-0.6,2.1-1.5,3.3-2.1c1.7-0.8,2.5-1.7,3.5-3.2c0.8-1.3,1-2.8,1.3-4.3c0.2-0.4,0.4-0.6,0.6-0.9
						c0.2-0.4,0-0.9,0-1.3c0-0.4,0.4-0.6,0.4-0.9c0-0.4,0-0.6,0-0.9c0-0.2,0.2-0.4,0.4-0.6c0.2-0.8,0-1.5,0-2.3
						c0-0.9,0.4-1.9,0.4-2.8s0.6-1.7,0.6-2.8c0-0.9,0-1.9,0-2.8c0-1.9,0-3.8,0-5.6c0-0.9-0.4-1.5-0.4-2.3c-0.2-0.9-0.2-1.9-0.4-2.8
						c-0.2-0.6-0.8-1.3-1-1.9c-0.2-0.9-0.4-1.5-1-2.3c-1-1.5-1.7-2.3-3.5-3c-1.5-0.8-3.9-0.4-5.4,0.8c-0.6,0.4-1.3,1.1-1.5,1.7
						c-0.2,0.4,0,0.9,0,1.3c-0.2,0.6-0.4,0.8-0.4,1.5c0,1.9,0.4,4.3,0,6.2c-0.2,0.9-0.8,1.9-1.2,2.8
						C1561.7,61.3,1561.7,62.3,1560.8,60.6z"/>
					<path class="st17" d="M1558.4,36.7c-1.4-0.4-1.9,2.4-1.9,3.4c0,0.8-0.2,1.7,0.4,2.1c0.4,0.4,1.9,0.4,2.5,0.2
						c1.5-0.4,1.4-2.6,1.4-3.8c0-1.3-1.2-3.2-2.9-2.8L1558.4,36.7z"/>
					<path class="st17" d="M1392.6,34.8c0-0.2,0-0.2,0-0.4c-0.6,0-0.8-0.4-1.2-0.6c-0.6-0.2-1.2,0-1.7,0c-1.2,0-1.9-0.4-2.9-0.6
						c-0.6,0-1.2,0-1.7,0c-0.6,0-0.8,0.2-1.4,0.4c-1,0.2-1.9,0.2-2.9,0.8c-1.4,1.1-2.5,2.8-3.3,4.1c-1.2,1.9-1.9,3.8-1.9,5.8
						c0,0.9,0,1.7,0.6,2.4s1,1.3,1.3,2.3c1,2.1,1.7,2.6,4.1,2.6c2.1,0,4.1-1.1,5.8-2.1c0.8-0.4,1.5-1.1,2.3-1.7
						c0.6-0.4,1.3-0.8,1.9-1.5c1.2-1.7,1.3-3.8,1.9-5.6c0.2-0.9,0.4-2.4,0.2-3.6c0-0.2-0.4-0.2-0.4-0.4c-0.2-0.4,0-0.8,0-1.1
						C1392.9,35.8,1392.4,35.4,1392.6,34.8z"/>
					<path class="st17" d="M1398,38.6c-1.2,0,0.4-3.4,1.7-3.2c1.2,0.2,2.1,2.1,2.5,3c1.2,4.1-5.4,4.5-5.2,0.8L1398,38.6z"/>
					<path class="st17" d="M1413.8,46.1c-0.2,0.9-1.2,1.5-1.3,2.4c-0.2,0.9,0.2,1.7,0.8,2.4c0.4,0.6,1.4,1.5,2.1,1.3
						c0.8-0.2,1.3-1.3,1.9-1.7c1.4-0.9,3.5-1.9,1.9-3.8c-0.6-0.8-1.7-1.1-2.7-1.1c-1.4-0.2-2.1,0.2-3.1,0.9L1413.8,46.1z"/>
					<path class="st17" d="M1380.6,87.8c-1.7,0.4-1.5-2.3-1.3-3.2c0.8-0.2,1.5-0.6,2.3-0.6c0.8,0,2.1,0.8,2.7,1.1
						c1.4,0.9,2.1,2.4,1.4,4.1c-0.6,0.9-2.9,2.4-4.1,1.7c-1-0.8-1.6-3-1.6-4.1L1380.6,87.8z"/>
					<path class="st17" d="M1521.1,111c0.2,0.4-0.4,1.7-0.6,2.3c-0.2,0.8-0.6,1.5-0.8,2.3c-0.4,0.8-0.6,1.5-0.8,2.4
						s-0.6,1.5-0.8,2.3c-0.4,1.7,1.7,3,3.5,2.6c1.5-0.4,2.7-1.5,3.9-2.3c0.8-0.6,1-0.4,1.6-1.3c0.4-0.8,0.6-1.7,0.8-2.4
						c0.2-0.9,0.6-1.3,0.6-2.3s0.2-1.9-0.2-2.8c-1.2-4.5-6.2-1.5-7.2,1.3V111L1521.1,111z"/>
					<path class="st17" d="M1535.6,141.4c-0.4-1.7,2.7-2.8,3.9-2.8c1.3,0,1.6,0.2,2.1,1.3c0.4,0.9,0.6,1.7-0.2,2.6
						c-1,1.5-3.9,2.3-5.6,1.7c-2.1-0.8-1.2-3.4,0.8-3.8L1535.6,141.4z"/>
					<path class="st17" d="M1514.9,107.6c-0.6-0.2-1.3-0.9-1.5-1.3c-0.2-0.4,0-0.9,0-1.3c-0.2-0.4-0.4-0.6-0.4-0.9
						c0-0.4,0.2-0.9,0-1.5c-0.2-0.6-0.4-0.9-0.6-1.5c-0.2-0.9,0.2-1.9,0-2.8c-0.2-0.8-1-1.9-0.4-2.6c0.6-0.8,1.5-0.8,2.3-0.6
						s1.5,0.4,2.3,0.6c1,0.2,2.3,0.8,3.1,1.3c1.3,0.9,2.9,1.9,3.3,3.6c0.4,1.5,0,3.9-0.2,5.5c-0.4,1.1-1,2.8-2.1,3.6
						s-4.1,0.4-5.4-0.2L1514.9,107.6z"/>
					<path class="st17" d="M1526,106.6c0-0.2,0-0.2,0-0.4c-0.4,2.3,2.3,2.1,2.9,0.4c0.6-1.9-2.5-2.4-2.9-0.6V106.6z"/>
				</g>
				<g class="st18">
					<g>
						<defs>
							
								<rect id="SVGID_00000148641392653179171390000003455502660528928937_" x="-49.1" y="-416.2" width="2920.1" height="1326.8"/>
						</defs>
						<clipPath id="SVGID_00000018208416536598084400000001346254476009566597_">
							<use xlink:href="#SVGID_00000148641392653179171390000003455502660528928937_"  style="overflow:visible;"/>
						</clipPath>
						<g style="opacity:0.5;clip-path:url(#SVGID_00000018208416536598084400000001346254476009566597_);">
							
								<linearGradient id="SVGID_00000116198631669597633460000002265960051379945382_" gradientUnits="userSpaceOnUse" x1="1771.9241" y1="1848.7061" x2="1771.9241" y2="2003.053" gradientTransform="matrix(1 0 0 -1 0 2140)">
								<stop  offset="7.936550e-03" style="stop-color:#AD00FE"/>
								<stop  offset="1" style="stop-color:#9A4AFF"/>
							</linearGradient>
							<path style="fill:url(#SVGID_00000116198631669597633460000002265960051379945382_);" d="M1654.6,218.7c0,0-16-22.4,4.4-54.8
								c20.3-32.4,117.7-19.5,117.7-19.5s10.8-6.8,43.9-7.8c33.1-1,74.6,20.8,74.6,20.8l-92.2,88.6l-103.3,44.8l-35.9-11.7
								c0,0,3.6-10.4,21.9-23.4c18.8-13,46.7-19.1,46.7-19.1L1654.6,218.7z"/>
							
								<linearGradient id="SVGID_00000049928153724524756340000000886421074497058483_" gradientUnits="userSpaceOnUse" x1="1155.2899" y1="1873.415" x2="1155.2899" y2="2014.5599" gradientTransform="matrix(1 0 0 -1 0 2140)">
								<stop  offset="7.936550e-03" style="stop-color:#AD00FE"/>
								<stop  offset="1" style="stop-color:#9A4AFF"/>
							</linearGradient>
							<path style="fill:url(#SVGID_00000049928153724524756340000000886421074497058483_);" d="M1349.4,251.8c0,0-20-27.6-69-38
								c0,0,6.8-28.6-27.1-50.3c-33.9-21.7-67.8-18.5-67.8-18.5s-132.5-38.3-224.2-8.8l194.3,99.9l144.8,29.9L1349.4,251.8z"/>
							<path class="st22" d="M2696.7-37.3c0,0-93,6.5-124.9,17.2c-31.9,10.7-27.9,24.3-27.9,24.3s-29.5,0.3-67.8,14.9
								c-38.3,14.6-34.3,34.4-32.3,37.6c2,3.2,20.3,3.6,20.3,3.6l-49.9,7.8c0,0,7.2-5.2,7.2-9.4s-20.3-2.9-20.3-2.9
								s17.1-14.9,17.1-20.8c0-5.8-104.1,8.4-126.9,25.6c-22.8,17.2,9.2,12.3,9.2,12.3s-28.3,11-27.1,20.8
								c1.2,9.7,51.5,9.4,63.8,6.2c12.4-3.2,6.4-8.4,6.4-8.4l33.9,1.3c0,0-50.3,24.3-28.3,31.8c0,0-65.4,6.2-123.3,27.6
								c-57.8,21.4-67.4,45.4-64.2,51.6c3.2,6.2,29.1,8.4,29.1,8.4l-103.3,14c0,0,33.5-25.3,16.4-48c-17.2-22.7-77.4-14.9-77.4-14.9
								s10-6.2,6.4-14.9c0,0,81.8,11.4,116.9-4.5c0,0,14-7.8,15.6-15.9c0,0,27.9-13.3,25.1-23.7c-2.8-10.4-117.3-14.3-153.6-1.3
								c-36.3,13,1.6,10.7,1.6,10.7s-26.3,0.3-30.3,12.3c-4,12,22.3,17.5,22.3,17.5s-46.3-2.6-69,12.3
								c-22.7,14.9,13.2,15.6,13.2,15.6s-147.2-33.7-249-9.7c-99.3,23.4-71,58.1-71,58.1s-23.1,8.4-23.9,12.3
								c-0.8,3.9,142.8,16.2,142.8,16.2s-41.9,3.6-41.9,23.7c0,0-55.1,1-67.4,8.4c-12.4,7.5,35.9,11.7,35.9,11.7s-61.4,6.8-85,35.4
								l-161.6,7.5c0,0,16.8-18.8-110.1-33.4c0,0,41.9-50-31.9-71.1c-73.8-21.1-103.7-6.8-103.7-6.8s29.1-17.2,31.1-31.8
								c2-14.6-112.1-89.6-277.3-54.2c-41.1,8.8-13.2,30.5-13.2,30.5l-77.8-18.8c0,0,11.2-2.3,10-12.7
								c-1.2-10.4-160.8-51.9-160.8-51.9s2-35.7-163.6-35.7c0,0,19.9,1.6,27.1-4.9c7.2-6.5-75-27.6-75-27.6s63.8,4.9,73.8-3.2
								c10-8.1-31.1-35-67-26c0,0-29.9-6.5-39.1,0c-9.2,6.5,18,25.3,18,25.3s-66.6-43.8-123.7-31.8c-41.1,8.4,0,45.7,0,45.7
								l-89-32.4c0,0,97-97.3-57.1-157.4c-154-60-320.4-89.6-320.4-89.6v357.2c0,0,195.5,65.5,228.6,53.9c0,0,95.8,12.3,115.7,0
								c19.9-12.3,13.2-23.7,13.2-23.7L397,158.3c0,0-25.1,12-1.2,25c23.9,13,258.5,48,432.9,56.8c0,0-8,6.5-8,14.6
								c0,8.1,51.1,13,51.1,13s-99.7-15.6-163.6,1.6c-63.8,17.2-29.9,22.7-29.9,22.7s-33.1,3.2-45.9,13c-12.8,9.7,12,17.8,12,17.8
								l-53.1-2.6c0,0,19.9-3.2,19.9-13c0-9.7-39.1-13-39.1-13s53.1,1,59.8-7.5s-83-28.6-83-28.6s25.9,3.2,31.9-11.4
								c6-14.6-91-35-123.7-22.1s4,17.2,4,17.2s-31.5-7.8-69.4-9.4c0,0-15.2-16.2-49.9-19.5c-34.7-3.2-44.7,9.7-44.7,9.7l-19.2-2.6
								c0,0,18.8-1,20.7-14.6c2-13.6-54.7-33.4-140.4-35.7c0,0-165.6-43.2-254.5-45.4v238.5c0,0,428.9,6.5,503.9,0l-29.9-4.9
								l307.2,7.8c0,0-16.8,7.5-9.2,11c7.2,3.9,224.2,17.8,257.3,12l-12-5.8l78.6,10.7c0,0-12.8-3.9-25.9,12c0,0,75,9.7,186.7,10.7
								c111.7,1,154.4-3.9,165.6-7.1c10.8-3.2,0-7.1,0-7.1l20.8,4.9c0,0-12,2.6-34.7,9.4c-22.8,6.8,73,6.8,98.9,4.9
								c25.9-1.9-19.2-8.8-19.2-8.8s27.9-2.6,33.9-7.5c6-4.9-45.9-14-45.9-14l248.6,2.6c0,0-30.7,1-34.7,6.5
								c-4,5.5,154.8,5.5,172.4,1c17.2-4.2-6-7.1-6-7.1l119.7-7.5c0,0,190.3-18.8,259.3-27.6c69-8.8,39.9-20.1,39.9-20.1
								s173.6-15.2,234.2-28.6l283.3-34.1V-37.3z"/>
							<path class="st22" d="M1061.4,46.3c0,0-3.2,10.7,10,15.6c13.2,4.9,48.3,12.3,48.3,12.3s-15.6,2.9-5.2,7.8
								c10.4,4.9,36.3,3.6,34.3,0c-2-3.6-5.6-5.8-5.6-5.8s23.2,3.2,24.3,0.3c1.2-2.9-3.6-5.8-3.6-5.8s11.2-4.2,3.6-8.1
								c-7.6-3.9-27.1-6.8-27.1-6.8s-5.6-14.6-25.1-19.1c-19.6-4.5-32.3,10.7-32.3,10.7S1074.6,44.3,1061.4,46.3z"/>
							
								<linearGradient id="SVGID_00000028309805142809459580000009270504822589538226_" gradientUnits="userSpaceOnUse" x1="1196.0935" y1="1488.3019" x2="1379.1615" y2="2522.4597" gradientTransform="matrix(1 0 0 -1 0 2140)">
								<stop  offset="0" style="stop-color:#6F00CC"/>
								<stop  offset="1" style="stop-color:#400091"/>
							</linearGradient>
							<path style="fill:url(#SVGID_00000028309805142809459580000009270504822589538226_);" d="M2696.7,48c0,0-93,2.6-136.9,20.4
								c-43.9,17.8,0,18.8,0,18.8l-90.6,36c0,0-41.1-3.2-81,8.1c-39.9,11.4,10,9.1,10,9.1s-98.9,14.6-152.8,51.9
								c-53.9,37.3,16,35.7,16,35.7l-213.1,46.1c0,0,9.2-3.6,10-19.8c0.8-15.9-61.8,0-61.8,0s96.9-25.3,96.9-34.4
								c-0.4-28.9-236.6-13.6-281.3,16.5c-44.7,30.2,83.8,29.5,83.8,29.5s-71.8,4.9-77.8,17.2c-6,12.3,47.9,10.7,47.9,10.7
								s-151.6-3.2-197.5,23.7c-45.9,26.9,95,24.3,95,24.3s-74.6,6.5-104.1,14.6c-29.5,8.1,16.3,9.7,16.3,9.7l-275.3,8.1
								c0,0,18-15.6,0-27.6c-17.9-12-112.9-15.6-112.9-15.6s49.9-10.7,55.1-15.6c5.2-4.9-143.6-14-143.6-14s121.3-3.2,127.7-10.7
								c6-7.5-127.7-38.3-127.7-38.3s25.1-1.9,17.2-16.5c-8-14.6-147.2-49.6-247-46.7c0,0,5.2-6.2,4.4-10.1
								c-0.8-3.9-106.1-32.1-131.3-30.2c-25.1,1.9-6.4,16.2-6.4,16.2s-79.8-53.9-191.1-71.1C533.5,77.2,548.6,96,548.6,96
								S429.3,44.1,391,39.2c-38.3-4.9,0,11,0,11S324.8,8.1,263.4,8.7L229.5-6.8c0,0,18-4.9,5.6-17.8C222.7-37.7,113-85,91-87.6
								c-21.9-2.6-10,14-10,14l-177.1-75.6v254.1c0,0,118.9,40.6,199.9,53.9c80.6,13,144.4,9.1,155.2,3.2
								c11.2-5.8,3.2-32.4,3.2-32.4L397,158.6c0,0-14,2.9-7.6,20.4c6.4,17.5,176.7,39.9,247.8,47.4s191.5,14,191.5,14l45.9,6.2
								c0,0-41.9-3.2-49.9,6.5c-8,9.7,41.9,14.3,41.9,14.3s-80.6-1.6-105.7,5.2c-25.1,6.8,21.9,13,21.9,13s-56.3-5.8-96.2,5.8
								c-39.9,11.7-18,23-18,23s-18.4,4.5-18.4,9.1c0,4.5,73.8,5.8,73.8,5.8s-109.7-4.5-181.1,2.6c0,0,31.1-3.2,48.3-10.7
								c17.2-7.5-32.3-7.8-32.3-7.8s13.2-9.7,11.6-15.6c-1.6-5.8-102.1-23.7-102.1-23.7s77.4-2.9,79.4-9.1
								c2-6.2-57.9-22.1-85.8-22.4c-27.9-0.3-4,13-4,13S332.8,230,258.6,230.4c0,0,14-5.2,15.6-13.3c1.6-8.1-219-46.4-219-46.4
								s25.9,1,27.9-4.5c2-5.5-179.1-17.5-179.1-17.5v215.1c0,0,387.8,6.5,503.9,0l-29.9-4.9l307.2,7.8l40.7,4.5
								c0,0-46.3,1.6-49.9,6.8c-3.6,4.9,194.7,20.1,257.3,12c0,0,1.6-5.8-49.1-9.7l115.3,14.6l59.8,3.2c0,0-65.8,1.9-79.8,7.8
								c-14,5.8,141.6,14,241.4,11.7c99.7-2.3,104.5-6.2,109.3-9.1c4.8-2.9-4.4-4.9-4.4-4.9l20.8,4.9c0,0-20.3,4.9-20.8,9.4
								c-0.4,4.9,75,5.2,75,5.2l-15.6-10.1c0,0,8.4-8.1,5.6-13c-2.8-4.9-19.6-9.7-19.6-9.7l252.2,4.9c0,0-25.5-1.6-29.9,6.2
								c-4,7.8,65.4,7.8,103.7,9.4c38.3,1.6,73.4-4.9,77.4-6.8c3.6-1.9-11.2-7.5-11.2-7.5s192.7-8.1,300.4-16.2
								c107.7-8.1,129.3-20.8,128.9-30.8c-0.4-10.1-14-9.1-14-9.1l216.2-46.7l59.8-9.7c0,0-58.2,22.4-54.3,30.2
								c4.4,7.8,295.6-36.7,295.6-36.7V48H2696.7z"/>
							<path class="st22" d="M2797.5-410.8c0,0-96.4,64.3-150.6,72.7c-54.3,8.4-51.6,0-51.6,0s-37.5,11.7-56.6,3.6
								c0,0-44,31.3-102.5,52.3c0,0,47.8,2.8,52.8,13.4c5,10.6-74.6,46.9-307,102c0,0,22.2,2.8,27.9,19.3
								c5.7,16.2-119.7,60.9-152.2,60.4s15.7-33.5,15.7-33.5s-14.1-14-0.4-22.6l-79.1,44.4c0,0-42.1,58.7-163.7,79.1
								c-121.6,20.4-131.9-12.6-131.9-12.6l-24.1,0.8c0,0-54.7,23.8-112,26.5c-57.3,2.8-26-27.9,92.9-48.9c0,0-8.8-19,11.5-37.2
								c-2.3,0.6-70.7,17.6-66.9-9.8c3.8-27.9,56.6-46.1,74.6-46.4c1.5,0,2.7,0,3.8,0.3h0.4l1.5,0.6h0.4c11.1,3.6,9.2,18.4,9.2,18.4
								l11.5,3.6l28.7-22.6c0,0-42,2.2-35.5-15.9c6.5-18.2,47.8-23.2,47.8-23.2l3.8-7.8c0,0-40.1-2.5-37.5-14
								c2.7-10.9,19.9-17,21-17.6c-1.9,0.3-64.2,6.7-71.5-12.6c-12.6-33.3,77.6-81,86-85.2c-6.9,3.1-67.3,29.9-91.8,24
								c0,0,0,0-0.4,0c-3-0.8-5.7-2.2-7.3-4.2c-0.4-0.3-0.4-0.6-0.8-0.8c-15.3-21.8,36.7-70.7,102.5-78.2c4.2-0.6,8-0.6,11.5-0.6
								c52.8,0.6,34,56.2,34,56.2s45.1-18.2,29.4,0.6l22.2-12.6c0,0-50.8-12-12.6-44.2c0,0-70.7,4.2-18.4-27.4h985.3V-410.8z"/>
							
								<linearGradient id="SVGID_00000129905414005945589730000008045943855269822859_" gradientUnits="userSpaceOnUse" x1="2075.4961" y1="1998.1248" x2="2271.9141" y2="2698.2461" gradientTransform="matrix(1 0 0 -1 0 2140)">
								<stop  offset="0" style="stop-color:#6F00CC"/>
								<stop  offset="1" style="stop-color:#400091"/>
							</linearGradient>
							<path style="fill:url(#SVGID_00000129905414005945589730000008045943855269822859_);" d="M1711.6-57.8c0,0-39-7.5-12.6-42.5
								c26-34.9,93.3-61.5,93.3-61.5s-29.8,3.6-27.9-12.9c1.9-16.5,27.9-33.8,27.9-33.8s-53.9-16.8-27.2-44.7
								c26.8-27.9,140.7-58.7,140.7-58.7s-48.6,10.6-50.5,3.4c-1.9-7.3,51.6-35.2,51.6-35.2s-54.7-9.2-22.2-31.6
								c71.5-49.5,163.7-31.9,173.2-30.5s6.5,15.9,6.5,15.9s49.7-16.2,66.1-14c16.4,2.2,23.7,14,23.7,14l63.1-21h580
								c0,0-43.2,26.5-101.3,56.4c-58.1,29.9-100.9,16.2-100.9,16.2c-24.1,8.9-56.6,3.6-56.6,3.6s-22.9,14.5-49.7,29.3
								c-26.8,14.5-68.8,32.7-68.8,32.7c26-4.2,45.1-5,45.1-5s23.7,2,23.7,8.7c0,6.7-14.1,20.1-103.2,47.2s-210.3,55.1-210.3,55.1
								c-5,14.8-31.7,19-31.7,19s9.6-0.6,44.7-4.2c35.2-3.6,29.4,4.2,29.4,4.2s-12.6,25.7-71.5,44.7c-58.5,19-93.3,15.1-93.3,15.1
								c-1.5-11.7,48.6-37.2,48.6-37.2c-2.7-4.8,11.5-14,11.5-14l-119.3,39.7c-13.4,16.2-52.4,58.4-142.6,78.2
								c0,0-135.4,27.4-152.9-12l-24.1,0.8c0,0-61.2,27.4-124.3,26.5C1550.3-5.6,1591.2-40.5,1711.6-57.8z"/>
							<path class="st22" d="M-49.1-220.7c0,0,131.9,60.3,244.7,96.8c112.8,36.5,207.2,38.7,221,33.8c14.1-4.9,14.1-14.1,14.1-14.1
								l284.1,60.9c0,0-22.2-3.5-40.9,5.4c0,0-27.5-6.2-50.5,0C600.6-31.6,640-15.6,640-15.6s96.4,25.2,186.2,36s96.7,1.4,96.7,1.4
								l61.2,8.9c0,0,41.3,8.7,74.6,10.3c0,0,10.7-8.1-29.8-17.6c0,0,8.8-8.1-15.3-17c0,0,18-15.7-28.7-34.6
								C938.2-47.3,895.8-53.5,881.6-50c-14.1,3.5,15.3,15.7,15.3,15.7l-16.1-1.9c0,0-7.6-6-36.3-11.4c0,0,38.2,4.9,52.8-6.8
								c0,0,56.6,19.5,90.6,13c0,0,52.4,15.4,63.1,10.8c10.7-4.6-19.9-16.8-19.9-16.8s10.7-10.3-37.5-32.5
								c-48.6-22.2-64.2-25.7-64.2-25.7s12.6,1.4,14.5-3.5c1.9-4.9-12.6-13-12.6-13s26,11.6,34.4,7.6c8.4-4.1-40.9-34.4-69.6-41.1
								c-28.7-6.8-39,0.3-39,0.3s40.1-4.9,4.6-54.6c0,0,16.1,6.2,13.4-5.9c0,0,26.8,18.1,39.4,12.2c12.6-6,7.6-17,7.6-17
								s18-4.6,14.5-14.9c0,0,12.2,10.8,17.2,6.2c5-4.6-19.9-26.5-21.8-19.7c0,0-15.3-17.6-18.4-12.2c0,0-29.8-23.5-42.1-23
								c-12.2,0.5-10.3,8.1-10.3,8.1s-10.3-4.6-17.2,4.9c-6.9,9.5,3.8,26.2,3.8,26.2s-13.4-18.4-19.1-10.8c0,0-44.7-36.5-85.3-39.2
								c-40.9-2.7-63.1,31.1-63.1,31.1s-23.7-16.8-36.3-8.9c-12.6,7.6-1.1,29.8-1.1,29.8s-65.8-24.3-137.3-47.3
								c0,0,21.4-0.8,20.6-10.3c-0.8-9.5-35.2-52.2-35.2-52.2s100.6,39.2,126.9,35.2s17.2-14.1,17.2-14.1s19.1,2.2,18-5.4
								c0,0,92.5,33.3,102.1,23c9.6-10.3-36.3-50.9-36.3-50.9s40.1,18.1,56.2,7.3c16.1-10.8,1.5-37.3,1.5-37.3s12.6,1.9,12.6-6.8
								c0-8.7-5-14.3-5-14.3H313c0,0-21-0.5-27.5,23.8l-75.3-23.8H-49.1V-220.7z"/>
							
								<linearGradient id="SVGID_00000165198020506548361110000002126506057463689662_" gradientUnits="userSpaceOnUse" x1="370.2368" y1="1949.085" x2="640.1187" y2="2705.7429" gradientTransform="matrix(1 0 0 -1 0 2140)">
								<stop  offset="0" style="stop-color:#6F00CC"/>
								<stop  offset="1" style="stop-color:#400091"/>
							</linearGradient>
							<path style="fill:url(#SVGID_00000165198020506548361110000002126506057463689662_);" d="M102-416.2l72.6,27.9
								c0,0-1.9-8.9,12.6-13.8c14.5-4.9,71.9,17.3,130.4,50c58.5,33,72.6,68.4,71.9,75.7c-0.8,7.3-19.1,10.3-19.1,10.3
								s33.3,4.9,56.2,17.6c0,0,5-19.5,44-22.2c39-2.7,127.3,39.2,158.7,64.1c0,0,0-14.3,6.9-21.1c6.9-6.8,20.3-0.5,20.3-0.5
								s-14.5-17-7.6-24.3c6.9-7.3,89.1,6,142.2,46c52.8,40,65.8,66.3,61.2,72.5l27.9,24.9c0,0,7.6-8.7,43.2,3.2
								c35.6,11.9,53.5,31.6,39,34.4c0,0,49.3,12.2,58.5,26.5c0,0,24.1,4.9,30.6,15.4c0,0-7.3,5.1-63.1-10.8c0,0-14.5,3.8-43.6-1.1
								c-29.1-4.9-47-11.9-47-11.9s-5.7,10.8-52.8,6.8L833-49.2c0,0,9.2,5.1,11.9,9.5c2.7,4.3-14.9,1.6-14.9,1.6l44.7,13
								c0,0-2.3-5.4,5-7.6c7.3-2.2,64.2,16,64.2,16s-5-7.8-3.4-12.4c1.5-4.6,52.4,11.1,59.6,21.9c7.3,10.8-14.1,6.5-14.1,6.5
								s25.2,8.4,32.5,14.3c7.3,6,0.4,8.4,0.4,8.4s37.8,7.6,40.5,19.5c0,0-16.4,0.8-55.1-5.1c0,0,2.7,2.2-30.2-1.6
								c-32.9-3.8-23.7-5.7-23.7-5.7l-26.8-6.8c0,0-15.3,10.8-115.9-2.4S639.6-12.1,635.4-14c-4.2-1.9,5.7-1.1,5.7-1.1
								S622-22.7,625.8-27c3.8-4.3,42.8-3.8,42.8-3.8s-4.2-4.3,2.3-5.7c6.5-1.4,54.7-0.5,54.7-0.5s-13.4-2.4-9.9-5.7
								c0,0-221-40-284.1-60.9c0,0,5.7,7.6-21,15.1c-26.8,7.8-167.5-3.2-288.7-51.7C0.7-188.5-49.1-220.7-49.1-220.7v-195.6H102z"/>
						</g>
					</g>
				</g>
			</g>
		</g>
	</g>
</g>
</svg>
