<svg width="57" height="41" viewBox="0 0 57 41" fill="none" xmlns="http://www.w3.org/2000/svg">
<path d="M15.4974 22.2185H11.3214V26.4905H7.43343V22.2185H3.25743V18.5465H7.43343V14.2505H11.3214V18.5465H15.4974V22.2185Z" fill="#9685FF"/>
<path d="M51.3248 5.22748L38.8326 14.5056L41.1427 9.03162L51.3248 5.22748Z" fill="#E4761B"/>
<path fill-rule="evenodd" clip-rule="evenodd" d="M51.38 5.19752C51.3949 5.22499 51.3874 5.25927 51.3623 5.27791L38.8701 14.556C38.8474 14.5729 38.8162 14.5725 38.7939 14.555C38.7716 14.5375 38.7638 14.5073 38.7748 14.4812L41.0849 9.00725C41.0917 8.99134 41.1046 8.9789 41.1208 8.97286L51.3029 5.16871C51.3322 5.15777 51.365 5.17005 51.38 5.19752ZM41.1901 9.08099L38.98 14.318L50.9314 5.44151L41.1901 9.08099Z" fill="#E4761B"/>
<path d="M22.4861 5.22754L34.8779 14.5935L32.6807 9.03168L22.4861 5.22754Z" fill="#E4761B"/>
<path fill-rule="evenodd" clip-rule="evenodd" d="M22.4311 5.1973C22.4461 5.16998 22.4789 5.15781 22.5081 5.1687L32.7027 8.97285C32.7193 8.97906 32.7326 8.99206 32.7391 9.0086L34.9362 14.5704C34.9466 14.5966 34.9382 14.6264 34.9158 14.6435C34.8934 14.6605 34.8624 14.6605 34.84 14.6436L22.4483 5.2776C22.4234 5.25881 22.4161 5.22462 22.4311 5.1973ZM22.8668 5.43659L34.7373 14.4086L32.6326 9.08071L22.8668 5.43659Z" fill="#E4761B"/>
<path d="M46.8302 26.7341L43.5031 31.8314L50.6217 33.79L52.6682 26.8471L46.8302 26.7341Z" fill="#E4761B"/>
<path fill-rule="evenodd" clip-rule="evenodd" d="M46.7776 26.6998C46.7894 26.6817 46.8097 26.6709 46.8314 26.6713L52.6694 26.7843C52.689 26.7847 52.7073 26.7942 52.7188 26.81C52.7304 26.8258 52.7339 26.8461 52.7284 26.8648L50.6819 33.8077C50.6723 33.8406 50.6381 33.8596 50.6051 33.8505L43.4864 31.8919C43.4671 31.8866 43.4515 31.8724 43.4444 31.8536C43.4373 31.8349 43.4396 31.8139 43.4505 31.7971L46.7776 26.6998ZM46.8637 26.7975L43.6027 31.7937L50.579 33.7131L52.5847 26.9083L46.8637 26.7975Z" fill="#E4761B"/>
<path d="M21.1679 26.8471L23.2018 33.79L30.3204 31.8314L26.9934 26.7341L21.1679 26.8471Z" fill="#E4761B"/>
<path fill-rule="evenodd" clip-rule="evenodd" d="M26.9921 26.6713C27.0138 26.6709 27.0341 26.6817 27.0459 26.6998L30.373 31.7971C30.3839 31.8139 30.3862 31.8349 30.3791 31.8536C30.372 31.8724 30.3564 31.8866 30.3371 31.8919L23.2184 33.8505C23.1854 33.8596 23.1512 33.8405 23.1415 33.8076L21.1076 26.8647C21.1021 26.846 21.1057 26.8257 21.1173 26.8099C21.1288 26.7942 21.1471 26.7847 21.1667 26.7843L26.9921 26.6713ZM21.2512 26.9083L23.2447 33.7131L30.2208 31.7937L26.9598 26.7975L21.2512 26.9083Z" fill="#E4761B"/>
<path d="M29.9187 18.1214L27.935 21.1221L35.0034 21.436L34.7523 13.8402L29.9187 18.1214Z" fill="#E4761B"/>
<path fill-rule="evenodd" clip-rule="evenodd" d="M34.7771 13.7825C34.7995 13.7921 34.8142 13.8138 34.815 13.8381L35.0661 21.4339C35.0667 21.4513 35.06 21.4683 35.0475 21.4806C35.0351 21.4929 35.0181 21.4994 35.0006 21.4986L27.9322 21.1848C27.9096 21.1838 27.8893 21.1707 27.879 21.1505C27.8688 21.1304 27.8701 21.1063 27.8826 21.0874L29.8663 18.0868C29.8693 18.0822 29.8729 18.0781 29.877 18.0744L34.7107 13.7932C34.7289 13.7771 34.7548 13.7729 34.7771 13.7825ZM29.9665 18.1629L28.0484 21.0643L34.9384 21.3702L34.694 13.9757L29.9665 18.1629Z" fill="#E4761B"/>
<path d="M43.8923 18.1214L38.9959 13.7523L38.8326 21.4359L45.8885 21.1221L43.8923 18.1214Z" fill="#E4761B"/>
<path fill-rule="evenodd" clip-rule="evenodd" d="M38.9708 13.6947C38.9933 13.685 39.0194 13.6891 39.0377 13.7055L43.9341 18.0746C43.9381 18.0781 43.9416 18.0822 43.9446 18.0866L45.9408 21.0873C45.9533 21.1061 45.9548 21.1302 45.9445 21.1504C45.9343 21.1706 45.914 21.1837 45.8913 21.1847L38.8355 21.4986C38.8181 21.4994 38.8012 21.4929 38.7888 21.4808C38.7764 21.4687 38.7695 21.4519 38.7699 21.4346L38.9331 13.751C38.9336 13.7265 38.9484 13.7045 38.9708 13.6947ZM39.0558 13.8898L38.8969 21.3702L45.7747 21.0642L43.8445 18.1629L39.0558 13.8898Z" fill="#E4761B"/>
<path d="M30.3204 31.8314L34.564 29.7599L30.898 26.8973L30.3204 31.8314Z" fill="#E4761B"/>
<path fill-rule="evenodd" clip-rule="evenodd" d="M30.8737 26.8394C30.8947 26.8306 30.9187 26.8339 30.9366 26.8478L34.6026 29.7104C34.6197 29.7237 34.6287 29.7448 34.6264 29.7664C34.6241 29.7879 34.611 29.8067 34.5915 29.8162L30.3479 31.8878C30.3273 31.8979 30.3028 31.8959 30.2841 31.8826C30.2654 31.8693 30.2554 31.8469 30.2581 31.8241L30.8356 26.89C30.8382 26.8675 30.8528 26.8481 30.8737 26.8394ZM30.9473 27.0155L30.3961 31.7246L34.4462 29.7475L30.9473 27.0155Z" fill="#E4761B"/>
<path d="M39.2469 29.7599L43.5031 31.8314L42.913 26.8973L39.2469 29.7599Z" fill="#E4761B"/>
<path fill-rule="evenodd" clip-rule="evenodd" d="M42.9372 26.8394C42.9581 26.8481 42.9727 26.8674 42.9754 26.8899L43.5654 31.8239C43.5682 31.8467 43.5582 31.8692 43.5395 31.8825C43.5208 31.8959 43.4963 31.8979 43.4756 31.8878L39.2195 29.8163C39.2 29.8068 39.1868 29.7879 39.1846 29.7664C39.1823 29.7449 39.1913 29.7237 39.2083 29.7103L42.8744 26.8478C42.8923 26.8339 42.9162 26.8306 42.9372 26.8394ZM39.3649 29.7474L43.4271 31.7246L42.8639 27.0153L39.3649 29.7474Z" fill="#E4761B"/>
<path d="M43.5031 31.8314L39.2469 29.7598L39.5859 32.5345L39.5483 33.7021L43.5031 31.8314Z" fill="#D7C1B3"/>
<path fill-rule="evenodd" clip-rule="evenodd" d="M39.2105 29.7088C39.2292 29.6954 39.2538 29.6933 39.2745 29.7034L43.5306 31.775C43.5523 31.7855 43.566 31.8076 43.5659 31.8318C43.5657 31.8559 43.5518 31.8778 43.5299 31.8882L39.5751 33.7588C39.5554 33.7682 39.5322 33.7666 39.5139 33.7546C39.4956 33.7426 39.4849 33.7219 39.4856 33.7001L39.5231 32.5373L39.1847 29.7675C39.1819 29.7446 39.1918 29.7221 39.2105 29.7088ZM39.3233 29.8668L39.6483 32.5269C39.6487 32.5301 39.6488 32.5333 39.6487 32.5365L39.6144 33.6014L43.358 31.8306L39.3233 29.8668Z" fill="#D7C1B3"/>
<path d="M30.3204 31.8314L34.2752 33.7021L34.2501 32.5345L34.5639 29.7598L30.3204 31.8314Z" fill="#D7C1B3"/>
<path fill-rule="evenodd" clip-rule="evenodd" d="M34.6002 29.7086C34.6189 29.7218 34.6289 29.7441 34.6263 29.7669L34.3129 32.5374L34.338 33.7007C34.3384 33.7225 34.3276 33.7429 34.3093 33.7548C34.2911 33.7666 34.268 33.7681 34.2484 33.7588L30.2936 31.8882C30.2717 31.8778 30.2578 31.8559 30.2576 31.8318C30.2575 31.8077 30.2712 31.7856 30.2929 31.775L34.5364 29.7034C34.557 29.6934 34.5814 29.6954 34.6002 29.7086ZM30.4653 31.8305L34.2103 33.6019L34.1873 32.5358C34.1873 32.533 34.1874 32.5302 34.1877 32.5274L34.4887 29.8664L30.4653 31.8305Z" fill="#D7C1B3"/>
<path d="M34.338 25.0643L30.7975 24.0223L33.2959 22.8798L34.338 25.0643Z" fill="#233447"/>
<path fill-rule="evenodd" clip-rule="evenodd" d="M33.2698 22.8227C33.301 22.8084 33.3379 22.8218 33.3526 22.8527L34.3947 25.0373C34.4053 25.0596 34.4019 25.0862 34.3858 25.105C34.3697 25.1239 34.3441 25.1315 34.3203 25.1245L30.7798 24.0825C30.7547 24.0751 30.7368 24.0528 30.7349 24.0267C30.733 24.0006 30.7476 23.976 30.7714 23.9652L33.2698 22.8227ZM30.9764 24.0095L34.2208 24.9644L33.2659 22.9625L30.9764 24.0095Z" fill="#233447"/>
<path d="M39.473 25.0643L40.515 22.8798L43.026 24.0223L39.473 25.0643Z" fill="#233447"/>
<path fill-rule="evenodd" clip-rule="evenodd" d="M40.4583 22.8527C40.4731 22.8218 40.5098 22.8084 40.541 22.8226L43.052 23.9651C43.0758 23.976 43.0904 24.0005 43.0886 24.0267C43.0867 24.0528 43.0688 24.0751 43.0436 24.0825L39.4906 25.1245C39.4668 25.1315 39.4412 25.1239 39.4251 25.105C39.4091 25.0861 39.4056 25.0596 39.4163 25.0373L40.4583 22.8527ZM40.5451 22.9624L39.5901 24.9645L42.8464 24.0095L40.5451 22.9624Z" fill="#233447"/>
<path d="M30.3205 31.8314L30.9231 26.7341L26.9934 26.8471L30.3205 31.8314Z" fill="#CD6116"/>
<path fill-rule="evenodd" clip-rule="evenodd" d="M30.9694 26.6917C30.9817 26.7052 30.9876 26.7233 30.9854 26.7415L30.3828 31.8388C30.3797 31.8649 30.3607 31.8863 30.3351 31.8925C30.3095 31.8986 30.2828 31.8881 30.2682 31.8663L26.9412 26.8819C26.9285 26.863 26.9271 26.8386 26.9376 26.8183C26.9481 26.798 26.9687 26.785 26.9916 26.7843L30.9213 26.6714C30.9395 26.6708 30.9571 26.6783 30.9694 26.6917ZM27.1086 26.9066L30.2781 31.6549L30.8522 26.7989L27.1086 26.9066Z" fill="#CD6116"/>
<path d="M42.9005 26.7341L43.5031 31.8314L46.8302 26.8471L42.9005 26.7341Z" fill="#CD6116"/>
<path fill-rule="evenodd" clip-rule="evenodd" d="M42.8542 26.6917C42.8665 26.6783 42.884 26.6708 42.9023 26.6714L46.832 26.7843C46.8548 26.785 46.8755 26.798 46.886 26.8183C46.8964 26.8386 46.8951 26.863 46.8824 26.8819L43.5553 31.8663C43.5407 31.8881 43.514 31.8986 43.4885 31.8925C43.4629 31.8863 43.4439 31.8649 43.4408 31.8388L42.8381 26.7415C42.836 26.7233 42.8418 26.7052 42.8542 26.6917ZM42.9714 26.7989L43.5455 31.6549L46.715 26.9066L42.9714 26.7989Z" fill="#CD6116"/>
<path d="M45.8886 21.1221L38.8327 21.4359L39.4856 25.0643L40.5276 22.8798L43.0386 24.0223L45.8886 21.1221Z" fill="#CD6116"/>
<path fill-rule="evenodd" clip-rule="evenodd" d="M45.9459 21.0965C45.9564 21.12 45.9514 21.1476 45.9333 21.166L43.0833 24.0662C43.0649 24.085 43.0366 24.0903 43.0126 24.0794L40.5577 22.9624L39.5422 25.0913C39.5305 25.1159 39.5042 25.1301 39.4772 25.1265C39.4502 25.1229 39.4286 25.1022 39.4237 25.0754L38.7709 21.447C38.7677 21.4292 38.7723 21.4109 38.7836 21.3967C38.7949 21.3826 38.8118 21.374 38.8299 21.3732L45.8858 21.0593C45.9115 21.0582 45.9354 21.0729 45.9459 21.0965ZM38.9072 21.4954L39.5128 24.8613L40.4709 22.8527C40.4857 22.8218 40.5224 22.8084 40.5536 22.8226L43.0246 23.9469L45.7319 21.1918L38.9072 21.4954Z" fill="#CD6116"/>
<path d="M30.7975 24.0223L33.3085 22.8798L34.338 25.0643L35.0034 21.4359L27.935 21.1221L30.7975 24.0223Z" fill="#CD6116"/>
<path fill-rule="evenodd" clip-rule="evenodd" d="M27.8776 21.0965C27.8881 21.073 27.912 21.0582 27.9378 21.0593L35.0062 21.3732C35.0243 21.374 35.0412 21.3826 35.0525 21.3968C35.0638 21.411 35.0684 21.4294 35.0651 21.4472L34.3997 25.0756C34.3948 25.1024 34.3731 25.123 34.3461 25.1265C34.319 25.1301 34.2928 25.1157 34.2812 25.091L33.2781 22.9625L30.8235 24.0794C30.7995 24.0903 30.7713 24.0851 30.7528 24.0663L27.8903 21.1661C27.8722 21.1478 27.8671 21.1201 27.8776 21.0965ZM28.0921 21.1919L30.8114 23.9469L33.2825 22.8226C33.3137 22.8084 33.3506 22.8219 33.3653 22.853L34.3115 24.8608L34.9287 21.4954L28.0921 21.1919Z" fill="#CD6116"/>
<path d="M27.935 21.1221L30.898 26.8973L30.7975 24.0223L27.935 21.1221Z" fill="#E4751F"/>
<path fill-rule="evenodd" clip-rule="evenodd" d="M27.8982 21.0712C27.9233 21.053 27.9579 21.0559 27.9797 21.0779L30.8422 23.9781C30.8532 23.9893 30.8597 24.0043 30.8602 24.02L30.9607 26.8951C30.9617 26.9245 30.9422 26.9507 30.9137 26.9581C30.8853 26.9655 30.8555 26.9521 30.8421 26.926L27.8791 21.1507C27.865 21.1231 27.8731 21.0894 27.8982 21.0712ZM28.1774 21.457L30.8254 26.6184L30.7356 24.0489L28.1774 21.457Z" fill="#E4751F"/>
<path d="M43.0386 24.0223L42.913 26.8973L45.8885 21.1221L43.0386 24.0223Z" fill="#E4751F"/>
<path fill-rule="evenodd" clip-rule="evenodd" d="M45.9253 21.0712C45.9505 21.0894 45.9585 21.1232 45.9443 21.1508L42.9688 26.9261C42.9553 26.9523 42.9254 26.9655 42.8969 26.958C42.8684 26.9504 42.849 26.924 42.8503 26.8946L42.9758 24.0195C42.9765 24.004 42.9829 23.9893 42.9938 23.9782L45.8437 21.078C45.8655 21.0559 45.9002 21.053 45.9253 21.0712ZM43.1002 24.049L42.9882 26.6143L45.6431 21.4614L43.1002 24.049Z" fill="#E4751F"/>
<path d="M35.0034 21.4359L34.338 25.0643L35.1666 29.3455L35.355 23.7084L35.0034 21.4359Z" fill="#E4751F"/>
<path fill-rule="evenodd" clip-rule="evenodd" d="M35.0043 21.3732C35.0349 21.3736 35.0607 21.3961 35.0654 21.4263L35.417 23.6988C35.4176 23.7027 35.4178 23.7066 35.4177 23.7105L35.2293 29.3476C35.2283 29.3796 35.2034 29.4056 35.1716 29.4081C35.1397 29.4106 35.111 29.3888 35.105 29.3575L34.2764 25.0762C34.2749 25.0686 34.2748 25.0607 34.2762 25.053L34.9416 21.4246C34.9472 21.3945 34.9736 21.3727 35.0043 21.3732ZM34.4019 25.064L35.1225 28.7871L35.292 23.7122L34.9981 21.8126L34.4019 25.064Z" fill="#E4751F"/>
<path d="M38.8326 21.4359L38.4937 23.6958L38.6443 29.3455L39.4855 25.0643L38.8326 21.4359Z" fill="#E4751F"/>
<path fill-rule="evenodd" clip-rule="evenodd" d="M38.8318 21.3732C38.8625 21.3727 38.889 21.3946 38.8944 21.4248L39.5473 25.0532C39.5487 25.0609 39.5486 25.0688 39.5471 25.0764L38.7059 29.3577C38.6998 29.3891 38.671 29.4108 38.6391 29.4081C38.6072 29.4054 38.5824 29.3792 38.5816 29.3472L38.4309 23.6975C38.4308 23.6938 38.4311 23.6902 38.4316 23.6865L38.7706 21.4266C38.7751 21.3962 38.801 21.3736 38.8318 21.3732ZM38.8383 21.8217L38.5566 23.6997L38.692 28.7774L39.4216 25.0638L38.8383 21.8217Z" fill="#E4751F"/>
<path d="M39.4855 25.0643L38.6443 29.3455L39.247 29.7598L42.913 26.8973L43.0386 24.0222L39.4855 25.0643Z" fill="#F6851B"/>
<path fill-rule="evenodd" clip-rule="evenodd" d="M43.0772 23.9728C43.0932 23.9853 43.1021 24.0047 43.1013 24.025L42.9757 26.9001C42.9749 26.9184 42.9661 26.9355 42.9516 26.9468L39.2856 29.8093C39.264 29.8262 39.234 29.8271 39.2114 29.8116L38.6088 29.3973C38.5881 29.3831 38.5779 29.358 38.5827 29.3334L39.4239 25.0522C39.4284 25.0292 39.4454 25.0107 39.4678 25.0041L43.0209 23.962C43.0403 23.9563 43.0613 23.9603 43.0772 23.9728ZM39.5397 25.1138L38.7139 29.3172L39.2446 29.6821L42.8515 26.8657L42.972 24.1072L39.5397 25.1138Z" fill="#F6851B"/>
<path d="M30.7975 24.0222L30.8979 26.8973L34.564 29.7598L35.1666 29.3455L34.338 25.0643L30.7975 24.0222Z" fill="#F6851B"/>
<path fill-rule="evenodd" clip-rule="evenodd" d="M30.759 23.9726C30.775 23.9603 30.7959 23.9563 30.8152 23.962L34.3557 25.0041C34.3782 25.0107 34.3952 25.0293 34.3996 25.0524L35.2283 29.3336C35.233 29.3581 35.2228 29.3831 35.2022 29.3973L34.5996 29.8116C34.577 29.8271 34.547 29.8262 34.5254 29.8093L30.8593 26.9468C30.8447 26.9354 30.8359 26.9181 30.8352 26.8995L30.7348 24.0244C30.7341 24.0043 30.7431 23.985 30.759 23.9726ZM30.8633 24.107L30.9597 26.8659L34.5664 29.6821L35.0972 29.3171L34.2836 25.1137L30.8633 24.107Z" fill="#F6851B"/>
<path d="M39.5483 33.7021L39.586 32.5344L39.2721 32.2582H34.5389L34.2501 32.5344L34.2752 33.7021L30.3204 31.8314L31.7015 32.9613L34.5012 34.9073H39.3098L42.1221 32.9613L43.5031 31.8314L39.5483 33.7021Z" fill="#C0AD9E"/>
<path fill-rule="evenodd" clip-rule="evenodd" d="M30.2673 31.7979C30.2843 31.771 30.3186 31.7611 30.3472 31.7747L34.2103 33.6019L34.1873 32.5358C34.187 32.5182 34.194 32.5013 34.2067 32.4891L34.4955 32.2129C34.5072 32.2017 34.5227 32.1955 34.5389 32.1955H39.2721C39.2873 32.1955 39.3021 32.2011 39.3135 32.2111L39.6274 32.4873C39.6415 32.4997 39.6493 32.5178 39.6487 32.5365L39.6143 33.6014L43.4762 31.7747C43.5049 31.7611 43.5392 31.771 43.5561 31.7979C43.5731 31.8247 43.5674 31.8599 43.5428 31.88L42.1618 33.0099C42.1605 33.011 42.1591 33.012 42.1578 33.013L39.3455 34.959C39.335 34.9662 39.3225 34.9701 39.3097 34.9701H34.5012C34.4884 34.9701 34.4759 34.9662 34.4654 34.9589L31.6656 33.0129C31.6643 33.012 31.663 33.011 31.6617 33.0099L30.2807 31.88C30.2561 31.8599 30.2504 31.8247 30.2673 31.7979ZM30.7566 32.1072L31.7393 32.9112L34.5209 34.8446H39.2901L42.0842 32.9112L43.0669 32.1072L39.5751 33.7588C39.5553 33.7682 39.5321 33.7666 39.5138 33.7546C39.4956 33.7426 39.4848 33.7219 39.4855 33.7001L39.5222 32.562L39.2484 32.321H34.5641L34.3135 32.5607L34.338 33.7007C34.3384 33.7225 34.3276 33.7429 34.3094 33.7548C34.2911 33.7666 34.268 33.7681 34.2484 33.7588L30.7566 32.1072Z" fill="#C0AD9E"/>
<path d="M39.247 29.7598L38.6443 29.3455H35.1666L34.564 29.7598L34.2501 32.5345L34.5389 32.2583H39.2721L39.586 32.5345L39.247 29.7598Z" fill="#161616"/>
<path fill-rule="evenodd" clip-rule="evenodd" d="M35.131 29.2938C35.1415 29.2866 35.1539 29.2828 35.1666 29.2828H38.6443C38.657 29.2828 38.6694 29.2866 38.6799 29.2938L39.2825 29.7081C39.2973 29.7183 39.3071 29.7344 39.3093 29.7523L39.6482 32.5269C39.6514 32.5528 39.6383 32.5779 39.6152 32.59C39.5922 32.6022 39.564 32.5988 39.5445 32.5816L39.2484 32.3211H34.564L34.2935 32.5799C34.2744 32.5981 34.2459 32.6025 34.2222 32.5908C34.1985 32.579 34.1847 32.5537 34.1877 32.5275L34.5016 29.7528C34.5036 29.7347 34.5134 29.7184 34.5284 29.7081L35.131 29.2938ZM35.1861 29.4083L34.6231 29.7954L34.332 32.3693L34.4955 32.2129C34.5071 32.2018 34.5227 32.1955 34.5389 32.1955H39.2721C39.2873 32.1955 39.3021 32.2011 39.3135 32.2112L39.5036 32.3785L39.1881 29.7956L38.6248 29.4083H35.1861Z" fill="#161616"/>
<path d="M51.8521 15.1083L52.9193 9.98586L51.3248 5.22754L39.2469 14.1918L43.8923 18.1214L50.4585 20.0424L51.9149 18.3474L51.2871 17.8955L52.2915 16.979L51.5131 16.3763L52.5175 15.6105L51.8521 15.1083Z" fill="#763D16"/>
<path fill-rule="evenodd" clip-rule="evenodd" d="M51.3436 5.16762C51.3628 5.17365 51.378 5.1885 51.3843 5.20756L52.9788 9.96588C52.9823 9.97643 52.983 9.98774 52.9807 9.99863L51.9217 15.0821L52.5554 15.5603C52.571 15.5722 52.5803 15.5906 52.5803 15.6103C52.5804 15.6299 52.5712 15.6484 52.5556 15.6604L51.6162 16.3767L52.33 16.9293C52.3446 16.9406 52.3535 16.9579 52.3543 16.9764C52.355 16.9949 52.3475 17.0128 52.3339 17.0253L51.3866 17.8897L51.9516 18.2965C51.9658 18.3067 51.9752 18.3225 51.9772 18.34C51.9793 18.3575 51.974 18.375 51.9625 18.3883L50.5061 20.0832C50.4901 20.1019 50.4646 20.1095 50.4409 20.1026L43.8747 18.1817C43.8663 18.1792 43.8585 18.175 43.8518 18.1693L39.2064 14.2397C39.1918 14.2273 39.1836 14.2089 39.1842 14.1897C39.1848 14.1706 39.1942 14.1527 39.2096 14.1413L51.2874 5.1771C51.3036 5.16512 51.3245 5.16159 51.3436 5.16762ZM39.348 14.1949L43.9227 18.0649L50.4373 19.9707L51.8227 18.3584L51.2505 17.9464C51.2351 17.9353 51.2256 17.9179 51.2245 17.8991C51.2234 17.8802 51.2309 17.8618 51.2448 17.8491L52.1941 16.9829L51.4747 16.4259C51.4593 16.414 51.4503 16.3956 51.4504 16.3761C51.4504 16.3566 51.4596 16.3382 51.4751 16.3264L52.4137 15.6107L51.8143 15.1583C51.7949 15.1437 51.7857 15.1192 51.7907 15.0954L52.8544 9.98966L51.2928 5.32947L39.348 14.1949Z" fill="#763D16"/>
<path d="M20.9042 9.98586L21.9713 15.1083L21.2934 15.6105L22.2978 16.3763L21.5319 16.979L22.5363 17.8955L21.9086 18.3474L23.3524 20.0424L29.9186 18.1214L34.5639 14.1918L22.4861 5.22754L20.9042 9.98586Z" fill="#763D16"/>
<path fill-rule="evenodd" clip-rule="evenodd" d="M22.4672 5.16764C22.4864 5.16159 22.5074 5.1651 22.5235 5.1771L34.6014 14.1413C34.6168 14.1527 34.6261 14.1706 34.6267 14.1897C34.6273 14.2089 34.6191 14.2273 34.6045 14.2397L29.9592 18.1693C29.9525 18.175 29.9447 18.1792 29.9363 18.1817L23.37 20.1026C23.3463 20.1095 23.3207 20.1019 23.3046 20.083L21.8608 18.3881C21.8494 18.3748 21.8442 18.3573 21.8463 18.3399C21.8484 18.3224 21.8577 18.3067 21.8719 18.2965L22.4369 17.8897L21.4896 17.0253C21.476 17.0129 21.4685 16.9951 21.4692 16.9766C21.4699 16.9582 21.4786 16.941 21.4931 16.9296L22.1953 16.3771L21.2553 15.6604C21.2397 15.6484 21.2305 15.6297 21.2306 15.61C21.2308 15.5903 21.2402 15.5717 21.256 15.56L21.9017 15.0817L20.8428 9.99863C20.8405 9.98779 20.8411 9.97654 20.8446 9.96602L22.4266 5.20771C22.4329 5.1886 22.448 5.1737 22.4672 5.16764ZM22.5183 5.32959L20.9691 9.98958L22.0328 15.0954C22.0378 15.1194 22.0284 15.1441 22.0087 15.1587L21.3979 15.6112L22.3359 16.3264C22.3513 16.3381 22.3604 16.3564 22.3606 16.3758C22.3607 16.3952 22.3519 16.4136 22.3366 16.4256L21.629 16.9825L22.5787 17.8491C22.5926 17.8618 22.6001 17.8802 22.599 17.8991C22.5979 17.9179 22.5884 17.9353 22.573 17.9464L22.0006 18.3586L23.3738 19.9707L29.8883 18.0649L34.463 14.1949L22.5183 5.32959Z" fill="#763D16"/>
<path d="M50.4585 20.0423L43.8923 18.1214L45.8885 21.122L42.913 26.8973L46.8302 26.8471H52.6682L50.4585 20.0423Z" fill="#F6851B"/>
<path fill-rule="evenodd" clip-rule="evenodd" d="M43.8417 18.0842C43.8573 18.063 43.8846 18.0538 43.9099 18.0612L50.4762 19.9821C50.4961 19.9879 50.5118 20.0032 50.5182 20.0229L52.7279 26.8277C52.7341 26.8468 52.7308 26.8678 52.719 26.884C52.7072 26.9003 52.6883 26.9099 52.6682 26.9099H46.8301L42.9138 26.9601C42.8918 26.9604 42.8712 26.9491 42.8596 26.9304C42.848 26.9116 42.8471 26.8882 42.8572 26.8686L45.8158 21.1261L43.84 18.1562C43.8254 18.1342 43.8261 18.1055 43.8417 18.0842ZM44.0399 18.23L45.9408 21.0873C45.9534 21.1063 45.9548 21.1306 45.9443 21.1508L43.0166 26.8332L46.8301 26.7843L52.5818 26.7843L50.4091 20.0933L44.0399 18.23Z" fill="#F6851B"/>
<path d="M29.9186 18.1214L23.3524 20.0423L21.1678 26.8471H26.9933L30.8979 26.8973L27.935 21.122L29.9186 18.1214Z" fill="#F6851B"/>
<path fill-rule="evenodd" clip-rule="evenodd" d="M29.9692 18.0842C29.9848 18.1054 29.9856 18.1341 29.971 18.1561L28.0076 21.1261L30.9538 26.8687C30.9638 26.8883 30.9629 26.9117 30.9513 26.9304C30.9397 26.9491 30.9192 26.9604 30.8971 26.9601L26.9934 26.9099H21.1679C21.1478 26.9099 21.129 26.9003 21.1172 26.8841C21.1053 26.8679 21.102 26.847 21.1081 26.8279L23.2927 20.0231C23.299 20.0033 23.3148 19.9879 23.3348 19.9821L29.901 18.0612C29.9263 18.0538 29.9535 18.063 29.9692 18.0842ZM23.402 20.0932L21.254 26.7843H26.9942L30.7945 26.8332L27.8791 21.1507C27.8688 21.1305 27.8701 21.1064 27.8826 21.0874L29.7718 18.2298L23.402 20.0932Z" fill="#F6851B"/>
<path d="M38.8326 21.4359L39.2469 14.1918L41.1553 9.03168H32.6807L34.564 14.1918L35.0034 21.4359L35.154 23.7209L35.1666 29.3455H38.6443L38.6694 23.7209L38.8326 21.4359Z" fill="#F6851B"/>
<path fill-rule="evenodd" clip-rule="evenodd" d="M32.6293 8.99566C32.6411 8.97887 32.6603 8.96887 32.6808 8.96887H41.1553C41.1759 8.96887 41.1951 8.97892 41.2068 8.99577C41.2186 9.01263 41.2213 9.03416 41.2142 9.05342L39.3091 14.2047L38.8953 21.4395L38.8953 21.4404L38.7322 23.7233L38.7071 29.3458C38.707 29.3804 38.6789 29.4083 38.6443 29.4083H35.1666C35.132 29.4083 35.1039 29.3803 35.1039 29.3457L35.0913 23.7231L34.9408 21.44L34.9408 21.4397L34.5019 14.2047L32.6218 9.05317C32.6148 9.03392 32.6176 9.01245 32.6293 8.99566ZM32.7705 9.09442L34.623 14.1702C34.625 14.1759 34.6263 14.1819 34.6267 14.1879L35.0661 21.4318L35.0661 21.4321L35.2167 23.7168C35.2168 23.7181 35.2168 23.7194 35.2168 23.7208L35.2293 29.2827H38.5818L38.6067 23.7206C38.6067 23.7192 38.6067 23.7178 38.6068 23.7164L38.77 21.4323L38.77 21.4314L39.1843 14.1881C39.1847 14.1819 39.1859 14.1758 39.1881 14.1699L41.0652 9.09442H32.7705Z" fill="#F6851B"/>
</svg>
