<?xml version="1.0" encoding="utf-8"?>
<!-- Generator: Adobe Illustrator 26.0.1, SVG Export Plug-In . SVG Version: 6.00 Build 0)  -->
<svg version="1.1" id="Layer_1" xmlns="http://www.w3.org/2000/svg" xmlns:xlink="http://www.w3.org/1999/xlink" x="0px" y="0px"
	 viewBox="0 0 1911 796" style="enable-background:new 0 0 1911 796;" xml:space="preserve">
<style type="text/css">
	.st0{clip-path:url(#SVGID_00000022526930083847005950000013978509303335397303_);}
	.st1{fill:url(#SVGID_00000134225559241488277680000006802598764036362373_);}
	.st2{opacity:0.74;fill:url(#SVGID_00000052103294221888534650000013030697786276760486_);enable-background:new    ;}
	.st3{opacity:0.74;fill:url(#SVGID_00000066476334172394173100000005070822613699276675_);enable-background:new    ;}
</style>
<g>
	<defs>
		<rect id="SVGID_1_" x="-1" width="1912" height="2092"/>
	</defs>
	<clipPath id="SVGID_00000133504570206306928430000002176691227763627957_">
		<use xlink:href="#SVGID_1_"  style="overflow:visible;"/>
	</clipPath>
	<g style="clip-path:url(#SVGID_00000133504570206306928430000002176691227763627957_);">
		
			<linearGradient id="SVGID_00000068664431771582137570000015917856619407611778_" gradientUnits="userSpaceOnUse" x1="3068.8984" y1="-546.9073" x2="3003.1885" y2="103.5396" gradientTransform="matrix(-1 0 0 1 3994 644)">
			<stop  offset="0.1678" style="stop-color:#2D0068"/>
			<stop  offset="1" style="stop-color:#170036;stop-opacity:1.000000e-02"/>
		</linearGradient>
		<rect style="fill:url(#SVGID_00000068664431771582137570000015917856619407611778_);" width="1911" height="796"/>
		
			<radialGradient id="SVGID_00000079488044886300145650000007306745421785768889_" cx="21.2191" cy="1551.8489" r="1" gradientTransform="matrix(-795.9488 -138.3142 -76.7886 441.8907 136595.9375 -682810.625)" gradientUnits="userSpaceOnUse">
			<stop  offset="0" style="stop-color:#6B00FA"/>
			<stop  offset="0.3542" style="stop-color:#6B00FA;stop-opacity:0.54"/>
			<stop  offset="1" style="stop-color:#6B00FA;stop-opacity:0"/>
		</radialGradient>
		<path style="opacity:0.74;fill:url(#SVGID_00000079488044886300145650000007306745421785768889_);enable-background:new    ;" d="
			M34.1,86.8c33.5-7.8,74.9-4.7,114.3,1.5c69.3,11.1,137.2,32.5,194.5,61.5c54.4,27.5,98.6,60.9,150.5,90
			c51.6,29,115.8,54.7,181.2,57.6c5.1,0.3,11.2-0.1,12-3c0.4-1.8-1.8-3.8-4.4-5.5c-15.4-10.4-38-16.6-59.3-21.4
			c-21.4-4.8-43.9-9.4-62.2-18.1c-18.6-8.8-32.1-23.3-25.4-34.3c25.4,19.7,63.4,33,100.8,43.4c37.4,10.5,76.6,19.3,110.9,33.8
			c34.4,14.4,64.5,36.2,67.6,58.6c1.2,8.6-2.8,17.5-15.4,20.6c-9.9,2.4-22.7,0.6-34.3-1.4c-107.8-18.7-209.7-55.1-315.9-79.2
			c-7.9-1.9-16.4-3.6-24-3.1c-7.5,0.6-14.5,4-13.1,8.6c0.5,2,2.4,3.9,4.3,5.7c71.3,67.7,197.7,119.1,324.9,132.2
			c-62.4,6.4-132.9-2.7-196.1-21.7c-63.2-19-119.7-47.5-166.7-79.6c-42.2-28.7-78.1-60.7-127.4-85.4
			c-67.8-33.9-158.2-50.9-235.5-43.9c-10.5,1-26.6,0-28.7-6.6c-0.3-1.3-0.1-2.7,0.7-3.8c5.4-10.4,22.9-16.7,42.1-18.5
			c19.2-1.6,40.1,0.8,60.4,3.9c77.2,11.7,151.8,33.5,224.4,57.2c42.2,13.7,87.9,28.6,131,25.9c4.3-0.2,8.7-0.7,11-2.5
			c4.6-3.3,0.3-9-4.3-13.2c-38.7-35.3-107.2-57.7-173.4-71.9c-69.4-14.8-140.7-23-210.2-24.2c-39.3-0.7-78.4,0.9-118.3-4.3
			c-39.9-5.2-82.1-18.7-103.1-40.4C-81.5,118-7.1,109.7,39.3,83.9"/>
		
			<radialGradient id="SVGID_00000092416628166822563210000005959663687251311516_" cx="21.222" cy="1551.6552" r="1" gradientTransform="matrix(-838.4351 -167.3532 -74.4805 373.1454 135038.0781 -574689.25)" gradientUnits="userSpaceOnUse">
			<stop  offset="0" style="stop-color:#6B00FA"/>
			<stop  offset="0.3542" style="stop-color:#6B00FA;stop-opacity:0.54"/>
			<stop  offset="1" style="stop-color:#6B00FA;stop-opacity:0"/>
		</radialGradient>
		<path style="opacity:0.74;fill:url(#SVGID_00000092416628166822563210000005959663687251311516_);enable-background:new    ;" d="
			M1206.1,510.7c30.2,17.6,72.2,29.5,113.5,38.3c72.6,15.3,147.8,22.1,215.2,19.4c64.1-2.6,120.3-13.3,182.4-18
			c61.8-4.8,134.9-2.6,200.7,17.8c5.1,1.6,11,3.9,10.7,6.5c-0.3,1.5-3.2,2.3-6.4,2.8c-19.2,2.8-43.7-0.2-66.6-3.9
			c-22.9-3.6-46.9-7.9-68.3-7.4c-21.7,0.4-40.5,7-38,17.9c32.5-6.6,75-3.8,115.9,1c40.9,4.8,82.9,11.4,122.3,12
			c39.4,0.7,77.3-5.9,88.8-22.2c4.4-6.3,3.8-14.6-7.5-21.3c-8.9-5.3-22.2-8.3-34.4-10.8c-113.6-22.7-227.9-29.6-341.9-47.5
			c-8.5-1.3-17.6-2.8-24.8-5.9c-7.2-3.1-12.8-8.1-9.7-11.2c1.2-1.4,3.8-2.2,6.4-2.9c95.8-28,240-24.3,370.6,9.4
			c-59.2-26.5-132.3-43.8-201.9-50.8c-69.6-7-136.1-4.4-194.6,4.3c-52.5,7.7-99.9,20.2-157.8,22.4c-79.7,3-175.4-15.1-249.2-47.2
			c-10-4.4-26.3-9.1-30.9-4.8c-0.8,0.9-1.1,2.1-0.7,3.2c1.5,10,16.4,20.9,34.7,28.9c18.3,7.8,40,13.2,61.1,17.9
			c80.6,17.6,162.6,26.4,243.2,33c46.8,4,97.6,8.2,139.2,25.1c4.2,1.6,8.3,3.6,10,5.8c3.3,4.2-3.1,7.1-9.2,8.8
			c-51.4,14.1-127.6,7.8-198.2-4c-74.1-12.5-147.7-30.7-216.8-53.8c-39.1-13.1-77.2-27.8-118.5-37.5c-41.3-9.7-88.2-13.8-117-4.2
			c75.2,14.9,145.6,47,181.8,83"/>
	</g>
</g>
</svg>
