<svg width="267" height="383" viewBox="0 0 267 383" fill="none" xmlns="http://www.w3.org/2000/svg">
<g clip-path="url(#clip0_2443_130972)">
<path d="M29.568 273.823C30.9524 253.056 30.5569 231.696 33.0291 210.435C34.4136 198.865 36.8858 187.394 37.8747 175.824C39.1602 160.002 37.578 144.18 37.1825 128.258C37.0836 123.611 36.5891 118.963 37.7758 114.315C38.3691 111.942 39.2591 109.47 41.7313 108.975C45.9836 107.986 44.7969 105.613 43.9069 103.042C42.918 100.174 42.028 97.3062 40.9402 94.5373C35.0069 80.0006 40.0502 66.9473 47.2691 54.6851C53.4002 44.2029 61.4102 34.8084 69.8158 26.0073C79.2102 16.1184 90.8791 11.174 104.625 10.9762C107.196 10.9762 109.767 10.8773 112.437 10.6795C113.722 10.5806 115.008 10.5806 116.392 10.4817C117.579 10.3829 118.865 10.4818 120.051 10.284C120.447 10.1851 120.842 10.0862 121.238 9.9873C121.93 9.9873 122.622 10.1851 123.216 10.1851C124.699 10.3829 126.084 10.5806 127.567 10.8773C130.435 11.3718 133.302 11.8662 136.17 12.4595C141.906 13.5473 147.542 14.9317 153.179 16.4151C156.245 17.2062 159.31 18.0962 162.178 19.5795C167.419 22.4473 171.177 27.2929 176.22 30.4573C179.681 32.6329 183.538 33.9184 186.702 36.4895C190.262 39.3573 192.537 43.4118 194.712 47.4662C197.086 51.8173 199.459 56.1684 201.041 60.9151C201.437 62.1018 201.832 63.3873 202.129 64.574C203.316 69.6173 203.909 74.7595 204.502 79.9018C205.096 84.9451 205.788 90.0873 207.469 94.9329C207.865 96.1195 208.359 97.3062 208.854 98.4929C209.051 98.9873 209.348 99.4818 209.447 99.9762C209.447 100.668 209.348 101.361 209.348 102.053C209.249 116.985 207.964 131.818 207.667 146.751C207.172 170.88 205.491 195.008 202.821 219.038C202.327 223.291 202.92 227.444 203.909 231.498C206.777 243.563 207.667 255.627 205.887 268.087C204.404 278.57 204.404 289.348 203.711 300.028C203.415 304.775 200.844 306.753 196.196 306.852C190.757 306.951 185.812 304.676 180.374 304.577C172.759 304.38 165.441 306.16 158.025 306.951C145.565 308.137 133.5 305.863 121.238 304.38C119.062 304.182 116.986 303.193 114.81 303.292C112.536 303.292 110.36 303.391 108.086 303.292C106.998 303.193 105.91 303.193 104.822 302.896C104.13 302.698 103.636 302.402 102.944 302.303C99.9769 302.006 97.0102 302.006 94.0436 301.808C91.0769 301.71 88.1102 301.512 85.1436 301.413C79.2102 301.116 73.178 300.918 67.2447 300.721C61.3113 300.523 55.2791 300.325 49.3458 300.127C47.8624 300.127 46.3791 300.028 44.8958 300.028C43.5113 300.028 41.9291 299.732 40.5447 299.93C40.1491 300.028 39.7536 300.226 39.4569 300.325C38.0724 300.721 36.3913 300.523 35.0069 300.226C30.6558 299.04 29.568 294.392 29.4691 290.436C29.3702 287.766 29.6669 285.096 29.7658 282.426C29.6669 279.756 29.568 277.086 29.568 273.823Z" fill="#6B00FA" stroke="black" stroke-width="0.5" stroke-miterlimit="10"/>
<path d="M212.017 356.791C211.226 361.933 211.918 367.768 210.435 373.305C209.842 375.481 209.347 377.558 206.974 378.448C204.7 379.239 203.117 378.25 202.03 376.272C201.238 374.888 199.854 374.986 198.47 374.888C187.295 374.195 176.121 373.503 165.045 372.91C126.874 370.932 88.8018 368.954 50.6307 366.976C39.9507 366.482 29.2707 366.185 18.5907 365.592C15.723 365.394 9.9874 365.592 9.29517 361.735C9.0974 360.549 8.40517 359.56 8.1085 358.373C7.41628 355.901 7.3174 353.231 7.3174 350.66C7.11962 344.726 7.02073 338.694 6.82295 332.761C6.82295 331.772 6.82295 330.783 6.72406 329.794C6.72406 329.102 6.52629 328.706 6.22962 328.212C5.5374 326.729 6.13072 325.048 7.11961 323.861C8.40517 322.279 10.1852 321.586 12.0641 322.378C18.1952 324.652 24.6229 324.158 30.8529 324.553C60.1241 326.234 89.494 327.52 118.864 328.904C145.564 330.19 172.165 331.574 198.865 332.959C208.062 333.453 211.622 337.211 211.622 346.506C211.622 349.77 211.82 353.033 212.017 356.791Z" fill="#6B00FA" stroke="black" stroke-width="0.5" stroke-miterlimit="10"/>
<path d="M56.0692 45.093C56.8603 44.0052 57.6514 42.9174 58.5414 41.8296C60.2225 39.8518 62.0025 37.973 63.7825 36.193C64.2769 35.6985 64.6725 35.303 65.1669 34.8085C65.3647 34.6107 65.5625 34.6107 65.7603 34.413C66.4525 33.9185 67.0458 33.1274 67.6391 32.5341C72.0891 27.8863 76.7369 23.3374 82.3736 20.173C91.3725 15.1296 100.569 11.7674 111.249 12.163C113.425 12.2618 115.6 12.2618 117.677 12.163C118.765 12.163 119.852 12.0641 120.94 11.9652C121.929 11.8663 123.116 12.0641 124.006 11.7674C129.445 9.9874 134.982 8.70184 140.619 7.81184C143.487 7.41629 146.256 7.11962 149.124 6.92184C150.508 6.82295 151.991 6.72406 153.376 6.72406C153.87 6.72406 154.365 6.72407 154.958 6.82295C155.848 6.82295 156.738 6.4274 157.628 6.22962C160.99 5.43851 164.254 5.93295 167.319 7.21851C177.01 11.273 187.492 12.7563 197.282 16.7118C201.535 18.393 205.787 20.0741 209.94 22.0518C210.039 22.0518 210.138 22.1507 210.237 22.1507C214.192 24.1285 217.654 26.9963 219.73 30.9518C219.928 31.4463 220.225 31.9407 220.422 32.4352C220.62 32.9296 220.719 33.4241 220.917 33.9185C221.51 35.0063 222.301 36.0941 223.092 36.9841C224.675 38.863 226.554 40.5441 228.432 42.2252C230.015 43.6096 231.696 45.093 233.08 46.7741C233.772 47.5652 234.465 48.4552 235.058 49.3452C235.355 49.7407 235.651 50.2352 235.849 50.7296C236.64 52.9052 237.926 54.8829 238.618 57.0585C240.101 61.9041 241.387 66.7496 242.574 71.5952C243.958 77.133 245.046 82.6707 245.837 88.2085C246.628 93.7463 247.221 99.4818 247.32 105.119C247.419 107.986 247.419 110.854 247.32 113.623C247.221 115.007 247.221 116.491 247.122 117.974C247.024 119.359 247.122 120.842 247.221 122.226C247.419 128.16 247.617 134.192 247.716 140.125C247.815 146.059 247.815 152.091 247.815 158.024C247.815 163.957 247.617 169.99 247.518 175.923C247.419 178.89 247.32 181.856 247.221 184.922C247.221 185.515 247.122 186.01 247.024 186.603C247.024 186.999 247.122 187.394 247.122 187.79C247.221 188.68 247.32 189.471 247.419 190.361C247.617 192.042 247.716 193.822 247.815 195.503C248.21 202.623 247.617 209.842 246.232 216.863C243.76 229.125 244.551 241.684 244.156 254.144C243.859 264.132 242.87 274.12 242.969 284.107C242.969 287.47 241.585 289.942 238.42 290.931C231.3 293.205 224.971 296.864 218.445 300.424C216.368 301.512 214.291 302.204 211.918 302.204C207.171 302.204 205.787 301.017 205.589 296.172C205.095 284.305 207.369 272.636 208.061 260.868C208.457 253.65 208.754 246.53 206.677 239.41C205.787 236.443 205.589 233.279 205.787 230.114C206.677 218.742 208.16 207.271 208.259 195.899C208.457 177.209 211.424 158.716 211.72 140.026C211.819 129.544 211.72 119.062 211.918 108.58C211.918 104.13 211.325 99.7785 210.534 95.4274C210.138 92.8563 209.742 90.3841 209.644 87.813C209.644 86.8241 209.742 85.8352 209.644 84.8463C209.545 83.8574 209.248 82.9674 208.556 82.2752C207.765 81.4841 206.875 80.9896 205.985 80.3963C204.897 79.7041 203.908 78.8141 203.117 77.9241C202.622 77.3307 202.227 76.7374 201.436 76.3418C200.447 75.9463 199.458 75.7485 198.667 75.0563C197.975 74.4629 197.579 73.7707 197.184 72.9796C196.491 71.3974 196.392 69.7163 196.096 68.1341C195.799 66.8485 195.601 65.563 195.008 64.3763C193.92 62.2007 192.041 60.7174 189.569 60.6185C187.196 60.6185 186.009 62.4974 185.02 64.4752C181.658 71.3974 181.46 71.4963 173.351 70.6063C172.56 70.5074 171.571 70.3096 170.879 70.6063C166.825 72.3863 163.759 72.2874 160.694 68.0352C159.111 65.8596 155.354 67.5407 153.574 69.8152C151.002 73.1774 148.234 76.4407 147.344 80.7918C146.948 82.6707 146.256 84.8463 143.685 84.8463C141.509 84.7474 140.916 82.7696 140.224 81.1874C138.839 78.023 138.048 74.6607 138.048 71.1996C138.246 65.1674 135.774 60.0252 132.609 55.1796C130.928 52.6085 128.752 51.2241 125.588 52.5096C124.698 52.9052 123.511 53.2018 122.72 52.9052C114.611 50.0374 107.392 54.2896 99.8769 55.773C97.6025 56.2674 95.6247 55.773 94.5369 53.4985C93.6469 51.7185 92.7569 50.0374 91.9658 48.1585C90.0869 43.6096 86.7247 42.6207 82.868 45.7852C80.8903 47.4663 79.1103 49.3452 76.5391 50.3341C70.8036 52.5096 68.7269 51.323 68.2325 45.2907C68.1336 44.4996 68.3314 43.6096 67.3425 42.7196C65.0681 44.8952 62.2003 46.9718 61.1125 49.9385C57.6514 59.2341 50.9269 66.5518 46.378 75.2541C44.598 78.6163 43.5103 82.3741 43.2136 86.2307C43.1147 87.1207 43.0158 88.0107 43.0158 88.9007C43.0158 89.0985 43.0158 89.2963 42.818 89.3952C42.6203 89.4941 42.4225 89.3952 42.3236 89.1974C41.928 88.8018 41.4336 88.3074 41.4336 87.813C41.4336 87.3185 41.5325 86.7252 41.5325 86.1319C41.5325 84.7474 41.7303 83.2641 41.928 81.8796C42.3236 79.1107 43.0158 76.3418 43.9058 73.6718C44.0047 73.4741 44.1036 73.1774 44.1036 72.9796C44.4992 71.793 45.1914 70.5074 45.488 69.3207C45.5869 68.9252 45.5869 68.5296 45.6858 68.1341C45.7847 67.5407 46.1803 66.9474 46.4769 66.4529C47.7625 63.8818 48.9492 61.3107 50.0369 58.5418C50.9269 56.2674 51.5203 53.993 52.5092 51.7185C53.3992 49.3452 54.5858 47.1696 56.0692 45.093ZM193.129 41.4341C192.931 41.2363 192.734 40.8407 192.437 40.8407C192.041 40.7418 191.942 41.0385 192.239 41.4341C192.437 41.6318 192.734 41.9285 192.931 42.0274C193.327 42.1263 193.426 41.8296 193.129 41.4341Z" fill="#4300BF"/>
<path d="M79.21 328.212C77.3311 328.113 75.3534 328.707 73.3756 329.893C72.2878 330.585 71.0023 330.981 69.8156 331.574C66.6511 333.453 63.9811 333.157 61.8056 329.992C60.4211 328.014 58.5423 326.333 56.3667 325.048C49.3456 320.894 42.4234 321.784 37.4789 328.311C34.0178 332.86 30.5567 334.64 24.92 332.563C21.4589 331.278 18.69 333.255 16.7122 336.321C15.5256 338.101 14.6356 339.98 13.9434 341.958C13.6467 342.947 13.2511 343.935 13.0534 344.924C12.9545 345.419 12.9545 345.715 12.5589 346.012C12.2622 346.309 11.8667 346.408 11.4711 346.507C10.3834 346.803 9.29558 347.001 8.20781 347.001C7.71336 347.001 7.21892 347.001 6.82336 346.704C6.03225 346.21 6.03225 345.122 6.03225 344.232C6.03225 342.749 6.03225 341.167 6.03225 339.683C6.03225 339.09 6.13114 338.595 6.23003 338.101C6.42781 336.914 6.03225 335.431 5.83447 334.244C5.63669 332.662 5.34003 331.08 5.24114 329.399C5.14225 328.014 5.04336 326.63 5.24114 325.245C5.34003 324.158 5.5378 323.07 5.5378 321.982C5.63669 319.807 8.40558 318.224 9.9878 317.137C11.7678 315.95 13.5478 314.763 15.4267 313.774C16.7122 313.082 17.9978 312.588 19.0856 311.599C20.1734 310.61 20.8656 309.324 22.0523 308.434C22.5467 308.138 22.9423 307.742 23.3378 307.347C24.1289 306.654 25.1178 306.16 26.0078 305.665C27.7878 304.578 29.6667 303.589 31.4467 302.501C34.5123 300.721 37.5778 300.424 41.2367 301.413C45.2911 302.501 49.6423 302.501 53.8945 302.402C61.1134 302.204 68.3322 302.501 75.5511 303.193C77.3311 303.391 79.1111 303.589 80.7923 303.787C81.5834 303.885 82.2756 303.984 82.9678 303.984C83.66 303.885 84.4511 303.984 85.1434 303.885C88.11 303.787 91.0767 303.787 94.0434 303.787C99.9767 303.787 105.91 303.984 111.843 304.38C114.118 304.479 116.392 304.677 118.667 304.874C120.348 305.072 122.029 305.171 123.71 305.665C124.996 305.962 126.281 306.457 127.567 306.753C128.16 306.852 128.852 306.951 129.544 306.951C130.138 306.951 130.731 306.753 131.324 306.654C132.709 306.457 134.291 306.654 135.774 306.654C137.258 306.654 138.741 306.654 140.224 306.654C145.663 306.753 151.102 307.05 156.541 307.643C169.1 309.028 181.758 307.841 194.317 309.423C197.086 309.72 199.657 311.302 201.733 313.181C202.722 314.071 203.513 315.06 204.403 316.049C204.601 316.247 204.7 316.345 204.799 316.642C205.392 317.829 205.887 319.213 206.381 320.499C207.37 323.07 208.062 325.74 208.656 328.509C208.952 329.893 209.051 331.278 209.348 332.662C209.546 333.552 209.941 334.244 210.238 335.035C210.633 336.123 210.436 337.211 210.436 338.299C210.436 339.782 210.436 341.167 210.436 342.65C210.534 348.385 210.831 354.22 209.743 359.955C209.644 360.351 209.546 360.845 209.447 361.241C209.15 362.428 209.348 364.208 207.667 364.307C206.282 364.405 205.392 363.12 204.601 362.131C202.524 359.659 202.03 356.494 201.338 353.528C199.36 345.122 193.723 340.375 185.021 340.079C183.241 340.079 181.857 339.584 180.472 338.595C178.989 337.607 177.11 336.618 175.429 337.211C170.583 338.694 166.529 336.717 162.277 334.937C156.838 332.662 151.597 333.552 146.751 336.321C142.004 339.09 137.851 338.595 133.5 335.53C127.764 331.574 123.018 331.97 117.974 336.519C115.799 338.497 113.821 340.672 111.942 342.947C109.371 346.21 107.097 346.111 104.328 343.045C102.449 340.87 101.46 338.299 100.273 335.827C97.7022 330.684 95.7245 329.893 90.1867 331.377C88.0111 331.97 86.1322 332.168 84.2534 330.487C82.5723 329.003 80.8911 328.311 79.21 328.212ZM187.296 328.41C161.387 321.784 134.786 325.839 108.679 322.773C108.679 323.465 108.58 324.158 108.58 324.85C134.884 325.344 161.09 327.223 187.296 328.41ZM199.063 327.817C196.492 327.817 195.009 327.817 193.526 327.817C195.207 328.707 196.69 328.805 199.063 327.817ZM80.99 324.85C80.1 324.949 79.0122 323.861 78.32 325.245C79.3089 325.542 80.1989 325.938 80.99 324.85Z" fill="#4300BF"/>
<path d="M214.489 350.264C214.489 345.715 214.489 341.067 214.489 336.518C214.489 333.354 215.874 331.079 218.544 329.2C224.873 324.553 232.19 322.179 239.409 319.509C243.167 318.125 246.826 316.839 249.892 314.268C251.968 312.587 254.342 311.994 256.715 313.279C259.088 314.466 259.583 316.839 259.385 319.213C258.791 326.53 259.978 333.947 258.89 341.265C258.396 344.33 257.506 347 255.034 348.879C244.947 356.593 233.773 362.427 222.994 368.954C218.643 371.624 214.786 369.152 214.489 363.91C214.193 359.46 214.489 354.912 214.489 350.264Z" fill="#4300BF" stroke="black" stroke-width="0.5" stroke-miterlimit="10"/>
<path d="M49.7419 261.957C50.1374 261.66 50.533 261.462 50.9285 261.264C52.0163 260.671 53.1041 260.374 54.1919 259.781C53.203 261.067 51.7196 261.759 50.6318 262.946C49.4452 264.429 49.0496 266.407 47.7641 267.791C46.6763 269.176 44.9952 269.868 43.413 270.56C42.1274 271.055 40.8418 271.648 39.5563 272.241C38.1718 272.834 36.7874 273.428 35.3041 273.428C35.3041 272.34 35.3041 271.351 35.2052 270.263C35.2052 270.164 35.2052 270.066 35.2052 269.967C35.3041 269.274 35.403 268.582 35.5018 267.989C35.6007 266.604 35.6996 265.121 35.6007 263.737C35.5018 261.067 35.2052 258.397 35.0074 255.727C34.2163 246.827 34.1174 237.729 35.8974 228.829C37.5785 220.423 36.9852 211.82 37.4796 203.316C38.1718 191.746 41.4352 180.472 41.3363 168.803C41.2374 164.057 42.0285 159.31 41.5341 154.563C40.1496 141.51 41.1385 128.358 40.743 115.304C40.743 114.711 40.8419 114.217 40.8419 113.623C40.8419 113.327 40.8418 113.129 41.0396 113.03C41.3363 112.832 41.633 112.733 41.9296 112.634C42.523 112.338 43.2152 112.041 43.8085 111.843C45.0941 111.448 46.3796 111.25 47.6652 111.744H47.7641C48.753 112.14 49.643 112.832 50.3352 113.623C51.1263 114.513 51.8185 115.502 51.9174 116.59C52.1152 117.974 51.423 119.359 50.6318 120.546C49.8407 121.732 48.9507 122.919 48.5552 124.204C48.4563 124.402 48.4563 124.6 48.4563 124.798C48.5552 125.094 48.8519 125.391 49.0496 125.589C49.643 126.083 50.1374 126.578 50.7307 127.072C51.1263 127.468 51.8185 127.764 52.0163 128.259C52.2141 128.654 52.313 129.149 52.4118 129.643C52.6096 130.336 52.8074 130.929 52.9063 131.621C53.0052 132.412 53.1041 133.203 53.1041 133.994C53.1041 134.291 53.0052 134.588 53.1041 134.884C53.203 135.082 53.203 135.379 53.203 135.676C53.3019 136.17 53.4007 136.763 53.5985 137.258C53.9941 138.346 54.4885 139.334 54.983 140.224C55.7741 141.906 56.6641 143.686 56.3674 145.663C55.9718 148.432 53.203 150.707 53.4007 153.476C53.203 152.783 52.5107 152.289 52.4118 151.498C52.313 151.102 52.5107 150.806 52.6096 150.41C53.1041 149.124 53.7963 147.938 54.5874 146.751C54.6863 146.553 54.8841 146.356 54.8841 146.158C54.8841 145.96 54.7852 145.762 54.7852 145.466C53.9941 143.389 53.203 141.411 52.5107 139.334C52.1152 138.247 51.6207 137.258 50.533 136.763C49.8407 136.467 48.9507 136.566 48.6541 137.357C48.5552 137.752 48.6541 138.247 48.6541 138.741C48.753 139.236 48.753 139.73 48.8518 140.126C48.9507 140.422 49.0496 140.818 49.1485 141.114C49.3463 141.807 49.3463 142.499 49.2474 143.191C49.1485 144.378 48.4563 145.564 47.4674 146.059C47.9618 143.686 47.863 141.114 46.973 138.84C46.8741 138.642 46.7752 138.346 46.7752 138.148C46.7752 137.95 46.8741 137.752 46.8741 137.653C47.1707 136.763 47.5663 135.972 48.0607 135.181C48.9507 133.698 50.2363 132.214 49.4452 130.434C48.9507 129.248 47.9619 128.457 47.0719 127.567C46.1819 126.578 45.2919 125.49 44.5996 124.402C44.5007 124.303 44.4018 124.106 44.4018 124.007C44.4018 123.809 44.5007 123.611 44.5996 123.512C45.193 122.523 45.8852 121.633 46.5774 120.644C46.8741 120.15 47.2696 119.754 47.6652 119.26C47.9618 118.864 48.8518 118.073 48.1596 117.579C47.1707 116.788 45.8852 116.392 44.5996 116.096C43.5119 115.898 42.7207 116.788 42.6219 117.777C42.4241 119.359 42.4241 121.04 42.523 122.622C43.1163 139.631 44.0063 156.64 42.3252 173.649C41.9296 177.802 41.5341 182.054 41.1385 186.208C40.743 190.658 40.3474 195.108 39.9518 199.657C39.853 201.437 39.6552 203.217 39.4574 205.096C39.3585 206.183 39.3585 207.271 39.1607 208.458C39.1607 208.754 38.963 209.051 38.963 209.447C38.8641 209.842 38.963 210.337 38.963 210.732C39.1607 212.908 39.2596 215.182 39.2596 217.358C39.2596 219.533 39.1607 221.808 39.0618 223.983C38.963 225.071 38.8641 226.159 38.7652 227.247C38.6663 227.741 38.6663 228.334 38.5674 228.829C38.4685 229.521 38.4685 230.312 38.3696 231.004C38.2707 232.29 38.073 233.477 37.8752 234.762C37.6774 235.652 37.5785 236.542 37.3807 237.333C36.9852 239.41 36.4907 241.586 36.3919 243.662C36.3919 244.157 36.3919 244.75 36.3919 245.244C36.3919 245.442 36.4907 245.64 36.4907 245.838C36.6885 246.827 36.5896 248.013 36.5896 249.002C36.5896 250.189 36.6885 251.376 36.6885 252.661C36.7874 255.628 36.9852 258.594 37.183 261.561C37.183 262.352 37.2818 263.044 37.2818 263.836C37.2818 264.231 37.2819 264.627 37.3807 264.923C37.3807 265.121 37.4796 265.319 37.4796 265.616C37.3807 267.099 37.2819 268.582 37.183 270.066C39.4574 269.176 41.8307 268.384 44.1052 267.494C44.6985 267.297 45.2918 267.099 45.6874 266.703C46.1818 266.308 46.3796 265.714 46.7752 265.121C47.4674 263.934 48.5552 262.748 49.7419 261.957Z" fill="#3E4E3E"/>
<path d="M160.992 303.094C160.794 302.6 161.091 301.908 161.585 301.413C162.376 300.721 163.365 300.523 164.255 300.128H164.354C166.431 299.139 168.705 298.644 170.584 297.359C175.429 294.194 180.473 292.711 186.307 293.205C191.252 293.601 194.119 290.733 195.702 285.591C197.284 280.548 196.691 275.208 197.877 270.065C198.569 267 198.965 263.934 200.943 261.363C202.426 259.287 202.031 257.012 202.129 254.738C202.129 252.463 202.129 250.189 202.228 247.914C202.228 247.42 202.129 246.728 202.228 246.233V246.035C202.327 245.936 202.426 245.937 202.624 245.937C203.415 246.035 204.008 246.826 204.206 247.519C204.503 248.409 204.503 249.299 204.503 250.189C204.404 257.507 204.206 264.824 203.415 272.142C203.118 274.417 202.822 276.79 202.624 279.064C202.426 281.635 202.327 284.207 202.327 286.778C202.228 289.744 202.228 292.81 202.129 295.777C202.031 298.348 202.031 300.919 202.426 303.49C202.426 303.688 198.866 304.38 198.569 304.38C197.284 304.578 195.899 304.775 194.614 304.874C191.944 305.072 189.175 304.973 186.505 304.874C180.967 304.578 175.528 303.787 169.991 303.49C168.606 303.391 167.222 303.391 165.837 303.391C165.145 303.391 164.453 303.391 163.761 303.49C163.167 303.49 162.376 303.688 161.783 303.589C161.387 303.49 161.189 303.292 160.992 303.094Z" fill="#100342"/>
<path d="M186.11 371.921C179.781 371.723 173.452 371.426 167.123 371.723C164.651 371.822 164.057 370.734 165.64 368.855C167.815 366.284 170.188 363.713 172.76 361.538C174.243 360.351 176.221 360.944 177.902 361.834C180.572 363.318 183.242 364.109 186.307 363.12C187.197 362.823 188.285 362.922 189.274 363.12C192.438 364.01 194.713 366.581 194.416 369.449C194.317 371.229 191.054 371.921 188.681 371.822C187.791 371.921 186.901 371.921 186.11 371.921Z" fill="#4300BF"/>
<path d="M72.9794 75.254C75.7483 80.2974 73.2761 84.6485 69.6172 88.7029C68.5294 89.8896 67.6394 91.7685 65.7605 91.0763C63.9805 90.2851 64.2772 88.3074 64.4749 86.7251C65.2661 81.3851 62.9916 75.8474 66.1561 70.7051C66.9472 69.4196 66.3538 67.0462 68.5294 66.9474C70.705 66.8485 72.1883 68.2329 72.7816 70.3096C73.1772 71.694 73.7705 73.0785 72.9794 75.254Z" fill="#100342"/>
<path d="M186.999 84.1539C186.9 88.0106 186.01 91.6694 182.549 94.3394C180.472 95.9217 178.791 95.9217 178.593 92.8561C178.396 90.4828 177.802 88.3072 176.616 86.4283C175.231 84.2528 175.132 82.6706 176.912 80.7917C179.286 78.2206 182.153 78.2206 185.021 79.0117C187.592 79.7039 186.801 82.0772 186.999 84.1539Z" fill="#100342"/>
<path d="M182.252 141.312C182.351 137.356 185.614 133.5 187.889 133.994C191.449 134.884 191.646 137.653 190.954 140.62C190.262 143.487 189.866 146.355 189.669 149.223C189.57 151.003 188.779 153.08 186.603 152.981C184.625 152.882 184.131 150.904 184.329 149.322C184.526 146.059 182.252 143.487 182.252 141.312Z" fill="#100342"/>
<path d="M36.8848 277.778C36.6871 278.372 36.4893 279.064 36.2915 279.756C36.1926 280.35 36.0937 281.042 36.2915 281.635C36.3904 281.833 36.4893 281.932 36.5882 282.13C36.8848 282.723 36.9837 283.415 37.2804 284.008C38.3682 286.283 40.346 287.964 42.3237 289.546C43.4115 290.337 44.4004 291.128 45.4882 291.92C46.0815 292.315 46.576 292.81 47.0704 293.205C47.2682 293.403 47.5648 293.601 47.7626 293.798C47.8615 293.897 48.2571 294.392 48.3559 294.392C45.0926 295.381 42.2248 294.985 39.4559 295.677C37.4782 296.172 35.5993 294.688 35.2037 292.414C34.8082 290.337 34.5115 288.261 34.4126 286.085C34.4126 284.602 34.2148 283.217 34.2148 281.734C34.2148 280.251 34.3137 278.767 34.5115 277.383C34.6104 276.295 34.9071 275.207 35.6982 274.416C36.0937 274.12 36.4893 273.922 36.9837 273.625C38.1704 273.131 39.2582 272.537 40.4448 272.043C41.0382 271.746 41.5326 271.746 42.126 271.548C42.7193 271.351 43.2137 271.054 43.8071 270.856C44.6971 270.461 45.5871 270.164 46.4771 270.362C45.4882 270.955 44.4993 271.548 43.4115 272.043C42.9171 272.34 42.4226 272.537 41.8293 272.834C40.5437 273.427 39.0604 273.823 38.1704 275.01C37.7748 275.504 37.5771 275.998 37.2804 276.592C37.1815 276.987 37.0826 277.383 36.8848 277.778Z" fill="#100342"/>
<path d="M167.517 256.814C167.517 256.319 167.517 255.825 167.517 255.33C167.616 253.353 166.726 250.386 169.594 250.188C172.461 249.99 172.758 252.957 173.154 255.133C173.351 256.715 173.252 258.396 172.956 259.978C172.659 261.857 171.67 263.439 169.495 263.34C167.022 263.241 167.517 261.264 167.418 259.681C167.418 258.791 167.517 257.803 167.517 256.814Z" fill="#100342"/>
<path d="M14.6348 358.274C15.5248 356.098 17.3048 354.516 19.3814 353.626C21.1614 352.835 22.0514 354.318 22.6448 355.703C23.2381 357.087 24.4248 357.582 25.6114 358.076C26.897 358.67 28.0836 359.362 27.3914 360.944C26.7981 362.328 25.3148 362.131 24.4248 361.636C22.0514 360.548 19.8759 359.461 17.0081 360.845C15.5248 361.537 15.1292 359.56 14.6348 358.274Z" fill="#100342"/>
<path d="M163.267 272.933C162.97 276.097 160.399 276.789 158.025 276.987C156.048 277.185 154.465 276.097 154.663 273.823C154.861 271.35 155.553 268.779 158.718 268.68C161.585 268.582 162.772 270.46 163.267 272.933Z" fill="#100342"/>
<path d="M49.3457 284.503C49.8402 282.822 49.8402 279.558 53.4002 279.855C55.3779 279.954 56.9602 281.437 56.8613 283.81C56.6635 287.074 54.2902 288.162 51.6202 288.458C49.7413 288.656 48.8513 287.272 49.3457 284.503Z" fill="#100342"/>
<path d="M48.4551 227.84C48.4551 225.566 48.4551 222.896 50.2351 222.896C53.3006 222.994 53.3006 226.159 53.4984 228.433C53.5973 229.917 53.3995 232.092 51.224 231.993C48.2573 231.894 48.7517 229.224 48.4551 227.84Z" fill="#100342"/>
<path d="M61.0137 246.727C61.607 245.244 60.2226 242.475 62.8926 242.574C65.2659 242.673 65.9581 245.145 65.9581 247.419C65.9581 249.199 65.7603 251.573 63.5848 251.672C60.2226 251.573 61.5081 248.507 61.0137 246.727Z" fill="#100342"/>
<path d="M69.024 108.975C67.1451 108.876 66.9473 107.591 67.1451 106.503C67.7384 104.13 68.9251 102.152 71.3973 101.756C72.3862 101.558 72.8806 103.042 72.584 104.031C72.1884 106.206 71.4962 108.382 69.024 108.975Z" fill="#100342"/>
<path d="M184.528 277.383C184.132 278.669 183.737 280.053 182.055 279.954C180.572 279.856 180.275 278.768 180.275 277.482C180.275 276.098 180.869 275.307 182.253 275.307C183.539 275.406 184.429 275.999 184.528 277.383Z" fill="#100342"/>
<path d="M117.778 356.593C116.492 355.802 116.195 354.516 116.591 353.231C116.789 352.341 117.283 351.154 118.47 351.649C119.656 352.143 119.656 353.429 119.36 354.615C119.063 355.505 119.063 356.692 117.778 356.593Z" fill="#100342"/>
<path d="M201.338 236.048C201.338 236.542 201.338 236.839 201.338 237.037C201.338 237.333 201.24 237.531 201.141 237.828C201.141 237.531 201.141 237.235 201.141 236.938C201.24 236.74 201.338 236.443 201.338 236.048Z" fill="#3A4C4B"/>
<path d="M243.563 85.341C243.563 86.7254 243.662 88.2088 243.563 89.5932C243.365 91.4721 242.179 93.6476 240.498 93.2521C235.454 91.9665 235.949 95.2299 235.751 98.1965C235.652 99.9765 235.553 102.152 233.476 102.449C231.4 102.745 230.708 100.669 230.114 98.9876C228.73 95.2299 227.543 91.4721 225.961 87.8132C224.972 85.5387 223.785 83.8576 221.214 86.9232C218.841 89.791 216.27 88.901 215.874 85.1432C215.281 80.0999 214.094 75.8476 208.754 73.8699C206.579 73.0787 206.974 70.6065 206.48 68.8265C202.326 54.191 193.328 43.511 180.67 35.1054C171.671 29.1721 163.463 21.9532 153.475 17.6021C151.992 16.9099 151.399 15.6243 151.695 14.0421C152.091 11.9654 153.179 10.6799 155.453 10.2843C159.903 9.39431 164.353 10.0865 168.803 10.4821C179.582 11.471 190.559 12.7565 200.25 17.4043C208.853 21.5576 218.346 25.711 222.302 35.8965C223.785 39.6543 225.961 42.8187 230.015 44.5988C233.476 46.181 235.751 49.3454 237.036 52.8065C240.893 63.2888 243.365 74.0676 243.563 85.341Z" fill="#100342"/>
<path d="M241.388 293.601C244.157 293.601 251.475 299.534 252.068 302.402C252.562 304.973 251.277 306.456 249.2 307.939C239.608 314.664 228.236 318.125 218.841 325.047C218.643 325.245 218.248 325.344 217.951 325.443C214.193 326.728 212.315 324.948 208.557 316.741C207.271 313.873 206.579 311.203 210.04 308.829C217.655 303.687 226.555 301.215 234.466 296.864C236.74 295.677 238.619 293.699 241.388 293.601Z" fill="#100342" stroke="black" stroke-width="0.5" stroke-miterlimit="10"/>
<path d="M244.948 324.355C244.948 324.256 244.948 324.256 245.046 324.157C244.75 324.157 244.453 324.454 244.255 324.751C244.156 324.85 243.959 325.047 243.761 325.146C243.662 325.245 243.563 325.245 243.563 325.344C243.365 325.443 243.266 325.542 243.069 325.74C241.585 327.025 240.201 328.41 239.212 330.091C238.52 331.179 238.025 332.365 237.63 333.552C237.234 334.837 237.036 336.222 236.938 337.606C236.938 338.793 236.245 339.782 235.059 340.079C233.872 340.375 233.279 339.584 232.784 338.793C231.499 336.815 231.202 332.662 228.334 333.651C224.379 335.035 219.632 336.617 218.544 341.957C217.358 348.187 216.369 354.417 215.281 360.647C215.874 352.242 214.786 343.935 213.896 335.629C213.501 332.563 214.786 330.783 217.456 329.102C228.235 322.18 240.794 318.719 251.672 312.093C253.551 310.906 255.331 311.203 255.529 313.576C255.924 317.73 255.825 321.883 255.825 326.036C255.825 326.531 255.43 327.322 254.935 327.619C254.045 328.113 253.551 327.421 253.056 326.827C252.661 326.234 252.167 325.74 251.771 325.146C251.474 324.751 251.079 324.355 250.782 323.96C250.683 323.861 250.683 323.663 250.584 323.564C250.485 323.465 250.189 323.366 249.991 323.267C249.892 323.267 249.793 323.267 249.793 323.267C249.694 323.267 249.694 323.267 249.595 323.366C249.002 323.663 248.409 323.861 247.914 324.256C247.222 324.751 246.728 325.542 246.53 326.333C246.233 327.322 246.332 328.311 246.431 329.3C246.431 329.695 246.53 330.091 246.728 330.387C246.925 330.684 247.222 330.882 247.519 331.08C248.409 331.673 249.2 332.365 249.991 333.156C250.09 333.354 250.288 333.453 250.387 333.651C250.485 333.947 250.485 334.145 250.485 334.442C250.288 337.013 249.892 339.584 249.398 342.155C249.299 342.749 249.2 343.243 249.2 343.836C249.299 344.726 249.892 345.517 250.584 346.21C250.485 346.111 250.386 346.111 250.189 346.012C250.09 345.913 249.991 345.913 249.793 345.814C249.595 345.715 249.299 345.517 249.101 345.32C248.903 345.122 248.804 344.924 248.606 344.726C248.409 344.529 248.211 344.331 247.914 344.232C248.013 343.935 248.211 343.639 248.31 343.342C248.31 343.243 248.31 343.144 248.31 343.045C248.31 342.65 248.409 342.254 248.508 341.859C249.002 339.683 249.299 337.409 249.595 335.134C249.595 334.936 249.595 334.739 249.595 334.64C249.595 334.442 249.497 334.343 249.398 334.244C248.705 333.255 247.815 332.365 246.728 331.673C246.431 331.475 246.134 331.376 245.838 331.376C245.541 332.365 245.343 333.255 245.046 334.244C244.849 334.936 244.651 335.629 244.255 336.222C243.464 337.31 242.278 337.804 240.992 338.2C241.882 337.409 242.673 336.617 243.563 335.826C243.662 335.727 243.761 335.629 243.86 335.53C243.959 335.431 243.959 335.233 243.959 335.035C243.959 334.936 243.959 334.837 243.959 334.739C243.959 333.651 243.959 332.464 243.959 331.376C243.959 330.783 243.959 330.289 243.959 329.695C243.959 329.201 243.86 328.607 243.86 328.113C243.86 328.014 243.86 328.014 243.86 327.915C243.86 327.816 243.959 327.717 243.959 327.717C244.157 327.421 244.354 327.124 244.552 326.926C244.651 326.827 244.651 326.729 244.75 326.63C244.75 326.531 244.849 326.432 244.849 326.333C244.948 325.937 245.145 325.641 245.244 325.245C244.849 324.553 244.849 324.454 244.948 324.355Z" fill="#100342"/>
<path d="M241.191 248.014C243.663 249.893 243.169 251.673 243.169 253.156C243.07 261.759 242.773 270.363 240.993 278.867C240.993 279.065 240.894 279.263 240.894 279.46C240.696 280.845 240.795 282.229 240.598 283.614C240.598 284.009 240.499 284.306 240.499 284.603C240.4 284.899 240.301 285.196 240.4 285.493C240.4 286.185 240.4 286.976 240.301 287.668C239.609 288.064 238.916 288.459 238.224 288.756C237.235 289.151 236.345 289.745 235.455 290.239C233.873 290.931 232.192 291.426 230.61 292.217C227.445 293.7 224.281 295.283 221.018 296.667C220.424 296.964 219.93 297.161 219.435 297.458C219.139 297.656 218.842 297.755 218.545 297.953C217.359 298.546 216.073 299.139 214.886 299.733C214.59 299.831 214.293 300.029 213.996 300.227C211.821 301.513 209.645 303.49 207.074 303.293C207.173 303.293 207.766 299.337 207.865 298.941C208.063 297.458 208.261 295.975 208.459 294.59C208.558 293.898 208.656 293.107 208.656 292.415C208.656 292.118 208.656 291.821 208.755 291.525C208.854 291.327 208.854 291.129 208.953 290.833C209.052 289.448 209.052 288.163 209.151 286.778C209.151 285.987 209.25 285.295 209.151 284.504C209.052 284.108 209.151 283.811 209.151 283.416C209.151 282.625 209.151 281.933 209.151 281.24C209.151 279.757 209.151 278.274 209.151 276.79C209.25 273.824 209.448 270.857 209.645 267.89C209.744 267.198 209.843 266.407 209.843 265.715C209.843 265.319 209.843 264.825 209.843 264.429C209.942 263.935 210.239 264.825 210.338 264.924C210.634 265.517 210.931 266.209 211.129 266.803C212.019 269.275 212.513 271.945 212.513 274.615C212.513 275.703 212.414 276.889 212.315 277.977C211.425 284.306 216.765 286.976 219.336 291.129C220.82 293.503 230.115 289.448 232.489 286.086C237.73 278.669 239.015 270.165 239.708 261.364C240.103 257.408 240.696 253.057 241.191 248.014Z" fill="#100342" stroke="black" stroke-width="0.5" stroke-miterlimit="10"/>
<path d="M204.008 327.322C201.536 325.839 199.459 325.146 198.174 323.762C196.196 321.685 193.822 320.202 191.251 319.015C187.889 317.532 184.329 316.642 180.769 315.554C179.385 315.06 178.198 314.269 176.616 314.466C174.737 314.664 172.858 315.159 170.979 315.356C170.682 315.356 170.386 315.455 169.99 315.455C169.595 315.455 169.199 315.257 168.902 314.961C168.012 314.269 167.32 313.477 166.232 312.983C163.661 311.599 160.794 310.709 157.926 310.214C158.618 310.313 159.805 309.819 160.497 309.72C161.387 309.522 162.277 309.423 163.266 309.324C165.046 309.126 166.925 309.126 168.705 309.324C171.77 309.72 174.836 309.621 178 309.819C181.264 310.016 184.527 310.313 187.79 310.709C189.669 310.906 191.746 311.104 193.427 310.511C196.789 309.324 198.767 311.005 200.25 313.28C202.624 317.136 204.008 321.586 204.008 327.322Z" fill="#100342"/>
<path d="M243.958 166.826C243.76 166.925 243.463 167.024 243.266 167.122C243.167 167.122 242.376 167.419 242.277 167.419C241.98 170.287 241.98 173.254 242.277 176.121C238.816 179.681 234.267 181.659 230.311 184.725C231.399 186.208 232.388 187.592 233.476 189.076C233.575 189.175 233.575 189.274 233.575 189.372C233.575 189.57 233.476 189.669 233.278 189.768C232.289 190.46 231.399 191.152 230.41 191.845C229.322 192.636 228.235 193.427 227.641 194.614C227.147 195.602 227.048 196.69 226.949 197.679C226.85 198.965 226.751 200.25 226.652 201.437C226.553 202.92 226.356 204.404 226.257 205.887C226.257 206.48 226.158 207.074 225.96 207.766C225.861 207.964 225.861 208.161 225.96 208.359C225.96 208.557 226.158 208.656 226.257 208.854C226.652 209.447 227.048 210.139 227.048 210.93C227.147 211.721 226.949 212.512 226.751 213.304C226.257 215.479 226.257 217.754 226.652 219.929C225.762 219.138 224.872 218.347 224.675 217.16C224.576 216.666 224.675 216.072 224.773 215.578C224.971 214.391 225.169 213.205 225.367 211.919C225.466 211.425 225.565 210.93 225.565 210.436C225.565 209.941 225.268 209.447 225.169 208.952C224.18 204.799 224.081 200.547 224.279 196.295C224.279 195.602 224.279 194.91 224.279 194.218C224.279 193.822 224.081 193.328 224.378 193.031C224.872 192.537 225.565 192.141 226.158 191.746C226.751 191.35 227.345 190.955 227.938 190.46C228.235 190.262 228.432 190.065 228.531 189.768C228.63 189.57 228.531 189.274 228.531 188.977C228.136 187.296 227.542 185.615 226.751 184.032C226.652 183.835 226.455 183.538 226.455 183.241C226.455 182.45 227.246 182.055 227.938 181.758C231.3 180.472 234.465 178.495 237.233 176.121C237.53 175.825 237.827 175.528 238.123 175.132C238.42 174.638 238.42 174.045 238.519 173.55C238.618 171.572 238.717 169.595 238.519 167.617C238.42 165.936 238.321 164.057 239.508 162.771C239.805 162.376 240.299 162.079 240.497 161.684C240.695 161.387 240.793 160.991 240.892 160.695C241.189 159.508 241.387 158.42 241.683 157.234C241.782 156.739 241.98 156.245 241.98 155.651C241.98 155.454 241.98 155.355 242.079 155.157C242.573 154.168 243.266 155.256 243.463 155.849C243.958 157.926 244.255 159.904 244.452 161.98C244.551 162.672 244.551 163.464 244.65 164.156C244.65 164.65 244.749 165.145 244.749 165.738C244.749 166.134 244.551 166.43 244.255 166.628C244.057 166.826 243.958 166.826 243.958 166.826Z" fill="#2C382C"/>
<path d="M20.3711 314.467C25.1178 310.511 30.0622 306.753 34.6111 302.6C37.7755 299.732 41.9289 300.425 44.4011 301.71C51.62 305.369 59.0367 303.589 66.3544 304.083C67.8378 304.182 69.5189 303.292 70.8044 305.27C62.0033 307.248 53.2022 306.061 44.5 306.852C35.8966 307.643 29.1722 314.071 20.6677 315.653C20.6677 315.159 20.5689 314.862 20.3711 314.467Z" fill="#100342"/>
<path d="M244.75 207.469C246.332 212.413 245.145 216.567 242.574 220.423C240.893 222.895 241.091 225.565 241.388 228.235C241.487 229.818 241.783 231.499 239.904 232.389C238.619 232.982 237.333 232.488 236.245 231.795C234.465 230.708 235.059 229.125 235.355 227.543C235.553 226.159 236.048 224.675 235.85 223.291C234.861 215.874 238.817 211.227 244.75 207.469Z" fill="#100342"/>
<path d="M227.049 127.567C226.851 129.643 227.543 133.797 224.873 133.599C221.511 133.401 222.896 129.446 222.896 126.973C222.896 126.182 222.995 125.391 223.192 124.6C223.687 123.216 222.203 120.447 224.873 120.546C226.851 120.644 226.95 122.919 226.95 124.798C227.049 125.688 227.049 126.479 227.049 127.567Z" fill="#100342"/>
<path d="M219.434 261.066C219.434 263.242 219.533 265.318 216.764 265.417C214.687 265.516 214.391 264.132 214.687 262.55C214.984 260.473 214.687 257.407 217.555 257.21C220.126 256.913 219.137 259.682 219.434 261.066Z" fill="#100342"/>
<path d="M183.142 232.191C182.944 233.377 182.746 234.564 183.142 235.652C183.438 236.74 184.427 237.827 185.614 237.827C186.801 237.827 187.789 236.74 188.086 235.553C188.383 234.366 188.185 233.18 187.888 231.993C186.306 231.103 184.229 231.202 182.746 232.191" fill="#4300BF"/>
<path d="M176.615 216.368C176.121 217.06 176.813 218.049 177.604 218.148C178.395 218.247 179.186 217.654 179.483 216.961C179.78 216.269 179.879 215.379 179.879 214.588C179.087 214.39 178.296 214.193 177.505 214.489C176.714 214.687 176.022 215.478 176.22 216.269" fill="#4300BF"/>
<path d="M85.8359 77.9239C85.9348 79.7039 88.1104 80.9895 89.6926 80.0995C91.2748 79.2095 91.3737 76.7373 89.8904 75.7484C88.407 74.7595 86.1326 75.8472 85.8359 77.5284" fill="#4300BF"/>
<path d="M39.0606 249.101C36.9839 247.321 33.325 248.112 32.1383 250.584C31.9406 250.98 31.8417 251.375 32.0394 251.672C32.1383 252.067 32.5339 252.265 32.9295 252.364C34.4128 253.155 36.1928 253.65 37.8739 253.155C39.4561 252.661 40.7417 250.881 40.1483 249.2C39.8517 249.2 39.555 249.101 39.2583 249.101" fill="#4300BF"/>
<path d="M201.832 99.7784C200.942 101.558 200.25 103.734 201.338 105.316C202.228 106.503 204.008 106.997 205.293 106.305C206.579 105.613 207.271 103.833 206.678 102.448C204.799 101.855 203.118 100.767 201.733 99.3828" fill="#684C9B"/>
<path d="M82.3739 62.9919C81.5827 64.1786 81.8794 65.9586 82.8683 66.9475C83.8572 67.9363 85.5383 68.233 86.8239 67.6397C86.725 65.8597 85.9339 64.1786 84.5494 63.0908C83.6594 62.3986 82.0772 62.1019 81.6816 63.1897" fill="#4300BF"/>
<path d="M51.6195 86.2305C50.6306 87.2194 50.1362 88.7027 50.2351 90.0871C51.224 90.7794 52.5095 91.076 53.7951 90.8782C53.7951 89.4938 53.7951 88.1094 53.7951 86.7249C53.004 86.5271 52.114 86.4282 51.3228 86.2305" fill="#4300BF"/>
<path d="M148.333 294.095C146.454 295.183 144.97 297.061 144.278 299.138C144.179 299.534 144.08 300.028 144.278 300.424C144.476 300.819 145.069 301.017 145.564 301.017C146.849 301.215 148.135 301.215 149.42 301.017C150.31 299.138 150.706 297.061 150.508 294.985C149.717 294.886 149.025 294.688 148.432 294.194" fill="#4300BF"/>
<path d="M36.7863 346.309C38.1708 347.1 39.9508 347.397 41.533 347.001C42.0274 346.012 42.2252 344.826 41.7308 343.837C41.2363 342.848 39.8519 342.353 38.9619 342.947C38.5663 343.243 38.3686 343.639 38.0719 343.936C37.6763 344.232 37.1819 344.43 36.7863 344.727C36.3908 345.023 35.8963 345.419 35.9952 345.913C36.0941 346.408 36.8852 346.705 37.083 346.309" fill="#4300BF"/>
<path d="M37.4785 361.34C38.2696 359.856 39.0607 358.472 39.9507 357.087C40.1485 356.692 40.5441 356.296 40.9396 356.494C41.1374 356.593 41.2363 356.89 41.4341 357.087C42.2252 358.373 44.0052 358.571 45.5874 358.867C47.0707 359.164 48.8507 360.351 48.3563 361.834C45.093 361.834 41.8296 361.834 38.5663 361.834C38.0719 361.834 37.3796 361.438 37.7752 361.043" fill="#4300BF"/>
<path d="M154.859 344.924C154.365 346.012 154.068 347.199 154.068 348.385C155.453 349.275 157.134 349.671 158.815 349.572C159.112 348.385 159.112 347.199 158.815 346.012C158.617 344.924 158.024 343.836 157.035 343.441C156.046 343.045 154.662 344.133 155.156 345.122" fill="#4300BF"/>
<path d="M162.771 357.879C162.969 359.164 164.353 360.252 165.639 359.956C165.144 358.868 164.749 357.78 164.254 356.692C164.057 356.297 163.958 355.901 163.661 355.703C162.969 355.11 161.782 355.308 161.387 356.099C160.991 356.89 161.584 358.077 162.474 358.176" fill="#4300BF"/>
<path d="M240.893 134.785C239.409 136.961 238.124 139.829 239.607 142.004C239.904 142.4 240.299 142.795 240.596 143.191C241.387 144.476 240.893 146.157 240.893 147.641C240.893 149.124 242.079 151.003 243.563 150.509C244.749 144.476 245.343 138.246 245.343 132.016C245.343 131.225 245.343 129.742 244.749 129.05C244.354 128.555 243.662 128.654 243.266 129.149C243.068 129.445 243.167 130.137 243.068 130.434C242.969 130.929 242.673 131.522 242.475 132.016C242.079 133.005 241.486 133.895 240.893 134.785Z" fill="#6B00FA"/>
<path d="M213.106 223.587C212.513 223.983 211.821 224.18 211.129 224.279C211.524 225.763 212.019 227.246 212.414 228.828C212.612 229.52 212.81 230.311 212.81 231.004C212.81 232.685 211.425 234.267 209.843 234.564C208.261 231.498 207.865 228.037 207.865 224.675C207.865 222.203 208.459 218.544 211.722 220.225C213.007 220.917 214.886 222.203 213.106 223.587Z" fill="#6B00FA"/>
<path d="M221.61 237.531C221.214 240.003 222.994 242.475 225.368 243.069C225.763 241.882 225.961 240.695 225.961 239.509C225.961 238.52 225.961 237.63 225.467 236.74C224.972 235.85 224.082 235.257 223.192 235.355C222.302 235.454 221.511 236.542 221.808 237.432" fill="#6B00FA"/>
<path d="M229.224 161.683C228.037 163.265 227.246 165.243 227.246 167.22C227.246 167.814 227.345 168.407 227.642 168.803C228.037 169.297 228.729 169.495 229.125 169.099C229.718 167.715 230.312 166.232 230.905 164.847C231.103 164.353 231.301 163.858 231.301 163.364C231.202 162.474 230.114 161.782 229.224 162.177" fill="#6B00FA"/>
<path d="M226.949 347.792C227.246 348.879 226.949 350.165 226.949 351.253C227.048 352.439 227.938 353.824 229.026 353.527C229.52 353.428 229.916 352.934 230.213 352.439C230.905 351.451 231.498 350.363 231.597 349.176C231.696 347.989 231.004 346.704 229.916 346.308C228.828 345.913 227.345 346.902 227.543 348.088" fill="#6B00FA"/>
<path d="M237.037 351.549C237.334 351.055 237.531 350.561 238.026 350.165C239.213 349.374 240.894 350.363 242.278 350.165C243.564 350.066 244.75 349.077 245.937 349.473C247.025 349.769 247.519 351.253 246.926 352.143C246.629 352.637 245.344 353.231 244.75 353.527C243.959 354.022 243.267 354.516 242.476 355.011C240.993 356 239.41 356.889 237.828 357.779C236.543 358.571 234.861 359.955 233.378 360.252C231.598 360.647 233.576 357.878 233.971 357.186C235.059 355.406 236.048 353.527 237.037 351.549Z" fill="#6B00FA"/>
<path d="M103.438 317.136C104.624 316.148 106.009 314.961 107.492 315.356C108.184 315.554 108.679 316.049 109.371 316.345C111.547 317.532 114.217 317.136 116.689 316.84C117.678 316.741 118.568 316.642 119.557 316.84C120.348 317.038 121.04 317.532 121.732 317.829C123.809 318.818 126.281 318.818 128.555 319.312C130.83 319.806 133.302 320.795 134.192 322.971C134.093 322.773 130.83 322.872 130.434 322.872C129.149 322.872 127.863 322.773 126.578 322.674C124.007 322.575 121.435 322.378 118.864 322.18C113.722 321.784 108.58 321.389 103.438 320.795C102.745 320.696 101.954 320.598 101.262 320.598C100.965 320.598 100.471 320.598 100.174 320.499C99.7787 320.301 99.8776 320.4 100.075 320.103C100.471 319.51 101.262 319.114 101.757 318.62C102.35 318.125 102.943 317.631 103.438 317.136Z" fill="#6B00FA"/>
<path d="M59.6298 310.214C58.9376 309.819 57.9487 310.016 57.5532 310.709C57.1576 311.401 57.3554 312.39 58.0476 312.785C58.7398 313.181 59.6298 313.082 60.3221 312.686C61.0143 312.291 61.6076 311.796 62.2998 311.401C62.6954 311.203 63.2887 310.808 63.0909 310.412C62.9921 310.214 62.7943 310.016 62.4976 310.016C61.4098 309.621 60.3221 309.621 59.2343 310.016" fill="#6B00FA"/>
<path d="M71.3978 286.975C71.4967 286.58 71.6944 286.184 72.09 285.987C72.6833 285.69 73.2767 286.184 73.87 286.283C75.4522 286.679 76.7378 284.899 77.43 283.415C78.1222 281.932 79.5067 280.251 81.0889 280.647C81.9789 280.943 82.5722 281.833 82.9678 282.624C84.3522 285.195 85.44 287.964 87.7144 289.744C89.3956 291.03 91.5711 291.623 93.3511 292.81C95.1311 293.997 96.6144 296.271 95.7244 298.15C95.6256 298.348 93.3511 298.348 93.0545 298.348C91.5711 298.447 90.1867 298.545 88.7033 298.644C85.8356 298.842 82.8689 298.941 79.9022 299.04C77.6278 299.139 75.3533 299.238 73.1778 298.941C71.2989 298.644 69.1233 299.435 67.1456 299.435C66.5522 299.435 66.75 297.161 66.9478 296.864C67.1456 296.568 67.4422 296.37 67.64 296.172C68.0356 295.678 68.2333 295.084 68.4311 294.491C69.5189 292.118 70.4089 289.547 71.3978 286.975Z" fill="#100342"/>
<path d="M86.231 212.017C87.9121 206.084 84.7477 200.744 80.1988 195.404C73.1777 187.196 66.7499 178.593 65.2665 167.122C62.0032 141.213 76.441 115.897 100.273 106.701C125.292 97.0094 152.981 105.712 167.913 127.863C174.539 137.653 177.901 148.432 177.901 160.298C177.901 171.176 174.44 180.571 166.825 188.383C163.167 192.042 160.101 196.294 156.244 199.755C152.19 203.315 150.707 207.369 151.003 212.512C151.201 216.566 150.707 220.621 150.805 224.675C150.805 224.972 150.805 225.268 150.805 225.466C150.805 225.862 150.707 226.158 150.707 226.455C150.707 226.653 150.707 228.532 150.805 228.532C150.113 228.532 149.421 228.532 148.828 228.631C148.037 228.631 147.245 228.729 146.454 228.631C144.971 228.433 143.587 228.433 142.103 228.334C141.807 228.334 141.51 228.334 141.114 228.235C140.521 228.235 140.027 228.136 139.433 228.136C139.235 228.136 139.038 228.037 138.741 228.037C138.444 228.037 138.148 228.037 137.851 228.037C136.763 228.037 135.577 228.037 134.39 228.037C134.39 227.444 134.291 226.851 134.291 226.257C134.192 225.071 134.192 223.884 134.192 222.697C134.192 220.423 134.093 218.148 134.093 215.874C134.093 215.775 134.093 215.676 133.994 215.577C133.895 215.478 133.797 215.478 133.698 215.478C131.324 215.281 128.951 215.478 126.578 215.775C126.578 217.159 126.578 218.544 126.479 220.027C126.479 220.423 126.479 220.818 126.479 221.214C126.479 221.807 126.479 222.302 126.38 222.895C126.38 223.093 126.281 223.192 126.281 223.291C126.182 223.488 126.182 223.785 126.182 223.983C126.083 225.071 126.083 226.257 126.281 227.345C125.589 227.345 124.897 227.345 124.105 227.345C123.215 227.345 122.227 227.345 121.337 227.147C120.249 226.949 119.062 227.048 117.974 226.949C117.579 226.949 117.084 226.949 116.689 226.851C115.601 226.851 114.513 226.653 113.425 226.653C112.832 226.653 112.338 226.653 111.744 226.653C111.645 226.653 110.162 226.752 110.063 226.851C110.063 225.862 110.162 224.774 110.162 223.785C110.162 223.291 110.162 222.796 110.261 222.203C110.261 221.708 110.36 221.214 110.36 220.719C110.36 218.742 110.36 216.764 110.261 214.687C107.69 214.193 105.02 213.995 102.35 213.995C102.251 216.269 102.152 218.544 101.954 220.818C101.855 221.906 101.855 223.093 101.757 224.279C101.757 224.576 101.757 224.873 101.757 225.169C101.757 225.367 101.757 225.565 101.658 225.664C101.559 225.862 101.064 225.862 100.867 225.862C99.4821 225.961 97.9988 225.862 96.6143 225.763C96.021 225.763 95.3288 225.664 94.7354 225.664C93.1532 225.565 91.571 225.565 89.9888 225.466C89.4943 225.466 88.901 225.367 88.4065 225.367C88.1099 225.268 87.8132 225.169 87.4176 225.169C87.3188 225.169 85.7365 225.071 85.7365 225.071C85.7365 224.972 85.7365 224.873 85.7365 224.774C85.7365 223.686 85.7365 222.499 85.7365 221.313C85.7365 220.818 85.6376 220.324 85.8354 219.829C85.9343 219.632 85.8354 219.434 85.8354 219.236C85.8354 218.742 85.8354 218.247 85.8354 217.753C85.8354 216.467 85.9343 215.281 85.9343 213.995C86.1321 213.995 86.1321 213.599 86.231 212.017ZM118.271 193.822C119.161 193.921 120.051 193.921 120.941 194.019C122.325 194.118 123.809 194.217 125.193 194.415C124.699 192.932 124.204 191.448 123.611 190.064C123.413 189.471 123.117 188.976 122.919 188.482C122.721 187.987 122.424 187.592 122.227 187.097C122.128 186.998 122.128 186.801 122.128 186.702C122.029 186.207 121.831 185.812 121.732 185.317C121.238 184.131 120.842 182.845 120.348 181.559C120.15 180.966 119.952 180.472 119.655 179.878C119.655 179.977 119.458 180.274 119.458 180.274C119.359 180.472 119.161 180.669 119.062 180.867C117.777 182.647 116.59 184.427 115.502 186.306C114.909 187.196 114.414 188.185 113.821 189.174C113.524 189.668 113.327 190.163 113.03 190.558C112.931 190.756 112.832 190.954 112.733 191.152C112.634 191.547 112.239 191.943 111.942 192.338C111.547 192.833 111.151 193.327 110.854 193.921C110.854 193.921 111.151 193.921 111.25 193.921C111.349 193.921 111.547 193.921 111.645 193.921C111.942 193.921 112.239 193.921 112.535 193.921C113.129 193.921 113.623 193.921 114.217 193.822C114.414 193.822 114.711 193.723 114.909 193.723C115.205 193.723 115.502 193.723 115.799 193.822C116.392 193.822 116.887 193.921 117.48 193.921C117.777 193.723 118.073 193.723 118.271 193.822Z" fill="#272F49"/>
<path d="M83.9565 209.248C85.5388 203.414 82.4732 198.173 78.0232 192.932C71.101 184.823 64.7721 176.417 63.3877 165.243C60.2232 139.828 74.3643 115.106 97.7021 106.107C122.227 96.614 149.322 105.118 164.057 126.874C170.484 136.466 173.847 147.047 173.945 158.617C173.945 169.297 170.583 178.494 163.068 186.108C159.508 189.767 156.541 193.921 152.684 197.184C148.729 200.645 147.245 204.601 147.542 209.743C147.74 213.698 147.245 217.654 147.344 221.61C147.344 221.906 147.344 222.104 147.344 222.401C147.344 222.697 147.245 223.093 147.245 223.39C147.245 223.587 147.245 225.367 147.344 225.367C146.652 225.367 146.059 225.367 145.367 225.367C144.575 225.367 143.784 225.466 142.993 225.367C141.609 225.17 140.125 225.17 138.741 225.071C138.444 225.071 138.148 225.071 137.851 224.972C137.258 224.972 136.763 224.873 136.17 224.873C135.972 224.873 135.774 224.774 135.577 224.774C135.28 224.774 134.983 224.774 134.687 224.774C133.599 224.774 132.412 224.774 131.324 224.774C131.324 224.181 131.225 223.686 131.225 223.093C131.127 221.906 131.127 220.818 131.127 219.632C131.127 217.357 131.028 215.182 131.028 212.907C131.028 212.808 131.028 212.71 130.929 212.611C130.83 212.512 130.731 212.512 130.632 212.512C128.358 212.314 125.984 212.512 123.71 212.808C123.71 214.193 123.71 215.577 123.611 216.962C123.611 217.357 123.611 217.753 123.611 218.148C123.611 218.643 123.611 219.236 123.512 219.83C123.512 220.027 123.413 220.126 123.413 220.225C123.314 220.423 123.314 220.72 123.314 220.917C123.215 222.005 123.215 223.093 123.413 224.181C122.721 224.181 122.029 224.181 121.337 224.181C120.447 224.181 119.557 224.181 118.667 223.983C117.579 223.785 116.491 223.884 115.304 223.785C114.909 223.785 114.414 223.785 114.019 223.686C112.931 223.686 111.942 223.488 110.854 223.488C110.261 223.488 109.767 223.488 109.173 223.488C109.074 223.488 107.591 223.587 107.591 223.686C107.591 222.697 107.69 221.708 107.69 220.621C107.69 220.126 107.69 219.632 107.789 219.137C107.789 218.643 107.888 218.148 107.888 217.654C107.888 215.676 107.888 213.698 107.789 211.721C105.218 211.325 102.647 211.028 100.075 211.028C99.9765 213.303 99.8776 215.478 99.7788 217.753C99.6799 218.841 99.6799 220.027 99.581 221.115C99.581 221.412 99.581 221.708 99.581 222.005C99.581 222.203 99.581 222.401 99.4821 222.5C99.3832 222.697 98.8888 222.697 98.691 222.697C97.3065 222.796 95.9221 222.697 94.5377 222.598C93.9443 222.598 93.2521 222.5 92.6588 222.5C91.0765 222.401 89.4943 222.401 88.011 222.302C87.5165 222.302 87.0221 222.203 86.4288 222.203C86.1321 222.203 85.8354 222.005 85.4399 222.005C85.341 222.005 83.8577 221.906 83.8577 221.906C83.8577 221.807 83.8577 221.708 83.8577 221.61C83.8577 220.522 83.8577 219.335 83.8577 218.247C83.8577 217.753 83.7588 217.258 83.9565 216.863C84.0554 216.665 83.9565 216.467 83.9565 216.27C83.9565 215.775 83.9565 215.281 83.9565 214.786C83.9565 213.6 84.0554 212.314 84.0554 211.127C83.8576 211.127 83.8576 210.831 83.9565 209.248ZM115.403 191.35C116.293 191.448 117.183 191.448 117.974 191.547C119.359 191.646 120.743 191.745 122.128 191.943C121.633 190.558 121.238 189.075 120.644 187.592C120.447 186.998 120.15 186.504 119.952 186.01C119.754 185.515 119.458 185.12 119.26 184.625C119.161 184.526 119.161 184.328 119.161 184.23C119.062 183.735 118.864 183.34 118.765 182.845C118.271 181.658 117.875 180.373 117.381 179.186C117.183 178.593 116.985 178.098 116.689 177.505C116.689 177.604 116.491 177.802 116.491 177.901C116.392 178.098 116.194 178.296 116.095 178.494C114.909 180.274 113.722 182.054 112.634 183.834C112.041 184.724 111.547 185.713 111.052 186.603C110.755 187.097 110.558 187.493 110.261 187.987C110.162 188.185 110.063 188.383 109.964 188.581C109.865 188.976 109.47 189.372 109.173 189.668C108.778 190.163 108.481 190.657 108.085 191.152C108.085 191.152 108.382 191.152 108.481 191.152C108.58 191.152 108.778 191.152 108.877 191.152C109.173 191.152 109.47 191.152 109.767 191.152C110.36 191.152 110.854 191.152 111.448 191.053C111.645 191.053 111.942 190.954 112.14 190.954C112.437 190.954 112.733 190.954 113.03 191.053C113.623 191.053 114.118 191.152 114.711 191.152C114.909 191.35 115.205 191.35 115.403 191.35Z" fill="#847F88" stroke="black" stroke-width="0.5" stroke-miterlimit="10"/>
<path d="M153.97 111.547C135.874 97.1093 115.404 94.736 94.2413 104.229C60.3224 119.458 51.2246 164.552 71.5957 186.999C74.4635 190.164 76.6391 193.823 79.6057 196.987C82.2757 199.855 83.1657 202.92 82.968 206.777C82.6713 212.117 82.1768 217.556 82.968 223.39L100.372 224.182L100.669 211.82L107.394 212.018V212.117C107.394 212.216 107.394 212.315 107.394 212.414C107.394 212.513 107.394 212.71 107.394 212.809C107.394 213.007 107.394 213.205 107.394 213.304C107.394 213.502 107.394 213.699 107.394 213.897C107.394 214.095 107.394 214.392 107.394 214.589C107.394 214.886 107.394 215.084 107.394 215.38C107.394 215.677 107.394 215.974 107.394 216.27C107.394 216.567 107.394 216.864 107.394 217.16C107.394 217.457 107.394 217.754 107.394 218.05C107.394 218.347 107.394 218.644 107.394 218.94C107.394 219.237 107.394 219.534 107.394 219.83C107.394 220.127 107.394 220.325 107.394 220.622C107.394 220.819 107.394 221.116 107.394 221.413C107.394 221.61 107.394 221.907 107.394 222.105C107.394 222.303 107.394 222.5 107.394 222.698C107.394 222.797 107.394 222.995 107.394 223.193C107.394 223.292 107.394 223.39 107.394 223.489C107.394 223.786 107.295 224.083 107.295 224.478C107.394 224.478 107.394 224.478 107.492 224.478H107.591H107.69C107.789 224.478 107.987 224.478 108.086 224.478C108.382 224.478 108.679 224.478 108.976 224.478C110.162 224.478 111.25 224.577 112.437 224.577C113.821 224.676 115.305 224.676 116.788 224.775C118.074 224.874 119.458 224.874 120.744 224.973C121.535 224.973 122.326 225.072 123.216 225.072C123.315 225.072 123.414 225.072 123.512 225.072C123.71 225.072 123.809 225.072 124.007 224.973C124.007 224.676 124.106 224.28 124.106 223.984V223.885C124.106 223.786 124.106 223.588 124.205 223.489C124.205 223.193 124.304 222.896 124.304 222.698C124.304 222.5 124.304 222.303 124.304 222.105C124.304 221.907 124.304 221.709 124.304 221.61C124.304 221.413 124.304 221.314 124.304 221.116C124.304 220.918 124.304 220.72 124.304 220.523C124.304 220.325 124.304 220.028 124.304 219.732C124.304 219.435 124.304 219.138 124.304 218.94C124.304 218.644 124.304 218.347 124.304 218.05C124.304 217.754 124.304 217.457 124.304 217.16C124.304 216.864 124.304 216.567 124.304 216.27C124.304 215.974 124.304 215.677 124.304 215.38C124.304 215.183 124.304 214.886 124.304 214.589C124.304 214.392 124.304 214.194 124.304 213.996C124.304 213.798 124.304 213.699 124.304 213.502C124.304 213.403 124.304 213.304 124.304 213.205V213.106L131.028 213.304L130.731 225.566C131.819 225.566 149.026 226.357 149.026 226.357C149.026 222.797 149.026 219.237 149.026 215.578C149.026 213.897 149.026 212.216 149.026 210.535C149.026 210.04 149.026 209.546 148.927 209.15C148.927 207.964 148.927 206.777 149.125 205.689C149.322 204.503 149.718 203.217 150.509 202.228C150.707 202.03 150.905 201.734 151.102 201.536C151.399 201.239 151.597 201.042 151.894 200.745C152.388 200.25 152.882 199.657 153.377 199.163C154.366 198.075 155.355 197.086 156.344 195.998C157.332 194.91 158.222 193.922 159.211 192.834C160.2 191.746 161.09 190.757 161.98 189.669C162.87 188.582 163.859 187.593 164.749 186.505C165.639 185.417 166.529 184.428 167.419 183.34C167.914 182.846 168.309 182.253 168.804 181.758C172.166 177.605 174.539 172.957 175.33 167.617C178.89 144.774 171.869 125.787 153.97 111.547ZM97.9002 208.557C97.7024 208.557 97.5046 208.557 97.208 208.557C97.1091 208.557 97.0102 208.557 96.9113 208.557C96.9113 209.052 96.9113 209.546 96.9113 210.04C96.9113 211.029 96.8124 212.117 96.8124 213.106C96.7135 215.183 96.6146 217.358 96.6146 219.435L87.8135 219.039C87.8135 218.149 87.9124 217.259 87.9124 216.369C88.0113 214.392 88.1102 212.414 88.1102 210.337C88.2091 208.26 88.308 206.085 88.308 204.008C88.308 203.217 88.4068 202.426 88.4068 201.635C88.4068 201.239 88.308 200.844 88.308 200.547C88.308 200.152 88.2091 199.756 88.2091 199.36C88.2091 199.163 88.1102 199.064 88.1102 198.866C88.0113 198.767 88.0113 198.569 87.9124 198.47C87.8135 198.174 87.7146 197.877 87.5169 197.58C87.2202 196.987 86.9235 196.394 86.6269 195.8C86.3302 195.207 85.9346 194.713 85.5391 194.119C85.3413 193.823 85.0446 193.427 84.748 193.13C80.5946 188.087 76.6391 182.846 72.6835 177.605C67.0469 169.892 66.058 160.893 67.1457 151.795C69.618 131.325 80.298 116.492 99.4824 108.877C118.37 101.362 136.269 104.526 151.3 118.074C166.628 131.819 172.265 149.323 167.32 169.793C166.134 175.034 162.771 178.792 159.409 182.549C155.256 187.197 151.004 191.746 146.751 196.295C146.554 196.493 146.356 196.592 146.257 196.789C146.257 196.888 146.257 196.888 146.158 196.987C146.059 197.086 146.059 197.185 145.96 197.284C145.861 197.482 145.664 197.679 145.565 197.877C145.466 197.976 145.466 198.075 145.367 198.174C145.367 198.273 145.268 198.273 145.268 198.372C145.07 198.767 144.872 199.163 144.675 199.558C144.279 200.448 144.081 201.437 143.884 202.426C143.785 202.92 143.785 203.415 143.785 203.909C143.785 204.107 143.785 204.404 143.785 204.602C143.785 204.7 143.785 204.799 143.785 204.997C143.785 205.195 143.785 205.393 143.785 205.59C143.785 205.887 143.785 206.283 143.785 206.579C143.785 207.173 143.785 207.667 143.785 208.26C143.785 209.348 143.785 210.535 143.785 211.623C143.785 212.71 143.785 213.897 143.785 214.985C143.785 216.073 143.785 217.259 143.785 218.347C143.785 218.94 143.785 219.435 143.785 220.028C143.785 220.325 143.785 220.622 143.785 220.918C143.785 221.017 143.785 221.116 143.785 221.215V221.314C143.686 221.413 143.587 221.314 143.587 221.314C143.488 221.314 143.29 221.314 143.191 221.314C142.697 221.314 142.104 221.314 141.609 221.215C139.434 221.116 137.258 221.017 135.082 220.918C135.181 219.039 135.181 217.16 135.28 215.38C135.28 214.787 135.379 214.095 135.379 213.502C135.379 212.71 135.379 212.018 135.379 211.227C135.379 210.93 135.379 210.733 135.379 210.436L134.094 210.238C133.599 210.139 133.105 210.04 132.61 210.04C131.522 209.942 130.534 209.843 129.446 209.744C128.358 209.645 127.27 209.645 126.182 209.645C125.095 209.645 124.007 209.645 122.919 209.645C122.029 209.645 121.04 209.645 120.15 209.645L119.755 221.017L110.954 220.622L111.349 209.447C110.855 209.348 110.261 209.249 109.767 209.15C108.679 208.953 107.69 208.854 106.602 208.755C105.515 208.656 104.427 208.656 103.339 208.557C102.251 208.557 101.164 208.557 100.076 208.458C99.5813 208.458 98.988 208.458 98.4935 208.458" fill="black"/>
<path d="M119.755 175.529C119.656 175.43 119.656 175.232 119.557 175.133C119.36 174.836 119.261 174.441 119.063 174.144C118.964 173.946 118.865 173.749 118.766 173.551C118.667 173.353 118.569 173.254 118.47 173.056C118.074 172.463 117.777 171.771 117.382 171.177C117.184 170.881 117.085 170.584 116.887 170.189C116.887 170.09 116.789 169.991 116.789 169.991C116.789 169.892 116.69 169.793 116.69 169.793C116.591 169.793 116.591 169.793 116.591 169.892C116.591 169.991 116.492 169.991 116.492 170.09C116.492 170.189 116.393 170.287 116.393 170.386C116.294 170.584 116.195 170.782 116.096 170.881C115.701 171.474 115.305 172.166 115.009 172.76C114.613 173.353 114.217 174.045 113.921 174.639C113.426 175.43 113.031 176.221 112.536 177.111C112.339 177.407 112.24 177.704 112.042 177.902C111.844 178.199 111.646 178.495 111.547 178.792C111.35 179.089 111.152 179.385 110.954 179.781C110.756 180.077 110.559 180.473 110.361 180.77C110.163 181.165 109.965 181.462 109.767 181.857C109.57 182.253 109.372 182.55 109.174 182.945C108.976 183.341 108.779 183.736 108.581 184.033C108.383 184.33 108.185 184.824 107.987 185.121C107.79 185.516 107.592 185.813 107.394 186.209C107.196 186.604 106.999 186.901 106.801 187.296C106.603 187.692 106.405 187.989 106.207 188.384C106.01 188.681 105.812 189.076 105.614 189.373C105.416 189.67 105.219 189.966 105.12 190.263C104.922 190.56 104.823 190.856 104.625 191.153C104.526 191.45 104.329 191.647 104.23 191.944C104.131 192.142 103.933 192.34 103.834 192.636C103.735 192.834 103.636 193.032 103.537 193.23C103.439 193.329 103.34 193.526 103.34 193.625C103.241 193.724 103.241 193.823 103.142 193.922L103.043 194.021H103.142C103.735 194.021 104.23 194.021 104.823 194.12C104.922 194.12 105.021 194.12 105.219 194.12C105.317 194.12 105.515 194.12 105.614 194.12C105.713 194.12 105.713 194.12 105.812 194.12C105.911 194.12 106.01 194.12 106.109 194.12C106.207 194.12 106.306 194.12 106.504 194.12C106.603 194.12 106.801 194.12 106.9 194.12C107.097 194.12 107.295 194.12 107.394 194.12C107.592 194.12 107.79 194.12 107.987 194.12C108.185 194.12 108.383 194.12 108.581 194.12C108.779 194.12 109.075 194.12 109.273 194.12C109.471 194.12 109.767 194.12 109.965 194.12C110.262 194.12 110.46 194.12 110.756 194.12C111.053 194.12 111.251 194.12 111.547 194.12C111.844 194.12 112.141 194.12 112.339 194.12C112.635 194.12 112.932 194.12 113.229 194.12C113.525 194.12 113.822 194.12 114.119 194.12C114.415 194.12 114.712 194.12 115.009 194.12C115.305 194.12 115.602 194.12 115.899 194.12C116.195 194.12 116.492 194.12 116.789 194.12C117.085 194.12 117.382 194.12 117.679 194.12C117.975 194.12 118.272 194.12 118.569 194.12C118.865 194.12 119.162 194.12 119.459 194.12C119.755 194.12 120.052 194.12 120.25 194.12C120.546 194.12 120.744 194.12 121.041 194.12C121.337 194.12 121.535 194.12 121.832 194.12C122.03 194.12 122.326 194.12 122.524 194.12C122.722 194.12 123.019 194.12 123.216 194.12C123.414 194.12 123.612 194.12 123.81 194.12C124.007 194.12 124.205 194.12 124.403 194.12C124.601 194.12 124.7 194.12 124.897 194.12L128.457 194.219C128.556 194.219 128.556 194.219 128.556 194.219C128.359 193.625 128.062 193.131 127.864 192.537C127.271 191.153 126.677 189.867 126.084 188.483C125.293 186.802 124.601 185.022 123.81 183.341C123.117 181.759 122.425 180.077 121.733 178.495C121.239 177.407 120.843 176.32 120.349 175.331C120.052 175.825 119.953 175.726 119.755 175.529C119.755 175.627 119.755 175.627 119.755 175.529ZM109.669 190.362C112.042 186.307 114.217 182.649 116.69 178.396C118.371 182.945 119.755 186.505 121.436 190.856C117.382 190.757 114.02 190.56 109.669 190.362Z" fill="black"/>
<path d="M262.945 303.094C257.902 299.04 254.144 293.799 249.398 289.25C249.694 284.206 250.288 279.657 250.288 275.109C250.189 262.649 250.98 250.189 249.991 237.729C249.398 230.114 251.474 222.796 253.551 215.479C257.605 201.535 255.331 187.196 253.254 173.451C251.771 163.661 251.573 154.167 252.265 144.476C252.958 135.972 253.057 127.467 253.749 118.963C254.639 106.899 255.726 95.0319 252.661 82.8685C249.991 72.5841 249.398 61.8052 245.244 51.9163C241.981 44.203 237.926 37.083 227.84 36.8852C226.455 27.7874 221.511 21.2608 213.798 16.613C207.864 13.053 202.03 9.69075 194.811 8.99853C185.614 8.10853 177.11 4.05408 168.012 2.57075C152.19 -0.000362635 136.565 1.38408 120.941 3.75742C99.9765 7.02075 79.3087 11.0752 63.1898 27.0952C55.5754 34.7096 47.7631 41.9285 44.4998 52.5096C43.6098 55.4763 41.632 58.0474 40.1487 60.7174C33.3254 72.2874 29.172 84.253 35.8965 97.4052C36.4898 98.493 37.0831 99.7785 36.3909 101.559C31.2487 101.954 30.8531 105.613 30.952 109.964C31.2487 123.116 31.3476 136.269 31.4465 149.322C31.5454 161.189 32.0398 173.055 29.8643 184.724C27.4909 197.085 27.6887 209.545 27.5898 222.005C27.5898 224.774 27.6887 227.642 26.9965 230.312C24.9198 239.607 25.4143 248.903 25.9087 258.199C26.6009 270.856 26.0076 283.415 27.4909 296.37C20.1731 302.105 12.9543 307.841 5.63647 313.379C3.06536 315.257 1.58203 317.334 1.58203 320.696C1.77981 334.64 1.77981 348.583 1.8787 362.526C1.8787 366.284 3.6587 368.361 7.51537 368.657C25.4143 369.745 43.2143 370.833 61.0143 372.02C84.1543 373.503 107.195 374.887 130.335 376.371C156.541 378.052 182.746 379.832 208.952 381.513C212.512 381.711 215.775 380.92 218.841 379.041C232.586 370.734 246.431 362.427 260.275 354.319C263.638 352.341 264.923 349.77 264.923 345.913C265.022 333.75 265.319 321.586 265.615 309.522C265.615 307.05 265.022 304.775 262.945 303.094ZM35.402 240.596C36.5887 232.29 37.6765 224.082 37.4787 215.676C37.182 204.799 38.4676 194.119 40.0498 183.439C42.2254 168.605 41.4343 153.673 41.1376 138.741C41.0387 133.302 40.9398 127.863 41.0387 122.523C41.0387 121.139 41.1376 119.754 41.2365 118.37C41.3354 117.579 41.4343 116.787 41.4343 115.897C41.4343 115.502 41.7309 115.205 42.0276 114.909C42.4231 114.414 42.9176 113.92 43.3132 113.425C43.412 113.326 43.5109 113.227 43.7087 113.129C43.8076 113.129 44.0054 113.129 44.1043 113.227C45.8843 114.019 47.6643 114.81 49.3454 115.799C49.5431 115.897 49.7409 115.996 49.8398 116.194C49.9387 116.392 49.9387 116.59 49.8398 116.787C49.4443 119.161 47.1698 120.842 45.7854 122.82C45.5876 123.017 45.3898 123.314 45.4887 123.71C45.4887 123.907 45.6865 124.105 45.7854 124.303C46.4776 125.094 47.1698 125.984 47.862 126.775C48.5543 127.566 49.3454 128.357 50.0376 129.149C50.4332 129.544 50.532 130.236 50.532 130.83C50.6309 131.423 50.4331 132.016 50.1365 132.61C49.3454 134.686 48.2576 136.664 47.5654 138.741C47.4665 138.939 47.4665 139.235 47.3676 139.532C47.3676 139.829 47.4665 140.125 47.4665 140.422C47.6643 141.213 47.862 141.905 48.1587 142.597C48.2576 142.894 48.3565 143.092 48.3565 143.389C48.3565 143.586 48.2576 143.784 48.2576 144.081C48.0598 144.971 47.7632 145.861 47.5654 146.751C47.5654 146.652 47.7631 146.454 47.862 146.355C47.9609 146.157 48.1587 145.96 48.2576 145.663C48.4554 145.366 48.752 145.07 48.8509 144.773C48.9498 144.575 48.9498 144.377 48.9498 144.18C49.0487 143.784 49.1476 143.389 49.2465 142.993C49.3454 142.696 49.3454 142.4 49.3454 142.202C49.2465 141.905 49.1476 141.707 49.1476 141.411C48.9498 140.817 48.9498 140.125 49.1476 139.532C49.4443 138.345 50.1365 137.257 50.8287 136.17C50.8287 136.269 51.5209 136.565 51.6198 136.565C51.8176 136.664 51.9165 136.664 52.0154 136.862C52.1143 137.06 52.312 137.257 52.4109 137.554C52.7076 137.95 52.9054 138.444 53.202 138.939C53.6965 139.829 54.092 140.817 54.4876 141.707C54.5865 141.905 54.5865 142.103 54.6854 142.202C55.0809 143.389 55.4765 144.674 55.1798 145.96C54.7843 147.937 53.202 149.52 52.8065 151.497C52.5098 152.684 52.7076 153.97 53.3009 155.057C53.202 154.069 53.1032 153.08 53.4987 152.19C53.6965 151.695 53.8943 151.3 54.1909 150.904C54.982 149.421 55.6743 147.839 56.3665 146.355C56.4654 145.96 56.6631 145.663 56.762 145.267C56.8609 144.872 56.762 144.476 56.762 144.18C56.6631 143.389 56.5643 142.499 56.5643 141.707C56.5643 141.411 56.4654 141.114 56.3665 140.817C56.2676 140.62 56.0698 140.323 55.9709 140.125C55.4765 139.532 55.0809 138.939 54.6854 138.246C54.2898 137.653 53.9931 137.06 53.7954 136.367C53.4987 135.477 53.4987 134.39 53.4987 133.401C53.4987 132.906 53.4987 132.412 53.3998 131.917C53.3009 131.522 53.3009 131.126 53.1031 130.83C53.0043 130.632 52.9054 130.236 52.8065 130.039C52.6087 129.445 52.4109 128.753 52.2132 128.16C52.1143 127.863 52.0154 127.665 51.9165 127.369C51.5209 126.577 50.7298 125.984 50.1365 125.391C49.5431 124.797 49.8398 123.809 50.2354 123.215C50.532 122.82 50.8287 122.424 51.1254 122.029C51.8176 121.237 52.5098 120.347 53.1031 119.457C53.3998 119.062 53.6965 118.666 53.9932 118.271C54.2898 117.776 54.5865 117.282 54.7843 116.787C54.8831 116.194 54.8831 115.601 54.5865 115.205C54.2898 114.81 53.8943 114.612 53.5976 114.216C53.0043 113.623 52.8065 112.832 52.5098 112.14C52.2132 111.25 51.7187 110.459 51.2243 109.766C50.9276 109.371 50.6309 109.074 50.3343 108.679C50.0376 108.382 49.7409 108.085 49.4443 107.789C49.2465 107.591 49.1476 107.393 49.1476 107.096C49.0487 106.701 48.8509 106.404 48.752 106.009C48.3565 105.119 47.9609 104.13 47.6643 103.141C46.972 101.262 46.3787 99.2841 45.7854 97.3063C45.192 95.3285 44.5987 93.3507 43.9065 91.373C43.5109 90.2852 43.1154 89.2963 42.7198 88.2085C43.412 78.913 45.192 70.013 51.3231 62.4974C52.7076 60.7174 53.5976 58.443 54.2898 56.3663C57.0587 47.2685 63.1898 40.7419 70.2109 34.9074C74.562 31.2485 78.5176 26.8974 83.5609 24.4252C83.6598 24.3263 84.0554 24.623 84.1543 24.623C84.352 24.7219 84.5498 24.8207 84.7476 24.9196C85.1432 25.2163 85.4398 25.513 85.6376 25.9085C86.0332 26.403 86.132 27.0952 86.4287 27.5896C86.6265 28.0841 86.8243 28.6774 87.022 29.1719C87.4176 30.2596 87.8132 31.2485 88.1098 32.3363C88.2087 32.5341 88.2087 32.633 88.3076 32.7319C88.3076 32.8307 88.4065 32.9296 88.4065 32.9296C88.4065 32.9296 88.6043 33.0285 88.7031 33.0285C89.0987 33.1274 89.4943 33.3252 89.8898 33.4241C89.9887 33.4241 89.4943 36.0941 89.4943 36.2919C89.4943 36.4896 89.4943 36.5885 89.4943 36.7863C89.4943 37.1819 89.3954 37.6763 89.3954 38.0719C89.2965 38.9619 89.2965 39.8519 89.1976 40.7419C89.1976 41.0385 89.0987 41.4341 89.1976 41.7307C89.2965 42.0274 89.3954 42.2252 89.4943 42.5219C90.2854 44.1041 91.1754 45.6863 92.0654 47.2685C91.9665 47.0708 91.9665 46.6752 91.8676 46.4774C91.7687 46.1807 91.7687 45.983 91.6698 45.6863C91.5709 45.1919 91.472 44.5985 91.3731 44.1041C91.2743 43.4119 91.1754 42.7196 91.0765 41.9285C91.0765 41.6319 90.9776 41.4341 90.9776 41.1374C90.9776 40.9396 90.8787 40.8407 90.9776 40.643C91.0765 40.3463 91.1754 40.0496 91.3731 39.8519C91.472 39.5552 91.6698 39.2585 91.7687 38.9619C91.7687 38.9619 92.362 39.0607 92.4609 39.1596C92.6587 39.2585 92.8565 39.3574 93.0543 39.3574C93.6476 39.4563 94.142 39.6541 94.6365 39.9508C94.8343 40.0496 95.032 40.1485 95.2298 40.3463C95.3287 40.5441 95.4276 40.7419 95.5265 40.9396C96.0209 42.2252 96.5154 43.6096 97.1087 44.8952C97.2076 45.093 97.3065 45.3896 97.5043 45.5874C97.702 45.7852 97.8998 45.8841 98.0976 45.983C99.3831 46.7741 100.768 47.5652 102.053 48.3563C101.46 47.3674 100.57 46.5763 99.7787 45.5874C98.592 44.1041 97.8009 42.3241 97.5043 40.4452C97.4054 40.0496 97.4054 39.6541 97.4054 39.2585C96.4165 38.5663 95.4276 37.973 94.4387 37.2807C94.0432 36.9841 93.5487 36.7863 93.252 36.4896C93.1532 36.3908 93.0543 36.193 93.0543 35.9952C92.9554 35.6985 92.8565 35.5007 92.7576 35.2041C92.362 34.1163 92.0654 33.0285 91.6698 32.0396C91.5709 31.743 91.472 31.3474 91.1754 31.2485C91.0765 31.1496 90.8787 31.1496 90.6809 31.0508C90.3843 30.853 90.2854 30.4574 90.1865 30.1607C90.0876 29.7652 89.9887 29.2707 89.8898 28.8752C89.7909 28.5785 89.692 28.183 89.692 27.7874C89.692 27.6885 89.692 27.4907 89.692 27.3919C89.5931 26.6996 89.3954 26.0074 89.3954 25.3152C89.2965 23.5352 89.692 21.7552 90.6809 20.173C120.842 15.723 151.3 12.0641 177.802 35.303V35.5996C177.802 35.7974 177.802 35.8963 177.802 36.0941C177.802 36.3908 177.802 36.7863 177.802 37.083C177.802 37.7752 177.802 38.5663 177.802 39.2585C177.802 40.643 177.802 42.0274 177.802 43.4119C177.802 43.6096 177.802 43.8074 177.802 44.0052C177.802 45.6863 177.802 47.4663 177.802 49.1474C177.802 49.543 177.802 50.0374 177.604 50.433C177.505 50.5319 177.505 50.6307 177.406 50.8285C177.308 51.1252 177.209 51.4219 177.011 51.6196C176.714 52.1141 176.418 52.6085 176.022 53.2019C175.626 53.7952 175.231 54.4874 175.033 55.1796C175.033 55.0808 175.231 54.9819 175.33 54.883C175.429 54.7841 175.528 54.6852 175.626 54.5863C175.824 54.3885 176.121 54.1907 176.319 54.0919C176.813 53.7952 177.209 53.3996 177.604 53.0041C177.802 52.8063 177.901 52.6085 178.099 52.3119C178.296 52.0152 178.494 51.5208 178.692 51.2241C178.989 50.9274 179.186 50.433 179.285 49.9385C179.384 49.7407 179.483 49.6419 179.483 49.4441C179.582 49.2463 179.582 49.0485 179.681 48.7519C179.78 48.2574 179.879 47.8619 179.978 47.3674C180.373 45.3896 180.472 43.4119 180.769 41.4341C180.868 40.643 181.065 39.9507 181.263 39.1596C189.471 45.5874 197.975 51.2241 199.162 62.4974C200.151 71.9907 201.832 81.2863 204.502 90.483C205.293 93.153 205.985 95.9219 205.985 98.6908C205.985 117.183 206.875 135.576 203.909 153.97C202.327 163.76 202.425 173.945 202.326 183.933C202.326 194.613 201.733 205.293 200.744 215.874C199.755 226.257 199.755 236.542 202.326 246.629C203.711 251.969 202.821 257.309 202.228 262.747C201.041 273.329 200.546 284.009 199.854 294.689C199.656 297.26 199.755 299.93 198.668 302.699C144.872 299.732 91.1754 296.765 37.182 293.7C37.182 293.7 36.9843 292.019 36.9843 291.92C36.8854 291.227 36.7865 290.535 36.6876 289.843C36.4898 288.459 36.3909 287.173 36.292 285.789C36.1931 284.404 36.292 283.119 36.3909 281.833C36.3909 281.635 36.3909 281.536 36.3909 281.339C36.3909 280.844 36.4898 280.251 36.5887 279.855C36.6876 279.361 36.7865 278.767 36.8854 278.273C37.182 277.086 37.4787 275.9 37.9731 274.713C38.072 274.515 38.072 274.416 38.1709 274.219C38.2698 274.12 38.4676 274.021 38.6654 273.922C41.2365 272.933 43.7087 271.944 46.2798 270.955C46.5765 270.856 46.6754 270.461 46.8731 270.164C47.0709 269.867 47.2687 269.571 47.5654 269.274C47.7632 269.076 48.0598 268.879 48.2576 268.681C48.6532 268.285 48.8509 267.791 49.0487 267.296C49.4443 266.505 49.8398 265.615 50.1365 264.824C50.3343 264.429 50.532 264.033 50.6309 263.736C50.6309 263.637 50.6309 263.539 50.7298 263.44C51.0265 262.945 51.7187 262.55 52.1143 262.253C53.0043 261.561 53.7954 260.77 54.3887 259.88C53.5976 260.275 53.0043 260.77 52.2132 261.264C51.9165 261.462 51.5209 261.66 51.1254 261.759C51.0265 261.759 50.9276 261.759 50.7298 261.857C50.6309 261.857 50.6309 261.956 50.6309 261.956C50.4331 262.154 50.2354 262.451 50.0376 262.747C49.642 263.341 49.2465 263.934 48.8509 264.527C48.3565 265.22 47.862 265.912 47.3676 266.703C46.8731 267.494 46.5765 268.285 45.7854 268.681C45.5876 268.78 45.2909 268.879 44.9943 268.977C42.522 269.769 39.9509 270.659 37.4787 271.45C36.9843 271.647 36.4898 271.746 35.9954 272.142C35.9954 271.845 35.9954 271.45 35.9954 271.153C36.0943 270.659 35.9954 270.164 36.0943 269.769C36.0943 269.076 36.0943 268.483 36.0943 267.791C36.0943 266.406 35.9954 265.121 35.9954 263.736C35.8965 261.066 35.6987 258.396 35.5998 255.825C34.8087 250.881 34.6109 245.738 35.402 240.596ZM33.2265 304.676C34.6109 303.589 36.3909 303.885 37.9731 303.984C69.7165 305.764 101.46 307.445 133.203 309.225C153.97 310.412 174.736 311.599 195.602 312.686C196.591 312.785 197.58 312.983 198.668 313.082C200.645 317.037 202.228 321.092 203.414 326.036C142.795 322.081 82.6709 318.224 21.4587 314.269C25.5131 310.214 29.4687 307.544 33.2265 304.676ZM206.48 370.932C202.03 371.624 197.679 371.031 193.624 370.536C193.426 370.536 193.229 370.339 193.13 370.24C192.932 370.141 192.833 370.042 192.635 369.844C192.339 369.646 192.042 369.35 191.745 369.053C191.152 368.46 190.756 367.669 190.163 367.075C189.965 366.877 189.669 366.68 189.57 366.482C189.372 366.086 189.273 365.691 189.174 365.295C189.174 365.196 189.174 365.097 189.075 364.9C188.977 364.801 188.878 364.702 188.878 364.504C188.383 363.911 187.988 363.317 187.691 362.625C187.592 362.427 187.592 362.131 187.592 361.933C187.691 361.34 187.394 360.746 187.196 360.252C187.098 359.757 186.999 359.362 186.9 358.867C186.9 358.769 186.801 358.571 186.702 358.472C186.504 358.175 186.208 357.977 185.911 357.78C185.219 356.989 184.526 356.296 183.834 355.604C183.538 355.307 183.241 355.11 182.944 354.912C183.142 355.011 183.241 355.307 183.439 355.505C183.538 355.703 183.735 355.901 183.933 356.099C184.23 356.494 184.526 356.89 184.724 357.483C184.724 357.681 184.922 357.977 185.021 358.175C185.318 358.769 185.515 359.263 185.614 359.856C185.812 360.647 185.911 361.439 185.911 362.23C186.01 362.922 186.01 363.713 186.109 364.405C186.109 364.405 186.603 364.603 186.702 364.603C186.801 364.702 186.801 364.9 186.801 365.097C186.999 365.592 187.295 366.086 187.592 366.581C187.691 366.779 187.79 366.976 187.889 367.174C187.889 367.273 187.889 367.471 187.889 367.669C187.889 368.064 187.889 368.46 187.889 368.855C187.889 369.053 187.889 369.35 187.79 369.547C187.592 369.844 187.196 370.042 187.295 370.437C186.9 370.437 186.306 370.536 185.911 370.437C185.812 370.437 185.713 370.437 185.614 370.339C184.922 370.24 184.329 370.24 183.637 370.24C182.351 370.141 181.065 370.042 179.78 370.042C168.605 369.35 157.431 368.559 146.256 367.866C135.082 367.174 123.908 366.383 112.733 365.691C101.559 364.999 90.3843 364.207 79.2098 363.515C68.0354 362.823 56.8609 362.032 45.6865 361.34C40.0498 360.944 34.512 360.647 28.8754 360.252C26.1065 360.054 23.2387 359.856 20.4698 359.757C19.0854 359.659 17.7009 359.56 16.3165 359.461C16.0198 359.461 12.262 359.263 12.262 359.164C12.262 356.099 12.262 353.132 12.262 349.671L12.3609 349.572C12.4598 349.473 12.4598 349.473 12.5587 349.374C12.6576 349.176 12.7565 349.077 12.8554 348.88C13.152 348.484 13.3498 348.187 13.6465 347.792C13.9431 347.396 14.3387 347.001 14.6354 346.605C14.7343 346.407 14.8331 346.309 14.932 346.111C15.1298 345.913 15.4265 345.715 15.6243 345.616C15.9209 345.419 16.2176 345.32 16.5143 345.122C17.1076 344.825 17.7009 344.529 18.3931 344.331C18.8876 344.133 19.382 344.034 19.8765 344.133C20.272 344.232 20.6676 344.43 20.9643 344.726C22.052 345.517 23.2387 346.309 24.5243 346.605C24.8209 346.704 24.9198 346.407 25.1176 346.309C25.612 345.814 26.2054 345.419 26.6998 345.122C26.7987 345.023 26.9965 344.924 27.0954 344.924C27.392 344.726 27.6887 344.627 27.9854 344.43C29.172 343.935 30.4576 343.836 31.7432 343.737C30.8532 343.441 29.8643 343.243 28.7765 343.144C28.1832 343.144 27.5898 343.144 27.0954 343.441C26.9965 343.54 26.8976 343.639 26.8976 343.639C26.7987 343.737 26.6009 343.836 26.502 343.935C26.2054 344.133 25.9087 344.331 25.612 344.529C25.5131 344.529 25.5131 344.627 25.4143 344.627C25.2165 344.726 25.0187 344.825 24.9198 345.023C24.8209 345.122 24.5243 345.32 24.3265 345.32C24.2276 345.32 24.0298 345.221 23.832 345.122C23.7332 345.023 23.5354 345.023 23.4365 344.924C23.1398 344.726 22.8431 344.529 22.6454 344.43C21.8542 343.836 21.0631 343.045 20.272 342.353C20.1731 342.254 20.0743 342.254 19.9754 342.155C19.8765 342.155 19.6787 342.155 19.5798 342.155C19.2831 342.254 18.9865 342.254 18.6898 342.353C18.492 342.353 18.3931 342.452 18.1954 342.452C18.0965 342.452 17.9976 342.452 17.8987 342.452C17.602 342.452 17.3054 342.551 17.0087 342.551C16.6131 342.65 16.1187 342.749 15.7231 342.847C14.4376 343.144 13.2509 343.441 11.9654 343.836C11.9654 337.507 11.9654 331.179 11.9654 323.96C76.8365 328.113 141.51 332.365 206.48 336.519C206.48 347.891 206.48 359.263 206.48 370.932ZM208.754 301.611C209.249 295.579 209.446 290.239 210.04 284.899C210.93 276.295 210.534 267.494 212.413 258.99C213.204 255.331 212.908 251.375 212.018 247.716C208.952 235.85 209.051 223.983 210.534 212.017C212.116 198.964 211.721 185.812 211.919 172.66C212.116 159.507 214.094 146.553 214.786 133.401C215.479 119.655 216.665 105.811 214.292 92.263C212.413 81.4841 209.348 70.903 208.062 59.9263C207.073 51.8174 203.019 45.093 196.69 39.8519C194.316 37.8741 192.141 35.7974 189.768 33.7207C189.174 33.2263 188.68 32.7319 188.087 32.1385C187.988 32.0396 187.889 32.0396 187.889 31.9408C187.691 31.743 187.691 31.5452 187.592 31.2485C188.185 30.9519 188.878 30.7541 189.471 30.4574C189.965 30.2596 190.46 30.0619 190.954 30.1607C191.152 30.1607 191.251 30.2596 191.449 30.3585C192.24 30.7541 193.13 31.0508 193.921 31.4463C194.218 31.5452 194.613 31.743 194.91 31.743C195.305 31.743 195.602 31.5452 195.899 31.5452C196.195 31.4463 196.591 31.5452 196.888 31.3474C197.481 30.9519 198.173 30.6552 198.964 30.3585C199.36 30.2596 199.755 30.1608 200.151 29.963C200.25 29.963 200.349 29.8641 200.448 29.8641C200.843 29.8641 201.239 29.963 201.634 29.963C202.425 30.0619 203.315 30.1607 204.106 30.2596C204.106 30.2596 203.909 30.0619 203.81 29.963C203.711 29.8641 203.612 29.8641 203.414 29.7652C203.118 29.6663 202.821 29.6663 202.524 29.5674C202.425 29.5674 202.228 29.4685 202.129 29.4685C202.03 29.3696 201.931 29.2707 201.733 29.2707C201.338 29.073 200.843 29.073 200.448 28.9741C199.755 28.8752 199.063 28.9741 198.47 29.073C197.679 29.1719 196.888 29.4685 195.998 29.5674C195.602 29.6663 195.206 29.6663 194.811 29.6663C194.613 29.6663 194.415 29.7652 194.218 29.7652C194.02 29.7652 193.723 29.7652 193.525 29.6663C193.13 29.4685 192.833 29.2708 192.536 28.9741C192.24 28.6774 191.943 28.4796 191.745 28.183C191.646 28.0841 191.449 27.9852 191.35 27.8863C191.251 27.7874 191.053 27.7874 190.855 27.8863C190.658 27.8863 190.46 27.8863 190.262 27.8863C189.174 27.8863 187.988 27.9852 186.9 27.9852C186.306 27.9852 185.812 27.9852 185.219 28.0841C184.922 28.0841 184.724 28.0841 184.428 28.0841C184.329 28.0841 184.131 28.0841 183.933 28.0841C183.735 28.0841 183.636 27.8863 183.439 27.8863C182.45 27.0952 181.461 26.3041 180.472 25.513C178.494 23.9308 176.418 22.4474 174.341 21.063C170.188 18.1952 165.836 15.5252 161.189 13.3496C159.112 13.1519 157.431 12.163 155.058 10.6796C157.629 11.0752 159.409 11.3719 161.189 11.6685C167.32 11.5696 173.055 13.5474 178.89 15.3274C183.439 16.7119 187.988 18.1952 192.734 18.5908C199.953 19.0852 205.59 22.9419 211.227 26.7985C215.676 29.8641 217.16 34.9074 218.544 39.6541C219.533 43.313 216.072 44.8952 213.896 46.9719V47.3674C213.896 47.5652 213.995 47.763 213.995 47.9608C214.094 48.3563 214.292 48.653 214.391 49.0485C214.786 49.8396 215.182 50.5319 215.479 51.323C215.676 51.7185 215.775 52.1141 215.874 52.5096C215.973 52.9052 216.072 53.3996 215.973 53.7952C215.973 53.993 215.676 54.1908 215.578 54.2896C214.984 55.0807 214.292 55.8719 213.699 56.5641C215.281 60.223 216.27 64.0796 216.566 68.0352C216.566 68.6285 216.665 69.2219 216.863 69.7163C217.061 70.1119 217.456 70.5074 217.753 70.8041C218.742 71.6941 219.929 72.5841 221.115 73.1774C220.918 73.0785 220.72 72.7819 220.621 72.5841C220.423 72.3863 220.225 72.1885 220.126 71.9908C219.731 71.5952 219.434 71.1996 219.138 70.7052C218.94 70.4085 218.544 70.1119 218.544 69.7163C218.544 69.3207 218.445 68.9252 218.346 68.4307C218.248 67.9363 218.149 67.5407 218.05 67.1452C217.951 65.7607 217.654 64.4752 217.358 63.1896C217.358 62.893 217.259 62.6952 217.16 62.3985C217.061 61.9041 217.16 61.3107 217.061 60.8163C216.962 59.7285 216.764 58.6408 216.566 57.6519C216.468 57.4541 216.468 57.1574 216.369 56.9596C216.764 56.2674 217.259 55.6741 217.852 55.1796C218.149 54.883 218.346 54.5863 218.643 54.3885C218.94 54.1908 219.236 53.8941 219.533 53.6963C219.236 53.4985 219.236 53.3996 219.236 53.103C219.138 52.7074 219.039 52.213 218.94 51.8174C218.841 51.4219 218.742 51.0263 218.643 50.6307C218.643 50.433 218.544 50.2352 218.544 50.0374C218.544 49.9385 218.346 49.543 218.445 49.4441C219.533 47.2685 221.906 46.873 223.093 45.4885C230.411 45.983 234.465 49.8396 236.542 56.4652C239.212 64.8707 239.904 73.7708 242.376 82.1763C246.629 97.2074 243.959 112.041 242.871 126.973C242.278 135.576 243.168 144.377 241.486 152.882C240.794 156.145 240.003 159.211 237.432 161.09C236.542 164.749 237.333 168.111 237.135 171.473C236.74 172.462 235.85 173.253 235.059 173.945C234.367 174.637 233.575 175.231 232.784 175.824C232.784 175.824 232.784 175.824 232.685 175.923C231.993 176.417 231.202 176.912 230.609 177.505C230.312 177.802 230.015 178.099 229.719 178.395C229.422 178.692 229.027 178.89 228.631 179.186C227.939 179.582 227.246 180.076 226.554 180.571C226.356 180.769 226.06 180.867 225.961 181.164C225.862 181.263 225.763 181.362 225.565 181.56C225.466 181.659 225.269 181.856 225.17 181.955C225.071 182.054 224.972 182.153 224.972 182.252C224.972 182.351 225.071 182.351 225.071 182.45C225.565 183.043 225.763 183.933 226.159 184.625C226.258 184.823 226.455 185.021 226.554 185.317C226.653 185.416 226.653 185.515 226.653 185.713C226.851 186.109 226.95 186.504 226.95 186.9C226.95 187.097 226.95 187.295 226.95 187.493C226.851 187.889 227.049 188.284 226.752 188.581C226.356 188.976 225.862 189.372 225.466 189.767C225.269 189.965 225.071 190.163 224.873 190.262C224.478 190.657 223.983 190.954 223.588 191.35C223.489 191.449 223.39 191.449 223.39 191.547C223.291 191.646 223.291 191.844 223.39 192.042C223.686 194.217 223.983 196.492 224.28 198.667C224.28 198.964 224.379 199.36 224.379 199.755C224.28 200.052 224.28 200.349 224.28 200.744C224.28 201.634 224.379 202.524 224.478 203.315C224.576 204.007 224.576 204.799 224.576 205.491C224.576 205.787 224.576 206.084 224.576 206.381C224.675 206.776 224.972 207.172 225.17 207.567C225.467 207.963 225.862 208.359 226.06 208.853C226.258 209.249 226.06 209.545 226.159 209.941C226.159 210.04 226.258 210.139 226.258 210.336C226.356 210.732 226.258 211.226 226.258 211.622C226.159 212.512 226.06 213.402 225.763 214.292C225.565 214.885 225.269 215.577 225.368 216.171C225.368 216.566 225.565 216.863 225.763 217.16C226.258 218.247 226.851 219.335 227.444 220.423C227.049 216.764 227.345 213.006 228.235 209.446C228.235 209.249 228.334 209.051 228.334 208.853C228.334 208.655 228.136 208.457 227.939 208.26C227.642 207.864 227.345 207.469 227.049 207.073C226.95 206.875 226.851 206.579 226.653 206.381C226.554 206.183 226.554 205.886 226.356 205.787C226.356 201.832 226.356 197.876 226.356 194.119C227.741 191.547 231.202 191.053 232.092 188.482C232.092 186.207 230.015 185.614 229.323 183.636C232.982 180.966 236.74 178.197 240.893 175.132C240.992 173.154 241.19 170.781 241.289 168.309C242.673 168.605 242.871 169.693 242.97 170.583C243.662 183.933 246.925 197.283 244.058 210.732C243.069 215.577 241.388 220.225 240.794 225.071C239.212 238.717 241.289 252.265 240.992 265.813C240.794 272.636 241.684 279.559 239.41 286.679C229.521 291.821 219.533 296.567 208.754 301.611ZM209.446 312.291C220.423 307.149 231.301 302.006 242.278 296.765C245.936 299.04 248.211 302.501 250.881 305.467C249.398 307.149 247.519 307.643 245.64 308.533C245.442 308.434 245.244 308.335 245.046 308.236C244.849 308.137 244.552 307.94 244.354 307.841C244.156 307.742 243.959 307.544 243.662 307.544C243.365 307.445 242.97 307.247 242.772 307.05C242.673 306.951 242.673 306.852 242.673 306.654C242.574 306.259 242.475 305.962 242.475 305.566C242.377 305.072 242.278 304.676 242.08 304.182C241.981 303.786 241.783 303.292 241.684 302.896C241.289 302.6 240.794 302.402 240.3 302.303C240.102 302.204 239.805 302.204 239.608 302.105C239.608 302.105 239.706 302.204 239.805 302.204C239.904 302.303 240.003 302.402 240.102 302.501C240.102 302.501 240.201 302.6 240.3 302.6C240.399 302.6 240.399 302.6 240.498 302.699C240.695 302.699 240.794 302.797 240.893 302.896C241.091 303.094 241.19 303.292 241.289 303.49C241.289 303.786 241.388 304.083 241.388 304.479C241.388 305.171 241.486 305.962 241.388 306.654C241.388 307.05 241.388 307.346 241.289 307.742C241.289 307.841 241.289 307.94 241.289 308.137C241.289 308.335 241.486 308.335 241.684 308.434C241.981 308.533 242.179 308.83 242.278 309.027C242.376 309.225 242.475 309.423 242.376 309.621C242.376 309.819 242.278 310.016 242.179 310.115C241.981 310.511 241.684 310.709 241.289 310.906C240.399 311.302 239.509 311.796 238.718 312.291C230.806 316.444 222.895 320.696 214.589 325.047C212.314 320.993 210.93 316.939 209.446 312.291ZM254.738 346.21C242.278 353.626 229.818 361.043 216.863 368.657C216.863 356.989 216.863 346.309 216.863 335.134C226.95 329.794 236.938 324.553 247.024 319.312C247.321 319.707 247.519 320.202 247.618 320.696C247.716 320.993 247.618 321.389 247.618 321.685C247.618 321.883 247.519 321.982 247.42 322.18C247.42 322.279 247.321 322.377 247.222 322.575C247.123 322.674 246.925 322.872 246.826 322.971C246.629 323.07 246.53 323.267 246.332 323.465C246.134 323.663 245.936 323.96 245.838 324.157C245.739 324.256 245.64 324.355 245.64 324.553C245.541 324.652 245.442 324.85 245.442 325.047C245.145 325.542 244.849 326.135 244.453 326.63C244.255 326.827 244.058 327.124 244.058 327.421C244.058 327.52 244.058 327.619 244.156 327.717C244.156 327.816 244.156 328.014 244.156 328.113C244.156 328.509 244.156 329.003 244.156 329.399C244.156 329.695 244.156 329.992 244.156 330.289C244.156 330.783 244.156 331.179 244.156 331.574C244.156 332.266 244.255 332.86 244.255 333.552C244.255 334.046 244.156 334.739 243.86 335.134C243.761 335.233 243.662 335.332 243.563 335.431C243.563 335.431 243.464 335.53 243.464 335.629C243.464 335.727 243.365 335.727 243.266 335.826C242.574 336.617 241.684 337.211 240.794 337.804C241.388 337.705 241.981 337.606 242.475 337.31C242.871 337.112 243.266 336.815 243.761 336.617C243.86 336.617 243.959 336.42 244.156 336.42C244.156 336.42 244.156 336.42 244.255 336.42C244.453 336.123 244.552 335.826 244.75 335.431C244.849 335.332 244.849 335.134 244.948 334.936C245.047 334.739 245.046 334.64 245.145 334.442C245.145 334.343 245.244 334.244 245.244 334.145C245.343 333.75 245.442 333.354 245.64 332.959C245.739 332.761 245.739 332.563 245.838 332.365C245.838 332.266 245.937 332.167 245.937 331.97C245.937 331.772 245.936 331.574 246.035 331.475C246.035 331.277 246.134 331.08 246.332 330.981C246.431 330.981 246.431 330.981 246.53 330.981C246.728 330.981 247.024 330.981 247.222 331.08C247.321 331.08 247.42 331.179 247.519 331.277C247.716 331.376 247.914 331.574 248.013 331.673C248.31 331.97 248.705 332.167 249.002 332.563C249.101 332.662 249.2 332.761 249.299 332.86C249.497 333.057 249.694 333.255 249.892 333.552C249.991 333.651 249.991 333.75 250.09 333.849C250.09 333.947 250.09 334.046 250.09 334.046C250.09 334.442 250.09 334.739 249.991 335.134C249.991 335.332 249.991 335.53 249.892 335.629C249.892 335.826 249.793 335.925 249.793 336.123C249.793 336.321 249.694 336.617 249.694 336.914C249.595 337.409 249.496 337.903 249.496 338.397C249.398 338.892 249.299 339.386 249.2 339.881C249.2 340.079 249.101 340.276 249.002 340.474C249.002 340.672 248.903 340.969 248.903 341.166C248.804 341.661 248.804 342.056 248.705 342.551C248.705 342.749 248.606 343.045 248.508 343.243C248.508 343.342 248.211 343.836 248.211 343.836C248.508 344.232 248.903 344.627 249.299 345.023C249.398 345.122 249.496 345.122 249.595 345.221C249.694 345.32 249.793 345.32 249.793 345.419C249.793 345.419 249.793 345.419 249.892 345.419C249.991 345.419 250.09 345.517 250.09 345.517C250.288 345.616 250.485 345.814 250.584 345.913C250.584 345.814 250.485 345.715 250.485 345.715C250.386 345.616 250.288 345.517 250.288 345.419C250.189 345.32 250.189 345.221 250.189 345.122C250.09 344.924 249.892 344.726 249.694 344.43C249.595 344.232 249.398 344.034 249.299 343.737C249.2 343.441 249.299 343.243 249.299 342.946C249.497 341.859 249.694 340.771 249.892 339.584C249.991 339.189 249.991 338.793 250.288 338.397C250.485 338.002 250.485 337.409 250.584 337.013C250.584 336.914 250.584 336.815 250.584 336.716C250.584 336.617 250.584 336.519 250.584 336.519C250.584 336.321 250.584 336.222 250.584 336.024C250.584 335.727 250.683 335.431 250.782 335.035C250.98 334.442 251.178 333.75 251.079 333.057C251.079 333.057 251.079 333.057 251.079 332.959L250.881 332.86C250.782 332.86 250.782 332.761 250.683 332.761C250.584 332.662 250.386 332.563 250.189 332.464C249.991 332.365 249.892 332.266 249.793 332.167C249.694 332.069 249.497 331.97 249.398 331.871C249.299 331.673 249.002 331.376 248.903 331.277C248.705 331.08 248.409 330.783 248.211 330.585C247.716 330.19 247.222 329.794 246.826 329.3C246.826 329.003 246.826 328.607 246.826 328.311C246.826 328.113 246.826 328.014 246.826 327.816C246.826 327.52 246.826 327.124 247.024 326.827C247.123 326.63 247.123 326.531 247.222 326.432C247.222 326.333 247.321 326.333 247.321 326.234C247.618 325.74 247.914 325.245 248.31 324.751C249.991 322.773 250.98 320.499 250.782 317.73C251.87 316.939 252.958 316.049 254.837 316.147C255.43 325.839 255.034 335.925 254.738 346.21Z" fill="#847F88" stroke="black" stroke-width="2" stroke-miterlimit="10"/>
<path d="M133.6 156.245C131.227 159.805 131.029 164.65 132.71 168.606C133.205 169.793 133.897 170.88 134.985 171.573C137.16 172.858 139.929 171.671 142.204 170.485C145.17 168.903 148.236 167.024 149.423 163.859C150.313 161.585 149.917 158.915 148.829 156.739C148.236 155.355 147.346 154.168 146.357 153.08C145.665 152.388 145.071 151.498 143.984 151.399C141.511 151.004 138.841 151.795 136.765 153.08C135.479 153.97 134.391 155.058 133.6 156.245Z" fill="#6B00FA" stroke="black" stroke-width="0.5" stroke-miterlimit="10"/>
<path d="M88.6052 156.936C87.8141 158.321 87.2207 159.804 87.1218 161.386C86.9241 164.056 88.2096 166.529 89.3963 168.902C89.594 169.396 89.8907 169.891 90.2863 170.188C90.6818 170.484 91.1763 170.583 91.6707 170.682C96.6152 171.374 101.757 169.396 104.922 165.54C105.515 164.749 106.01 163.958 106.306 163.068C106.702 161.683 106.702 160.299 106.603 158.914C106.504 156.936 106.306 154.662 104.823 153.278C104.131 152.585 103.241 152.091 102.351 151.695C101.263 151.102 99.9774 150.41 98.7907 150.014C97.9007 149.816 96.8129 150.113 96.0218 150.41C93.9452 151.102 92.1652 152.486 90.6818 154.069C90.2863 154.563 89.8907 154.959 89.4952 155.453C89.2974 155.75 89.0996 155.948 89.0007 156.244C88.9018 156.442 88.8029 156.739 88.6052 156.936Z" fill="#6B00FA" stroke="black" stroke-width="0.5" stroke-miterlimit="10"/>
<path d="M137.653 172.463C136.665 172.364 135.676 172.166 134.687 171.968C134.291 171.375 133.995 170.881 133.698 170.287C133.401 169.694 133.302 169.199 133.006 168.606C132.412 167.419 132.116 166.233 131.918 164.947C131.522 162.079 132.017 159.113 133.5 156.739C134.983 154.366 137.357 152.388 140.027 151.498C141.115 151.103 142.4 150.905 143.587 151.301C144.378 151.498 144.971 151.993 145.565 152.586C145.861 152.883 146.158 153.179 146.356 153.476C146.553 153.773 146.85 154.069 147.048 154.366C146.751 154.366 146.455 154.267 146.158 154.267C145.861 154.267 145.466 154.168 145.169 154.168C139.335 154.168 134.489 158.915 134.489 164.848C134.489 167.815 135.676 170.485 137.653 172.463Z" fill="#272F49"/>
<path d="M90.5828 170.782C90.4839 170.782 90.1872 170.188 90.1872 170.089C90.0884 169.892 89.8906 169.595 89.7917 169.298C89.5939 168.804 89.2972 168.211 89.1984 167.716C89.0006 167.123 89.0006 166.628 88.8028 166.035C88.605 165.343 88.4072 164.651 88.2095 163.958C87.8139 162.574 87.6161 161.189 87.8139 159.706C88.0117 157.333 89.2973 155.058 91.0773 153.377C92.8573 151.696 95.1317 150.608 97.505 150.114C98.2961 149.916 99.0872 149.817 99.9772 150.015C100.966 150.213 101.856 150.806 102.548 151.597C102.944 151.993 103.241 152.388 103.537 152.784C103.636 152.982 103.834 153.179 103.636 153.377C103.537 153.476 103.438 153.476 103.339 153.476C103.043 153.476 102.647 153.377 102.351 153.377C102.054 153.377 101.658 153.278 101.362 153.278C95.5272 153.278 90.6817 158.025 90.6817 163.958C90.6817 166.826 91.7695 169.397 93.6484 171.375C93.4506 171.276 90.5828 170.782 90.5828 170.782Z" fill="#272F49"/>
<path d="M94.9338 173.55C87.4182 173.55 81.2871 167.419 81.2871 159.904C81.2871 152.388 87.4182 146.257 94.9338 146.257C102.449 146.257 108.58 152.388 108.58 159.904C108.58 167.419 102.449 173.55 94.9338 173.55ZM94.9338 150.212C89.5938 150.212 85.2427 154.564 85.2427 159.904C85.2427 165.244 89.5938 169.595 94.9338 169.595C100.274 169.595 104.625 165.244 104.625 159.904C104.625 154.564 100.274 150.212 94.9338 150.212Z" fill="black"/>
<path d="M138.84 174.539C131.324 174.539 125.193 168.408 125.193 160.893C125.193 153.377 131.324 147.246 138.84 147.246C146.356 147.246 152.487 153.377 152.487 160.893C152.487 168.408 146.356 174.539 138.84 174.539ZM138.84 151.202C133.5 151.202 129.149 155.553 129.149 160.893C129.149 166.233 133.5 170.584 138.84 170.584C144.18 170.584 148.531 166.233 148.531 160.893C148.531 155.553 144.18 151.202 138.84 151.202Z" fill="black"/>
<path d="M88.604 168.705C87.2196 166.628 86.5273 164.255 86.5273 161.881C86.5273 154.86 92.164 149.224 99.1851 149.224C99.284 149.224 99.4818 149.224 99.5807 149.224C100.372 150.015 101.163 150.707 101.756 151.498C100.866 151.3 100.075 151.201 99.1851 151.201C93.3507 151.201 88.5051 155.948 88.5051 161.881C88.5051 164.749 89.5929 167.32 91.4718 169.298L88.604 168.705Z" fill="black"/>
<path d="M135.675 170.385C134.687 170.287 133.698 170.089 132.709 169.891C131.324 167.814 130.533 165.342 130.533 162.771C130.533 156.047 135.873 150.509 142.499 150.113L145.07 152.19C144.477 152.091 143.784 151.992 143.092 151.992C137.258 151.992 132.412 156.739 132.412 162.672C132.511 165.738 133.698 168.408 135.675 170.385Z" fill="black"/>
</g>
<defs>
<clipPath id="clip0_2443_130972">
<rect width="267" height="382.7" fill="white"/>
</clipPath>
</defs>
</svg>
