<svg width="30" height="24" viewBox="0 0 30 24" fill="none" xmlns="http://www.w3.org/2000/svg">
<path d="M9.75566 23.2626C20.3694 23.2626 26.1737 14.4695 26.1737 6.84467C26.1737 6.59493 26.1685 6.34622 26.1573 6.09889C27.2839 5.28431 28.2631 4.26781 29.0357 3.11079C28.0018 3.57053 26.889 3.87961 25.722 4.01945C26.9133 3.3048 27.8279 2.17478 28.2593 0.827698C27.1444 1.48868 25.9096 1.9689 24.5952 2.22827C23.5423 1.10668 22.043 0.405273 20.383 0.405273C17.1966 0.405273 14.6123 2.98936 14.6123 6.17474C14.6123 6.62778 14.6631 7.06809 14.762 7.49052C9.96618 7.24921 5.71338 4.95322 2.86768 1.46168C2.37233 2.31427 2.08647 3.30497 2.08647 4.36206C2.08647 6.36377 3.10521 8.13138 4.65422 9.16508C3.70754 9.13601 2.81832 8.87613 2.04089 8.44355C2.04003 8.4678 2.04003 8.49137 2.04003 8.51717C2.04003 11.3118 4.02901 13.6451 6.66968 14.1738C6.18465 14.3057 5.67433 14.3768 5.14802 14.3768C4.77685 14.3768 4.41497 14.3403 4.06341 14.2727C4.79801 16.5654 6.92837 18.2338 9.45397 18.2806C7.47893 19.8285 4.99099 20.7506 2.28702 20.7506C1.82194 20.7506 1.36219 20.724 0.910522 20.6706C3.46434 22.3075 6.49682 23.2628 9.75583 23.2628" fill="#FFF2D1"/>
</svg>
