<svg width="50" height="60" viewBox="0 0 50 60" fill="none" xmlns="http://www.w3.org/2000/svg">
<g clip-path="url(#clip0_4407_40661)">
<g filter="url(#filter0_dd_4407_40661)">
<path d="M39.9998 27.7572C39.9998 26.9561 39.3373 26.3066 38.52 26.3066H30.0447C29.2275 26.3066 28.5649 26.9561 28.5649 27.7572V32.1088C28.5649 32.9099 29.2275 33.5594 30.0447 33.5594H38.52C39.3373 33.5594 39.9998 32.9099 39.9998 32.1088V27.7572ZM32.8046 31.6429C31.8519 31.6429 31.0795 30.8859 31.0795 29.952C31.0795 29.0181 31.8519 28.2611 32.8046 28.2611C33.7573 28.2611 34.5296 29.0181 34.5296 29.952C34.5296 30.8858 33.7573 31.6429 32.8046 31.6429Z" fill="#FFF2D1"/>
<path d="M26.6154 24.3297H37.5782V19.978C37.5782 18.8873 36.7179 18 35.6051 18H12.0627C10.95 18 10 18.8873 10 19.978V40.022C10 41.1127 10.95 42 12.0627 42H35.6051C36.7178 42 37.5782 41.1127 37.5782 40.022V35.5385H26.6354L26.6154 24.3297Z" fill="#FFF2D1"/>
</g>
</g>
<defs>
<filter id="filter0_dd_4407_40661" x="-2" y="2" width="54" height="48" filterUnits="userSpaceOnUse" color-interpolation-filters="sRGB">
<feFlood flood-opacity="0" result="BackgroundImageFix"/>
<feColorMatrix in="SourceAlpha" type="matrix" values="0 0 0 0 0 0 0 0 0 0 0 0 0 0 0 0 0 0 127 0" result="hardAlpha"/>
<feOffset dy="4"/>
<feGaussianBlur stdDeviation="2"/>
<feComposite in2="hardAlpha" operator="out"/>
<feColorMatrix type="matrix" values="0 0 0 0 0 0 0 0 0 0 0 0 0 0 0 0 0 0 0.25 0"/>
<feBlend mode="normal" in2="BackgroundImageFix" result="effect1_dropShadow_4407_40661"/>
<feColorMatrix in="SourceAlpha" type="matrix" values="0 0 0 0 0 0 0 0 0 0 0 0 0 0 0 0 0 0 127 0" result="hardAlpha"/>
<feOffset dy="-4"/>
<feGaussianBlur stdDeviation="6"/>
<feColorMatrix type="matrix" values="0 0 0 0 1 0 0 0 0 0.898039 0 0 0 0 0.670588 0 0 0 0.35 0"/>
<feBlend mode="normal" in2="effect1_dropShadow_4407_40661" result="effect2_dropShadow_4407_40661"/>
<feBlend mode="normal" in="SourceGraphic" in2="effect2_dropShadow_4407_40661" result="shape"/>
</filter>
<clipPath id="clip0_4407_40661">
<rect width="50" height="60" fill="white"/>
</clipPath>
</defs>
</svg>
