<svg width="20" height="20" viewBox="0 0 32 26" fill="none" xmlns="http://www.w3.org/2000/svg">
<path d="M32 10.8733C32 10.09 31.3722 9.45508 30.5977 9.45508H22.5664C21.7919 9.45508 21.1641 10.09 21.1641 10.8733V15.1278C21.1641 15.911 21.7919 16.546 22.5664 16.546H30.5977C31.3722 16.546 32 15.911 32 15.1278V10.8733ZM25.1817 14.6723C24.2788 14.6723 23.547 13.9321 23.547 13.0191C23.547 12.106 24.2788 11.3659 25.1817 11.3659C26.0845 11.3659 26.8164 12.106 26.8164 13.0191C26.8164 13.932 26.0845 14.6723 25.1817 14.6723Z" fill="#FFF2D1"/>
<path d="M17.8883 11.866C17.8834 9.10113 20.1234 6.85714 22.8883 6.85714H29.6763V2.14286C29.6763 0.961286 28.7505 0 27.553 0H2.21964C1.02231 0 0 0.961286 0 2.14286V23.8571C0 25.0387 1.02231 26 2.21964 26H27.553C28.7504 26 29.6763 25.0387 29.6763 23.8571V19H22.8921C20.1342 19 17.897 16.7668 17.8921 14.0089L17.8883 11.866Z" fill="#FFF2D1"/>
</svg>
